<?xml version="1.0" encoding="UTF-8"?>
<!DOCTYPE svg PUBLIC "-//W3C//DTD SVG 1.1//EN" "http://www.w3.org/Graphics/SVG/1.1/DTD/svg11.dtd">
<!-- Creator: CorelDRAW -->
<svg xmlns="http://www.w3.org/2000/svg" xml:space="preserve" width="6.82666in" height="6.82666in" style="shape-rendering:geometricPrecision; text-rendering:geometricPrecision; image-rendering:optimizeQuality; fill-rule:evenodd; clip-rule:evenodd"
viewBox="0 0 6.82666 6.82666"
 xmlns:xlink="http://www.w3.org/1999/xlink">
 <defs>
  <style type="text/css">
   <![CDATA[
    .fil3 {fill:none}
    .fil1 {fill:#A4A4A4}
    .fil4 {fill:#1E1E1E;fill-rule:nonzero}
    .fil2 {fill:#282929;fill-rule:nonzero}
    .fil0 {fill:#BFC0C0;fill-rule:nonzero}
   ]]>
  </style>
 </defs>
 <g id="Layer_x0020_1">
  <metadata id="CorelCorpID_0Corel-Layer"/>
  <g id="_536433776">
   <path id="_536434832" class="fil0" d="M4.82936 1.31267c0.0473189,-0.0347953 0.0563858,-0.0999567 0.0202598,-0.145528 -0.0361299,-0.0455748 -0.103783,-0.0543071 -0.151098,-0.0195118 -0.71102,0.521268 -0.780102,1.12467 -0.780102,1.86756l0.343622 0c0,-0.670685 -0.0759291,-1.2318 0.567319,-1.70252zm-1.86462 -0.332165c-0.0228425,-0.0529803 -0.463098,0.0195276 -0.51811,0.0415315 -0.0359173,0.0143622 0.593646,1.62739 0.593646,1.99316l0.362102 0c0.110079,-0.769972 0.206681,-1.42859 -0.437638,-2.03469zm-0.445547 0.0797008c-0.0372913,-0.0446732 -0.105138,-0.0517717 -0.15152,-0.0158543 -0.0463858,0.0359173 -0.0537559,0.10126 -0.0164646,0.145933 0.488909,0.586717 0.381984,1.13993 0.381984,1.82491l0.417102 -3.93701e-006c0,-0.738803 -0.10428,-1.32184 -0.631102,-1.95499zm-0.391055 0.0874252c-0.047315,-0.0347953 -0.114969,-0.026063 -0.151098,0.0195118 -0.036126,0.0455709 -0.0270591,0.110732 0.0202598,0.145528 0.643248,0.47072 0.567319,1.03184 0.567319,1.70253l0.216106 0c0,-0.74289 0.058437,-1.3463 -0.652587,-1.86757zm1.38229 -0.190228c0,-0.0574724 -0.048378,-0.104067 -0.108051,-0.104067 -0.0596693,0 -0.108051,0.0465945 -0.108051,0.104067l0 2.05779 0.216102 0 0 -2.05779zm0.492461 -0.0329921c-0.0550118,-0.0220039 -0.11813,0.00311417 -0.140976,0.0560945 -0.677524,0.686937 -0.487862,1.28996 -0.351484,2.03469l0.275953 0c0.0226063,-1.24269 1.1255,-1.9264 0.216508,-2.09078zm0.472559 0.265874c0.0372913,-0.0446732 0.0299213,-0.110016 -0.0164646,-0.145933 -0.0463819,-0.0359173 -0.114228,-0.0288189 -0.15152,0.0158543 -0.901094,0.591764 -0.876843,1.18267 -0.57372,1.95499l0.305362 -3.93701e-006c0,-0.684976 -0.052563,-1.23819 0.436343,-1.82491z"/>
   <path id="_536434376" class="fil1" d="M2.8004 2.99393c-0.0333504,-0.0650787 -0.0919685,-0.46885 -0.0904331,-0.538559l0.0192913 -0.156142c0.0344921,0.140709 0.153846,0.591638 0.0711417,0.694701z"/>
   <path id="_536434808" class="fil2" d="M2.49689 2.97412l0.91461 0 0.914614 0c0.0596732,0 0.108051,0.048378 0.108051,0.108051 0,0.0333701 -0.0151339,0.0632047 -0.0389055,0.0830276 -0.0578465,0.0546378 -0.0651772,0.102858 -0.138083,0.102858 -0.0189606,0 -0.0343307,0.015374 -0.0343307,0.0343346 0,0.0189528 0.0153543,0.034315 0.0343031,0.0343307 -0.15889,0.276445 -0.0533976,0.578547 0.0640197,0.914543 0.0875669,0.250591 0.180874,0.517756 0.194587,0.809323 -0.0153937,0.00509843 -0.0264961,0.0196024 -0.0264961,0.0367008 0,0.0177323 0.011937,0.0326693 0.0282126,0.0372244 -0.000204724,0.243307 -0.0591142,0.503567 -0.224413,0.785201l-0.0928504 -0.0544488 0.0931811 0.0546929c-0.0203661,0.0346969 -0.0571063,0.0538307 -0.0946496,0.0533583l-1.57594 0c-0.0435118,0 -0.0810197,-0.0257323 -0.0981378,-0.0628031 -0.161291,-0.278248 -0.218917,-0.535622 -0.219071,-0.776378 0.014937,-0.00647244 0.0253898,-0.0213465 0.0253898,-0.0386575 0,-0.0165984 -0.00959843,-0.0309449 -0.0235433,-0.037811 0.0141772,-0.290429 0.10713,-0.55665 0.194402,-0.806402 0.117661,-0.336701 0.223374,-0.639358 0.063063,-0.916272 0.0136732,-0.00452756 0.0235394,-0.0174134 0.0235394,-0.0326024 0,-0.0189606 -0.015374,-0.0343346 -0.0343346,-0.0343346 -0.0570787,0 -0.0904094,-0.0694213 -0.130654,-0.106961l-0.00026378 8.66142e-005c-0.0436299,-0.0407047 -0.0460039,-0.109079 -0.00530709,-0.152717 0.0212717,-0.0228031 0.0501024,-0.0343268 0.0790118,-0.0343346l0 -1.1811e-005z"/>
   <path id="_536434616" class="fil1" d="M3.27008 1.33435c0.141012,0.0948228 0.172583,0.928012 0.134693,1.13316 -0.0445315,-0.225677 -0.0715866,-0.509618 -0.0893898,-0.74039 -0.00536614,-0.0695669 -0.0457677,-0.346335 -0.0453031,-0.392772z"/>
   <path id="_536434568" class="fil1" d="M4.32489 1.41151c-0.296984,0.571413 -0.29339,0.693815 -0.353047,1.33246 -0.0297126,-0.139012 -0.0279843,-0.108232 -0.0287362,-0.223839 -0.00317717,-0.491319 0.0549134,-0.736898 0.381783,-1.10862z"/>
   <path id="_536433848" class="fil1" d="M2.6119 1.63673c0.168874,0.249197 0.353402,0.69774 0.386783,1.00691l0.00612205 0.188882c0,0 -0.0832165,-0.28952 -0.10672,-0.366685 -0.0609134,-0.199992 -0.277815,-0.689087 -0.286185,-0.82911z"/>
   <path id="_536433608" class="fil3" d="M2.76329 2.98568l0.00569291 -0.0270039c0.0334016,-0.158453 -0.00553543,-0.490122 0.0284724,-0.667697"/>
   <path id="_536433704" class="fil1" d="M3.57305 2.95074c-0.0463425,-0.0659961 -0.0530236,-0.439949 -0.0444646,-0.527547l0.0273819 -0.17285 7.87402e-006 0c0.0259646,0.135815 0.0949528,0.5895 0.0170748,0.700398z"/>
   <path id="_536433512" class="fil3" d="M3.60604 3.00846l0 -0.021315c0,-0.226228 -0.0170787,-0.447472 -0.0170787,-0.679083"/>
   <path id="_536433896" class="fil4" d="M2.53789 3.26752c-0.00207087,0 -0.00410236,0.000185039 -0.0060748,0.000535433l0.0131654 0c0.0189606,0 0.0343307,0.015374 0.0343307,0.0343346 0,0.0168898 -0.0121929,0.0309252 -0.028252,0.0337953l1.69092 0c-0.016063,-0.00287008 -0.0282559,-0.0169055 -0.0282559,-0.0337953 0,-0.0189606 0.015374,-0.0343346 0.0343346,-0.0343346l0.0259882 0c-0.00197638,-0.000350394 -0.00400787,-0.000535433 -0.00607874,-0.000535433l-1.73007 0z"/>
   <path id="_536434064" class="fil4" d="M2.33027 5.08779c0.00114567,0.00341732 0.00175984,0.0070748 0.00175984,0.010878 0,0.0123189 -0.00648425,0.0231181 -0.0162283,0.0291772 -0.00209843,0.00175197 -0.00437795,0.00329921 -0.00679528,0.00462205l2.20285 0c-0.00329528,-0.00150787 -0.00635039,-0.0034685 -0.00907087,-0.00579921 -0.00875197,-0.00622441 -0.0144646,-0.0164449 -0.0144646,-0.028 0,-0.00522047 0.00116535,-0.0101693 0.00325197,-0.0146024 0.00312598,-0.00858661 0.0092126,-0.015752 0.0170276,-0.0202638l-2.192 0c0.00697638,0.00611417 0.0119134,0.0144921 0.0136693,0.0239882zm2.21785 -0.0234528l0.000527559 0 -0.000728346 -0.000122047 0.000200787 0.000122047z"/>
  </g>
  <rect class="fil3" width="6.82666" height="6.82666"/>
 </g>
</svg>
