<?xml version="1.0" encoding="UTF-8"?>
<!DOCTYPE svg PUBLIC "-//W3C//DTD SVG 1.1//EN" "http://www.w3.org/Graphics/SVG/1.1/DTD/svg11.dtd">
<!-- Creator: CorelDRAW -->
<svg xmlns="http://www.w3.org/2000/svg" xml:space="preserve" width="6.82666in" height="6.82666in" style="shape-rendering:geometricPrecision; text-rendering:geometricPrecision; image-rendering:optimizeQuality; fill-rule:evenodd; clip-rule:evenodd"
viewBox="0 0 6.82666 6.82666"
 xmlns:xlink="http://www.w3.org/1999/xlink">
 <defs>
  <style type="text/css">
   <![CDATA[
    .fil4 {fill:none}
    .fil1 {fill:#7F7F7F}
    .fil0 {fill:#7F7F7F;fill-rule:nonzero}
    .fil3 {fill:#868686;fill-rule:nonzero}
    .fil2 {fill:#909090;fill-rule:nonzero}
   ]]>
  </style>
 </defs>
 <g id="Layer_x0020_1">
  <metadata id="CorelCorpID_0Corel-Layer"/>
  <g id="_536435408">
   <g>
    <path id="_536437040" class="fil0" d="M0.962535 4.40534l-0.109205 0.0604724 0.109205 0.0604724 1.525 0c0.060311,0 0.109205,-0.0270748 0.109205,-0.0604724 0,-0.0333976 -0.0488937,-0.0604724 -0.109205,-0.0604724l-1.525 0z"/>
    <path id="_536437184" class="fil0" d="M0.962535 4.17146l-0.109205 0.0604724 0.109205 0.0604724 1.525 0c0.060311,0 0.109205,-0.0270748 0.109205,-0.0604724 0,-0.0333976 -0.0488937,-0.0604724 -0.109205,-0.0604724l-1.525 0z"/>
    <path id="_536436776" class="fil0" d="M0.962535 3.93757l-0.109205 0.0604764 0.109205 0.0604724 1.525 0c0.060311,0 0.109205,-0.0270787 0.109205,-0.0604724 0,-0.0333976 -0.0488937,-0.0604764 -0.109205,-0.0604764l-1.525 0z"/>
    <path id="_536436848" class="fil0" d="M0.962535 3.70369l-0.109205 0.0604724 0.109205 0.0604724 1.525 0c0.060311,0 0.109205,-0.0270748 0.109205,-0.0604724 0,-0.0333976 -0.0488937,-0.0604724 -0.109205,-0.0604724l-1.525 0z"/>
    <path id="_536436080" class="fil0" d="M0.962535 3.4698l-0.109205 0.0604724 0.109205 0.0604724 1.525 0c0.060311,0 0.109205,-0.0270748 0.109205,-0.0604724 0,-0.0333976 -0.0488937,-0.0604724 -0.109205,-0.0604724l-1.525 0z"/>
    <path id="_536435936" class="fil0" d="M0.962535 3.23591l-0.109205 0.0604764 0.109205 0.0604724 1.525 0c0.060311,0 0.109205,-0.0270787 0.109205,-0.0604724 0,-0.0333976 -0.0488937,-0.0604764 -0.109205,-0.0604764l-1.525 0z"/>
    <path id="_536435912" class="fil0" d="M0.962535 3.00203l-0.109205 0.0604724 0.109205 0.0604724 1.525 0c0.060311,0 0.109205,-0.0270748 0.109205,-0.0604724 0,-0.0333976 -0.0488937,-0.0604724 -0.109205,-0.0604724l-1.525 0z"/>
    <path id="_536435960" class="fil0" d="M0.962535 2.76815l-0.109205 0.0604724 0.109205 0.0604724 1.525 0c0.060311,0 0.109205,-0.0270748 0.109205,-0.0604724 0,-0.0333976 -0.0488937,-0.0604724 -0.109205,-0.0604724l-1.525 0z"/>
    <path id="_536435888" class="fil0" d="M0.962535 2.53426l-0.109205 0.0604724 0.109205 0.0604764 1.525 0c0.060311,0 0.109205,-0.0270787 0.109205,-0.0604764 0,-0.0333937 -0.0488937,-0.0604724 -0.109205,-0.0604724l-1.525 0z"/>
    <path id="_536435768" class="fil0" d="M0.962535 2.30037l-0.109205 0.0604724 0.109205 0.0604724 1.525 0c0.060311,0 0.109205,-0.0270748 0.109205,-0.0604724 0,-0.0333976 -0.0488937,-0.0604724 -0.109205,-0.0604724l-1.525 0z"/>
   </g>
   <path id="_536435696" class="fil1" d="M3.42392 3.25293l2.35907 0c0.088563,0 0.16039,0.0718307 0.16039,0.16039 0,0.0885591 -0.0718268,0.16039 -0.16039,0.16039l-2.35907 0c-0.0885591,0 -0.160386,-0.0718307 -0.160386,-0.16039 0,-0.0885591 0.0718268,-0.16039 0.160386,-0.16039z"/>
   <path id="_536435672" class="fil2" d="M2.59127 2.15494c0.254929,0.0981496 0.472547,0.271535 0.625591,0.492965 0.150496,0.217744 0.23865,0.481484 0.23865,0.765417 0,0.283929 -0.0881535,0.547673 -0.23865,0.765417 -0.154618,0.223709 -0.375134,0.398386 -0.633457,0.495976l9.44882e-005 0.000248031c-0.0564213,0.0213071 -0.119433,-0.00715354 -0.140744,-0.0635748 -0.00506693,-0.0134173 -0.00731102,-0.0272126 -0.00704724,-0.0407283l0 -2.31682c0,-0.060311 0.0488976,-0.109209 0.109205,-0.109209 0.0165748,0 0.0322874,0.00369685 0.0463583,0.0103071z"/>
   <path id="_536435168" class="fil3" d="M2.58409 4.67445l-0.000688976 0.00026378 9.44882e-005 0.000248031c-0.0564213,0.0213071 -0.119433,-0.00715354 -0.140744,-0.0635748 -0.00506693,-0.0134173 -0.00731102,-0.0272126 -0.00704724,-0.0407283l0 -2.31682c0,-0.060311 0.0488976,-0.109209 0.109205,-0.109209 0.013811,0 0.0270236,0.00256693 0.0391811,0.00724409l0 2.52257z"/>
   <path id="_536435456" class="fil3" d="M5.97333 3.2152c0,-0.0715157 -0.0488937,-0.129492 -0.109205,-0.129492 -0.060311,0 -0.109205,0.0579764 -0.109205,0.129492l0 0.396228c0,0.0715157 0.0488937,0.129496 0.109205,0.129496 0.060311,0 0.109205,-0.0579803 0.109205,-0.129496l0 -0.396228z"/>
  </g>
  <rect class="fil4" width="6.82666" height="6.82666"/>
 </g>
</svg>
