<?xml version="1.0" encoding="UTF-8"?>
<!DOCTYPE svg PUBLIC "-//W3C//DTD SVG 1.1//EN" "http://www.w3.org/Graphics/SVG/1.1/DTD/svg11.dtd">
<!-- Creator: CorelDRAW -->
<svg xmlns="http://www.w3.org/2000/svg" xml:space="preserve" width="6.82666in" height="6.82666in" style="shape-rendering:geometricPrecision; text-rendering:geometricPrecision; image-rendering:optimizeQuality; fill-rule:evenodd; clip-rule:evenodd"
viewBox="0 0 6.82666 6.82666"
 xmlns:xlink="http://www.w3.org/1999/xlink">
 <defs>
  <style type="text/css">
   <![CDATA[
    .fil11 {fill:none}
    .fil3 {fill:#4C4C4C}
    .fil1 {fill:#727272}
    .fil10 {fill:#BFBFBF}
    .fil0 {fill:#2F2F2F;fill-rule:nonzero}
    .fil6 {fill:#4C4C4C;fill-rule:nonzero}
    .fil5 {fill:#555555;fill-rule:nonzero}
    .fil2 {fill:#5C5C5C;fill-rule:nonzero}
    .fil9 {fill:#676767;fill-rule:nonzero}
    .fil4 {fill:#727272;fill-rule:nonzero}
    .fil8 {fill:#767676;fill-rule:nonzero}
    .fil7 {fill:#7F7F7F;fill-rule:nonzero}
   ]]>
  </style>
 </defs>
 <g id="Layer_x0020_1">
  <metadata id="CorelCorpID_0Corel-Layer"/>
  <path class="fil0" d="M4.12244 1.29874c-0.0578307,0 -0.104717,0.0468858 -0.104717,0.104717 0,0.0578307 0.0468858,0.104717 0.104717,0.104717l0.156563 0c0.0578307,0 0.0161732,-0.0468858 0.0161732,-0.104717 0,-0.0578307 0.0416575,-0.104717 -0.0161732,-0.104717l-0.156563 0z"/>
  <rect class="fil1" x="2.98932" y="2.02082" width="0.605815" height="0.145835"/>
  <path class="fil2" d="M3.74452 1.75672c-0.0544449,-0.018748 -0.141394,0.113236 -0.160142,0.167677 -0.018748,0.0544409 0.010189,0.11378 0.0646299,0.132528 0.208374,0.0719764 0.383638,0.196256 0.519071,0.34048 0.156169,0.166307 0.257929,0.357224 0.295409,0.523524 0.0126496,0.056248 0.0112165,0.172331 0.0674646,0.159681 0.178154,-0.156441 -0.0381102,-0.657563 -0.315689,-0.999004 -0.144559,-0.177815 -0.358693,-0.298669 -0.470744,-0.324886z"/>
  <rect class="fil3" x="2.96071" y="2.61326" width="0.653646" height="0.148437"/>
  <path class="fil4" d="M3.71661 1.09583l0.405831 0c0.0578307,0 0.104717,0.0468858 0.104717,0.104717l0 0.405831c0,0.0578307 -0.0468858,0.104717 -0.104717,0.104717l-0.405831 0c-0.0578307,0 -0.104717,-0.0468858 -0.104717,-0.104717l0 -0.405831c0,-0.0578307 0.0468858,-0.104717 0.104717,-0.104717z"/>
  <path class="fil5" d="M2.87998 2.6699l0 -0.429862c0,-0.0578307 0.0515315,-0.104717 0.115094,-0.104717l0.594315 0c0.063563,0 0.115094,0.0468858 0.115094,0.104717l0 0.429862 -0.824504 0z"/>
  <path class="fil6" d="M2.90291 2.17731c0.00914567,-0.0111024 0.0206535,-0.0204921 0.0338504,-0.027563l0 0.520154 -0.0338504 0 0 -0.492591zm0.0677087 -0.0396102c0.00788189,-0.00155118 0.016063,-0.00237795 0.0244567,-0.00237795l0.0093937 0 0 0.534579 -0.0338504 0 0 -0.532201zm0.0677087 -0.00237795l0.0338504 0 0 0.534579 -0.0338504 0 0 -0.534579zm0.0677087 0l0.0338504 0 0 0.534579 -0.0338504 0 0 -0.534579zm0.0677087 0l0.0338504 0 0 0.534579 -0.0338504 0 0 -0.534579zm0.0677087 0l0.0338504 0 0 0.534579 -0.0338504 0 0 -0.534579zm0.0677087 0l0.0338504 0 0 0.534579 -0.0338504 0 0 -0.534579zm0.0677087 0l0.0338504 0 0 0.534579 -0.0338504 0 0 -0.534579zm0.0677087 0l0.0338504 0 0 0.534579 -0.0338504 0 0 -0.534579zm0.0677087 0l0.0338504 0 0 0.534579 -0.0338504 0 0 -0.534579zm0.0677087 0l0.0093937 0c0.0083937,0 0.0165748,0.000826772 0.0244567,0.00237795l0 0.532201 -0.0338504 0 0 -0.534579zm0.0677087 0.0144252c0.0131969,0.00706693 0.0247087,0.0164606 0.0338504,0.027563l0 0.492591 -0.0338504 0 0 -0.520154z"/>
  <path class="fil7" d="M3.82132 0.958047l0 1.0003c0,0.0578307 -0.0468858,0.104717 -0.104717,0.104717l-0.84874 0c-0.0578307,0 -0.104717,-0.0468858 -0.104717,-0.104717 0,-0.267142 0.113047,-0.553323 0.293378,-0.76585 0.170807,-0.201315 0.402913,-0.339161 0.660079,-0.339161 0.0578307,0 0.104717,0.0468858 0.104717,0.104717z"/>
  <path class="fil8" d="M2.67704 2.76025l0.00216535 0 1.22936 0c0.039874,0 0.0745394,0.0222913 0.0922283,0.0550906l0.409583 0.630705 0.000291339 -0.000173228c0.011563,0.017811 0.0170157,0.0378268 0.0168937,0.0575827l0 2.28939c0,0.0494488 -0.0204409,0.094626 -0.0533583,0.127535 -0.0326693,0.0326575 -0.0776811,0.0529449 -0.127134,0.0529449l-1.90969 0c-0.0497165,0 -0.094878,-0.0202795 -0.127543,-0.0529409l-7.87402e-006 7.87402e-006c-0.00282677,-0.00283071 -0.00545669,-0.0057874 -0.0078937,-0.00884252 -0.0279882,-0.0317756 -0.0450394,-0.0733701 -0.0450394,-0.118705l0 -2.28757 0 -0.0023622c0,-0.0240433 0.00811024,-0.0461929 0.0217362,-0.0638701l0.409728 -0.630925 -0.000283465 -0.000185039c0.0202598,-0.0311969 0.0543228,-0.0480315 0.0889567,-0.047685z"/>
  <path class="fil4" d="M3.67369 1.33819c0,-0.0184094 -0.0149252,-0.0333346 -0.0333346,-0.0333346 -0.0184094,0 -0.0333346,0.0149252 -0.0333346,0.0333346l0 0.549839c0,0.0184094 0.0149252,0.0333346 0.0333346,0.0333346 0.0184094,0 0.0333346,-0.0149252 0.0333346,-0.0333346l0 -0.549839z"/>
  <path class="fil4" d="M3.50311 1.47865c0,-0.0184094 -0.0149252,-0.0333346 -0.0333346,-0.0333346 -0.0184094,0 -0.0333346,0.0149252 -0.0333346,0.0333346l0 0.40937c0,0.0184094 0.0149252,0.0333346 0.0333346,0.0333346 0.0184094,0 0.0333346,-0.0149252 0.0333346,-0.0333346l0 -0.40937z"/>
  <path class="fil4" d="M3.33255 1.61912c0,-0.0184094 -0.0149252,-0.0333346 -0.0333346,-0.0333346 -0.0184094,0 -0.0333346,0.0149252 -0.0333346,0.0333346l0 0.268902c0,0.0184094 0.0149252,0.0333346 0.0333346,0.0333346 0.0184094,0 0.0333346,-0.0149252 0.0333346,-0.0333346l0 -0.268902z"/>
  <g id="_536437256">
   <path id="_536437736" class="fil9" d="M3.94191 1.11031c0,-0.0184094 -0.0149252,-0.0333346 -0.0333346,-0.0333346 -0.0184094,0 -0.0333346,0.0149252 -0.0333346,0.0333346l0 0.586295c0,0.0184094 0.0149252,0.0333346 0.0333346,0.0333346 0.0184094,0 0.0333346,-0.0149252 0.0333346,-0.0333346l0 -0.586295z"/>
   <path id="_536437688" class="fil9" d="M4.05389 1.11031c0,-0.0184094 -0.0149252,-0.0333346 -0.0333346,-0.0333346 -0.0184094,0 -0.0333346,0.0149252 -0.0333346,0.0333346l0 0.586295c0,0.0184094 0.0149252,0.0333346 0.0333346,0.0333346 0.0184094,0 0.0333346,-0.0149252 0.0333346,-0.0333346l0 -0.586295z"/>
   <path id="_536437904" class="fil9" d="M4.16587 1.11031c0,-0.0184094 -0.0149252,-0.0333346 -0.0333346,-0.0333346 -0.0184094,0 -0.0333346,0.0149252 -0.0333346,0.0333346l0 0.586295c0,0.0184094 0.0149252,0.0333346 0.0333346,0.0333346 0.0184094,0 0.0333346,-0.0149252 0.0333346,-0.0333346l0 -0.586295z"/>
  </g>
  <rect class="fil10" x="2.82088" y="3.4996" width="0.942709" height="1.73438"/>
  <rect class="fil11" width="6.82666" height="6.82666"/>
 </g>
</svg>
