<?xml version="1.0" encoding="UTF-8"?>
<!DOCTYPE svg PUBLIC "-//W3C//DTD SVG 1.1//EN" "http://www.w3.org/Graphics/SVG/1.1/DTD/svg11.dtd">
<!-- Creator: CorelDRAW -->
<svg xmlns="http://www.w3.org/2000/svg" xml:space="preserve" width="6.82666in" height="6.82666in" style="shape-rendering:geometricPrecision; text-rendering:geometricPrecision; image-rendering:optimizeQuality; fill-rule:evenodd; clip-rule:evenodd"
viewBox="0 0 6.82666 6.82666"
 xmlns:xlink="http://www.w3.org/1999/xlink">
 <defs>
  <style type="text/css">
   <![CDATA[
    .fil7 {fill:none}
    .fil5 {fill:#272727}
    .fil3 {fill:#2F2F2F;fill-rule:nonzero}
    .fil6 {fill:#444444;fill-rule:nonzero}
    .fil4 {fill:#545454;fill-rule:nonzero}
    .fil2 {fill:#6A6A6A;fill-rule:nonzero}
    .fil1 {fill:#A1A1A1;fill-rule:nonzero}
    .fil0 {fill:#BCBCBC;fill-rule:nonzero}
   ]]>
  </style>
 </defs>
 <g id="Layer_x0020_1">
  <metadata id="CorelCorpID_0Corel-Layer"/>
  <path class="fil0" d="M0.787299 1.21421l0.123406 -0.0684567 -0.000216535 -0.000393701c0.0515118,-0.0285787 0.116445,-0.00998425 0.145024,0.0415315 0.00101575,0.00183071 0.00196063,0.00367323 0.00285827,0.00553543l1.43474 2.53037c0.0126732,-0.00194882 0.0352953,0.102717 -0.0399173,0.145362 -0.0155709,0.00882283 -0.0311693,0.0176102 -0.0467953,0.026374l-1.61909 -2.68032z"/>
  <path class="fil1" d="M0.908079 1.10695l0.128614 -0.0580433 -0.000216535 -0.000393701c0.0515118,-0.0285787 0.111236,-0.0204016 0.139815,0.0311142 0.00101575,0.00183071 0.00196063,0.00367323 0.00285827,0.00553543l1.43474 2.53037c0.0126772,-0.00195276 0.0352992,0.102713 -0.0399173,0.145358 -0.0155709,0.00882283 -0.0663228,0.0540709 -0.0819488,0.0628346l-1.58394 -2.71678z"/>
  <path class="fil2" d="M2.55941 2.08291c-0.0566063,-0.0154173 -0.115,0.0179764 -0.130417,0.0745827 -0.0154173,0.0566063 0.0179764,0.115 0.0745827,0.130417l0.333626 0.0916772 0.698882 0.832898c0.0377402,0.0451024 0.104898,0.0510709 0.15,0.0133307 0.0451024,-0.0377402 0.0510709,-0.104898 0.0133307,-0.15l-0.716083 -0.853394c-0.0137047,-0.0184724 -0.0334567,-0.0326654 -0.0573543,-0.0392323l-0.0282638 0.102854 0.0279173 -0.1025 -0.36622 -0.100634z"/>
  <path class="fil3" d="M2.01685 1.76859l0.443835 -0.00978346c0.0583425,-0.0012874 0.151461,0.0319291 0.15302,0.102925 6.69291e-005,0.00308661 -3.93701e-006,0.00614173 -0.000192913,0.00916535l0.0132835 0.602669 0.000393701 -7.87402e-006c0.00129528,0.0588937 -0.0453976,0.107697 -0.104291,0.108992 -0.00308268,6.69291e-005 -0.00614173,-3.93701e-006 -0.00916535,-0.000192913l-0.0735079 0.00161811 0.297173 1.00833 0.000255906 -7.48031e-005c0.0156732,0.0531929 -0.0120433,0.108874 -0.0624921,0.129106l-0.0853071 0.043811 -1.53255 -2.73098c0.0442598,-0.0227441 0.0885669,-0.0454213 0.132736,-0.0682087 0.039122,-0.0201575 0.126165,-0.0146969 0.153051,0.0220709l0.67376 0.780555z"/>
  <path class="fil4" d="M3.54383 3.04475c0.174882,-0.14313 0.264122,-0.0417008 0.381984,0.0923425 0.017811,0.0202559 0.0363189,0.0413031 0.0374921,0.0425709l1.9204 2.0773c0.00711417,0.00769685 0.0109252,0.0118543 0.0115748,0.0126299 0.0639055,0.0761614 0.0893898,0.171803 0.080622,0.264953 -0.0196772,0.208992 -0.202563,0.364374 -0.412941,0.34737 -0.0934567,-0.00755118 -0.183496,-0.0494567 -0.247717,-0.125988 -0.582339,-0.694815 -1.16662,-1.53418 -1.72258,-2.26537 -0.0122362,-0.0160945 -0.0238543,-0.0306063 -0.0350276,-0.044563 -0.112673,-0.140764 -0.197669,-0.246976 -0.0194134,-0.396634l-0.000122047 -0.000141732c0.00187008,-0.00157087 0.00378346,-0.00305512 0.00572835,-0.00447638z"/>
  <path class="fil5" d="M2.0237 1.76844l0.418697 0.815488 0.0713386 -0.00157087c0.00302362,0.000188976 0.00608268,0.000259843 0.00916535,0.000192913 0.0588937,-0.00129528 0.105587,-0.0500984 0.104291,-0.108992l-0.000393701 7.87402e-006 -0.00336614 -0.152728 -0.00488583 -0.221685 -0.0050315 -0.228256c0.000188976,-0.00302362 0.000259843,-0.00607874 0.000192913,-0.00916535 -0.00155906,-0.0709961 -0.0946772,-0.104213 -0.15302,-0.102925l-0.436988 0.00963386z"/>
  <path class="fil6" d="M3.69295 3.19717c-0.011937,-0.0139488 -0.0329252,-0.0155827 -0.046874,-0.00364567 -0.0139488,0.011937 -0.0155827,0.0329252 -0.00364567,0.046874l2.01302 2.34375c0.011937,0.0139488 0.0329252,0.0155827 0.046874,0.00364567 0.0139488,-0.011937 0.0155827,-0.0329252 0.00364567,-0.046874l-2.01302 -2.34375z"/>
  <path class="fil6" d="M3.81274 3.13467c-0.011937,-0.0139488 -0.0329252,-0.0155827 -0.046874,-0.00364567 -0.0139488,0.011937 -0.0155827,0.0329252 -0.00364567,0.046874l1.99089 2.22396c0.011937,0.0139488 0.0329252,0.0155827 0.046874,0.00364567 0.0139488,-0.011937 0.0155827,-0.0329252 0.00364567,-0.046874l-1.99089 -2.22396z"/>
  <path class="fil6" d="M3.59529 3.2818c-0.011937,-0.0139488 -0.0329252,-0.0155827 -0.046874,-0.00364567 -0.0139488,0.011937 -0.0155827,0.0329252 -0.00364567,0.046874l1.85547 2.29427c0.011937,0.0139488 0.0329252,0.0155827 0.046874,0.00364567 0.0139488,-0.011937 0.0155827,-0.0329252 0.00364567,-0.046874l-1.85547 -2.29427z"/>
  <rect class="fil7" width="6.82666" height="6.82666"/>
 </g>
</svg>
