<?xml version="1.0" encoding="UTF-8"?>
<!DOCTYPE svg PUBLIC "-//W3C//DTD SVG 1.1//EN" "http://www.w3.org/Graphics/SVG/1.1/DTD/svg11.dtd">
<!-- Creator: CorelDRAW -->
<svg xmlns="http://www.w3.org/2000/svg" xml:space="preserve" width="6.82666in" height="6.82666in" style="shape-rendering:geometricPrecision; text-rendering:geometricPrecision; image-rendering:optimizeQuality; fill-rule:evenodd; clip-rule:evenodd"
viewBox="0 0 6.82666 6.82666"
 xmlns:xlink="http://www.w3.org/1999/xlink">
 <defs>
  <style type="text/css">
   <![CDATA[
    .fil9 {fill:none}
    .fil1 {fill:#2D2D2D}
    .fil8 {fill:#3A3A3A}
    .fil3 {fill:#414141}
    .fil7 {fill:#6F6F6F}
    .fil4 {fill:#7F7F7F}
    .fil6 {fill:#909090}
    .fil0 {fill:#202020;fill-rule:nonzero}
    .fil5 {fill:#606060;fill-rule:nonzero}
    .fil2 {fill:#6F6F6F;fill-rule:nonzero}
   ]]>
  </style>
 </defs>
 <g id="Layer_x0020_1">
  <metadata id="CorelCorpID_0Corel-Layer"/>
  <path class="fil0" d="M2.18368 5.85932c-0.00150787,-0.0183346 -0.0176024,-0.0319724 -0.035937,-0.0304646 -0.0183346,0.00150787 -0.0319724,0.0176024 -0.0304646,0.035937 0.00970866,0.115339 -0.00283858,0.182941 -0.026248,0.220579 -0.0191654,0.0308189 -0.0474528,0.0394685 -0.0753465,0.0387244 -0.242626,-0.00648819 -0.410374,-0.21902 -0.5525,-0.399083 -0.080315,-0.10176 -0.152917,-0.193736 -0.230189,-0.239445 -0.0302559,-0.0178976 -0.0636969,-0.0288228 -0.0982835,-0.0309449 -0.0392795,-0.00240945 -0.0796496,0.00658268 -0.118075,0.0296299 -0.0369409,0.0221575 -0.0717795,0.0572047 -0.10152,0.107484 -0.0476063,0.0804803 -0.0830748,0.201823 -0.0936929,0.374614 -0.0010748,0.0183346 0.0129134,0.0340787 0.031248,0.0351535 0.0183346,0.0010748 0.0340787,-0.0129134 0.0351535,-0.031248 0.00990551,-0.161165 0.041874,-0.272469 0.0845827,-0.344669 0.0238189,-0.0402717 0.0506181,-0.0676772 0.0783386,-0.0843031 0.0262323,-0.0157323 0.0535866,-0.0218858 0.0800591,-0.0202598 0.0236417,0.00144882 0.0469134,0.00916142 0.0683386,0.0218346 0.0669921,0.0396299 0.135819,0.126827 0.211961,0.223295 0.150969,0.191264 0.329146,0.417016 0.60302,0.424343 0.0489213,0.00130709 0.0988189,-0.0143307 0.133417,-0.0699685 0.0303622,-0.0488189 0.0471929,-0.129882 0.0361378,-0.261209z"/>
  <path class="fil1" d="M2.0312 5.68393l0.245835 0 0 0.0416693c0,0.0229173 -0.018748,0.0416654 -0.0416654,0.0416654l-0.162504 0c-0.0229173,0 -0.0416654,-0.018748 -0.0416654,-0.0416654l0 -0.0416693z"/>
  <path class="fil1" d="M2.07911 5.74123l0.150008 0 0 0.0927087c0,0.0154685 -0.0126535,0.028126 -0.028126,0.028126l-0.0994882 0c-0.0123189,0 -0.0223937,-0.0100748 -0.0223937,-0.0223937l0 -0.0984409z"/>
  <path class="fil2" d="M2.68248 4.18342l0 0.000913386c-0.0572913,0.0386929 -0.0977244,0.128925 -0.0977244,0.233413l0 7.87402e-006c0,0.104488 0.0404331,0.194724 0.0977244,0.233421l0 0.000913386c-0.0572913,0.0386929 -0.0977244,0.128925 -0.0977244,0.233413l0 7.87402e-006c0,0.104492 0.0404291,0.19474 0.0977244,0.233437l0 0.0652205c0,0.143453 -0.060748,0.273795 -0.158606,0.368217 -0.0978583,0.0944252 -0.232945,0.153039 -0.381614,0.153039l-3.93701e-006 0c-0.148669,0 -0.283756,-0.0586142 -0.381614,-0.153035 -0.0978543,-0.0944252 -0.158602,-0.224768 -0.158602,-0.36822l0 -0.0652244c0.0572953,-0.0386969 0.0977205,-0.128945 0.0977205,-0.233433l0 -7.87402e-006c0,-0.104484 -0.0404331,-0.19472 -0.0977205,-0.233413l0 -0.000913386c0.0572874,-0.0386969 0.0977205,-0.128937 0.0977205,-0.233421l0 -7.87402e-006c0,-0.104484 -0.0404331,-0.19472 -0.0977205,-0.233413l0 -0.000913386c0.0572874,-0.0386969 0.0977205,-0.128937 0.0977205,-0.233421l0 -7.87402e-006c0,-0.0796693 -0.0235039,-0.151043 -0.0600669,-0.197618 0.165886,0.0612598 0.343591,0.0934331 0.525476,0.0934331 0.158827,0 0.31574,-0.0247008 0.465457,-0.0730394 -0.0283346,0.0457992 -0.0458701,0.108417 -0.0458701,0.177224l0 7.87402e-006c0,0.104488 0.0404331,0.194724 0.0977244,0.233421z"/>
  <path class="fil3" d="M5.34885 2.34049c0,-0.0589094 -0.0477598,-0.106669 -0.106669,-0.106669 -0.0589094,0 -0.106669,0.0477598 -0.106669,0.106669l0 0.446059c0,0.0589094 0.0477598,0.106669 0.106669,0.106669 0.0589094,0 0.106669,-0.0477598 0.106669,-0.106669l0 -0.446059z"/>
  <path class="fil4" d="M2.16436 1.25249c0.193689,0 0.378169,0.0424409 0.544618,0.118587 0.160744,0.0735354 0.303965,0.178496 0.421752,0.306972 0.20965,0.0386417 0.415465,0.0859843 0.620681,0.133173 0.745713,0.171496 1.4835,0.341161 2.06435,0.0243701l-0.000185039 -0.000338583c0.0517165,-0.0282087 0.116512,-0.00915354 0.14472,0.042563 0.00906693,0.016622 0.0132441,0.0345945 0.0130276,0.0522717l0 1.26806c0,0.0589094 -0.0477598,0.106669 -0.106669,0.106669 -0.0213622,0 -0.0412598,-0.00628346 -0.0579449,-0.0171024 -0.579768,-0.311614 -1.31458,-0.142697 -2.05728,0.0280984 -0.205228,0.0471969 -0.411059,0.0945354 -0.620709,0.133177 -0.117787,0.128472 -0.261004,0.233437 -0.421748,0.306972 -0.166449,0.0761457 -0.350929,0.118587 -0.544618,0.118587 -0.36202,0 -0.68978,-0.146748 -0.927031,-0.384 -0.237248,-0.237256 -0.384,-0.56502 -0.384,-0.927031 0,-0.36202 0.146748,-0.68978 0.384,-0.927031 0.237252,-0.237252 0.565012,-0.384 0.927031,-0.384z"/>
  <path class="fil5" d="M3.8163 2.15525c-0.0177441,-0.00215354 -0.0338307,0.0109016 -0.0359252,0.0291654 -0.00209055,0.0182638 0.0105945,0.0348228 0.0283386,0.0369764 0.317642,0.0397323 0.633606,0.0790236 0.93613,0.0938858 0.303012,0.0148858 0.590969,0.00497638 0.85052,-0.0540709 0.0173976,-0.00395276 0.0283819,-0.0216772 0.0245433,-0.0395827 -0.00384252,-0.0179055 -0.021063,-0.0292126 -0.0384567,-0.0252598 -0.253075,0.0575709 -0.535551,0.0671496 -0.833567,0.0525118 -0.2985,-0.0146614 -0.614177,-0.0539213 -0.931583,-0.093626z"/>
  <path class="fil5" d="M5.58145 2.93071c0.0173937,0.00395276 0.0346142,-0.00735433 0.0384567,-0.0252598 0.00383858,-0.0179055 -0.00714567,-0.0356299 -0.0245433,-0.0395827 -0.259543,-0.0590512 -0.547504,-0.0689646 -0.850516,-0.0540827 -0.302528,0.0148543 -0.618492,0.0541417 -0.936134,0.093874 -0.0177441,0.00215354 -0.0304291,0.0187126 -0.0283386,0.0369764 0.00209449,0.0182638 0.0181811,0.0313189 0.0359252,0.0291654 0.317406,-0.0397047 0.633087,-0.0789606 0.931587,-0.0936142 0.298016,-0.0146339 0.580496,-0.00505118 0.833563,0.0525236z"/>
  <path class="fil5" d="M3.81415 2.40869c-0.017811,-0.000933071 -0.0329961,0.0131732 -0.0339016,0.0315079 -0.000905512,0.0183346 0.0127992,0.0339606 0.0306142,0.0348937 0.317193,0.017811 0.632713,0.0354252 0.93487,0.0420866 0.30176,0.00665354 0.58824,0.00225197 0.845835,-0.0240512 0.017748,-0.00179528 0.0307126,-0.018063 0.0289685,-0.0363268 -0.00174409,-0.0182638 -0.0175472,-0.0316102 -0.0352953,-0.029815 -0.25502,0.0260394 -0.538976,0.0303937 -0.838244,0.0237913 -0.298862,-0.00658661 -0.614992,-0.0242402 -0.932846,-0.0420866z"/>
  <path class="fil5" d="M5.58524 2.70009c0.017748,0.00179528 0.0335512,-0.0115512 0.0352953,-0.029815 0.00174409,-0.0182638 -0.0112205,-0.0345315 -0.0289685,-0.0363268 -0.257594,-0.0263071 -0.544075,-0.0307087 -0.845831,-0.0240591 -0.302157,0.00666142 -0.617681,0.0242717 -0.934874,0.0420827 -0.017815,0.000933071 -0.0315197,0.0165591 -0.0306142,0.0348937 0.000905512,0.0183346 0.0160906,0.0324409 0.0339016,0.0315079 0.317858,-0.0178465 0.633992,-0.0354961 0.932846,-0.0420827 0.299272,-0.00659843 0.583228,-0.00224409 0.838244,0.0237992z"/>
  <path class="fil6" d="M2.14226 2.02666c0.151291,0 0.288276,0.0613346 0.387429,0.160488 0.0991614,0.0991614 0.160492,0.236142 0.160492,0.387433 0,0.151291 -0.0613307,0.28828 -0.160488,0.387433 -0.0991575,0.0991614 -0.236142,0.160492 -0.387433,0.160492 -0.151291,0 -0.288276,-0.0613307 -0.387433,-0.160492 -0.0991575,-0.0991535 -0.160488,-0.236142 -0.160488,-0.387433 0,-0.151291 0.0613307,-0.288272 0.160488,-0.387433 0.0991575,-0.0991535 0.236142,-0.160488 0.387433,-0.160488z"/>
  <path class="fil7" d="M3.13281 1.67843c0.206634,0.233618 0.332264,0.541996 0.332264,0.880012 0,0.364677 -0.146232,0.694874 -0.382646,0.933878 -0.0951181,0.0961614 -0.204835,0.177567 -0.3255,0.24052 0.141343,-0.071752 0.267858,-0.168291 0.373803,-0.283846 0.0246339,-0.00453937 0.0492126,-0.00920079 0.0737441,-0.0139646 0.195272,-0.237839 0.312681,-0.54337 0.312681,-0.876587 0,-0.32761 -0.113492,-0.628449 -0.302902,-0.86452 -0.0270866,-0.00529921 -0.0542362,-0.0104685 -0.0814449,-0.0154921z"/>
  <rect class="fil8" x="2.05672" y="5.77924" width="0.194791" height="0.0255236" rx="0.0127638" ry="0.0127638"/>
  <rect class="fil8" x="2.05672" y="5.8157" width="0.194791" height="0.0255236" rx="0.0127638" ry="0.0127638"/>
  <circle class="fil1" cx="1.45892" cy="2.57459" r="0.0432402"/>
  <circle class="fil1" transform="matrix(0.979862 0.199677 -0.199677 0.979862 1.47305 2.43873)" r="0.0432402"/>
  <circle class="fil1" transform="matrix(0.920258 0.391311 -0.391311 0.920258 1.51403 2.30843)" r="0.0432402"/>
  <circle class="fil1" transform="matrix(0.82359 0.567185 -0.567185 0.82359 1.58019 2.18894)" r="0.0432402"/>
  <circle class="fil1" transform="matrix(0.693751 0.720215 -0.720215 0.693751 1.66888 2.08506)" r="0.0432402"/>
  <circle class="fil1" transform="matrix(0.53597 0.844237 -0.844237 0.53597 1.77654 2.00099)" r="0.0432402"/>
  <circle class="fil1" transform="matrix(0.356602 0.934256 -0.934256 0.356602 1.8988 1.9401)" r="0.0432402"/>
  <circle class="fil1" transform="matrix(0.162872 0.986647 -0.986647 0.162872 2.03077 1.90486)" r="0.0432402"/>
  <circle class="fil1" transform="matrix(-0.0374184 0.9993 -0.9993 -0.0374184 2.16712 1.89667)" r="0.0432402"/>
  <circle class="fil1" transform="matrix(-0.236202 0.971704 -0.971704 -0.236202 2.30235 1.91588)" r="0.0432402"/>
  <circle class="fil1" transform="matrix(-0.425472 0.904972 -0.904972 -0.425472 2.43103 1.9617)" r="0.0432402"/>
  <circle class="fil1" transform="matrix(-0.597605 0.801791 -0.801791 -0.597605 2.54796 2.03229)" r="0.0432402"/>
  <circle class="fil1" transform="matrix(-0.745669 0.666316 -0.666316 -0.745669 2.64845 2.12481)" r="0.0432402"/>
  <circle class="fil1" transform="matrix(-0.863701 0.504005 -0.504005 -0.863701 2.72843 2.23553)" r="0.0432402"/>
  <circle class="fil1" transform="matrix(-0.946945 0.321394 -0.321394 -0.946945 2.7847 2.35999)" r="0.0432402"/>
  <circle class="fil1" transform="matrix(-0.992051 0.125839 -0.125839 -0.992051 2.81498 2.49318)" r="0.0432402"/>
  <circle class="fil1" transform="matrix(-0.9972 -0.0747844 0.0747844 -0.9972 2.81817 2.62974)" r="0.0432402"/>
  <circle class="fil1" transform="matrix(-0.962185 -0.272396 0.272396 -0.962185 2.79392 2.76417)" r="0.0432402"/>
  <circle class="fil1" transform="matrix(-0.888418 -0.459036 0.459036 -0.888418 2.7432 2.89103)" r="0.0432402"/>
  <circle class="fil1" transform="matrix(-0.778868 -0.627188 0.627188 -0.778868 2.66828 3.00524)" r="0.0432402"/>
  <circle class="fil1" transform="matrix(-0.637948 -0.77008 0.77008 -0.637948 2.57207 3.10219)" r="0.0432402"/>
  <circle class="fil1" transform="matrix(-0.471334 -0.881955 0.881955 -0.471334 2.45842 3.17797)" r="0.0432402"/>
  <circle class="fil1" transform="matrix(-0.285736 -0.958308 0.958308 -0.285736 2.33195 3.22954)" r="0.0432402"/>
  <circle class="fil1" transform="matrix(-0.0886301 -0.996065 0.996065 -0.0886301 2.19772 3.25482)" r="0.0432402"/>
  <circle class="fil1" transform="matrix(0.112046 -0.993703 0.993703 0.112046 2.06114 3.25279)" r="0.0432402"/>
  <circle class="fil1" transform="matrix(0.308209 -0.951319 0.951319 0.308209 1.92772 3.22352)" r="0.0432402"/>
  <circle class="fil1" transform="matrix(0.491958 -0.870619 0.870619 0.491958 1.80281 3.16815)" r="0.0432402"/>
  <circle class="fil1" transform="matrix(0.655893 -0.754854 0.754854 0.655893 1.69149 3.08902)" r="0.0432402"/>
  <circle class="fil1" transform="matrix(0.793411 -0.608686 0.608686 0.793411 1.59821 2.98926)" r="0.0432402"/>
  <circle class="fil1" transform="matrix(0.898974 -0.438002 0.438002 0.898974 1.52674 2.87288)" r="0.0432402"/>
  <circle class="fil1" transform="matrix(0.968329 -0.249678 0.249678 0.968329 1.47994 2.74457)" r="0.0432402"/>
  <rect class="fil9" width="6.82666" height="6.82666"/>
 </g>
</svg>
