<?xml version="1.0" encoding="UTF-8"?>
<!DOCTYPE svg PUBLIC "-//W3C//DTD SVG 1.1//EN" "http://www.w3.org/Graphics/SVG/1.1/DTD/svg11.dtd">
<!-- Creator: CorelDRAW -->
<svg xmlns="http://www.w3.org/2000/svg" xml:space="preserve" width="6.82666in" height="6.82666in" style="shape-rendering:geometricPrecision; text-rendering:geometricPrecision; image-rendering:optimizeQuality; fill-rule:evenodd; clip-rule:evenodd"
viewBox="0 0 6.82666 6.82666"
 xmlns:xlink="http://www.w3.org/1999/xlink">
 <defs>
  <style type="text/css">
   <![CDATA[
    .fil6 {fill:none}
    .fil5 {fill:#6A6A6A}
    .fil2 {fill:#909090}
    .fil4 {fill:#2F2F2F;fill-rule:nonzero}
    .fil1 {fill:#636364;fill-rule:nonzero}
    .fil3 {fill:#838383;fill-rule:nonzero}
    .fil0 {fill:#858585;fill-rule:nonzero}
   ]]>
  </style>
 </defs>
 <g id="Layer_x0020_1">
  <metadata id="CorelCorpID_0Corel-Layer"/>
  <path class="fil0" d="M2.3777 1.10149c0.259713,0 0.505465,0.0509685 0.723024,0.141339 0.218579,0.0907913 0.408697,0.221547 0.556142,0.38061 0.357079,0.129728 0.716654,0.228614 1.07945,0.287417 0.369795,0.059937 0.744709,0.0785748 1.12593,0.0461929l-3.93701e-006 -5.51181e-005c0.0563465,-0.0047874 0.105917,0.0370118 0.110705,0.0933583 0.000779528,0.00915354 0.000318898,0.018122 -0.00122441,0.0267559l-0.129067 1.18342 -0.101598 -0.0107992 0.101795 0.0110984c-0.00599606,0.0549882 -0.0544882,0.0950354 -0.109217,0.0910276 -0.464339,0.0065 -0.937047,0.045748 -1.41549,0.107413 -0.478984,0.0617323 -0.967713,0.146898 -1.46165,0.244614l1.9685e-005 0.000102362 -0.00174016 0.000322835c-0.395465,0.107882 -0.448469,0.523787 -0.509811,1.00584 -0.0205748,0.161701 -0.0420276,0.330236 -0.0766575,0.498843 -0.0293976,0.143126 -0.113508,0.27228 -0.225327,0.365039 -0.112409,0.0932559 -0.254142,0.151142 -0.398031,0.151142l-3.93701e-006 0c-0.0344488,0 -0.0686811,-0.00362598 -0.102327,-0.0105354 -0.106232,-0.0218189 -0.194673,-0.0768031 -0.256787,-0.15424 -0.062063,-0.0773622 -0.0973504,-0.17589 -0.0973504,-0.28485l0.000401575 0c-3.93701e-006,-0.0350866 0.00359055,-0.0710157 0.0110512,-0.107358l0.211004 -1.02734c0.0285748,-0.139154 0.052748,-0.276122 0.0303307,-0.407874 -0.021626,-0.127118 -0.0886654,-0.256839 -0.242201,-0.393102 -0.0737441,-0.0654488 -0.139453,-0.136823 -0.19585,-0.213091 -0.0563307,-0.0761732 -0.103634,-0.157315 -0.140685,-0.242421l-0.00038189 -0.00088189 0.0935984 -0.0408031 -0.093874 0.0409173c-0.0140472,-0.0322323 -0.0101969,-0.067752 0.00718898,-0.095437l0.844236 -1.5409 -0.00015748 -8.66142e-005c0.0145787,-0.0266102 0.0392598,-0.0441732 0.0666654,-0.0505433 0.0931929,-0.0307795 0.190394,-0.0545866 0.290618,-0.0705945 0.100819,-0.0160984 0.203602,-0.0245472 0.30728,-0.0245472z"/>
  <path class="fil1" d="M5.58717 1.93015c0.0829843,-0.00255118 0.166248,-0.00734252 0.249791,-0.0144409l-3.93701e-006 -5.51181e-005c0.0596732,-0.00507087 0.112173,0.0391969 0.117244,0.0988701 0.000826772,0.00969291 0.000338583,0.0191929 -0.00129921,0.0283346l-0.136689 1.25331 0.000208661 0.000318898c-0.00635039,0.0582323 -0.0577047,0.100646 -0.115665,0.0964016 -0.0611811,0.000854331 -0.124846,0.00434252 -0.186299,0.00624803 -0.0199685,-0.0122756 -0.0458465,-0.0254961 -0.0711772,-0.0396693 -0.0782913,-0.174083 -0.125016,-0.393807 -0.125016,-0.632665 0,-0.299264 0.0724409,-0.566646 0.189323,-0.753701 0.000751969,-0.00120472 0.0782795,-0.0429094 0.0795827,-0.0429528z"/>
  <path class="fil2" d="M3.94531 3.1143c0.0744606,-0.765406 -0.0253504,-1.20363 -0.30628,-1.50975 -0.144811,-0.150539 -0.328441,-0.274551 -0.538307,-0.361724 -0.217559,-0.0903701 -0.463311,-0.141339 -0.723024,-0.141339 -0.103677,0 -0.206461,0.00844882 -0.30728,0.0245472 -0.100224,0.0160079 -0.197425,0.039815 -0.290618,0.0705945 -0.0274055,0.00637008 -0.0520866,0.0239331 -0.0666654,0.0505433l0.00015748 8.66142e-005 -0.844236 1.5409c-0.0173858,0.027685 -0.0212362,0.0632047 -0.00718898,0.095437l0.000275591 -0.000114173 0.00038189 0.00088189c0.0370512,0.0851063 0.0843543,0.166248 0.140685,0.242421 0.0563976,0.0762677 0.122106,0.147642 0.19585,0.213091 0.153535,0.136264 0.220575,0.265984 0.242201,0.393102 0.0224173,0.131752 -0.00175591,0.26872 -0.0303307,0.407874l-0.211004 1.02734c-0.00746063,0.0363425 -0.0110551,0.0722717 -0.0110512,0.107358l-0.000401575 0c0,0.108961 0.0352874,0.207488 0.0973504,0.28485 0.0621142,0.077437 0.150555,0.132421 0.256787,0.15424 0.0336457,0.00690945 0.067878,0.0105354 0.102331,0.0105354 0.14389,0 0.285622,-0.0578858 0.398031,-0.151142 0.111819,-0.0927598 0.195929,-0.221913 0.225327,-0.365039 0.0346299,-0.168606 0.0560827,-0.337142 0.0766575,-0.498843 0.00689764,-0.0542126 0.0136929,-0.107587 0.020878,-0.159783 0.0455039,-0.840575 0.627106,-1.96105 1.57947,-1.43607z"/>
  <path class="fil3" d="M2.57787 2.11198c0.0255433,-0.0529252 0.00334252,-0.116543 -0.0495827,-0.142087 -0.0529252,-0.0255433 -0.116543,-0.00334252 -0.142087,0.0495827l-0.27489 0.569528c-0.0255433,0.0529252 -0.00334252,0.116543 0.0495827,0.142087 0.0529252,0.0255433 0.116543,0.00334252 0.142087,-0.0495827l0.27489 -0.569528z"/>
  <path class="fil3" d="M2.89811 2.20106c0.0255433,-0.0529252 0.00334252,-0.116543 -0.0495827,-0.142087 -0.0529252,-0.0255433 -0.116543,-0.00334252 -0.142087,0.0495827l-0.205039 0.424807c-0.0255433,0.0529252 -0.00334252,0.116543 0.0495827,0.142087 0.0529252,0.0255433 0.116543,0.00334252 0.142087,-0.0495827l0.205039 -0.424807z"/>
  <path class="fil3" d="M2.29456 1.92497c0.0255433,-0.0529252 0.00334252,-0.116543 -0.0495827,-0.142087 -0.0529252,-0.0255433 -0.116543,-0.00334252 -0.142087,0.0495827l-0.420539 0.87128c-0.0255433,0.0529252 -0.00334252,0.116543 0.0495827,0.142087 0.0529252,0.0255433 0.116543,0.00334252 0.142087,-0.0495827l0.420539 -0.87128z"/>
  <path class="fil4" d="M5.58699 1.93147c0.10028,-0.00197244 0.200957,-0.00717323 0.302055,-0.0157638l-3.93701e-006 -5.51181e-005c0.0596732,-0.00507087 0.112173,0.0391969 0.117244,0.0988701 0.000826772,0.00969291 0.000338583,0.0191929 -0.00129921,0.0283346l-0.136689 1.25331 0.000208661 0.000318898c-0.00635039,0.0582323 -0.0577047,0.100646 -0.115665,0.0964016 -0.079378,0.00111024 -0.158988,0.00312992 -0.238815,0.00600394 -0.0894764,-0.179756 -0.143677,-0.414827 -0.143677,-0.672091 0,-0.321209 0.0845,-0.607791 0.216642,-0.795331z"/>
  <g id="_536447816">
   <path id="_536449016" class="fil3" d="M2.38239 4.4859c0.00724803,-0.00129134 0.0120748,-0.00822047 0.0107835,-0.0154685 -0.00129134,-0.00724803 -0.00822047,-0.0120748 -0.0154685,-0.0107835 -0.0650591,0.011622 -0.136165,0.0194961 -0.211579,0.0230709 -0.0731496,0.00346457 -0.150598,0.00292913 -0.230791,-0.00209843 -0.106469,-0.00667717 -0.208626,-0.0209331 -0.302445,-0.040937 -0.0978622,-0.0208661 -0.186598,-0.0479843 -0.261634,-0.0792677 -0.0067874,-0.00281496 -0.0145787,0.000401575 -0.0173937,0.00718898 -0.00281496,0.0067874 0.000401575,0.0145787 0.00718898,0.0173937 0.0764961,0.0318937 0.166831,0.0595079 0.266319,0.0807244 0.0950079,0.0202598 0.198465,0.0346969 0.306295,0.0414567 0.0810433,0.00507874 0.15948,0.00561417 0.233713,0.00209843 0.0769843,-0.00364961 0.149232,-0.011626 0.215012,-0.023378z"/>
   <path id="_536448536" class="fil3" d="M2.37437 4.54054c0.00724803,-0.00129134 0.0120748,-0.00822047 0.0107835,-0.0154685 -0.00129134,-0.00724803 -0.00822047,-0.0120748 -0.0154685,-0.0107835 -0.0650591,0.011622 -0.136165,0.0194961 -0.211579,0.0230709 -0.0731496,0.00346457 -0.150598,0.00292913 -0.230791,-0.00209843 -0.10811,-0.00678346 -0.211386,-0.0211417 -0.305988,-0.0413898 -0.0981142,-0.021 -0.186783,-0.048311 -0.26176,-0.0800394 -0.00675984,-0.00284646 -0.0145512,0.000322835 -0.0173976,0.00708268 -0.00284646,0.00675984 0.000322835,0.0145512 0.00708268,0.0173976 0.0766417,0.0324331 0.166941,0.0602756 0.266555,0.0815984 0.0957874,0.0205039 0.200358,0.0350433 0.309839,0.0419094 0.0810433,0.00507874 0.15948,0.00561417 0.233713,0.00209843 0.0769843,-0.00364961 0.149232,-0.011626 0.215012,-0.023378z"/>
   <path id="_536448224" class="fil3" d="M2.36969 4.59005c0.00724803,-0.00126378 0.0120984,-0.00816929 0.0108346,-0.0154173 -0.00126378,-0.00724803 -0.00816929,-0.0120984 -0.0154173,-0.0108346 -0.0657677,0.011622 -0.13765,0.0194961 -0.213902,0.0230709 -0.0739921,0.0034685 -0.152323,0.00292913 -0.233425,-0.00209843 -0.107638,-0.00667717 -0.210913,-0.0209331 -0.305752,-0.040937 -0.0989567,-0.020874 -0.188661,-0.0479921 -0.264504,-0.0792677 -0.0067874,-0.0027874 -0.0145551,0.000452756 -0.0173425,0.00724016 -0.0027874,0.0067874 0.000452756,0.0145551 0.00724016,0.0173425 0.0773504,0.0319016 0.168654,0.0595157 0.269189,0.0807244 0.0960512,0.0202598 0.20063,0.0346969 0.30961,0.0414567 0.0818937,0.00507874 0.161138,0.00561024 0.236134,0.00209843 0.0778031,-0.00364961 0.150831,-0.011626 0.217335,-0.023378z"/>
   <path id="_536448416" class="fil3" d="M2.3571 4.69425c0.00724803,-0.00126378 0.0120984,-0.00816929 0.0108346,-0.0154173 -0.00126378,-0.00724803 -0.00816929,-0.0120984 -0.0154173,-0.0108346 -0.0664685,0.011622 -0.139134,0.0194961 -0.21622,0.0230709 -0.0747953,0.0034685 -0.15398,0.00292913 -0.235953,-0.00209843 -0.108819,-0.00667717 -0.213213,-0.0209331 -0.309063,-0.040937 -0.0999528,-0.0208622 -0.190661,-0.0479961 -0.267429,-0.0793189 -0.00681496,-0.00275984 -0.0145827,0.000527559 -0.0173425,0.00734252 -0.00275984,0.00681496 0.000527559,0.0145827 0.00734252,0.0173425 0.078063,0.0318504 0.170327,0.0594528 0.272012,0.0806732 0.0970866,0.0202598 0.20278,0.0346969 0.312921,0.0414567 0.0827638,0.00507874 0.162858,0.00561024 0.238661,0.00209843 0.078622,-0.00364961 0.152433,-0.011626 0.219654,-0.023378z"/>
   <path id="_536448584" class="fil3" d="M2.34439 4.79839c0.00724803,-0.00123622 0.012122,-0.00811811 0.0108858,-0.0153661 -0.00123622,-0.00724803 -0.00811811,-0.012122 -0.0153661,-0.0108858 -0.0671614,0.0116181 -0.140618,0.0194921 -0.218594,0.0230709 -0.0755945,0.0034685 -0.155622,0.00292913 -0.23848,-0.00209843 -0.110047,-0.0066811 -0.215571,-0.020937 -0.312421,-0.040937 -0.101059,-0.0208661 -0.192736,-0.0480039 -0.270303,-0.0793189 -0.00681496,-0.00273228 -0.0145591,0.00057874 -0.0172913,0.0073937 -0.00273228,0.00681496 0.00057874,0.0145591 0.0073937,0.0172913 0.0789173,0.0318622 0.17215,0.0594606 0.274886,0.0806732 0.0981417,0.0202638 0.204937,0.0347008 0.316177,0.0414567 0.0836457,0.00507874 0.164587,0.00561024 0.241189,0.00209843 0.0793937,-0.00364567 0.153969,-0.011622 0.221925,-0.023378z"/>
   <path id="_536448464" class="fil3" d="M2.33172 4.90254c0.00724803,-0.00123622 0.012122,-0.00811811 0.0108858,-0.0153661 -0.00123622,-0.00724803 -0.00811811,-0.012122 -0.0153661,-0.0108858 -0.0678622,0.0116181 -0.142106,0.0194921 -0.220913,0.0230709 -0.0763976,0.0034685 -0.157272,0.00292913 -0.241004,-0.00209843 -0.111228,-0.00668504 -0.217866,-0.0209409 -0.315736,-0.040937 -0.102228,-0.0208898 -0.194894,-0.0480236 -0.273228,-0.0793189 -0.00681496,-0.00270079 -0.0145354,0.000633858 -0.0172362,0.00744882 -0.00270079,0.00681496 0.000633858,0.0145354 0.00744882,0.0172362 0.0798031,0.0318819 0.173988,0.0594803 0.277701,0.0806732 0.0991811,0.0202677 0.207098,0.0347047 0.319492,0.0414567 0.0845197,0.0050748 0.166315,0.00561024 0.243713,0.00209843 0.0802126,-0.00364567 0.155567,-0.011622 0.224244,-0.023378z"/>
   <path id="_536448296" class="fil3" d="M2.31907 5.00675c0.00724803,-0.00120866 0.0121457,-0.00806693 0.010937,-0.015315 -0.00120866,-0.00724803 -0.00806693,-0.0121457 -0.015315,-0.010937 -0.0685551,0.0116142 -0.143594,0.0194882 -0.223287,0.0230709 -0.0772008,0.0034685 -0.158921,0.00292913 -0.243531,-0.00209843 -0.112457,-0.00668898 -0.220228,-0.0209449 -0.319098,-0.040937 -0.103071,-0.0208465 -0.196701,-0.048 -0.276047,-0.0793701 -0.00684252,-0.00270079 -0.0145866,0.00065748 -0.0172874,0.0075 -0.00270079,0.00684252 0.00065748,0.0145866 0.0075,0.0172874 0.0804409,0.0318031 0.175618,0.0593858 0.28063,0.080622 0.100232,0.0202677 0.209248,0.0347087 0.322744,0.0414567 0.0853976,0.0050748 0.168039,0.00561024 0.24624,0.00209843 0.0809921,-0.00364173 0.15711,-0.0116181 0.226516,-0.023378z"/>
   <path id="_536448608" class="fil3" d="M2.36163 4.64472c0.00724803,-0.00126378 0.0120984,-0.00816929 0.0108346,-0.0154173 -0.00126378,-0.00724803 -0.00816929,-0.0120984 -0.0154173,-0.0108346 -0.0657677,0.011622 -0.13765,0.0194961 -0.213898,0.0230709 -0.0739961,0.0034685 -0.152323,0.00292913 -0.233425,-0.00209843 -0.109256,-0.00677953 -0.213638,-0.0211378 -0.309287,-0.0413898 -0.099126,-0.0209921 -0.188787,-0.0483189 -0.264685,-0.0800906 -0.0067874,-0.00281496 -0.0145787,0.000401575 -0.0173937,0.00718898 -0.00281496,0.0067874 0.000401575,0.0145787 0.00718898,0.0173937 0.0773661,0.0323858 0.168618,0.0602126 0.26937,0.0815472 0.0968268,0.0205 0.202547,0.0350394 0.313248,0.0419094 0.0818937,0.00507874 0.161134,0.00561024 0.236134,0.00209843 0.0777992,-0.00364961 0.150827,-0.011626 0.217331,-0.023378z"/>
   <path id="_536448560" class="fil3" d="M2.3489 4.74887c0.00724803,-0.00126378 0.0120984,-0.00816929 0.0108346,-0.0154173 -0.00126378,-0.00724803 -0.00816929,-0.0120984 -0.0154173,-0.0108346 -0.0664646,0.011622 -0.13913,0.0194961 -0.216217,0.0230709 -0.0747913,0.0034685 -0.153976,0.00292913 -0.235949,-0.00209843 -0.110504,-0.00678346 -0.216031,-0.0211417 -0.312689,-0.0413898 -0.100228,-0.0209961 -0.190862,-0.0483228 -0.267563,-0.0800906 -0.0067874,-0.0027874 -0.0145551,0.000452756 -0.0173425,0.00724016 -0.0027874,0.0067874 0.000452756,0.0145551 0.00724016,0.0173425 0.0782205,0.0323976 0.170441,0.0602165 0.272248,0.0815472 0.0978898,0.0205039 0.20472,0.0350433 0.316547,0.0419094 0.0827638,0.00507874 0.162858,0.00561024 0.238657,0.00209843 0.078622,-0.00364961 0.152433,-0.011626 0.21965,-0.023378z"/>
   <path id="_536448272" class="fil3" d="M2.33612 4.85304c0.00724803,-0.00123622 0.012122,-0.00811811 0.0108858,-0.0153661 -0.00123622,-0.00724803 -0.00811811,-0.012122 -0.0153661,-0.0108858 -0.0671575,0.0116181 -0.140614,0.0194921 -0.218591,0.0230709 -0.0755906,0.0034685 -0.155618,0.00292913 -0.238472,-0.00209843 -0.111752,-0.0067874 -0.218425,-0.0211457 -0.316091,-0.0413898 -0.10126,-0.0209921 -0.19285,-0.048315 -0.270386,-0.0800906 -0.0067874,-0.0027874 -0.0145551,0.000452756 -0.0173425,0.00724016 -0.0027874,0.0067874 0.000452756,0.0145551 0.00724016,0.0173425 0.0790315,0.0323898 0.172248,0.0602126 0.275173,0.0815472 0.0989488,0.0205079 0.206898,0.0350472 0.319846,0.0419094 0.0836417,0.00507874 0.164583,0.00561024 0.241181,0.00209843 0.0793937,-0.00364567 0.153969,-0.011622 0.221921,-0.023378z"/>
   <path id="_536447960" class="fil3" d="M2.32691 4.95681c0.00729528,-0.00122835 0.0122008,-0.00805118 0.0109567,-0.0152402 -0.00124409,-0.00718898 -0.00816929,-0.0120236 -0.0154646,-0.0107953 -0.0683071,0.0115197 -0.143031,0.0193307 -0.222362,0.022878 -0.0768976,0.00344094 -0.158303,0.00290551 -0.242587,-0.00207874 -0.113689,-0.00673622 -0.222197,-0.0209764 -0.321531,-0.0410472 -0.102933,-0.0208031 -0.196126,-0.0479252 -0.275106,-0.0794803 -0.00685827,-0.00273622 -0.0146772,0.000523622 -0.0174567,0.00728346 -0.00277559,0.00675591 0.000531496,0.0144606 0.00738976,0.0171969 0.0802717,0.0320709 0.175059,0.0596496 0.279823,0.0808228 0.100654,0.0203386 0.210449,0.0347638 0.325315,0.041563 0.0850748,0.0050315 0.167406,0.00556299 0.245311,0.00208268 0.0807402,-0.00361811 0.156594,-0.0115276 0.225713,-0.023185z"/>
   <path id="_536447528" class="fil3" d="M2.31062 5.06138c0.00724803,-0.00120866 0.0121457,-0.00806693 0.010937,-0.015315 -0.00120866,-0.00724803 -0.00806693,-0.0121457 -0.015315,-0.010937 -0.0685512,0.0116142 -0.143591,0.0194882 -0.223283,0.0230709 -0.0771969,0.0034685 -0.158917,0.00292913 -0.243528,-0.00209843 -0.114193,-0.00679528 -0.223146,-0.0211535 -0.322843,-0.0413898 -0.10335,-0.0209803 -0.196909,-0.0483228 -0.276181,-0.0801417 -0.00681496,-0.00273228 -0.0145591,0.00057874 -0.0172913,0.0073937 -0.00273228,0.00681496 0.00057874,0.0145591 0.0073937,0.0172913 0.0805945,0.0323504 0.17574,0.0601535 0.280874,0.0814961 0.101059,0.0205157 0.211248,0.0350551 0.326488,0.0419094 0.0854016,0.0050748 0.168043,0.00561024 0.246236,0.00209843 0.0809921,-0.00364173 0.15711,-0.0116181 0.226512,-0.023378z"/>
  </g>
  <path class="fil5" d="M1.38224 2.06974c0.196378,-0.358776 0.325079,-0.685378 0.329461,-0.819563 -0.323657,0.460953 -0.604228,0.970386 -0.839,1.53134 0.107709,-0.0698307 0.31239,-0.351591 0.509539,-0.711776z"/>
  <rect class="fil6" width="6.82666" height="6.82666"/>
 </g>
</svg>
