<?xml version="1.0" encoding="UTF-8"?>
<!DOCTYPE svg PUBLIC "-//W3C//DTD SVG 1.1//EN" "http://www.w3.org/Graphics/SVG/1.1/DTD/svg11.dtd">
<!-- Creator: CorelDRAW -->
<svg xmlns="http://www.w3.org/2000/svg" xml:space="preserve" width="6.82666in" height="6.82666in" style="shape-rendering:geometricPrecision; text-rendering:geometricPrecision; image-rendering:optimizeQuality; fill-rule:evenodd; clip-rule:evenodd"
viewBox="0 0 6.82666 6.82666"
 xmlns:xlink="http://www.w3.org/1999/xlink">
 <defs>
  <style type="text/css">
   <![CDATA[
    .fil7 {fill:none}
    .fil0 {fill:#212121}
    .fil3 {fill:#2D2D2D}
    .fil4 {fill:#757575}
    .fil5 {fill:#AFAFAF}
    .fil6 {fill:#BCBCBC}
    .fil2 {fill:#6A6A6A;fill-rule:nonzero}
    .fil1 {fill:#8C8D8D;fill-rule:nonzero}
   ]]>
  </style>
 </defs>
 <g id="Layer_x0020_1">
  <metadata id="CorelCorpID_0Corel-Layer"/>
  <g id="_277017376">
   <path id="_277018216" class="fil0" d="M1.54532 4.56894c-0.0177835,-0.00254724 -0.0357795,-0.00404724 -0.0537559,-0.00404724 -0.114339,0 -0.21735,0.0525669 -0.296587,0.133571 -0.0817047,0.0835197 -0.136465,0.196587 -0.152831,0.312598 -0.00346457,0.0245591 -0.00544094,0.0493976 -0.00544094,0.0742126 0,0.137358 0.0542323,0.267535 0.150535,0.364567 0.0962992,0.0970354 0.225488,0.151677 0.361807,0.151677l3.79194 0c0.136319,0 0.265508,-0.0546417 0.361807,-0.151677 0.0963071,-0.0970354 0.150535,-0.227213 0.150535,-0.364575 0,-0.0241378 -0.00193701,-0.0483268 -0.00522047,-0.0722244 -0.016,-0.116504 -0.0707244,-0.230035 -0.152713,-0.31389 -0.0796024,-0.0814094 -0.183142,-0.134075 -0.298024,-0.134075 -0.0176102,0 -0.0352756,0.00149606 -0.0527087,0.00392913 -0.637713,0.0889685 -1.28083,0.135024 -1.92467,0.134429 -0.627232,-0.00057874 -1.25369,-0.0455866 -1.87468,-0.134496z"/>
   <path id="_277018192" class="fil1" d="M2.69529 2.2658l-0.407697 1.85418c0.00524016,0.0162283 -0.0393504,0.109008 -0.0758031,0.0845236 -0.130669,-0.0877047 -0.261272,-0.175803 -0.391929,-0.263575 -0.00867323,0.0149528 -0.0430748,-0.0652165 -0.0241693,-0.151205 0.0473898,-0.215457 0.563157,-2.5593 0.562909,-2.56007 0.014311,-0.0650866 0.0482835,-0.102827 0.075874,-0.0842953 0.22985,0.154504 0.397815,0.497346 0.260815,1.12045z"/>
   <path id="_277018048" class="fil2" d="M2.43008 1.70407c0.0360748,-0.157622 -0.103567,-0.479118 -0.139638,-0.321528l-0.758976 3.29526c-0.0151457,0.0661693 0.0262126,0.132102 0.0923858,0.147244 0.0661732,0.0151457 0.132102,-0.0262126 0.147248,-0.0923858l0.65898 -3.02859z"/>
   <path id="_277018120" class="fil3" d="M1.48582 4.65344c-0.0179213,-0.00254724 -0.0360551,-0.00404724 -0.0541654,-0.00404724 -0.115213,0 -0.219008,0.0525669 -0.29885,0.133571 -0.0823268,0.0835197 -0.137504,0.196587 -0.153992,0.312598 -0.00349213,0.0245591 -0.00548425,0.0493976 -0.00548425,0.0742126 0,0.137358 0.0546457,0.267535 0.151681,0.364567 0.0970354,0.0970354 0.227209,0.151677 0.364567,0.151677l3.82084 0c0.137358,0 0.267531,-0.0546417 0.364567,-0.151677 0.0970394,-0.0970354 0.151681,-0.227213 0.151681,-0.364575 0,-0.0241378 -0.00195276,-0.0483268 -0.00525984,-0.0722244 -0.016122,-0.116504 -0.0712638,-0.230035 -0.153878,-0.31389 -0.0802087,-0.0814094 -0.184535,-0.134075 -0.300295,-0.134075 -0.0177441,0 -0.0355433,0.00149606 -0.0531102,0.00392913 -0.642571,0.0889685 -1.29059,0.135024 -1.93934,0.134429 -0.632012,-0.00057874 -1.26324,-0.0455866 -1.88896,-0.134496z"/>
   <path id="_277017688" class="fil4" d="M1.52218 5.00315c0.0920236,0 0.166622,0.0746024 0.166622,0.166626 0,0.0920236 -0.0745984,0.166626 -0.166622,0.166626 -0.0920276,0 -0.166626,-0.0746024 -0.166626,-0.166626 0,-0.0920236 0.0745984,-0.166626 0.166626,-0.166626z"/>
   <path id="_277017592" class="fil5" d="M1.52218 5.09372c0.0420079,0 0.0760591,0.0340512 0.0760591,0.0760591 0,0.0420079 -0.0340512,0.0760591 -0.0760591,0.0760591 -0.0420079,0 -0.0760591,-0.0340512 -0.0760591,-0.0760591 0,-0.0420079 0.0340512,-0.0760591 0.0760591,-0.0760591z"/>
   <path id="_277017304" class="fil6" d="M2.37019 1.19202c0.219921,0.160469 0.374957,0.50135 0.241772,1.10711l-0.407697 1.85418c0.00190157,0.00588583 -0.00275197,0.0218386 -0.0111969,0.0386181 0.00624409,0.00418898 0.0124843,0.00838189 0.0187283,0.0125709 0.0364528,0.0244843 0.0810433,-0.0682953 0.0758031,-0.0845236l0.407697 -1.85418c0.137,-0.623102 -0.0309646,-0.965945 -0.260815,-1.12045 -0.0217087,-0.0145787 -0.0473661,0.00567323 -0.0642913,0.0466732z"/>
   <rect id="_277017760" class="fil4" x="2.12822" y="5.14117" width="2.54356" height="0.13198" rx="0.0659921" ry="0.0659921"/>
  </g>
  <rect class="fil7" width="6.82666" height="6.82666"/>
 </g>
</svg>
