<?xml version="1.0" encoding="UTF-8"?>
<!DOCTYPE svg PUBLIC "-//W3C//DTD SVG 1.1//EN" "http://www.w3.org/Graphics/SVG/1.1/DTD/svg11.dtd">
<!-- Creator: CorelDRAW -->
<svg xmlns="http://www.w3.org/2000/svg" xml:space="preserve" width="6.82666in" height="6.82666in" style="shape-rendering:geometricPrecision; text-rendering:geometricPrecision; image-rendering:optimizeQuality; fill-rule:evenodd; clip-rule:evenodd"
viewBox="0 0 6.82666 6.82666"
 xmlns:xlink="http://www.w3.org/1999/xlink">
 <defs>
  <style type="text/css">
   <![CDATA[
    .fil5 {fill:none}
    .fil4 {fill:#2F2F2F;fill-rule:nonzero}
    .fil3 {fill:#444444;fill-rule:nonzero}
    .fil1 {fill:#5D5D5D;fill-rule:nonzero}
    .fil0 {fill:#6A6A6A;fill-rule:nonzero}
    .fil2 {fill:#A1A1A1;fill-rule:nonzero}
   ]]>
  </style>
 </defs>
 <g id="Layer_x0020_1">
  <metadata id="CorelCorpID_0Corel-Layer"/>
  <g id="_277020400">
   <path id="_277021792" class="fil0" d="M3.63874 3.85785c-0.00220472,0.00556299 -0.0032874,0.0111811 -0.00449213,0.017878 -0.0814606,-0.0257165 -0.25637,-0.0645157 -0.330063,-0.0722874 0.0602953,-0.0749606 0.160858,-0.146512 0.242453,-0.196681l0.162516 0.0644488c-0.0055748,0.00783858 -0.011189,0.016811 -0.0144764,0.0257953l-0.055937 0.160846z"/>
   <path id="_277021576" class="fil0" d="M2.61295 3.43469c0,-0.0266339 -0.49274,-0.0221969 -0.843429,0.0177598 -0.330157,0.0375984 -0.914453,0.0931535 -0.914453,0.150866 0.0077126,0.0215945 1.76674,-0.0933583 1.75788,-0.168626z"/>
   <path id="_277020952" class="fil1" d="M5.86386 2.27444l0 0c0,0 0.0290118,-0.0414016 0.0647835,-0.0134724 0.0256575,0.0201693 0.039126,0.0425472 0.039126,0.0425472 0,0 0.00555906,0.0055 0.00555906,0.0166063 0,0.00898819 -0.00328346,0.0213071 -0.0133976,0.038126 -0.0234488,0.0402638 -0.0595039,0.357004 -0.164547,0.440815 -0.073748,0.0591535 -0.0972008,0.0882362 -0.0972008,0.123941 0,0.00676378 0.00107087,0.0133937 0.00220866,0.0212362 0.0100512,0.028 0.016752,0.0570118 0.0200984,0.0871535 0.00228346,0.015685 0.00335039,0.0324252 0.00335039,0.0481102 0,0.24137 -0.21672,0.45574 -0.50613,0.490449l-0.00114173 0c-0.0636339,0.00783465 -0.12735,0.00549213 -0.186504,-0.00462598 -0.115154,-0.0188937 -0.216787,-0.0679252 -0.292823,-0.139547 0,0 -0.173169,-0.171965 -0.420102,-0.0971378l-0.508343 0.179941 -0.0692756 0.0243858c-0.011185,0.00449213 -0.0234449,0.00342126 -0.033563,-0.00220866 -0.00890945,-0.00442126 -0.0166732,-0.0131929 -0.0212362,-0.023311l0 -0.00114173 -0.0558661 -0.159913c-0.00107087,-0.0044252 -0.00214961,-0.00877953 -0.00214961,-0.0143976 0,-0.00221654 0.00107874,-0.00449213 0.00107874,-0.00791339 0.00220866,-0.0144016 0.0122598,-0.0267283 0.0267953,-0.0323504l0.022374 -0.00783465 0.0301417 -0.0111929 0.738598 -0.261476c0.149665,-0.0524567 0.235748,-0.150736 0.235748,-0.150736 0.0893661,-0.12413 0.241303,-0.215642 0.422248,-0.236878 0.0916457,-0.011189 0.179937,-0.00227559 0.260398,0.0212362 0,0 0.0022126,0.0011378 0.00677559,0.00214173 0.001,0 0.00327559,0.00114567 0.00555118,0.00114567 0.0446181,0.0133858 0.21224,0.055937 0.341795,0.00220472 0.15087,-0.0625039 0.107673,-0.332425 0.14565,-0.375902zm-0.744421 0.46976l0 0c-0.216791,0.0257244 -0.377705,0.185567 -0.377705,0.365445 0,0.0122598 0.0011378,0.0233819 0.00227559,0.0356299 0.0233819,0.194559 0.229043,0.329673 0.459232,0.302878 0.216654,-0.0256535 0.377634,-0.185504 0.377634,-0.365441 0,-0.0123189 -0.0011378,-0.0234449 -0.00227559,-0.0356339 -0.0234488,-0.194421 -0.229051,-0.329606 -0.459161,-0.302878z"/>
   <path id="_277020832" class="fil1" d="M5.10846 4.57063l0 0c-0.180941,-0.0211654 -0.332878,-0.112748 -0.422311,-0.236819 0,0 -0.0860197,-0.0971417 -0.235681,-0.15087l-0.791114 -0.279358c-0.0156732,-0.00562992 -0.0257244,-0.0190276 -0.0279331,-0.0344961 0,-0.0011378 -0.00107874,-0.0034252 -0.00107874,-0.00462598 0,-0.0043622 0.00107874,-0.00883858 0.00214961,-0.0144724l0.0558661 -0.160846c0.0022874,-0.00676772 0.00669685,-0.0134646 0.0123268,-0.0178189 0.0111929,-0.00904331 0.0267992,-0.0135354 0.0413346,-0.00790551l0.577673 0.204531c0.246874,0.0747559 0.420047,-0.0972795 0.420047,-0.0972795 0.072689,-0.0682638 0.169898,-0.116224 0.278291,-0.137472l0.0301378 -0.0304567c0.050248,0.00669685 0.100563,0.00783465 0.151941,0.00348031l0.0245866 0.0214843c0.287126,0.0368504 0.501713,0.25022 0.501713,0.490453 0,0.0156142 -0.0011378,0.0312205 -0.0034252,0.0480394 -0.029,0.259193 -0.305016,0.441283 -0.614524,0.404433zm0.473776 -0.423531l0 0c0.0011378,-0.012189 0.00227559,-0.023311 0.00227559,-0.0356417 0,-0.179874 -0.162118,-0.33965 -0.377634,-0.365445 -0.230189,-0.0267913 -0.43585,0.108472 -0.459232,0.302949 -0.0011378,0.012189 -0.00227559,0.0233819 -0.00227559,0.0356339 0,0.179937 0.162051,0.339657 0.377705,0.365445 0.23011,0.0268071 0.435713,-0.108461 0.459161,-0.302941z"/>
   <path id="_277020784" class="fil2" d="M3.56725 3.59752l0 0c-0.0893622,0.0592835 -0.193268,0.138476 -0.249205,0.221209 0,0 -0.0300827,-0.001 -0.0814685,-0.0044252 -0.405571,-0.0223701 -2.38325,-0.12165 -2.38325,-0.196614 0.00462205,-0.000681102 1.63689,-0.121799 1.72955,-0.174323 0.0972638,-0.0557992 0.116224,-0.0425354 0.201169,-0.0458819 0.078189,-0.00321654 0.467004,-0.00991732 0.850201,-0.0793189 0,0.0100433 0.0022874,0.0201535 0.00562992,0.0302087l0.055937 0.160846c0.0010748,0.00335433 0.0032874,0.00556299 0.00442126,0.00898031 -0.0302087,0.0156772 -0.0793189,0.0436102 -0.13298,0.0793189z"/>
   <path id="_277020760" class="fil3" d="M2.85566 3.70698l0 0c0.0624409,0 0.112744,-0.0501811 0.112744,-0.112748 0,-0.0626339 -0.0503031,-0.112815 -0.112744,-0.112815 -0.0627047,0 -0.112941,0.0501811 -0.112941,0.112815 0,0.0625669 0.0502362,0.112748 0.112941,0.112748z"/>
   <path id="_277020664" class="fil4" d="M2.8556 3.63795l0 0c0.0242205,0 0.0437362,-0.0194646 0.0437362,-0.0437362 0,-0.0242992 -0.0195157,-0.0437677 -0.0437362,-0.0437677 -0.0243268,0 -0.043815,0.0194685 -0.043815,0.0437677 0,0.0242717 0.0194882,0.0437362 0.043815,0.0437362z"/>
  </g>
  <rect class="fil5" width="6.82666" height="6.82666"/>
 </g>
</svg>
