<?xml version="1.0" encoding="UTF-8"?>
<!DOCTYPE svg PUBLIC "-//W3C//DTD SVG 1.1//EN" "http://www.w3.org/Graphics/SVG/1.1/DTD/svg11.dtd">
<!-- Creator: CorelDRAW -->
<svg xmlns="http://www.w3.org/2000/svg" xml:space="preserve" width="6.82666in" height="6.82666in" style="shape-rendering:geometricPrecision; text-rendering:geometricPrecision; image-rendering:optimizeQuality; fill-rule:evenodd; clip-rule:evenodd"
viewBox="0 0 6.82666 6.82666"
 xmlns:xlink="http://www.w3.org/1999/xlink">
 <defs>
  <style type="text/css">
   <![CDATA[
    .fil0 {fill:none}
    .fil5 {fill:#2F2F2F;fill-rule:nonzero}
    .fil4 {fill:#444444;fill-rule:nonzero}
    .fil1 {fill:#6A6A6A;fill-rule:nonzero}
    .fil6 {fill:#7F7F7F;fill-rule:nonzero}
    .fil2 {fill:#909090;fill-rule:nonzero}
    .fil3 {fill:#A1A1A1;fill-rule:nonzero}
   ]]>
  </style>
 </defs>
 <g id="Layer_x0020_1">
  <metadata id="CorelCorpID_0Corel-Layer"/>
  <rect class="fil0" transform="matrix(0.998246 -0.0592098 0.0592097 0.998246 1.08944 2.24338)" width="4.03005" height="4.03005"/>
  <g id="_277023280">
   <path id="_277024048" class="fil1" d="M3.75424 3.09501c-0.00416535,0.00231102 -0.00766929,0.00522441 -0.0117913,0.00874016 -0.0371457,-0.0569646 -0.125197,-0.169173 -0.166626,-0.211169 0.0749606,-0.015685 0.172984,-0.00893307 0.248535,0.0013937l0.0674685 0.121732c-0.00738583,0.00201181 -0.015374,0.00469685 -0.0219331,0.00856299l-0.115654 0.0707402z"/>
   <path id="_277024168" class="fil1" d="M3.33663 2.31657c0.0134528,-0.0163937 -0.292035,-0.262492 -0.528035,-0.415 -0.222173,-0.143591 -0.609823,-0.404465 -0.638969,-0.368949 -0.00615748,0.017185 1.13444,0.834744 1.167,0.783949z"/>
   <path id="_277023472" class="fil2" d="M5.92326 3.24421l0 0c0,0 0.0387638,-0.0108268 0.0466693,0.0244291 0.00561024,0.0253661 0.00259449,0.0459409 0.00259449,0.0459409 0,0 0.000645669,0.00619291 -0.00496457,0.0130276 -0.00453543,0.0055315 -0.0127795,0.0114528 -0.0275,0.0166969 -0.0347598,0.012937 -0.216906,0.189661 -0.323874,0.188193 -0.0752598,-0.000834646 -0.104382,0.00521654 -0.122409,0.0271929 -0.00341732,0.00416142 -0.0061063,0.00878346 -0.00936614,0.0141811 -0.00795276,0.022311 -0.0184803,0.0435472 -0.0316417,0.0637874 -0.00651575,0.0108071 -0.014315,0.0216496 -0.0222323,0.0313031 -0.121894,0.148543 -0.363524,0.171028 -0.559165,0.0462402l-0.000700787 -0.000574803c-0.0431181,-0.027315 -0.0811496,-0.0609331 -0.112441,-0.0970315 -0.0613307,-0.0697795 -0.0991181,-0.151283 -0.109744,-0.233756 0,0 -0.0197283,-0.193283 -0.209488,-0.271933l-0.403717 -0.145972 -0.0549488 -0.0199724c-0.00914961,-0.00288583 -0.0161535,-0.00973622 -0.0195394,-0.018311 -0.00324803,-0.00722047 -0.00359843,-0.0165394 -0.00129528,-0.0250709l0.000574803 -0.000700787 0.046374 -0.126626c0.0015748,-0.00326378 0.00311024,-0.00648819 0.00594882,-0.00994882 0.00111811,-0.0013622 0.00293307,-0.00222047 0.00466142,-0.00432677 0.00862992,-0.00774409 0.0210394,-0.0102559 0.0328268,-0.00637402l0.0177244 0.00647638 0.0242008 0.00833071 0.586598 0.212071c0.118598,0.0432953 0.221209,0.0262874 0.221209,0.0262874 0.117681,-0.0312638 0.257402,-0.0108583 0.379484,0.0674528 0.0620512,0.0393898 0.11189,0.0894646 0.149531,0.144567 0,0 0.000787402,0.0018189 0.00309055,0.00473622 0.000614173,0.000507874 0.00143701,0.0023622 0.00283465,0.00351181 0.0207008,0.0307717 0.102374,0.141606 0.20924,0.173965 0.124413,0.0377205 0.234138,-0.150213 0.279465,-0.157791zm-0.695362 -0.0868268l0 0c-0.146409,-0.0936457 -0.326161,-0.0765354 -0.417,0.0341654 -0.00619291,0.00754724 -0.0111063,0.0149646 -0.0165945,0.0230787 -0.0838583,0.131543 -0.0255236,0.318555 0.129673,0.418311 0.146291,0.0936181 0.326087,0.0765394 0.416953,-0.0342008 0.00622047,-0.00757874 0.0111378,-0.0150039 0.0165945,-0.0230787 0.083752,-0.131492 0.0254843,-0.31852 -0.129626,-0.418276z"/>
   <path id="_277023544" class="fil2" d="M4.2988 4.27588l0 0c-0.100665,-0.104402 -0.147925,-0.237488 -0.140307,-0.359008 0,0 -0.00388189,-0.103228 -0.0688583,-0.21187l-0.345795 -0.571433c-0.00680315,-0.0113819 -0.00622441,-0.0247008 0.000228346,-0.0353386 0.000574803,-0.000700787 0.00106693,-0.00264961 0.00167323,-0.00338976 0.00220079,-0.00268504 0.00512598,-0.00489764 0.00862992,-0.00782283l0.11561 -0.0707756c0.00482283,-0.00301181 0.0109213,-0.00490551 0.0165827,-0.00474016 0.0114567,8.66142e-005 0.0233268,0.00520079 0.0294291,0.0160079l0.252232 0.417598c0.114181,0.170677 0.307634,0.152252 0.307634,0.152252 0.0792047,-0.00530315 0.163252,0.0142677 0.240689,0.0559331l0.0339291 -0.00352756c0.0275433,0.0295 0.0579331,0.0556063 0.091752,0.078874l0.00427953 0.0256378c0.158098,0.167677 0.182409,0.407354 0.0610906,0.555201 -0.00788583,0.00961024 -0.0164646,0.0186378 -0.0263661,0.0278386 -0.14874,0.144866 -0.410563,0.117543 -0.582433,-0.061437zm0.505457 -0.0213937l0 0c0.00685433,-0.00692913 0.0131732,-0.0132008 0.0194016,-0.0207874 0.0908346,-0.110701 0.071748,-0.290902 -0.0478622,-0.41561 -0.128134,-0.132736 -0.323008,-0.153346 -0.43561,-0.0454685 -0.00685433,0.00692913 -0.0132087,0.0132402 -0.0193937,0.0207795 -0.0908701,0.11074 -0.0717953,0.290874 0.0479016,0.415646 0.128079,0.132705 0.322921,0.153287 0.435563,0.0454409z"/>
   <path id="_277024072" class="fil3" d="M3.84171 2.8987l0 0c-0.0849291,-0.00864567 -0.18887,-0.0123819 -0.265075,0.0102874 0,0 -0.0180079,-0.0158071 -0.0479016,-0.0438622 -0.238303,-0.218583 -1.40528,-1.2784 -1.36743,-1.32454 0.00318504,0.00191339 1.06889,0.751665 1.15244,0.766134 0.0880394,0.0147795 0.0930079,0.0325157 0.14698,0.0733543 0.0497402,0.0375039 0.292409,0.229732 0.563287,0.380535 -0.00507087,0.00617717 -0.00877165,0.0135551 -0.0117874,0.0214331l-0.0468031 0.127236c-0.0010315,0.0026063 -0.000787402,0.00508268 -0.00181496,0.00775984 -0.0265079,-0.00561024 -0.0708386,-0.0132165 -0.121898,-0.0183386z"/>
   <path id="_277022944" class="fil4" d="M3.3485 2.60671l0 0c0.0384252,0.0315315 0.0947244,0.0260512 0.126323,-0.0124528 0.0316299,-0.0385472 0.0260118,-0.0948346 -0.0124173,-0.126366 -0.0385906,-0.0316654 -0.0948465,-0.0261535 -0.126476,0.0123937 -0.0315984,0.0385079 -0.0260197,0.0947598 0.0125709,0.126425z"/>
   <path id="_277022656" class="fil5" d="M3.38332 2.56419l0 0c0.0149094,0.0122362 0.036748,0.0101102 0.0490079,-0.00483071 0.0122677,-0.0149528 0.0100906,-0.0367874 -0.0048189,-0.0490197 -0.0149685,-0.0122835 -0.0367913,-0.0101457 -0.049063,0.00480709 -0.0122559,0.0149409 -0.0100945,0.0367598 0.00487402,0.0490433z"/>
   <path id="_277022872" class="fil6" d="M0.910539 2.52464c0.0226102,-0.103067 0.0954882,-0.174618 0.216776,-0.284563 0.235591,-0.213528 0.500177,-0.23678 0.731161,-0.113618 0.230969,0.12315 0.930622,0.91198 1.09285,1.22006 0.162228,0.308083 0.439154,0.642335 0.770031,0.849516 0.330858,0.207181 0.906303,0.712976 0.585051,1.00415 -0.072185,0.0654409 -0.162402,0.101949 -0.243571,0.0966457 -0.28013,-0.0183819 -0.573661,-0.41074 -0.69978,-0.750047 -0.162697,-0.437673 -0.459874,-0.636469 -0.746539,-0.493685 -0.101744,0.0507244 -0.15652,0.075252 -0.240531,0.0878661 -0.0739528,0.0110906 -0.123713,-0.0149488 -0.17189,-0.0591339l0.445126 -0.403476c-0.0127008,-0.0246378 -0.0254291,-0.0492835 -0.0382717,-0.0740827l-0.458343 0.415449 -0.0584488 0.00435433 0.0440039 -0.0109213 -0.0591299 -0.0652283 0.0139488 -0.0126496c0.155669,-0.141083 0.311654,-0.282472 0.467531,-0.42376 -0.0135118,-0.023937 -0.0270709,-0.0480787 -0.0410906,-0.0717835l-0.47411 0.429736 -0.0645354 0.0295472 -0.0249134 -0.0869685 0.0276299 -0.0250394c0.160366,-0.145354 0.320799,-0.290787 0.481252,-0.436217 -0.0149055,-0.0226575 -0.0300354,-0.0453622 -0.0451693,-0.0680827l-0.485752 0.440287 -0.0762165 0.0401181 -0.0249055 -0.0869803 0.0370709 -0.0335906c0.163465,-0.148173 0.327118,-0.296516 0.490768,-0.444839 -0.015811,-0.0218071 -0.0317362,-0.043815 -0.0479646,-0.0655551l-0.49385 0.447646 -0.0834331 0.0466614 -0.0257559 -0.0861732 0.0430669 -0.0390354c0.165449,-0.149965 0.331094,-0.300098 0.496646,-0.450165 -0.0171299,-0.0206693 -0.0343189,-0.0412756 -0.0516535,-0.062l-0.497933 0.451346 -0.0442717 0.040122 -0.0435079 0.0113386 -0.0255197 -0.0874843 0.045063 -0.0408661c0.166051,-0.150508 0.332382,-0.301276 0.498642,-0.451957 -0.0180118,-0.0198583 -0.0360276,-0.0397559 -0.0543386,-0.0595315l-0.49852 0.45187 -0.0889803 0.0516732 -0.0250354 -0.0870984 0.0437756 -0.0396693c0.165638,-0.150146 0.331492,-0.300469 0.497319,-0.450787 -0.0192953,-0.0186772 -0.0385,-0.0374213 -0.0579291,-0.0562835l-0.495421 0.449079 -0.085878 0.048878 -0.0249173 -0.0869646 0.0385669 -0.0349606c0.163976,-0.148642 0.328102,-0.297394 0.492244,-0.446169 -0.0200669,-0.0179724 -0.0399961,-0.0363583 -0.0607087,-0.0540039l-0.488945 0.443193 -0.0616929 0.0269921 -0.0426181 -0.0709134 0.0302992 -0.0274685c0.161264,-0.146173 0.32263,-0.292437 0.48398,-0.438697 -0.0210984,-0.0170394 -0.0424449,-0.0341535 -0.0637402,-0.0512756l-0.479185 0.434331 -0.025622 0.0232244 -0.0440039 0.0109409 -0.0254252 -0.0864606 0.0192598 -0.0174724c0.157268,-0.142555 0.314843,-0.285366 0.472315,-0.428091 -0.0217087,-0.0165315 -0.0440118,-0.0327559 -0.0664606,-0.0488386l-0.466189 0.422575 -0.0153346 0.0138819 -0.0440118 0.0109252 -0.0181457 -0.0930551 0.457638 -0.414815c-0.0227992,-0.0155236 -0.0458071,-0.0311102 -0.0688307,-0.0466732l-0.440984 0.399709 -0.0440118 0.010937 0.0320039 -0.145917z"/>
   <path id="_277022920" class="fil2" d="M0.866516 2.53559c0.0516063,-0.0920512 0.13948,-0.185571 0.260783,-0.29548 0.235575,-0.213543 0.473409,-0.195039 0.687154,-0.102713 0.21374,0.0923346 0.930642,0.911965 1.09286,1.22006 0.16222,0.308079 0.439157,0.642319 0.77002,0.849531 0.330858,0.207181 0.906303,0.712961 0.585067,1.00415 -0.321248,0.291169 -0.780681,-0.215689 -0.943366,-0.653398 -0.162681,-0.437724 -0.459862,-0.636488 -0.746524,-0.493689 -0.101764,0.0507087 -0.156531,0.0752362 -0.240528,0.0878504 -0.0739685,0.0111063 -0.123732,-0.0149331 -0.171909,-0.0591181l0.445126 -0.403476c-0.0126969,-0.0246378 -0.0254173,-0.0492953 -0.0382677,-0.0740827 -0.152756,0.138465 -0.305634,0.277028 -0.458331,0.415437l-0.00467717 0.00424409 -0.00977953 -0.0108031 -0.0591339 -0.0652244 0.0139528 -0.0126496c0.155665,-0.141102 0.311665,-0.282472 0.467524,-0.423776 -0.0135079,-0.0239213 -0.0270669,-0.0480748 -0.0410866,-0.0717638 -0.158067,0.143264 -0.31624,0.286634 -0.47411,0.429732l-0.0205236 0.0186024 -0.0689252 -0.0760394 0.0276299 -0.0250354c0.16035,-0.145343 0.320815,-0.290807 0.481252,-0.436224 -0.0149055,-0.0226535 -0.0300394,-0.0453543 -0.0451693,-0.0680591 -0.161937,0.146772 -0.324004,0.293669 -0.485748,0.440283l-0.0322087 0.0291929 -0.0689291 -0.0760512 0.0370827 -0.0335945c0.163472,-0.148169 0.327134,-0.296516 0.490764,-0.44485 -0.0158071,-0.0218268 -0.0317323,-0.0438031 -0.0479567,-0.0655394 -0.164657,0.14924 -0.329413,0.298575 -0.493854,0.447626l-0.0402795 0.0365157 -0.0689094 -0.0760236 0.0430669 -0.0390197c0.165449,-0.149965 0.331094,-0.300098 0.496661,-0.450181 -0.0171457,-0.0206614 -0.0343307,-0.0412598 -0.0516693,-0.0619843 -0.166051,0.150508 -0.332079,0.300992 -0.497937,0.451311l-0.0442638 0.0401378 -0.0690276 -0.0761457 0.045063 -0.0408465c0.166063,-0.150508 0.332378,-0.301283 0.498638,-0.451972 -0.0179961,-0.019878 -0.0360157,-0.0397402 -0.0543228,-0.0595197 -0.16624,0.150657 -0.332484,0.301366 -0.498531,0.451854l-0.0449724 0.0407638 -0.0690472 -0.0761732 0.0437756 -0.0396811c0.165638,-0.150134 0.331496,-0.300469 0.497319,-0.450772 -0.0192913,-0.0187126 -0.0384843,-0.0374606 -0.0579094,-0.0562913 -0.165146,0.149697 -0.330386,0.299476 -0.495441,0.449087l-0.0418543 0.037937 -0.0689291 -0.0760394 0.0385709 -0.0349488c0.163957,-0.148642 0.328087,-0.297406 0.492244,-0.446189 -0.0200787,-0.0179488 -0.0399961,-0.0363386 -0.0607244,-0.0539803 -0.163043,0.147795 -0.32611,0.295594 -0.488945,0.443189l-0.0354016 0.0320748 -0.0689134 -0.0760157 0.0303031 -0.0274488c0.161276,-0.146173 0.32263,-0.292453 0.484,-0.438697 -0.0211378,-0.0170472 -0.0424449,-0.0341535 -0.0637441,-0.0512953 -0.159776,0.144823 -0.31965,0.289717 -0.479201,0.43435l-0.0256181 0.0232244 -0.0432874 -0.0477638c-0.00796457,-0.00877559 -0.016748,-0.0180709 -0.0261299,-0.0277874l0.0192598 -0.0174409c0.157272,-0.142575 0.314843,-0.285398 0.472295,-0.42811 -0.0217047,-0.0165236 -0.0440079,-0.032748 -0.0664449,-0.0488386 -0.155472,0.140913 -0.310929,0.281831 -0.466205,0.422575l-0.0153307 0.0138898c-0.023437,-0.0244409 -0.0472244,-0.0502165 -0.0683228,-0.0765315l0.00616535 -0.00561811c0.152378,-0.13811 0.305063,-0.276488 0.457638,-0.41478 -0.0227992,-0.0155276 -0.0457992,-0.0311102 -0.0688268,-0.046689l-0.440988 0.39972c-0.0256575,-0.0471339 -0.0351969,-0.0936417 -0.0120079,-0.134984z"/>
   <path id="_277023208" class="fil6" d="M1.32877 2.271c0.176587,0.11376 0.958268,0.674079 1.27535,1.42175 -0.246083,-0.801177 -1.05312,-1.34239 -1.27535,-1.42175z"/>
  </g>
  <rect class="fil0" width="6.82666" height="6.82666"/>
 </g>
</svg>
