<?xml version="1.0" encoding="UTF-8"?>
<!DOCTYPE svg PUBLIC "-//W3C//DTD SVG 1.1//EN" "http://www.w3.org/Graphics/SVG/1.1/DTD/svg11.dtd">
<!-- Creator: CorelDRAW -->
<svg xmlns="http://www.w3.org/2000/svg" xml:space="preserve" width="6.82666in" height="6.82666in" style="shape-rendering:geometricPrecision; text-rendering:geometricPrecision; image-rendering:optimizeQuality; fill-rule:evenodd; clip-rule:evenodd"
viewBox="0 0 6.82666 6.82666"
 xmlns:xlink="http://www.w3.org/1999/xlink">
 <defs>
  <style type="text/css">
   <![CDATA[
    .fil8 {fill:none}
    .fil6 {fill:#5F5F5F}
    .fil4 {fill:#6E6E6E}
    .fil3 {fill:#828282}
    .fil2 {fill:#8E8E8F}
    .fil5 {fill:#CDCDCD}
    .fil7 {fill:#D4D4D5}
    .fil1 {fill:#565656;fill-rule:nonzero}
    .fil0 {fill:#6A6A6A;fill-rule:nonzero}
   ]]>
  </style>
 </defs>
 <g id="Layer_x0020_1">
  <metadata id="CorelCorpID_0Corel-Layer"/>
  <g id="_277024648">
   <path id="_277027096" class="fil0" d="M4.39415 1.53056l-1.96164 0c-0.0565551,0 -0.102402,-0.0458465 -0.102402,-0.102402l0 -0.472429c0,-0.0565512 0.0458465,-0.102402 0.102402,-0.102402l0.0661339 0c0.00247638,0.0245472 0.0163701,0.0433425 0.0331339,0.0433425 0.0167638,0 0.0306575,-0.0187953 0.0331339,-0.0433425l0.0611614 0c0.00247638,0.0245472 0.0163661,0.0433425 0.0331339,0.0433425 0.0167638,0 0.0306575,-0.0187953 0.0331339,-0.0433425l0.0611614 0c0.00247638,0.0245472 0.016374,0.0433425 0.0331378,0.0433425 0.0167638,0 0.0306575,-0.0187953 0.0331339,-0.0433425l0.0611614 0c0.00247638,0.0245472 0.0163701,0.0433425 0.0331339,0.0433425 0.0167638,0 0.0306575,-0.0187953 0.0331339,-0.0433425l0.0611654 0c0.00247638,0.0245472 0.0163661,0.0433425 0.0331339,0.0433425 0.0167638,0 0.0306575,-0.0187953 0.0331339,-0.0433425l0.0611614 0c0.00247638,0.0245472 0.016374,0.0433425 0.0331378,0.0433425 0.0167638,0 0.0306614,-0.0187953 0.0331378,-0.0433425l0.0611614 0c0.00247638,0.0245472 0.0163701,0.0433425 0.0331339,0.0433425 0.0167638,0 0.0306575,-0.0187953 0.0331339,-0.0433425l0.0611614 0c0.00247638,0.0245472 0.0163701,0.0433425 0.0331339,0.0433425 0.0167638,0 0.0306575,-0.0187953 0.0331339,-0.0433425l0.0611654 0c0.00247638,0.0245472 0.0163701,0.0433425 0.0331339,0.0433425 0.0167638,0 0.0306575,-0.0187953 0.0331339,-0.0433425l0.0611614 0c0.00247638,0.0245472 0.0163701,0.0433425 0.0331378,0.0433425 0.0167638,0 0.0306575,-0.0187953 0.0331339,-0.0433425l0.0611614 0c0.00247638,0.0245472 0.0163701,0.0433425 0.0331339,0.0433425 0.0167638,0 0.0306575,-0.0187953 0.0331339,-0.0433425l0.0611614 0c0.00247638,0.0245472 0.0163661,0.0433425 0.0331339,0.0433425 0.0167638,0 0.0306575,-0.0187953 0.0331339,-0.0433425l0.0611654 0c0.00247638,0.0245472 0.0163661,0.0433425 0.0331339,0.0433425 0.0167638,0 0.0306575,-0.0187953 0.0331339,-0.0433425l0.0611614 0c0.00247638,0.0245472 0.0163701,0.0433425 0.0331339,0.0433425 0.0167677,0 0.0306654,-0.0187953 0.0331417,-0.0433425l0.0611614 0c0.00247638,0.0245472 0.0163661,0.0433425 0.0331339,0.0433425 0.0167638,0 0.0306575,-0.0187953 0.0331339,-0.0433425l0.0451969 0c0.0565551,0 0.102402,0.0458504 0.102402,0.102402l0 0.472429c0,0.0565551 -0.0458465,0.102402 -0.102402,0.102402z"/>
   <g>
    <path id="_277027000" class="fil1" d="M2.49963 0.955732c0,-0.0282756 -0.0150157,-0.0512008 -0.0335315,-0.0512008 -0.0185157,0 -0.0335276,0.0229252 -0.0335276,0.0512008l0 0.472429c0,0.0282756 0.0150118,0.0512008 0.0335276,0.0512008 0.0185157,0 0.0335315,-0.0229252 0.0335315,-0.0512008l0 -0.472429z"/>
    <path id="_277027168" class="fil1" d="M2.62705 0.955732c0,-0.0282756 -0.0150118,-0.0512008 -0.0335276,-0.0512008 -0.0185157,0 -0.0335315,0.0229252 -0.0335315,0.0512008l0 0.472429c0,0.0282756 0.0150157,0.0512008 0.0335315,0.0512008 0.0185157,0 0.0335276,-0.0229252 0.0335276,-0.0512008l0 -0.472429z"/>
    <path id="_277026784" class="fil1" d="M2.75448 0.955732c0,-0.0282756 -0.0150157,-0.0512008 -0.0335276,-0.0512008 -0.0185157,0 -0.0335315,0.0229252 -0.0335315,0.0512008l0 0.472429c0,0.0282756 0.0150157,0.0512008 0.0335315,0.0512008 0.0185118,0 0.0335276,-0.0229252 0.0335276,-0.0512008l0 -0.472429z"/>
    <path id="_277027048" class="fil1" d="M2.88191 0.955732c0,-0.0282756 -0.0150118,-0.0512008 -0.0335276,-0.0512008 -0.0185157,0 -0.0335276,0.0229252 -0.0335276,0.0512008l0 0.472429c0,0.0282756 0.0150118,0.0512008 0.0335276,0.0512008 0.0185157,0 0.0335276,-0.0229252 0.0335276,-0.0512008l0 -0.472429z"/>
    <path id="_277027144" class="fil1" d="M3.00935 0.955732c0,-0.0282756 -0.0150118,-0.0512008 -0.0335276,-0.0512008 -0.0185157,0 -0.0335315,0.0229252 -0.0335315,0.0512008l0 0.472429c0,0.0282756 0.0150157,0.0512008 0.0335315,0.0512008 0.0185157,0 0.0335276,-0.0229252 0.0335276,-0.0512008l0 -0.472429z"/>
    <path id="_277026832" class="fil1" d="M3.13678 0.955732c0,-0.0282756 -0.0150118,-0.0512008 -0.0335276,-0.0512008 -0.0185157,0 -0.0335276,0.0229252 -0.0335276,0.0512008l0 0.472429c0,0.0282756 0.0150118,0.0512008 0.0335276,0.0512008 0.0185157,0 0.0335276,-0.0229252 0.0335276,-0.0512008l0 -0.472429z"/>
    <path id="_277026976" class="fil1" d="M3.26421 0.955732c0,-0.0282756 -0.0150118,-0.0512008 -0.0335276,-0.0512008 -0.0185157,0 -0.0335276,0.0229252 -0.0335276,0.0512008l0 0.472429c0,0.0282756 0.0150118,0.0512008 0.0335276,0.0512008 0.0185157,0 0.0335276,-0.0229252 0.0335276,-0.0512008l0 -0.472429z"/>
    <path id="_277025992" class="fil1" d="M3.39164 0.955732c0,-0.0282756 -0.0150118,-0.0512008 -0.0335276,-0.0512008 -0.0185157,0 -0.0335276,0.0229252 -0.0335276,0.0512008l0 0.472429c0,0.0282756 0.0150118,0.0512008 0.0335276,0.0512008 0.0185157,0 0.0335276,-0.0229252 0.0335276,-0.0512008l0 -0.472429z"/>
    <path id="_277025848" class="fil1" d="M3.51907 0.955732c0,-0.0282756 -0.0150118,-0.0512008 -0.0335276,-0.0512008 -0.0185157,0 -0.0335276,0.0229252 -0.0335276,0.0512008l0 0.472429c0,0.0282756 0.0150118,0.0512008 0.0335276,0.0512008 0.0185157,0 0.0335276,-0.0229252 0.0335276,-0.0512008l0 -0.472429z"/>
    <path id="_277026472" class="fil1" d="M3.64651 0.955732c0,-0.0282756 -0.0150157,-0.0512008 -0.0335315,-0.0512008 -0.0185157,0 -0.0335276,0.0229252 -0.0335276,0.0512008l0 0.472429c0,0.0282756 0.0150118,0.0512008 0.0335276,0.0512008 0.0185157,0 0.0335315,-0.0229252 0.0335315,-0.0512008l0 -0.472429z"/>
    <path id="_277026280" class="fil1" d="M3.77394 0.955732c0,-0.0282756 -0.0150157,-0.0512008 -0.0335315,-0.0512008 -0.0185157,0 -0.0335276,0.0229252 -0.0335276,0.0512008l0 0.472429c0,0.0282756 0.0150118,0.0512008 0.0335276,0.0512008 0.0185157,0 0.0335315,-0.0229252 0.0335315,-0.0512008l0 -0.472429z"/>
    <path id="_277026256" class="fil1" d="M3.90137 0.955732c0,-0.0282756 -0.0150157,-0.0512008 -0.0335276,-0.0512008 -0.0185157,0 -0.0335315,0.0229252 -0.0335315,0.0512008l0 0.472429c0,0.0282756 0.0150157,0.0512008 0.0335315,0.0512008 0.0185118,0 0.0335276,-0.0229252 0.0335276,-0.0512008l0 -0.472429z"/>
    <path id="_277025968" class="fil1" d="M4.0288 0.955732c0,-0.0282756 -0.0150157,-0.0512008 -0.0335315,-0.0512008 -0.0185118,0 -0.0335276,0.0229252 -0.0335276,0.0512008l0 0.472429c0,0.0282756 0.0150157,0.0512008 0.0335276,0.0512008 0.0185157,0 0.0335315,-0.0229252 0.0335315,-0.0512008l0 -0.472429z"/>
    <path id="_277025800" class="fil1" d="M4.15623 0.955732c0,-0.0282756 -0.0150118,-0.0512008 -0.0335276,-0.0512008 -0.0185157,0 -0.0335276,0.0229252 -0.0335276,0.0512008l0 0.472429c0,0.0282756 0.0150118,0.0512008 0.0335276,0.0512008 0.0185157,0 0.0335276,-0.0229252 0.0335276,-0.0512008l0 -0.472429z"/>
    <path id="_277026088" class="fil1" d="M4.28367 0.955732c0,-0.0282756 -0.0150118,-0.0512008 -0.0335276,-0.0512008 -0.0185157,0 -0.0335315,0.0229252 -0.0335315,0.0512008l0 0.472429c0,0.0282756 0.0150157,0.0512008 0.0335315,0.0512008 0.0185157,0 0.0335276,-0.0229252 0.0335276,-0.0512008l0 -0.472429z"/>
    <path id="_277025920" class="fil1" d="M4.4111 0.955732c0,-0.0282756 -0.0150118,-0.0512008 -0.0335276,-0.0512008 -0.0185157,0 -0.0335315,0.0229252 -0.0335315,0.0512008l0 0.472429c0,0.0282756 0.0150157,0.0512008 0.0335315,0.0512008 0.0185157,0 0.0335276,-0.0229252 0.0335276,-0.0512008l0 -0.472429z"/>
   </g>
   <path id="_277025152" class="fil2" d="M2.35886 1.32576l2.10894 0c0.00317323,0 0.0097874,0.000259843 0.0198268,0.000775591 0.0894606,0.00459449 0.17235,0.0400787 0.233059,0.0947953 0.0649055,0.0584961 0.105705,0.138772 0.105705,0.228449 0,0.00157087 -0.000212598,0.00651575 -0.000653543,0.0149764l-0.204748 3.97998c-0.00472441,0.0919567 -0.0466654,0.175406 -0.112906,0.235291 -0.0637165,0.0576142 -0.14937,0.0933031 -0.245031,0.0933031l-1.69944 0c-0.0956614,0 -0.181315,-0.035689 -0.245031,-0.0933031 -0.0662323,-0.059878 -0.108177,-0.143331 -0.112902,-0.235291l-0.204748 -3.97998c-0.000440945,-0.00846063 -0.000653543,-0.0134055 -0.000653543,-0.0149764 0,-0.0896772 0.0407992,-0.169953 0.105705,-0.228449 0.0607087,-0.0547165 0.143594,-0.0902008 0.233055,-0.0947953 0.0100394,-0.000515748 0.0166535,-0.000775591 0.0198268,-0.000775591z"/>
   <path id="_277025416" class="fil3" d="M4.6302 5.46574l-0.00920866 0.178996c-0.00472441,0.0919567 -0.0466654,0.175406 -0.112906,0.235291 -0.0637165,0.0576142 -0.14937,0.0933031 -0.245031,0.0933031l-1.69944 0c-0.0956614,0 -0.181315,-0.035689 -0.245031,-0.0933031 -0.0662323,-0.059878 -0.108177,-0.143331 -0.112902,-0.235291l-0.00920866 -0.178996 2.43373 0z"/>
   <path id="_277025488" class="fil4" d="M3.82195 3.94642c0,-0.0353543 -0.0229252,-0.0640197 -0.0512008,-0.0640197 -0.0282756,0 -0.0512008,0.0286654 -0.0512008,0.0640197l0 1.11098c0,0.0353543 0.0229252,0.0640197 0.0512008,0.0640197 0.0282756,0 0.0512008,-0.0286654 0.0512008,-0.0640197l0 -1.11098z"/>
   <path id="_277025248" class="fil4" d="M3.46453 3.94642c0,-0.0353543 -0.0229252,-0.0640197 -0.0512008,-0.0640197 -0.0282756,0 -0.0512008,0.0286654 -0.0512008,0.0640197l0 1.11098c0,0.0353543 0.0229252,0.0640197 0.0512008,0.0640197 0.0282756,0 0.0512008,-0.0286654 0.0512008,-0.0640197l0 -1.11098z"/>
   <path id="_277024912" class="fil4" d="M3.10711 3.94642c0,-0.0353543 -0.0229252,-0.0640197 -0.0512008,-0.0640197 -0.0282756,0 -0.0512008,0.0286654 -0.0512008,0.0640197l0 1.11098c0,0.0353543 0.0229252,0.0640197 0.0512008,0.0640197 0.0282756,0 0.0512008,-0.0286654 0.0512008,-0.0640197l0 -1.11098z"/>
   <path id="_277024408" class="fil5" d="M3.41333 2.84931c0.0939606,0 0.179039,0.0380945 0.240626,0.0996811 0.0615906,0.0615906 0.0996811,0.146669 0.0996811,0.24063 0,0.0939567 -0.0380906,0.179035 -0.0996811,0.240622 -0.0615866,0.0615827 -0.146665,0.0996811 -0.240626,0.0996811 -0.0939567,0 -0.179035,-0.0380984 -0.240622,-0.0996811 -0.0615906,-0.0615866 -0.0996811,-0.146665 -0.0996811,-0.240622 0,-0.0939606 0.0380906,-0.179039 0.0996811,-0.24063 0.0615866,-0.0615866 0.146665,-0.0996811 0.240622,-0.0996811z"/>
   <path id="_277024672" class="fil6" d="M3.41333 2.97522c0.0591969,0 0.112795,0.024 0.151594,0.0627992 0.0388031,0.0388031 0.0627992,0.0924016 0.0627992,0.151598 0,0.059189 -0.0239961,0.112791 -0.0627992,0.151591 -0.0387992,0.0387953 -0.0923976,0.0627992 -0.151594,0.0627992 -0.059189,0 -0.112791,-0.0240039 -0.151591,-0.0627992 -0.0387992,-0.0387992 -0.0627992,-0.0924016 -0.0627992,-0.151591 0,-0.0591969 0.024,-0.112795 0.0627992,-0.151598 0.0387992,-0.0387992 0.0924016,-0.0627992 0.151591,-0.0627992z"/>
   <path id="_277024336" class="fil7" d="M2.00093 1.66476l0.0137008 0.266319 2.79741 0 0.0137008 -0.266319c0.000440945,-0.00846063 0.000653543,-0.0134055 0.000653543,-0.0149764 0,-0.0896772 -0.0407992,-0.169953 -0.105705,-0.228449 -0.058685,-0.0528898 -0.138094,-0.087811 -0.22413,-0.0942323 -0.0029685,-0.000220472 -0.00594488,-0.000409449 -0.00892913,-0.000562992 -0.0100394,-0.000515748 -0.0166535,-0.000775591 -0.0198268,-0.000775591l-0.176047 0 -0.132736 0 -0.102402 0 -0.0960236 0 -0.102402 0 -0.0960236 0 -0.102402 0 -0.0960197 0 -0.102402 0 -0.0960236 0 -0.102402 0 -0.0960197 0 -0.102402 0 -0.0960236 0 -0.102402 0 -0.0960197 0 -0.102402 0 -0.132736 0 -0.176055 0c-0.00317323,0 -0.0097874,0.000259843 -0.0198268,0.000775591 -0.00298031,0.000153543 -0.00595669,0.000338583 -0.00892126,0.000562992 -0.0860394,0.00641732 -0.165449,0.0413386 -0.224134,0.0942323 -0.0649055,0.0584961 -0.105705,0.138772 -0.105705,0.228449 0,0.00157087 0.000212598,0.00651575 0.000653543,0.0149764z"/>
  </g>
  <rect class="fil8" width="6.82666" height="6.82666"/>
 </g>
</svg>
