<?xml version="1.0" encoding="UTF-8"?>
<!DOCTYPE svg PUBLIC "-//W3C//DTD SVG 1.1//EN" "http://www.w3.org/Graphics/SVG/1.1/DTD/svg11.dtd">
<!-- Creator: CorelDRAW -->
<svg xmlns="http://www.w3.org/2000/svg" xml:space="preserve" width="6.82666in" height="6.82666in" style="shape-rendering:geometricPrecision; text-rendering:geometricPrecision; image-rendering:optimizeQuality; fill-rule:evenodd; clip-rule:evenodd"
viewBox="0 0 6.82666 6.82666"
 xmlns:xlink="http://www.w3.org/1999/xlink">
 <defs>
  <style type="text/css">
   <![CDATA[
    .fil5 {fill:none}
    .fil3 {fill:none;fill-rule:nonzero}
    .fil4 {fill:#7F7F7F}
    .fil0 {fill:#333333;fill-rule:nonzero}
    .fil1 {fill:#7F7F7F;fill-rule:nonzero}
    .fil2 {fill:#909090;fill-rule:nonzero}
   ]]>
  </style>
 </defs>
 <g id="Layer_x0020_1">
  <metadata id="CorelCorpID_0Corel-Layer"/>
  <path class="fil0" d="M3.12607 2.00222c0.0217047,-0.0218543 0.0215866,-0.0571693 -0.00026378,-0.078874 -0.0218543,-0.0217047 -0.0571732,-0.0215866 -0.078878,0.00026378l-0.623815 0.606413c-0.0217047,0.0218504 -0.0215866,0.0571693 0.000267717,0.078874 0.0218504,0.0217047 0.0571693,0.0215866 0.078874,-0.000267717l0.623815 -0.606409zm-0.89176 -1.03867c0.0217047,-0.0218504 0.0215866,-0.0571654 -0.000267717,-0.078874 -0.0218504,-0.0217047 -0.0571732,-0.0215866 -0.078878,0.000267717l-0.623811 0.606409c-0.0217047,0.0218543 -0.0215866,0.0571732 0.000267717,0.078878 0.0218504,0.0217047 0.0571654,0.0215827 0.0788701,-0.000267717l0.623819 -0.606413zm0.271717 0.271724c0.0217047,-0.0218465 0.0215866,-0.0571693 -0.00026378,-0.078874 -0.0218543,-0.0217047 -0.0571693,-0.0215866 -0.078874,0.000267717l-0.623815 0.606413c-0.0217047,0.0218504 -0.0215866,0.0571693 0.00026378,0.078874 0.0218543,0.0217047 0.0571732,0.0215866 0.078878,-0.000267717l0.623811 -0.606413zm0.271724 0.271728c0.0217047,-0.0218543 0.0215827,-0.0571732 -0.000271654,-0.078874 -0.0218465,-0.0217047 -0.0571693,-0.0215866 -0.078874,0.00026378l-0.623811 0.606409c-0.0217047,0.0218543 -0.0215866,0.0571693 0.000267717,0.078874 0.0218504,0.0217047 0.0571654,0.0215866 0.078874,-0.00026378l0.623815 -0.606409zm0.0792283 0.226122c0.0217047,-0.0218504 0.0215827,-0.0571693 -0.000267717,-0.078878 -0.0218504,-0.0217047 -0.0571732,-0.0215827 -0.078878,0.000267717l-0.623811 0.606413c-0.0217047,0.0218543 -0.0215866,0.0571693 0.00026378,0.078874 0.0218543,0.0217047 0.0571693,0.0215866 0.078874,-0.00026378l0.623819 -0.606413zm-0.269098 -0.269094c0.0217047,-0.0218543 0.0215866,-0.0571693 -0.00026378,-0.078874 -0.0218543,-0.0217047 -0.0571693,-0.0215866 -0.078874,0.00026378l-0.623815 0.606417c-0.0217087,0.0218465 -0.0215866,0.0571693 0.000267717,0.078874 0.0218465,0.0217047 0.0571693,0.0215866 0.078874,-0.000267717l0.623811 -0.606413zm-0.269091 -0.269094c0.0217047,-0.0218504 0.0215866,-0.0571654 -0.000267717,-0.0788701 -0.0218504,-0.0217087 -0.0571693,-0.0215906 -0.078874,0.00026378l-0.623815 0.606409c-0.0217047,0.0218543 -0.0215866,0.0571732 0.000267717,0.078878 0.0218504,0.0217047 0.0571693,0.0215827 0.078878,-0.000267717l0.623811 -0.606413zm-0.26911 -0.28726c0.0217047,-0.0218504 0.0215866,-0.0571732 -0.000267717,-0.078878 -0.0218504,-0.0217047 -0.0571732,-0.0215827 -0.078878,0.000271654l-0.623811 0.606409c-0.0217047,0.0218543 -0.0215866,0.0571693 0.000267717,0.078874 0.0218504,0.0217047 0.0571693,0.0215866 0.078874,-0.00026378l0.623815 -0.606413zm0.999787 0.871047c0.0217047,-0.0218504 0.0215866,-0.0571693 -0.00026378,-0.078874 -0.0218543,-0.0217047 -0.0571732,-0.0215866 -0.078878,0.000267717l-0.623811 0.606409c-0.0217047,0.0218543 -0.0215866,0.0571732 0.00026378,0.078878 0.0218543,0.0217047 0.0571732,0.0215827 0.078874,-0.00026378l0.623815 -0.606417zm0.27172 0.271728c0.0217047,-0.0218543 0.0215866,-0.0571732 -0.000267717,-0.078878 -0.0218504,-0.0217047 -0.0571693,-0.0215827 -0.078874,0.00026378l-0.623815 0.606417c-0.0217047,0.0218504 -0.0215827,0.0571693 0.000271654,0.078874 0.0218465,0.0217047 0.0571693,0.0215866 0.078874,-0.000267717l0.623811 -0.606409zm0.27172 0.271724c0.0217047,-0.0218543 0.0215866,-0.0571693 -0.00026378,-0.078874 -0.0218543,-0.0217047 -0.0571732,-0.0215906 -0.078878,0.00026378l-0.623811 0.606409c-0.0217047,0.0218543 -0.0215866,0.0571732 0.00026378,0.078878 0.0218543,0.0217047 0.0571693,0.0215827 0.078874,-0.000267717l0.623815 -0.606409zm0.27172 0.27172c0.0217047,-0.0218504 0.0215866,-0.0571693 -0.000267717,-0.078874 -0.0218504,-0.0217047 -0.0571693,-0.0215866 -0.078874,0.000267717l-0.623815 0.606413c-0.0217047,0.0218465 -0.0215866,0.0571693 0.000267717,0.078874 0.0218504,0.0217047 0.0571732,0.0215866 0.078878,-0.000267717l0.623811 -0.606413zm0.27172 0.271728c0.0217047,-0.0218543 0.0215827,-0.0571732 -0.000267717,-0.078878 -0.0218504,-0.0217047 -0.0571693,-0.0215827 -0.078874,0.000267717l-0.623811 0.606413c-0.0217047,0.0218504 -0.0215866,0.0571654 0.00026378,0.0788701 0.0218543,0.0217087 0.0571693,0.0215906 0.078874,-0.00026378l0.623815 -0.606409zm0.0660945 0.212972c0.0217047,-0.0218543 0.0215866,-0.0571693 -0.000267717,-0.078874 -0.0218504,-0.0217047 -0.0571654,-0.0215866 -0.078874,0.00026378l-0.623815 0.606413c-0.0217047,0.0218504 -0.0215866,0.0571732 0.000267717,0.078878 0.0218504,0.0217047 0.0571732,0.0215827 0.078878,-0.000271654l0.623811 -0.606409zm-0.269091 -0.269098c0.0217087,-0.0218504 0.0215827,-0.0571732 -0.00026378,-0.078878 -0.0218504,-0.0217047 -0.0571732,-0.0215827 -0.078878,0.000271654l-0.623811 0.606409c-0.0217047,0.0218543 -0.0215866,0.0571693 0.00026378,0.078874 0.0218543,0.0217047 0.0571693,0.0215866 0.078874,-0.00026378l0.623815 -0.606413zm-0.269094 -0.269094c0.0217047,-0.0218504 0.0215827,-0.0571693 -0.000271654,-0.078874 -0.0218504,-0.0217047 -0.0571654,-0.0215866 -0.0788701,0.00026378l-0.623819 0.606417c-0.0217008,0.0218504 -0.0215827,0.0571693 0.000271654,0.078874 0.0218504,0.0217047 0.0571693,0.0215866 0.078874,-0.000267717l0.623815 -0.606413zm-0.269098 -0.269091c0.0217087,-0.0218504 0.0215906,-0.0571654 -0.00026378,-0.0788701 -0.0218543,-0.0217087 -0.0571693,-0.0215906 -0.078874,0.00026378l-0.623815 0.606409c-0.0217047,0.0218543 -0.0215827,0.0571732 0.00026378,0.078878 0.0218543,0.0217047 0.0571732,0.0215827 0.078878,-0.000267717l0.623811 -0.606413z"/>
  <path class="fil1" d="M3.4105 4.02291l0.60035 -0.60035 -7.87402e-006 -7.87402e-006c0.0416535,-0.0416535 0.109197,-0.0416535 0.15085,0l0.000590551 0.000606299c0.376925,0.696154 0.89939,1.21904 1.56798,1.56797 0.103461,0.103465 0.155197,0.239724 0.155197,0.375894 0,0.136169 -0.0517402,0.272429 -0.155201,0.37589l7.87402e-006 7.87402e-006 -0.0015 0.00146063c-0.103276,0.102476 -0.238882,0.153732 -0.374398,0.153732 -0.136169,0 -0.272429,-0.0517362 -0.375894,-0.155197 -0.376008,-0.649685 -0.887008,-1.18278 -1.56857,-1.56857l-7.87402e-006 7.87402e-006c-0.0416535,-0.0416535 -0.0416535,-0.109197 0,-0.15085l0.000606299 -0.000590551z"/>
  <path class="fil2" d="M3.39946 4.1679c-0.432984,-0.268535 -0.956504,-0.660315 -1.31843,-1.0253 -0.405551,-0.408976 -0.768051,-0.875327 -1.09188,-1.39317 -0.0291693,-0.0466457 -0.047937,-0.100181 -0.047937,-0.153602 0,-0.0553701 0.0185827,-0.108406 0.062937,-0.15276l0.165378 -0.165378 0.000590551 -0.000606299 0.0754134 0.075437 -0.075 -0.0754173c0.035248,-0.0352402 0.0814094,-0.0528661 0.127406,-0.0528661 0.0462441,0 0.0925787,0.017626 0.127819,0.0528661l3.93701e-006 3.93701e-006 2.37839 2.35756 -0.380035 0.380035c-0.040315,0.040315 -0.0471732,0.0933583 -0.0246575,0.153197z"/>
  <line class="fil3" x1="5.57898" y1="5.59252" x2="5.57911" y2= "5.59239" />
  <polyline class="fil3" points="5.57911,5.59239 5.57941,5.59207 5.57942,5.59208 "/>
  <path class="fil4" d="M2.47709 2.62322c0.0678583,0.066622 0.135728,0.131496 0.203028,0.194165 0.0257087,0.023937 0.0513346,0.0475551 0.0768465,0.0708268 0.0689646,0.0629094 0.137091,0.123283 0.20374,0.180618 0.0287598,0.0247441 0.057248,0.0489213 0.0854094,0.0724921 0.0728189,0.0609488 0.143461,0.117846 0.211031,0.169992 0.0306772,0.0236693 0.0607165,0.0463622 0.0900472,0.0680079 0.0238425,0.0175984 0.0472165,0.0345079 0.0700748,0.0506929 0.0267677,0.0189528 0.0528268,0.0369094 0.0781024,0.053815 0.0270039,0.0180591 0.0531181,0.0349213 0.0782559,0.0505118 0.0354173,0.0219685 0.0688937,0.0414134 0.100189,0.0581535 0.042378,0.0226654 0.080752,0.0403583 0.114512,0.0525984 0.00133465,0.000484252 0.00265748,0.000956693 0.00397638,0.0014252l0.0118504 -0.0118504 -0.0027126 -0.00268898 -0.0833031 -0.0825748 -0.0792244 -0.0785315 -0.0619764 -0.0614331 -0.0792244 -0.0785276 -0.0498701 -0.0494331 -0.0792205 -0.0785276 -0.0646181 -0.0640512 -0.0792244 -0.0785315 -0.0472323 -0.0468189 -0.0792244 -0.0785276 -0.0672559 -0.0666693 -0.0792205 -0.0785276 -0.0445906 -0.0442008 -0.0792244 -0.0785276 -0.0698976 -0.0692874 -0.0792244 -0.0785276 -0.0419528 -0.0415866 -0.0792205 -0.0785276 -0.0725394 -0.0719016 -0.0792205 -0.0785276 -0.039311 -0.0389685 -0.0792244 -0.0785276 -0.0751772 -0.0745197 -0.0792244 -0.0785315 -0.0366693 -0.0363465 -0.0792205 -0.0785276 -0.0778189 -0.0771378 -0.0792244 -0.0785276 -0.0340276 -0.0337323 -0.0792283 -0.0785315 -0.0804567 -0.0797559 -0.0792205 -0.0785236 -0.0406535 -0.0402992 -0.0792244 -0.0785276 -0.0415394 -0.0411772c-0.0106378,-0.0106378 -0.0222874,-0.0196732 -0.0346417,-0.0270984 0.00711811,0.0293819 0.0204094,0.0642047 0.0395276,0.103909 0.0149409,0.0310276 0.033437,0.0650354 0.0553268,0.101756 0.0103504,0.0173701 0.0214606,0.0353465 0.033315,0.0539016 0.0157323,0.024622 0.0327677,0.0502677 0.0510669,0.0768622 0.0233701,0.0339685 0.0488071,0.0694921 0.0762205,0.106437 0.0214843,0.0289488 0.0441811,0.0587717 0.0680512,0.0893976 0.0515787,0.0661772 0.108638,0.13611 0.170764,0.209138 0.0235276,0.0276535 0.0477756,0.055748 0.0727323,0.084252 0.0576181,0.065811 0.118988,0.133787 0.183835,0.203488 0.0227402,0.0244409 0.0459055,0.0490984 0.0694882,0.0739449 0.00422835,0.00445669 0.00847244,0.00891732 0.0127283,0.0133858 0.0610354,0.0640827 0.122681,0.127185 0.184496,0.188965 0.0227913,0.0227756 0.0456102,0.045374 0.0684252,0.0677756z"/>
  <rect class="fil5" width="6.82666" height="6.82666"/>
 </g>
</svg>
