<?xml version="1.0" encoding="UTF-8"?>
<!DOCTYPE svg PUBLIC "-//W3C//DTD SVG 1.1//EN" "http://www.w3.org/Graphics/SVG/1.1/DTD/svg11.dtd">
<!-- Creator: CorelDRAW -->
<svg xmlns="http://www.w3.org/2000/svg" xml:space="preserve" width="6.82666in" height="6.82666in" style="shape-rendering:geometricPrecision; text-rendering:geometricPrecision; image-rendering:optimizeQuality; fill-rule:evenodd; clip-rule:evenodd"
viewBox="0 0 6.82666 6.82666"
 xmlns:xlink="http://www.w3.org/1999/xlink">
 <defs>
  <style type="text/css">
   <![CDATA[
    .fil7 {fill:none}
    .fil2 {fill:#272727}
    .fil4 {fill:#5C5C5C}
    .fil5 {fill:#797979}
    .fil1 {fill:#2F2F2F;fill-rule:nonzero}
    .fil6 {fill:#6B6B6B;fill-rule:nonzero}
    .fil0 {fill:#797979;fill-rule:nonzero}
    .fil3 {fill:#A1A1A1;fill-rule:nonzero}
   ]]>
  </style>
 </defs>
 <g id="Layer_x0020_1">
  <metadata id="CorelCorpID_0Corel-Layer"/>
  <g id="_277002232">
   <path id="_277004176" class="fil0" d="M3.73157 1.94321c0.00116535,0.0160433 0.00176772,0.0322795 0.00176772,0.0486654 0,0.0852717 -0.0157913,0.165461 -0.0433583,0.234669 -0.0164803,0.0413701 -0.0371811,0.0787087 -0.061252,0.110764 0.0195079,0.059126 0.0358937,0.127398 0.0483937,0.202343 0.0179488,0.107657 0.0281299,0.229283 0.0281299,0.357028 0,0.138902 -0.011874,0.269941 -0.0325827,0.383319 -0.0138976,0.0761024 -0.032063,0.144941 -0.0536142,0.203748 0.0253937,0.0313543 0.0474488,0.0684134 0.0652323,0.109799 0.0310512,0.0722756 0.0490472,0.157236 0.0490472,0.247622l0 1.75477c0,0.169354 -0.132843,0.377394 -0.320008,0.377394 -0.187047,0 -0.320012,-0.207866 -0.320012,-0.377394l0 -1.75477c0,-0.0903898 0.0179961,-0.175354 0.0490512,-0.247626 0.0177795,-0.0413898 0.0398386,-0.0784449 0.0652283,-0.109799 -0.0215472,-0.0588031 -0.0397087,-0.127634 -0.0536102,-0.203736 -0.0207126,-0.113386 -0.0325787,-0.244421 -0.0325787,-0.383327 0,-0.127744 0.0101772,-0.24937 0.028126,-0.357028 0.0124961,-0.0749449 0.0288858,-0.143217 0.0483937,-0.202343 -0.0240709,-0.0320551 -0.0447717,-0.0693937 -0.061252,-0.110764 -0.0275669,-0.0692087 -0.0433583,-0.149398 -0.0433583,-0.234669 0,-0.0163858 0.000602362,-0.032622 0.00176772,-0.0486654l0.636488 0z"/>
   <path id="_277004104" class="fil1" d="M1.57941 0.86472l3.66905 0c0.0577795,0 0.105063,0.0449488 0.108807,0.10178l0.135465 0.866984 0.00042126 -6.29921e-005c0.00929528,0.0595079 -0.0314016,0.115283 -0.0909094,0.124583 -0.0061063,0.000948819 -0.0121772,0.00137008 -0.0181614,0.00130709l-3.94285 0c-0.0602283,0 -0.109055,-0.0488268 -0.109055,-0.109051 0,-0.00914567 0.00113386,-0.0180276 0.00325197,-0.0265197l0.135406 -0.866587 -0.000401575 -0.000220472c0.00848425,-0.0542598 0.0556181,-0.0928819 0.108976,-0.0922126z"/>
   <path id="_277003384" class="fil2" d="M1.52135 0.957693l-0.136528 0.873764c-0.000885827,0.00565354 -0.00265354,0.0131575 -0.00265354,0.0188031 0,0.0326299 0.0264291,0.0590551 0.0590591,0.0590551l3.94285 0c0.00348819,0 0.00701181,-0.000173228 0.0104646,-0.000712598 0.0298583,-0.00464961 0.0509291,-0.0309016 0.0498898,-0.0603504l-0.136567 -0.874035c-0.0047874,-0.0306496 -0.0260906,-0.0595 -0.0594094,-0.0595l-3.66905 0c-0.0269764,0 -0.0508071,0.0174134 -0.0580551,0.0429764z"/>
   <g>
    <polygon id="_277003168" class="fil3" points="5.24026,1.11996 5.26711,1.30573 1.55951,1.30573 1.58636,1.11996 "/>
    <polygon id="_277002880" class="fil3" points="5.24026,1.3459 5.26711,1.53167 1.55951,1.53167 1.58636,1.3459 "/>
    <polygon id="_277003144" class="fil3" points="5.24026,1.57184 5.26711,1.75761 1.55951,1.75761 1.58636,1.57184 "/>
   </g>
   <path id="_277002808" class="fil4" d="M3.1214 2.89668c0,0.138906 0.0118661,0.269941 0.0325787,0.383327 0.0139016,0.0761024 0.032063,0.144933 0.0536102,0.203736 -0.000240157,0.000299213 -0.000484252,0.000598425 -0.000724409,0.000897638l0.412906 0c-0.000240157,-0.000299213 -0.000480315,-0.000598425 -0.000720472,-0.000893701 0.0215512,-0.0588071 0.0397165,-0.127646 0.0536142,-0.203748 0.0207087,-0.113378 0.0325827,-0.244417 0.0325827,-0.383319 0,-0.127744 -0.0101811,-0.24937 -0.0281299,-0.357028 -0.0124252,-0.0744961 -0.028689,-0.142398 -0.0480433,-0.20128l-0.431504 0c-0.0193543,0.0588819 -0.035622,0.126783 -0.0480433,0.20128 -0.0179488,0.107657 -0.028126,0.229283 -0.028126,0.357028z"/>
   <path id="_277002736" class="fil5" d="M3.19757 2.33837l0.431504 0c-0.00011811,-0.000354331 -0.000232283,-0.000708661 -0.000350394,-0.00106299 0.0240709,-0.0320551 0.0447717,-0.0693937 0.061252,-0.110764 0.0275669,-0.0692087 0.0433583,-0.149398 0.0433583,-0.234669 0,-0.0109252 -0.000267717,-0.0217835 -0.000791339,-0.032563l-0.638441 0c-0.000523622,0.0107795 -0.000791339,0.0216378 -0.000791339,0.032563 0,0.0852717 0.0157913,0.165461 0.0433583,0.234669 0.0164803,0.0413701 0.0371811,0.0787087 0.061252,0.110764 -0.00011811,0.000354331 -0.000232283,0.000708661 -0.000350394,0.00106299z"/>
   <path id="_277002760" class="fil6" d="M3.59999 3.54548c0,-0.0101102 -0.00895669,-0.018311 -0.02,-0.018311 -0.0110433,0 -0.02,0.00820079 -0.02,0.018311l0 2.12372c0,0.0101102 0.00895669,0.018311 0.02,0.018311 0.0110433,0 0.02,-0.00820079 0.02,-0.018311l0 -2.12372z"/>
   <path id="_277002280" class="fil6" d="M3.43332 3.54652c0,-0.010689 -0.00895669,-0.0193583 -0.02,-0.0193583 -0.0110433,0 -0.02,0.00866929 -0.02,0.0193583l0 2.24518c0,0.010689 0.00895669,0.0193583 0.02,0.0193583 0.0110433,0 0.02,-0.00866929 0.02,-0.0193583l0 -2.24518z"/>
   <path id="_277002544" class="fil6" d="M3.26666 3.54548c0,-0.0101102 -0.00895669,-0.018311 -0.02,-0.018311 -0.0110433,0 -0.02,0.00820079 -0.02,0.018311l0 2.12372c0,0.0101102 0.00895669,0.018311 0.02,0.018311 0.0110433,0 0.02,-0.00820079 0.02,-0.018311l0 -2.12372z"/>
  </g>
  <rect class="fil7" width="6.82666" height="6.82666"/>
 </g>
</svg>
