<?xml version="1.0" encoding="UTF-8"?>
<!DOCTYPE svg PUBLIC "-//W3C//DTD SVG 1.1//EN" "http://www.w3.org/Graphics/SVG/1.1/DTD/svg11.dtd">
<!-- Creator: CorelDRAW -->
<svg xmlns="http://www.w3.org/2000/svg" xml:space="preserve" width="6.82666in" height="6.82666in" style="shape-rendering:geometricPrecision; text-rendering:geometricPrecision; image-rendering:optimizeQuality; fill-rule:evenodd; clip-rule:evenodd"
viewBox="0 0 6.82666 6.82666"
 xmlns:xlink="http://www.w3.org/1999/xlink">
 <defs>
  <style type="text/css">
   <![CDATA[
    .fil6 {fill:none}
    .fil1 {fill:#181818;fill-rule:nonzero}
    .fil3 {fill:#202020;fill-rule:nonzero}
    .fil4 {fill:#262626;fill-rule:nonzero}
    .fil0 {fill:#3A3A3A;fill-rule:nonzero}
    .fil2 {fill:#CFCFD0;fill-rule:nonzero}
    .fil5 {fill:#DEDEDE;fill-rule:nonzero}
   ]]>
  </style>
 </defs>
 <g id="Layer_x0020_1">
  <metadata id="CorelCorpID_0Corel-Layer"/>
  <path class="fil0" d="M1.2571 3.9163c0,-0.0712441 -0.0477598,-0.129 -0.106669,-0.129 -0.0589094,0 -0.106669,0.0577559 -0.106669,0.129l0 2.04809 0.213339 0 0 -2.04809zm4.52581 0c0,-0.0712441 -0.0477598,-0.129 -0.106669,-0.129 -0.0589094,0 -0.106669,0.0577559 -0.106669,0.129l0 2.04809 0.213339 0 0 -2.04809z"/>
  <path class="fil1" d="M3.73187 3.17987c0,-0.0589094 -0.142622,-0.106669 -0.318543,-0.106669 -0.175921,0 -0.318543,0.0477598 -0.318543,0.106669l0 0.34387c0,0.0589094 0.142622,0.106669 0.318543,0.106669 0.175921,0 0.318543,-0.0477598 0.318543,-0.106669l0 -0.34387z"/>
  <path class="fil2" d="M3.41333 0.911161c0.548709,0 1.04735,0.12337 1.40997,0.322831 0.38102,0.209587 0.616697,0.505421 0.616697,0.837815 0,0.332394 -0.235677,0.628228 -0.616697,0.837815 -0.362622,0.199461 -0.861264,0.322831 -1.40997,0.322831 -0.548705,0 -1.04736,-0.12337 -1.40997,-0.322831 -0.38102,-0.209587 -0.616701,-0.505421 -0.616701,-0.837815 0,-0.332394 0.235681,-0.628228 0.616701,-0.837815 0.362614,-0.199461 0.861268,-0.322831 1.40997,-0.322831z"/>
  <path class="fil3" d="M3.41333 0.837827c0.274272,0 0.536929,0.0303976 0.777484,0.0854764 0.25072,0.0574016 0.477209,0.141732 0.66772,0.246524 0.203331,0.111846 0.36785,0.248094 0.481028,0.40185 0.111969,0.152122 0.173772,0.320941 0.173772,0.50013 0,0.179189 -0.0618031,0.348008 -0.173772,0.50013 -0.113177,0.153756 -0.277697,0.290004 -0.481028,0.40185 -0.190512,0.104791 -0.417,0.189122 -0.66772,0.246524 -0.240555,0.0550787 -0.503213,0.0854764 -0.777484,0.0854764 -0.274272,0 -0.536929,-0.0303976 -0.777488,-0.0854764 -0.250724,-0.0574016 -0.477209,-0.141732 -0.667717,-0.246524 -0.203331,-0.111846 -0.367854,-0.248098 -0.481031,-0.401854 -0.111969,-0.152118 -0.173772,-0.320941 -0.173772,-0.500126 0,-0.179185 0.0618031,-0.348008 0.173772,-0.500126 0.113177,-0.153756 0.277701,-0.290008 0.481031,-0.401854 0.190508,-0.104791 0.416992,-0.189122 0.667717,-0.246524 0.240559,-0.0550787 0.503217,-0.0854764 0.777488,-0.0854764zm0.744831 0.22813c-0.229256,-0.0524921 -0.480815,-0.0814606 -0.744831,-0.0814606 -0.264016,0 -0.515575,0.0289685 -0.744835,0.0814606 -0.23728,0.0543268 -0.450921,0.133752 -0.629906,0.232201 -0.184913,0.101713 -0.333205,0.223819 -0.433472,0.360035 -0.0935118,0.127039 -0.145126,0.266724 -0.145126,0.413614 0,0.14689 0.0516142,0.286575 0.145126,0.413614 0.100268,0.136217 0.248559,0.258323 0.433472,0.360035 0.178984,0.0984488 0.392626,0.177874 0.629906,0.232201 0.22926,0.0524921 0.480819,0.0814606 0.744835,0.0814606 0.264016,0 0.515575,-0.0289685 0.744831,-0.0814606 0.237276,-0.0543268 0.450925,-0.133752 0.629909,-0.232201 0.184913,-0.101717 0.333201,-0.223815 0.433469,-0.360031 0.0935118,-0.127043 0.145126,-0.266728 0.145126,-0.413618 0,-0.14689 -0.0516142,-0.286575 -0.145126,-0.413618 -0.100268,-0.136217 -0.248555,-0.258315 -0.433469,-0.360031 -0.178984,-0.0984488 -0.392634,-0.177874 -0.629909,-0.232201z"/>
  <path class="fil4" d="M0.906665 3.41707l5.01333 0c0.0589094,0 0.106669,0.0477598 0.106669,0.106669l0 0.32c0,0.0589094 -0.0477598,0.106669 -0.106669,0.106669l-5.01333 0c-0.0589094,0 -0.106669,-0.0477598 -0.106669,-0.106669l0 -0.32c0,-0.0589094 0.0477598,-0.106669 0.106669,-0.106669z"/>
  <g id="_277006072">
   <polygon id="_277005928" class="fil5" points="4.11113,1.54498 3.46183,2.00475 3.32156,2.29091 "/>
   <polygon id="_277005880" class="fil5" points="3.59759,2.26248 3.727,2.03746 3.1575,2.5932 "/>
  </g>
  <rect class="fil6" width="6.82666" height="6.82666"/>
 </g>
</svg>
