<?xml version="1.0" encoding="UTF-8"?>
<!DOCTYPE svg PUBLIC "-//W3C//DTD SVG 1.1//EN" "http://www.w3.org/Graphics/SVG/1.1/DTD/svg11.dtd">
<!-- Creator: CorelDRAW -->
<svg xmlns="http://www.w3.org/2000/svg" xml:space="preserve" width="6.82666in" height="6.82666in" style="shape-rendering:geometricPrecision; text-rendering:geometricPrecision; image-rendering:optimizeQuality; fill-rule:evenodd; clip-rule:evenodd"
viewBox="0 0 6.82666 6.82666"
 xmlns:xlink="http://www.w3.org/1999/xlink">
 <defs>
  <style type="text/css">
   <![CDATA[
    .fil6 {fill:none}
    .fil4 {fill:#C9C9C9}
    .fil0 {fill:#4D4D4D;fill-rule:nonzero}
    .fil3 {fill:#565656;fill-rule:nonzero}
    .fil2 {fill:#585959;fill-rule:nonzero}
    .fil1 {fill:#6A6A6A;fill-rule:nonzero}
    .fil5 {fill:#DEDEDE;fill-rule:nonzero}
   ]]>
  </style>
 </defs>
 <g id="Layer_x0020_1">
  <metadata id="CorelCorpID_0Corel-Layer"/>
  <g id="_277008472">
   <path id="_277009360" class="fil0" d="M3.31093 3.74898c0,0.0565512 0.0458504,0.102402 0.102402,0.102402 0.0565512,0 0.102402,-0.0458504 0.102402,-0.102402l0 -0.297685c0,-0.0565512 -0.0458504,-0.102402 -0.102402,-0.102402 -0.0565512,0 -0.102402,0.0458504 -0.102402,0.102402l0 0.297685z"/>
   <path id="_277009480" class="fil1" d="M3.84 5.47402c0,0.137866 -0.0477598,0.262697 -0.124976,0.353059 -0.0772087,0.0903583 -0.183882,0.146256 -0.301689,0.146256 -0.117815,0 -0.22448,-0.0558898 -0.301693,-0.146256 -0.0772205,-0.0903622 -0.124976,-0.215189 -0.124976,-0.353059 0,-0.151874 0.0338031,-0.20652 0.0737913,-0.27115 0.0372047,-0.0601378 0.0827441,-0.133752 0.0827441,-0.461606 0,-0.0922677 0.00651575,-0.180634 0.0181929,-0.260701 0.00757874,-0.0519606 0.0175236,-0.100717 0.0294646,-0.145071 -0.0238937,-0.025815 -0.0445472,-0.0557874 -0.0611378,-0.0889528 -0.0287402,-0.0574528 -0.0452165,-0.123799 -0.0452165,-0.194055 0,-0.106248 0.0368071,-0.202453 0.096315,-0.272094 0.0595079,-0.0696378 0.14172,-0.11272 0.232512,-0.11272 0.0907913,0 0.173004,0.0430827 0.232512,0.11272 0.0595079,0.0696417 0.096315,0.165846 0.096315,0.272094 0,0.0702559 -0.0164764,0.136602 -0.0452165,0.194055 -0.0165945,0.0331693 -0.0372441,0.0631417 -0.0611417,0.0889606 0.0119409,0.0443543 0.0218858,0.0931063 0.0294685,0.145071 0.0116693,0.0800591 0.018189,0.168425 0.018189,0.260693 0,0.327858 0.0455394,0.401461 0.082752,0.461602 0.0399882,0.0646299 0.0737913,0.119276 0.0737913,0.271154z"/>
   <path id="_277009552" class="fil2" d="M3.40003 5.97308c-0.112528,-0.0040315 -0.214094,-0.0590551 -0.28839,-0.146008 -0.0772205,-0.0903622 -0.124976,-0.215189 -0.124976,-0.353059 0,-0.151874 0.0338031,-0.20652 0.0737913,-0.27115 0.0372047,-0.0601378 0.0827441,-0.133752 0.0827441,-0.461606 0,-0.0922677 0.00651575,-0.180634 0.0181929,-0.260701 0.00757874,-0.0519606 0.0175236,-0.100717 0.0294646,-0.145071 -0.0238937,-0.025815 -0.0445472,-0.0557874 -0.0611378,-0.0889528 -0.0287402,-0.0574528 -0.0452165,-0.123799 -0.0452165,-0.194055 0,-0.106248 0.0368071,-0.202453 0.096315,-0.272094 0.0565866,-0.0662205 0.133709,-0.108425 0.219213,-0.112406l0 2.3051z"/>
   <path id="_277009288" class="fil1" d="M3.41333 0.853331c0.310441,0 0.590244,0.153354 0.791642,0.401291 0.196665,0.242102 0.318311,0.575059 0.318311,0.941457 0,0.366398 -0.121642,0.699354 -0.318311,0.941461 -0.201398,0.247937 -0.481201,0.401291 -0.791642,0.401291 -0.310441,0 -0.590244,-0.153354 -0.791642,-0.401291 -0.196669,-0.242106 -0.318311,-0.575063 -0.318311,-0.941461 0,-0.366398 0.121646,-0.699354 0.318311,-0.941457 0.201398,-0.247937 0.481201,-0.401291 0.791642,-0.401291zm0.633244 0.530091c-0.163252,-0.200976 -0.38724,-0.325287 -0.633244,-0.325287 -0.246004,0 -0.469992,0.124311 -0.633244,0.325287 -0.167992,0.206807 -0.271902,0.494039 -0.271902,0.812657 0,0.318622 0.103909,0.605854 0.271902,0.812661 0.163252,0.200976 0.38724,0.325283 0.633244,0.325283 0.246004,0 0.469992,-0.124307 0.633244,-0.325283 0.167992,-0.206807 0.271902,-0.494039 0.271902,-0.812661 0,-0.318618 -0.103909,-0.60585 -0.271902,-0.812657z"/>
   <path id="_277009192" class="fil3" d="M2.45111 2.19608c0,0.338713 0.110461,0.644059 0.289047,0.863909 0.173547,0.21365 0.411661,0.345795 0.673177,0.345795 0.261516,0 0.49963,-0.132146 0.673177,-0.345795 0.178587,-0.21985 0.289047,-0.525197 0.289047,-0.863909 0,-0.338709 -0.110461,-0.644055 -0.289047,-0.863906 -0.173547,-0.21365 -0.411661,-0.345799 -0.673177,-0.345799 -0.261516,0 -0.49963,0.13215 -0.673177,0.345799 -0.178587,0.21985 -0.289047,0.525197 -0.289047,0.863906zm1.59547 -0.812657c-0.163252,-0.200976 -0.38724,-0.325287 -0.633244,-0.325287 -0.246004,0 -0.469992,0.124311 -0.633244,0.325287 -0.167992,0.206807 -0.271902,0.494039 -0.271902,0.812657 0,0.318622 0.103909,0.605854 0.271902,0.812661 0.163252,0.200976 0.38724,0.325283 0.633244,0.325283 0.246004,0 0.469992,-0.124307 0.633244,-0.325283 0.167992,-0.206807 0.271902,-0.494039 0.271902,-0.812661 0,-0.318618 -0.103909,-0.60585 -0.271902,-0.812657z"/>
   <path id="_277009408" class="fil4" d="M2.50819 2.19608c0,0.318622 0.103909,0.605854 0.271902,0.812661 0.163252,0.200976 0.38724,0.325283 0.633244,0.325283 0.246004,0 0.469992,-0.124307 0.633244,-0.325283 0.167992,-0.206807 0.271902,-0.494039 0.271902,-0.812661 0,-0.318618 -0.103909,-0.60585 -0.271902,-0.812657 -0.163252,-0.200976 -0.38724,-0.325287 -0.633244,-0.325287 -0.246004,0 -0.469992,0.124311 -0.633244,0.325287 -0.167992,0.206807 -0.271902,0.494039 -0.271902,0.812657z"/>
   <path id="_277008280" class="fil5" d="M3.9604 1.53578c-0.0166693,-0.0205039 -0.0468071,-0.0236102 -0.067311,-0.00693701 -0.0205039,0.0166693 -0.0236102,0.0468071 -0.00694094,0.067311 0.0642323,0.0790709 0.114457,0.172417 0.148665,0.274098 0.034315,0.101988 0.0524724,0.212579 0.0524724,0.325827 0,0.0265079 0.0214921,0.048 0.048,0.048 0.0265118,0 0.048,-0.0214921 0.048,-0.048 0,-0.123087 -0.0199764,-0.244004 -0.0577283,-0.356197 -0.0378504,-0.112508 -0.0936417,-0.216067 -0.165157,-0.304102z"/>
   <path id="_277008160" class="fil5" d="M3.91252 1.77887c-0.0123189,-0.0234055 -0.0412874,-0.0323858 -0.064689,-0.020063 -0.0234055,0.0123189 -0.0323819,0.0412874 -0.020063,0.064689 0.0364449,0.0690039 0.064315,0.143547 0.0830157,0.221173 0.0187087,0.0777008 0.0283622,0.159272 0.0283622,0.242264 0,0.0455079 -0.00277953,0.089937 -0.00828346,0.132882 -0.00555512,0.0433819 -0.0139764,0.0866181 -0.0251969,0.129303 -0.00673228,0.0255787 0.00854724,0.0517756 0.034126,0.0585039 0.0255748,0.00673228 0.0517717,-0.00854724 0.0585,-0.034126 0.0120787,-0.0459449 0.021248,-0.0933307 0.0274449,-0.141677 0.00625591,-0.0487874 0.00940945,-0.0972362 0.00940945,-0.144886 0,-0.089437 -0.0106732,-0.178472 -0.0313661,-0.264386 -0.0207126,-0.0859882 -0.0513504,-0.168118 -0.0912598,-0.243677z"/>
  </g>
  <rect class="fil6" width="6.82666" height="6.82666"/>
 </g>
</svg>
