<?xml version="1.0" encoding="UTF-8"?>
<!DOCTYPE svg PUBLIC "-//W3C//DTD SVG 1.1//EN" "http://www.w3.org/Graphics/SVG/1.1/DTD/svg11.dtd">
<!-- Creator: CorelDRAW -->
<svg xmlns="http://www.w3.org/2000/svg" xml:space="preserve" width="6.82666in" height="6.82666in" style="shape-rendering:geometricPrecision; text-rendering:geometricPrecision; image-rendering:optimizeQuality; fill-rule:evenodd; clip-rule:evenodd"
viewBox="0 0 6.82666 6.82666"
 xmlns:xlink="http://www.w3.org/1999/xlink">
 <defs>
  <style type="text/css">
   <![CDATA[
    .fil4 {fill:none}
    .fil0 {fill:#181818}
    .fil2 {fill:#202020;fill-rule:nonzero}
    .fil1 {fill:#DEDEDE;fill-rule:nonzero}
    .fil3 {fill:#F3F3F3;fill-rule:nonzero}
   ]]>
  </style>
 </defs>
 <g id="Layer_x0020_1">
  <metadata id="CorelCorpID_0Corel-Layer"/>
  <g id="_277015216">
   <path id="_277015816" class="fil0" d="M3.9745 5.5975l-0.535543 0 -0.051248 0 -0.535543 0c0.732563,-0.383563 0.389772,-0.383563 1.12233,0z"/>
   <path id="_277015960" class="fil1" d="M3.41333 0.935331l3.93701e-006 0c0.429961,0 0.820772,0.175823 1.10404,0.459091 0.283268,0.283268 0.459091,0.674075 0.459091,1.10403l0 1.30144c0,0.429953 -0.175823,0.820764 -0.459091,1.10403 -0.283264,0.283268 -0.674075,0.459091 -1.10404,0.459091l-3.93701e-006 0c-0.429961,0 -0.820772,-0.175823 -1.10404,-0.459091 -0.283264,-0.283264 -0.459087,-0.674075 -0.459087,-1.10403l0 -1.30144c0,-0.429957 0.175823,-0.820764 0.459087,-1.10403 0.283268,-0.283268 0.674079,-0.459091 1.10404,-0.459091z"/>
   <path id="_277016368" class="fil2" d="M3.41333 0.853331l3.93701e-006 0c0.221673,0 0.433713,0.0445551 0.627571,0.125169 0.201409,0.083748 0.382736,0.206244 0.534441,0.357949 0.151705,0.151701 0.274197,0.333031 0.357949,0.534437 0.0806142,0.193858 0.125165,0.405894 0.125165,0.627567l0 1.30144c0,0.221669 -0.0445551,0.433709 -0.125169,0.627567 -0.083748,0.201409 -0.20624,0.382736 -0.357945,0.534437 -0.151705,0.151701 -0.333031,0.274197 -0.534441,0.357949 -0.193858,0.0806102 -0.405898,0.125165 -0.627571,0.125165l-3.93701e-006 0c-0.221677,0 -0.433713,-0.0445551 -0.627571,-0.125165 -0.201409,-0.083752 -0.382736,-0.206248 -0.534441,-0.357949 -0.151705,-0.151701 -0.274197,-0.333028 -0.357945,-0.534437 -0.0806142,-0.193858 -0.125169,-0.405898 -0.125169,-0.627567l0 -1.30144c0,-0.221673 0.0445512,-0.433709 0.125165,-0.627567 0.083752,-0.201406 0.206244,-0.382736 0.357949,-0.534437 0.151705,-0.151705 0.333031,-0.274201 0.534441,-0.357949 0.193858,-0.0806142 0.405894,-0.125169 0.627571,-0.125169zm3.93701e-006 0.164l-3.93701e-006 0c-0.199976,0 -0.39078,0.0399961 -0.564791,0.11235 -0.180953,0.0752441 -0.344244,0.185685 -0.481272,0.322713 -0.137031,0.137031 -0.247469,0.300323 -0.322713,0.481272 -0.0723583,0.174012 -0.11235,0.364811 -0.11235,0.564787l0 1.30144c0,0.199972 0.0399961,0.390772 0.112354,0.564787 0.0752402,0.180949 0.185677,0.344244 0.322709,0.481268 0.137028,0.137028 0.300319,0.247469 0.481272,0.322713 0.174012,0.0723583 0.364815,0.11235 0.564791,0.11235l3.93701e-006 0c0.199976,0 0.39078,-0.0399921 0.564791,-0.11235 0.180953,-0.0752441 0.344244,-0.185685 0.481272,-0.322713 0.137031,-0.137024 0.247469,-0.300319 0.322709,-0.481268 0.0723583,-0.174016 0.112354,-0.364815 0.112354,-0.564787l0 -1.30144c0,-0.199976 -0.0399921,-0.390776 -0.11235,-0.564787 -0.0752441,-0.180949 -0.185681,-0.34424 -0.322713,-0.481272 -0.137028,-0.137028 -0.300319,-0.247469 -0.481272,-0.322713 -0.174012,-0.0723543 -0.364815,-0.11235 -0.564791,-0.11235z"/>
   <path id="_277016104" class="fil2" d="M1.52659 5.84555l-7.87402e-006 0.00108661c0,0.0317087 0.00965748,0.0606969 0.0256063,0.0829173l0.00166142 0.00226378 1.1811e-005 7.87402e-006c0.000559055,0.000744094 0.00112598,0.00148819 0.00170472,0.00221654l1.1811e-005 1.1811e-005c0.000574803,0.000728346 0.00115354,0.00145276 0.00174409,0.00216142l1.1811e-005 1.1811e-005 0.00179134 0.00211417 1.1811e-005 7.87402e-006 0.00183071 0.00206299 1.1811e-005 7.87402e-006c0.00061811,0.000677165 0.00124016,0.00135039 0.00187402,0.00201181l7.87402e-006 7.87402e-006 0.00191732 0.00195669 1.1811e-005 7.87402e-006c0.000641732,0.000641732 0.00129134,0.00127559 0.00194882,0.00189764l1.1811e-005 1.1811e-005 0.00198819 0.00183858 1.1811e-005 1.1811e-005 0.0020315 0.0017874 1.1811e-005 7.87402e-006 0.00206299 0.00172835 1.1811e-005 1.1811e-005 0.00209843 0.00166535 1.1811e-005 7.87402e-006 0.0021378 0.0016063 1.1811e-005 1.1811e-005c0.000716535,0.000527559 0.00144094,0.00104331 0.00216929,0.00154724l1.1811e-005 7.87402e-006 0.00220079 0.00148819 1.1811e-005 7.87402e-006 0.00223622 0.00142126 1.1811e-005 1.1811e-005 0.00226772 0.00135433 1.1811e-005 1.1811e-005c0.000755906,0.000440945 0.00152362,0.000874016 0.00229528,0.00129528l1.1811e-005 7.87402e-006 0.00232677 0.00122441 1.1811e-005 7.87402e-006 0.0023622 0.00116142 1.1811e-005 7.87402e-006 0.00238189 0.00109055 1.1811e-005 7.87402e-006c0.000795276,0.000358268 0.00160236,0.000692913 0.00241339,0.00101969l1.1811e-005 1.1811e-005c0.000807087,0.000330709 0.00162598,0.000649606 0.00244094,0.000952756 0.0098622,0.00370866 0.0203504,0.00570472 0.0312244,0.00570472l0.000598425 -7.87402e-006 3.56236 0 0.000598425 7.87402e-006c0.0154016,0 0.0300276,-0.00400787 0.0432047,-0.0111969l0.00229921 -0.00129528 7.87402e-006 -1.1811e-005 0.00227165 -0.00135433 7.87402e-006 -1.1811e-005 0.00224016 -0.00142126 7.87402e-006 -7.87402e-006 0.00220472 -0.00148819 7.87402e-006 -7.87402e-006 0.00217323 -0.00154724 7.87402e-006 -1.1811e-005 0.00214173 -0.0016063 7.87402e-006 -7.87402e-006 0.00210236 -0.00166535 7.87402e-006 -1.1811e-005 0.00206693 -0.00172835 7.87402e-006 -7.87402e-006 0.00203543 -0.0017874 7.87402e-006 -1.1811e-005 0.00199213 -0.00183858 7.87402e-006 -1.1811e-005 0.00195276 -0.00189764 7.87402e-006 -7.87402e-006c0.000649606,-0.000641732 0.00128346,-0.00129528 0.00191732,-0.00195669l7.87402e-006 -7.87402e-006 0.00187795 -0.00201181 7.87402e-006 -7.87402e-006 0.00183465 -0.00206299 7.87402e-006 -7.87402e-006 0.00179528 -0.00211417 7.87402e-006 -1.1811e-005 0.00174803 -0.00216142 7.87402e-006 -1.1811e-005 0.00170866 -0.00221654 7.87402e-006 -7.87402e-006 0.00166535 -0.00226378 7.87402e-006 -7.87402e-006c0.000547244,-0.00076378 0.00109055,-0.00153543 0.00162205,-0.00231496l7.87402e-006 -1.1811e-005 0.00157087 -0.00235827 7.87402e-006 -1.1811e-005 0.00152756 -0.00240157 7.87402e-006 -1.1811e-005c0.000503937,-0.000807087 0.000996063,-0.00162992 0.00148031,-0.00245276l7.87402e-006 -1.1811e-005c0.000484252,-0.000822835 0.000964567,-0.00165354 0.00143307,-0.00249606l7.87402e-006 -7.87402e-006 0.00137795 -0.00253937 7.87402e-006 -7.87402e-006 0.00133071 -0.00258268 7.87402e-006 -7.87402e-006 0.00128346 -0.00262598 7.87402e-006 -7.87402e-006 0.00123228 -0.00266535 7.87402e-006 -7.87402e-006c0.000401575,-0.000893701 0.000795276,-0.00179528 0.00117717,-0.00270472l7.87402e-006 -7.87402e-006 0.00112205 -0.00274016 7.87402e-006 -7.87402e-006 0.0010748 -0.00277953c0.00596063,-0.0159252 0.00927559,-0.0335827 0.00927559,-0.0521457l-3.93701e-006 -0.000724409 0 -0.449189c0,-0.0699646 -0.0469961,-0.126685 -0.104965,-0.126685 -0.0579646,0 -0.104961,0.0567205 -0.104961,0.126685l0 0.156323 -3.35363 0 0 -0.156323c0,-0.0699646 -0.0469961,-0.126685 -0.104961,-0.126685 -0.0579685,0 -0.104965,0.0567205 -0.104965,0.126685l0 0.448827z"/>
   <g>
    <polygon id="_277016248" class="fil3" points="4.16357,2.32453 3.14194,3.04794 2.92123,3.49818 "/>
    <polygon id="_277015552" class="fil3" points="3.35555,3.45346 3.55916,3.09941 2.66309,3.97381 "/>
   </g>
  </g>
  <rect class="fil4" width="6.82666" height="6.82666"/>
 </g>
</svg>
