<?xml version="1.0" encoding="UTF-8"?>
<!DOCTYPE svg PUBLIC "-//W3C//DTD SVG 1.1//EN" "http://www.w3.org/Graphics/SVG/1.1/DTD/svg11.dtd">
<!-- Creator: CorelDRAW -->
<svg xmlns="http://www.w3.org/2000/svg" xml:space="preserve" width="6.82666in" height="6.82666in" style="shape-rendering:geometricPrecision; text-rendering:geometricPrecision; image-rendering:optimizeQuality; fill-rule:evenodd; clip-rule:evenodd"
viewBox="0 0 6.82666 6.82666"
 xmlns:xlink="http://www.w3.org/1999/xlink">
 <defs>
  <style type="text/css">
   <![CDATA[
    .fil1 {fill:none}
    .fil0 {fill:#212121;fill-rule:nonzero}
   ]]>
  </style>
 </defs>
 <g id="Layer_x0020_1">
  <metadata id="CorelCorpID_0Corel-Layer"/>
  <path class="fil0" d="M5.81555 4.04288c-0.233236,-0.0861496 -0.482354,-0.158886 -0.761327,-0.198134 -0.28165,-0.039622 -0.594724,-0.0452677 -0.954205,0.00363386 -0.167362,0.0227677 -0.377354,0.026685 -0.541193,-0.0509331 -0.0556614,-0.0263701 -0.105299,-0.0610472 -0.145496,-0.106004 -0.0402008,0.0449567 -0.0898346,0.0796339 -0.145496,0.106004 -0.163835,0.0776181 -0.373831,0.0737008 -0.541193,0.050937 -0.35948,-0.0489016 -0.672555,-0.0432598 -0.954205,-0.0036378 -0.278965,0.0392441 -0.528075,0.11198 -0.761307,0.198126 -0.0199764,0.0090748 -0.0435827,0.012937 -0.067811,0.00975197 -0.058185,-0.00764961 -0.0978858,-0.0530118 -0.0886732,-0.101323l0.105354 0.0138504 -0.105 -0.0138386 0.00435827 -0.0228543c0.0625945,-0.328528 0.107441,-0.563894 0.364354,-0.749398 0.194669,-0.140567 0.463433,-0.239961 0.749937,-0.305094 0.34202,-0.077752 0.711496,-0.107122 1.00778,-0.0994646 0.132744,0.00342913 0.259996,0.0560984 0.357335,0.147453 0.0274016,0.0257165 0.0524567,0.0545551 0.0745669,0.086248 0.0221142,-0.0316929 0.0471614,-0.0605315 0.0745669,-0.086248 0.0973386,-0.0913543 0.224591,-0.144024 0.357335,-0.147453 0.296283,-0.00765354 0.665764,0.0217165 1.00778,0.0994685 0.286504,0.0651299 0.555268,0.164528 0.749933,0.305091 0.256909,0.1855 0.30176,0.420874 0.364354,0.749394l0.00435827 0.0228583 -0.105 0.0138386 0.105354 -0.0138504c0.00920866,0.048311 -0.0304921,0.0936772 -0.0886772,0.101323 -0.0242205,0.00318504 -0.0478189,-0.000677165 -0.0677874,-0.00974409z"/>
  <rect class="fil1" width="6.82666" height="6.82666"/>
 </g>
</svg>
