<?xml version="1.0" encoding="UTF-8"?>
<!DOCTYPE svg PUBLIC "-//W3C//DTD SVG 1.1//EN" "http://www.w3.org/Graphics/SVG/1.1/DTD/svg11.dtd">
<!-- Creator: CorelDRAW -->
<svg xmlns="http://www.w3.org/2000/svg" xml:space="preserve" width="6.82666in" height="6.82666in" style="shape-rendering:geometricPrecision; text-rendering:geometricPrecision; image-rendering:optimizeQuality; fill-rule:evenodd; clip-rule:evenodd"
viewBox="0 0 6.82666 6.82666"
 xmlns:xlink="http://www.w3.org/1999/xlink">
 <defs>
  <style type="text/css">
   <![CDATA[
    .fil13 {fill:none}
    .fil2 {fill:#2F2F2F}
    .fil6 {fill:#444444}
    .fil9 {fill:#7E7E7E}
    .fil7 {fill:#8C8D8D}
    .fil5 {fill:#919191}
    .fil8 {fill:#A1A1A1}
    .fil10 {fill:#B4B4B5}
    .fil1 {fill:#444444;fill-rule:nonzero}
    .fil0 {fill:#6A6A6A;fill-rule:nonzero}
    .fil3 {fill:#8C8D8D;fill-rule:nonzero}
    .fil12 {fill:#9D9D9D;fill-rule:nonzero}
    .fil4 {fill:#A1A1A1;fill-rule:nonzero}
    .fil11 {fill:#DFDFDF;fill-rule:nonzero}
   ]]>
  </style>
 </defs>
 <g id="Layer_x0020_1">
  <metadata id="CorelCorpID_0Corel-Layer"/>
  <path class="fil0" d="M1.13528 4.83925c-0.0292244,0.00333465 -0.0502087,0.0297362 -0.046874,0.0589606 0.00333465,0.0292244 0.0297362,0.0502087 0.0589606,0.046874l0.317882 -0.0367795c0.0292244,-0.00333465 0.0502087,-0.0297362 0.046874,-0.0589606 -0.00333465,-0.0292244 -0.0297362,-0.0502087 -0.0589606,-0.046874l-0.317882 0.0367795z"/>
  <path class="fil0" d="M1.17929 5.19984c-0.0292244,0.00333465 -0.0502087,0.0297362 -0.046874,0.0589606 0.00333465,0.0292244 0.0297362,0.0502087 0.0589606,0.046874l0.317882 -0.0367795c0.0292244,-0.00333465 0.0502087,-0.0297362 0.046874,-0.0589606 -0.00333465,-0.0292244 -0.0297362,-0.0502087 -0.0589606,-0.046874l-0.317882 0.0367795z"/>
  <path class="fil1" d="M4.79327 5.20185c-0.0356654,-0.0467126 -0.102453,-0.0556654 -0.149165,-0.02 -0.0467126,0.0356654 -0.0556654,0.102453 -0.02,0.149165 0.0864055,0.112913 0.160114,0.181382 0.232409,0.224831 0.0772283,0.0464094 0.147953,0.0625748 0.226854,0.0710866 0.175445,0.0189409 0.333835,-0.0689134 0.472449,-0.145803 0.00295669,-0.0016378 -0.00507874,0.00282283 0.033815,-0.0184961 0.0815039,-0.0446693 0.15585,-0.0458898 0.200303,-0.0218425 0.0115945,0.00627165 0.019378,0.0134055 0.0220197,0.0204803 0.00218898,0.00585827 0.00104331,0.0146417 -0.00434646,0.0261457 -0.0308622,0.065878 -0.142181,0.143886 -0.380587,0.20985 -0.132157,0.0365669 -0.313913,0.0630433 -0.536579,0.079374 -0.231472,0.0169764 -0.502697,0.0227992 -0.804512,0.0174449 -0.400067,-0.00709843 -0.655457,-0.258764 -0.895193,-0.495008 -0.271969,-0.267996 -0.526323,-0.518642 -0.950382,-0.458063 -0.0582165,0.00828346 -0.0987008,0.0622008 -0.0904173,0.120417 0.00828346,0.0582165 0.0622008,0.0987008 0.120417,0.0904173 0.320016,-0.0457165 0.538067,0.169154 0.771217,0.398898 0.268878,0.264961 0.555315,0.54722 1.04103,0.555843 0.311583,0.0055315 0.588996,-0.000291339 0.822843,-0.0174449 0.235638,-0.0172795 0.431402,-0.046248 0.578248,-0.086878 0.30763,-0.0851181 0.462701,-0.210189 0.516421,-0.32485 0.0313622,-0.0669331 0.0326575,-0.132346 0.0110079,-0.190311 -0.0212008,-0.0567441 -0.0635551,-0.103094 -0.12035,-0.133819 -0.100366,-0.0542953 -0.252752,-0.0600197 -0.403642,0.0226772 -0.0163976,0.00898819 -0.00855118,0.00485827 -0.0346417,0.0193307 -0.110854,0.0614921 -0.237516,0.131748 -0.346614,0.119969 -0.051189,-0.00552362 -0.0957992,-0.0152441 -0.140193,-0.0419213 -0.0493189,-0.0296417 -0.103539,-0.0814921 -0.172409,-0.171492z"/>
  <path class="fil2" d="M4.85064 5.21503l0.0444567 0.0561457c0.0244528,0.0308819 0.0191929,0.0761496 -0.011689,0.100602l-0.120461 0.0953819c-0.0308819,0.0244488 -0.0761496,0.019189 -0.100602,-0.0116929l-0.0444528 -0.0561417 0.232748 -0.184295z"/>
  <g id="_343013112">
   <path id="_343015272" class="fil3" d="M2.02365 0.882976c-0.0187362,-0.0228661 -0.0524764,-0.0262126 -0.0753465,-0.00747638 -0.0228661,0.0187402 -0.0262126,0.0524803 -0.00747244,0.0753465l0.0554055 0.0676142 -0.938937 0.769437 -0.0554094 -0.0676181c-0.0187362,-0.0228661 -0.0524724,-0.0262165 -0.0753425,-0.00747638 -0.0228701,0.0187402 -0.0262165,0.0524803 -0.00747638,0.0753465l0.370748 0.452425 0.000425197 -0.00256693 0.146756 0.179083 1.10156 -0.902697 -0.151205 -0.184512 0.00246063 -7.48031e-005 -0.366165 -0.446831z"/>
   <path id="_343015176" class="fil4" d="M1.5883 1.38562c-0.0187402,-0.0228661 -0.0524803,-0.0262126 -0.0753465,-0.00747638 -0.0228661,0.0187402 -0.0262165,0.0524803 -0.00747638,0.0753465l0.323831 0.395169c0.0272165,-0.0219331 0.0554843,-0.0441181 0.0842677,-0.0661063l-0.325276 -0.396933z"/>
   <path id="_343015104" class="fil4" d="M1.86255 1.16088c-0.0187402,-0.0228661 -0.0524803,-0.0262126 -0.0753465,-0.00747244 -0.0228701,0.0187402 -0.0262165,0.0524764 -0.00747638,0.0753425l0.33561 0.409547c0.0317205,-0.0209606 0.062437,-0.0403189 0.0913858,-0.0574213l-0.344173 -0.419996z"/>
   <path id="_343015032" class="fil4" d="M1.31405 1.61036c-0.0187402,-0.0228661 -0.0524764,-0.0262165 -0.0753465,-0.00747638 -0.0228701,0.0187402 -0.0262126,0.0524764 -0.00747244,0.0753425l0.337213 0.411504c0.00874016,-0.00954724 0.0178071,-0.018811 0.0271929,-0.0277835 0.012252,-0.0146024 0.0282717,-0.0315709 0.0472677,-0.0502835l-0.328854 -0.401303z"/>
   <path id="_343015368" class="fil4" d="M1.17693 1.72273c-0.0187362,-0.0228701 -0.0524724,-0.0262205 -0.0753425,-0.00748031 -0.0228701,0.0187441 -0.0262126,0.0524803 -0.00747638,0.0753465l0.371827 0.453736c0.015937,-0.0346772 0.0351496,-0.0678307 0.057378,-0.0989134l-0.346386 -0.422689z"/>
   <path id="_343014408" class="fil4" d="M1.45118 1.49799c-0.0187402,-0.0228661 -0.0524803,-0.0262165 -0.0753465,-0.00747638 -0.0228701,0.0187402 -0.0262165,0.0524803 -0.00747638,0.0753465l0.325807 0.397583c0.0245512,-0.0222205 0.0517795,-0.0458543 0.0808858,-0.0702323l-0.32387 -0.39522z"/>
   <path id="_343014888" class="fil4" d="M1.99967 1.04852c-0.0187402,-0.0228661 -0.0524764,-0.0262165 -0.0753465,-0.00747638 -0.0228661,0.0187402 -0.0262126,0.0524764 -0.00747244,0.0753425l0.352209 0.429803c0.0394606,-0.020374 0.073374,-0.0343425 0.0988425,-0.0395039l0.00620866 -0.00124016 -0.374441 -0.456925z"/>
   <path id="_343014672" class="fil4" d="M1.72543 1.27325c-0.0187402,-0.0228661 -0.0524803,-0.0262165 -0.0753465,-0.00747638 -0.0228661,0.0187402 -0.0262165,0.0524803 -0.00747638,0.0753465l0.327161 0.399236c0.0291102,-0.0214724 0.0583661,-0.0424567 0.0872244,-0.0625l-0.331563 -0.404606z"/>
   <path id="_343014768" class="fil5" d="M2.07004 1.54588c0.0965787,-0.0791457 0.22722,-0.120024 0.355142,-0.108346 0.116276,0.0106102 0.227248,0.0629882 0.305134,0.158031 0.00486614,0.00593701 0.010622,0.0135551 0.0172835,0.0228898l2.34013 3.27797 0.000149606 -0.000106299c0.0329685,0.0461811 0.0240079,0.109618 -0.0192835,0.145035l-0.662555 0.542949c-0.0454803,0.0372677 -0.112433,0.0308543 -0.150039,-0.0141732l-2.75004 -2.93418c-0.00784252,-0.00836614 -0.0141772,-0.0155079 -0.0190472,-0.0214488 -0.0778858,-0.0950472 -0.107437,-0.214146 -0.0949921,-0.33024 0.0121417,-0.113264 0.0648858,-0.223976 0.152075,-0.305693 -0.00711811,-0.00797244 0.48215,-0.396717 0.526047,-0.432685z"/>
   <path id="_343014360" class="fil6" d="M2.37344 2.68159l0.248461 -0.203602c0.0457362,-0.0374843 0.113209,-0.0307874 0.150689,0.0149488l0.407209 0.496917c0.0374803,0.0457362 0.0307874,0.113209 -0.0149528,0.150689l-0.248457 0.203606c-0.0457362,0.0374803 -0.113213,0.0307874 -0.150693,-0.0149528l-0.407209 -0.496913c-0.0374803,-0.0457362 -0.0307835,-0.113213 0.0149528,-0.150693z"/>
   <path id="_343013664" class="fil2" d="M2.47176 2.72143l0.169882 -0.139213c0.0312756,-0.0256299 0.0804134,-0.0173858 0.109744,0.0184055l0.318661 0.388862c0.0293307,0.0357913 0.0277559,0.0855906 -0.00351969,0.111217l-0.169882 0.139213c-0.0312717,0.0256299 -0.0804094,0.0173858 -0.10974,-0.0184055l-0.318661 -0.388862c-0.0293307,-0.0357913 -0.0277559,-0.0855906 0.00351575,-0.111217z"/>
   <path id="_343013832" class="fil7" d="M2.58516 2.85159l0.161815 -0.132602c0.0297874,-0.0244134 0.0654764,-0.030122 0.0797087,-0.0127559l0.154614 0.188677c0.0142323,0.0173661 0.00161811,0.0512362 -0.0281693,0.0756457l-0.161815 0.132602c-0.0297874,0.0244134 -0.0654764,0.030122 -0.0797087,0.0127559l-0.154614 -0.188677c-0.0142323,-0.0173661 -0.00161811,-0.0512362 0.0281693,-0.0756457z"/>
   <path id="_343013784" class="fil8" d="M2.66831 2.95305l0.161815 -0.132602c0.0297874,-0.0244094 0.0561693,-0.0414803 0.0589213,-0.038122l0.0298976 0.0364882c0.00275197,0.00335827 -0.0191693,0.0258701 -0.0489567,0.0502795l-0.161811 0.132602c-0.0297913,0.0244134 -0.0561732,0.0414803 -0.0589252,0.038122l-0.0298976 -0.0364843c-0.00275197,-0.00335827 0.0191693,-0.025874 0.0489567,-0.0502835z"/>
   <path id="_343013616" class="fil9" d="M3.39237 3.49712c-0.0374803,-0.0457402 -0.104953,-0.0524331 -0.150689,-0.0149528 -0.0457402,0.0374843 -0.0524331,0.104953 -0.0149528,0.150693l0.980909 1.197c0.0374803,0.0457402 0.104949,0.052437 0.150693,0.0149528 0.0457362,-0.0374803 0.0524291,-0.104953 0.0149488,-0.150693l-0.980909 -1.197z"/>
   <g>
    <circle id="_343013472" class="fil10" transform="matrix(0.785538 -0.643727 0.643727 0.785538 2.22815 2.25089)" r="0.0651024"/>
    <path id="_343014024" class="fil11" d="M2.17551 2.18665c0.0176969,-0.0145 0.0396378,-0.0204567 0.0607874,-0.0183622l-0.00162205 0.0168031 0.00166929 -0.0168465 0.00038189 4.33071e-005c0.0210118,0.00217717 0.0412087,0.0123268 0.0556575,0.0299606 0.0145,0.0176969 0.0204567,0.0396378 0.0183622,0.0607874l-0.0167992 -0.00162205 0.0168425 0.00166929c-4.72441e-005,0.000488189 -0.000114173,0.000976378 -0.000204724,0.00145276 -0.00240551,0.0206378 -0.0124961,0.0404055 -0.0297992,0.0545866 -0.0177362,0.0145315 -0.039689,0.0205 -0.0608346,0.0184016l-3.93701e-006 7.87402e-006c-0.000503937,-5.11811e-005 -0.00100394,-0.000122047 -0.00149606,-0.000216535 -0.020626,-0.00241732 -0.0403661,-0.0125 -0.0545354,-0.0297913 -0.0145354,-0.0177362 -0.0205039,-0.039689 -0.0184055,-0.0608386 0.00209843,-0.0211457 0.0122638,-0.0415 0.03,-0.0560354zm0.0575 0.0152362c-0.0125079,-0.00122835 -0.0255118,0.00232677 -0.0360394,0.0109528 -0.0105079,0.00861417 -0.0165354,0.0206693 -0.0177756,0.033189 -0.00124409,0.0125197 0.00229528,0.0255276 0.0109055,0.0360354 0.00837402,0.0102165 0.0199764,0.0162047 0.0320748,0.0177008 0.000374016,7.87402e-006 0.000744094,3.54331e-005 0.00111811,7.08661e-005l-3.93701e-006 7.87402e-006c0.0125236,0.00124016 0.0255276,-0.00229921 0.0360354,-0.0109094 0.0102323,-0.00838583 0.0162244,-0.0200079 0.0177047,-0.032126l7.08661e-005 -0.00106299 4.33071e-005 7.87402e-006 3.93701e-006 -3.93701e-006c0.00122835,-0.0125079 -0.00232677,-0.0255118 -0.0109528,-0.0360394 -0.00857874,-0.0104646 -0.020563,-0.0164843 -0.0330276,-0.0177598l-0.00015748 -1.5748e-005 -3.93701e-006 -3.93701e-006 3.93701e-006 -4.33071e-005zm0.00371654 -0.0335984c0.00910236,0.0011063 0.0157008,0.00929921 0.0147953,0.0184685"/>
   </g>
  </g>
  <path class="fil12" d="M1.49089 4.65201l0.366528 -0.0437953c0.101906,-0.0121732 0.199496,0.0184252 0.27463,0.0775197 0.0751299,0.0590906 0.12787,0.146791 0.140102,0.248815l9.84252e-005 -1.1811e-005c0.000212598,0.0017874 0.00038189,0.00357087 0.000503937,0.00534646 0.0105433,0.100012 -0.0200079,0.195583 -0.0780984,0.269449 -0.059126,0.0751654 -0.146874,0.127925 -0.248965,0.140122l-0.370555 0.0442717 1.1811e-005 9.44882e-005c-0.0584921,0.00698819 -0.111579,-0.0347677 -0.118567,-0.0932598 -0.000173228,-0.00144488 -0.000307087,-0.00288583 -0.00042126,-0.00432283l-0.0627559 -0.525256 -9.44882e-005 1.1811e-005c-0.00698819,-0.0584921 0.0347677,-0.111579 0.0932598,-0.118567 0.00144488,-0.000173228 0.00288583,-0.00030315 0.00432283,-0.000417323z"/>
  <rect class="fil13" width="6.82666" height="6.82666"/>
 </g>
</svg>
