<?xml version="1.0" encoding="UTF-8"?>
<!DOCTYPE svg PUBLIC "-//W3C//DTD SVG 1.1//EN" "http://www.w3.org/Graphics/SVG/1.1/DTD/svg11.dtd">
<!-- Creator: CorelDRAW -->
<svg xmlns="http://www.w3.org/2000/svg" xml:space="preserve" width="6.82666in" height="6.82666in" style="shape-rendering:geometricPrecision; text-rendering:geometricPrecision; image-rendering:optimizeQuality; fill-rule:evenodd; clip-rule:evenodd"
viewBox="0 0 6.82666 6.82666"
 xmlns:xlink="http://www.w3.org/1999/xlink">
 <defs>
  <style type="text/css">
   <![CDATA[
    .fil7 {fill:none}
    .fil1 {fill:#202020}
    .fil4 {fill:#2F2F2F}
    .fil3 {fill:#565656}
    .fil0 {fill:#6A6A6A}
    .fil2 {fill:#8C8D8D}
    .fil6 {fill:#6A6A6A;fill-rule:nonzero}
    .fil5 {fill:#8C8D8D;fill-rule:nonzero}
   ]]>
  </style>
 </defs>
 <g id="Layer_x0020_1">
  <metadata id="CorelCorpID_0Corel-Layer"/>
  <path class="fil0" d="M3.71217 3.5727l0.212524 -0.277776 -0.0955 -0.207622c-0.255528,-0.692957 -0.504724,-1.51812 -0.740126,-2.22162 -0.142693,0.310031 -0.091,0.420638 -0.0567126,0.565654l0.502142 2.12377 0.177673 0.0175945zm0.356469 -0.0558858c0.116598,0.264339 0.136866,1.09528 0.503657,1.0968l0.00191339 0.00273622c0.293693,0.000586614 0.541248,0.263035 0.556,0.598807 0.0156181,0.34439 -0.21913,0.63552 -0.523047,0.648984 -0.396335,0.0183661 -0.566201,-0.250882 -0.578673,-0.600087 -0.00462992,-0.0868858 0.00824409,-0.169953 0.0330591,-0.246193 0.0315512,-0.156232 -0.177114,-1.20567 -0.279161,-1.28368l0.000653543 -0.00344094 0.0625315 -0.23687 0.223067 0.0229449zm0.312543 1.35438c-0.0104055,0.00931496 -0.0209567,0.0187205 -0.0318071,0.0274016 -0.0860512,0.083185 -0.139087,0.213283 -0.133394,0.35737 0.0111142,0.240425 0.182661,0.428654 0.382567,0.420024 0.200102,-0.00876378 0.354244,-0.211819 0.34348,-0.452264 -0.011122,-0.240429 -0.18198,-0.429142 -0.382079,-0.420378 -0.0664528,0.00238583 -0.126933,0.0287795 -0.178768,0.0678465z"/>
  <path class="fil1" d="M4.01803 4.58672l0.302315 -0.167413c0.0600236,0.115713 0.13976,0.19385 0.251949,0.194315l0.00191339 0.00273622c0.293693,0.000586614 0.541248,0.263035 0.556,0.598807 0.0156181,0.34439 -0.21913,0.63552 -0.523047,0.648984 -0.396335,0.0183661 -0.566201,-0.250882 -0.578673,-0.600087 -0.00462992,-0.0868858 0.00824409,-0.169953 0.0330591,-0.246193 0.0113976,-0.0564409 -0.00856299,-0.229476 -0.0435157,-0.43115zm0.36315 0.284484c-0.0104055,0.00931496 -0.0209567,0.0187205 -0.0318071,0.0274016 -0.0860512,0.083185 -0.139087,0.213283 -0.133394,0.35737 0.0111142,0.240425 0.182661,0.428654 0.382567,0.420024 0.200102,-0.00876378 0.354244,-0.211819 0.34348,-0.452264 -0.011122,-0.240429 -0.18198,-0.429142 -0.382079,-0.420378 -0.0664528,0.00238583 -0.126933,0.0287795 -0.178768,0.0678465z"/>
  <path class="fil2" d="M2.17882 5.54371c-0.0295315,-0.0905236 -0.0398031,-0.188413 -0.0254213,-0.286551 0.0414646,-0.264197 0.243602,-0.467465 0.491417,-0.506547 0.00173622,-0.00042126 0.00277953,-0.00194488 0.00394882,-0.00276378 0.348008,-0.0689961 0.772874,-1.17292 1.18824,-1.65534 -0.000452756,-0.000181102 0.835811,-2.00013 0.922717,-2.23824 0.0775039,0.267083 0.0951496,0.244039 0.0261496,0.495157 -0.178272,0.648669 -0.491846,1.52222 -0.708118,2.12961 -0.0514331,0.144445 -0.122508,0.213394 -0.323197,0.333713 -0.367878,0.220547 -0.619567,0.678862 -0.587618,1.03157 0.0137598,0.151902 0.141831,0.462079 0.122606,0.588067 -0.0494606,0.320134 -0.334728,0.555909 -0.659563,0.509303 -0.130142,-0.0201772 -0.243358,-0.0860276 -0.330075,-0.184492 -0.0557126,0.0149213 -0.131087,0.0445236 -0.182083,0.100154 -0.183827,0.216685 -0.373898,0.0734291 -0.419126,0.0190079 -0.0431378,-0.0518228 0.395874,-0.116752 0.480118,-0.332654zm0.478913 0.211579c0.0241535,0.0030748 0.0478307,0.0054685 0.0717008,0.00366929 0.185717,-0.00772047 0.343126,-0.15772 0.372744,-0.355677 0.017189,-0.109902 -0.00698819,-0.220291 -0.0682598,-0.30939 -0.0599016,-0.0872244 -0.148417,-0.143409 -0.249244,-0.159035 -0.221858,-0.0336299 -0.41074,0.136083 -0.443913,0.351421 -0.0177677,0.11052 0.00698425,0.220287 0.0683701,0.309531 0.0599488,0.087189 0.14889,0.144087 0.248602,0.15948z"/>
  <path class="fil1" d="M2.17882 5.54371c-0.0295315,-0.0905236 -0.0398031,-0.188413 -0.0254213,-0.286551 0.0414646,-0.264197 0.243602,-0.467465 0.491417,-0.506547 0.00173622,-0.00042126 0.00277953,-0.00194488 0.00394882,-0.00276378 0.107571,-0.0213268 0.222496,-0.141606 0.342205,-0.311783l0.206591 0.114406c-0.0277913,0.101173 -0.0390039,0.201295 -0.0305787,0.294087 0.0227953,0.25115 0.18539,0.452024 0.0914724,0.70874 -0.0937087,0.256098 -0.346146,0.428906 -0.628469,0.388398 -0.130142,-0.0201772 -0.243358,-0.0860276 -0.330075,-0.184492 -0.0557126,0.0149213 -0.131087,0.0445236 -0.182083,0.100154 -0.183827,0.216685 -0.373898,0.0734291 -0.419126,0.0190079 -0.0431378,-0.0518228 0.395874,-0.116752 0.480118,-0.332654zm0.478913 0.211579c0.0241535,0.0030748 0.0478307,0.0054685 0.0717008,0.00366929 0.185717,-0.00772047 0.343126,-0.15772 0.372744,-0.355677 0.017189,-0.109902 -0.00698819,-0.220291 -0.0682598,-0.30939 -0.0599016,-0.0872244 -0.148417,-0.143409 -0.249244,-0.159035 -0.221858,-0.0336299 -0.41074,0.136083 -0.443913,0.351421 -0.0177677,0.11052 0.00698425,0.220287 0.0683701,0.309531 0.0599488,0.087189 0.14889,0.144087 0.248602,0.15948z"/>
  <circle class="fil3" cx="3.82867" cy="3.46068" r="0.0913346"/>
  <circle class="fil4" cx="3.82867" cy="3.46068" r="0.0514331"/>
  <path class="fil5" d="M4.77494 0.897154l-0.275437 -0.10552 -0.0169449 0.0405236 0.26865 0.121799 0.0237323 -0.0568031zm-0.065437 0.15661l-0.2755 -0.105567 -0.0169646 0.0406654 0.268681 0.121823 0.0237835 -0.0569213zm-0.0654291 0.156594l-0.275425 -0.105539 -0.0169921 0.0405984 0.268654 0.121815 0.0237638 -0.056874zm-0.0654409 0.15663l-0.27548 -0.105591 -0.0170157 0.0407283 0.268693 0.121827 0.0238031 -0.0569646zm-0.0654724 0.156693l-0.275457 -0.105547 -0.0169724 0.0405945 0.268669 0.121823 0.0237598 -0.0568701zm-0.0654764 0.156713l-0.27548 -0.105559 -0.016937 0.0405827 0.268661 0.121827 0.0237559 -0.0568504zm-0.0654685 0.156685l-0.275539 -0.105551 -0.0169528 0.0405472 0.268748 0.121831 0.0237441 -0.0568268zm-0.0654055 0.156539l-0.275441 -0.105547 -0.0170433 0.040622 0.268713 0.121819 0.0237717 -0.0568937zm-0.0654764 0.156701l-0.275539 -0.105535 -0.0169409 0.0405787 0.268709 0.12185 0.0237717 -0.0568937zm-0.0654331 0.156614l-0.275469 -0.105543 -0.0170236 0.0406732 0.268697 0.121811 0.0237953 -0.0569409zm-0.0654567 0.15665l-0.275488 -0.105563 -0.0169764 0.0406339 0.26798 0.123531 0.0244843 -0.0586024zm-0.0686969 0.164417l-0.275579 -0.105571 -0.0168976 0.0406378 0.268709 0.121819 0.0237677 -0.0568858zm-0.0654173 0.156567l-0.275453 -0.105547 -0.0170827 0.0407205 0.268724 0.121819 0.023811 -0.0569921z"/>
  <path class="fil6" d="M3.08517 0.869457l0.28376 -0.0805118 0.0132598 0.041874 -0.278453 0.0973268 -0.0185669 -0.058689zm0.0511929 0.161827l0.283827 -0.0805551 0.0132638 0.0420197 -0.278484 0.0973504 -0.0186063 -0.058815zm0.051189 0.161807l0.283748 -0.0805276 0.0132992 0.0419528 -0.278457 0.0973425 -0.0185906 -0.0587677zm0.0511969 0.161846l0.283803 -0.0805748 0.013315 0.0420866 -0.278496 0.0973504 -0.018622 -0.0588622zm0.0512205 0.161913l0.283776 -0.0805315 0.0132835 0.0419488 -0.278472 0.0973465 -0.0185866 -0.0587638zm0.0512244 0.161933l0.283803 -0.0805433 0.013248 0.0419331 -0.278469 0.0973543 -0.0185827 -0.0587441zm0.0512165 0.161906l0.283862 -0.0805315 0.0132638 0.0418976 -0.278551 0.0973504 -0.0185748 -0.0587165zm0.0511693 0.161752l0.283764 -0.0805315 0.0133504 0.0419764 -0.278516 0.0973425 -0.0185984 -0.0587874zm0.0512244 0.161921l0.283862 -0.0805157 0.013248 0.0419331 -0.278516 0.0973701 -0.0185945 -0.0587874zm0.0511929 0.161831l0.283787 -0.0805276 0.0133268 0.0420276 -0.278504 0.0973386 -0.0186102 -0.0588386zm0.0512047 0.16187l0.283811 -0.0805472 0.0132835 0.0419882 -0.277941 0.0991102 -0.0191535 -0.0605512zm0.0537441 0.16989l0.283906 -0.0805433 0.0132008 0.0419843 -0.278512 0.0973425 -0.0185945 -0.0587835zm0.0511772 0.161783l0.283776 -0.0805315 0.0133819 0.0420787 -0.278528 0.0973465 -0.0186299 -0.0588937z"/>
  <rect class="fil7" width="6.82666" height="6.82666"/>
 </g>
</svg>
