<?xml version="1.0" encoding="UTF-8"?>
<!DOCTYPE svg PUBLIC "-//W3C//DTD SVG 1.1//EN" "http://www.w3.org/Graphics/SVG/1.1/DTD/svg11.dtd">
<!-- Creator: CorelDRAW -->
<svg xmlns="http://www.w3.org/2000/svg" xml:space="preserve" width="6.82666in" height="6.82666in" style="shape-rendering:geometricPrecision; text-rendering:geometricPrecision; image-rendering:optimizeQuality; fill-rule:evenodd; clip-rule:evenodd"
viewBox="0 0 6.82666 6.82666"
 xmlns:xlink="http://www.w3.org/1999/xlink">
 <defs>
  <style type="text/css">
   <![CDATA[
    .fil6 {fill:none}
    .fil5 {fill:#202020}
    .fil3 {fill:#525252}
    .fil1 {fill:#565656}
    .fil2 {fill:#A1A1A1}
    .fil4 {fill:#BABABB}
    .fil0 {fill:#6A6A6A;fill-rule:nonzero}
   ]]>
  </style>
 </defs>
 <g id="Layer_x0020_1">
  <metadata id="CorelCorpID_0Corel-Layer"/>
  <g id="_342989088">
   <g>
    <path id="_342990576" class="fil0" d="M3.41026 4.6833l-0.0366772 -0.219102 -0.00030315 -0.000110236c-0.00771654,-0.0460984 0.0234016,-0.0897244 0.0694961,-0.0974449 0.00176772,-0.000295276 0.00352756,-0.000523622 0.00528346,-0.000708661 0.313264,-0.0512126 2.4504,-0.599815 2.50865,-0.243591 0.000425197,0.00259843 -0.510642,0.303122 -0.583063,0.336343 -0.175988,0.0807205 -0.364799,0.134846 -0.594661,0.175126 -0.000185039,0.000232283 -1.79921,0.289571 -1.96691,0.316571 -0.0459685,0.00737402 -0.0892126,-0.0239213 -0.0965866,-0.0698898 -0.00737008,-0.0459685 0.0239252,-0.0892165 0.0698937,-0.0965866l0.624882 -0.100606z"/>
    <path id="_342990864" class="fil1" d="M5.46655 4.41297c-0.141961,-0.0741693 -0.302866,0.0324961 -0.628701,0.0799173 -0.305161,0.0444134 -1.20519,0.160362 -1.42782,0.188969l0.000240157 0.00144882 -0.529594 0.0852598c-0.235638,0.0539843 -0.598768,0.097874 -0.791055,0.232929 -0.143776,0.100984 -0.177189,0.189098 -0.149882,0.359362 0.093248,0.217177 0.0275079,-0.149681 0.340886,-0.28248 0.246425,-0.104429 0.60213,-0.139358 0.632051,-0.144173 0.42,-0.0675787 1.86615,-0.300177 1.86631,-0.300386 0.229862,-0.0402795 0.418673,-0.0944055 0.594661,-0.175126 0.0313976,-0.0144016 0.062311,-0.0296181 0.0929016,-0.0457205z"/>
    <path id="_342989712" class="fil2" d="M5.95671 4.12235c-0.0582441,-0.356224 -2.19538,0.192378 -2.50865,0.243591 -0.00175591,0.000185039 -0.00351575,0.000413386 -0.00528346,0.000708661 -0.0445945,0.0074685 -0.0751693,0.0485472 -0.070126,0.0929528 0.632374,-0.0796063 1.90859,-0.495969 2.49103,-0.280992 0.055874,-0.0330827 0.0931417,-0.0555591 0.0930276,-0.0562598z"/>
   </g>
   <g>
    <path id="_342990192" class="fil0" d="M3.37635 2.23108l0.0503031 0.216378 0.000307087 9.05512e-005c0.0105827,0.0455276 -0.0177441,0.0910157 -0.0632717,0.101598 -0.00174409,0.000409449 -0.00348819,0.000748031 -0.00522441,0.00103937 -0.309453,0.0706969 -2.40811,0.751823 -2.48852,0.399933 -0.000586614,-0.00256693 0.490697,-0.334453 0.560902,-0.37213 0.170594,-0.0915669 0.355654,-0.15739 0.582547,-0.211961 0.000169291,-0.000240157 1.77759,-0.401476 1.94328,-0.438906 0.0454173,-0.0102283 0.0905354,0.0183031 0.100768,0.0637205 0.0102283,0.0454173 -0.0183031,0.0905354 -0.0637205,0.100768l-0.61737 0.139469z"/>
    <path id="_342990240" class="fil1" d="M1.34098 2.62943c0.146319,0.0651496 0.300244,-0.0513661 0.622476,-0.119063 0.301787,-0.0634016 1.1928,-0.235386 1.41322,-0.27785l-0.000330709 -0.00143307 0.523228 -0.118201c0.231799,-0.0686063 0.59148,-0.13511 0.774945,-0.281921 0.137185,-0.109776 0.165024,-0.199803 0.127126,-0.368028 -0.106642,-0.210925 -0.0180945,0.151106 -0.322559,0.303236 -0.239417,0.119626 -0.59224,0.176728 -0.621803,0.183402 -0.414953,0.0937008 -1.84374,0.416244 -1.84389,0.416461 -0.226894,0.0545709 -0.411953,0.120394 -0.582547,0.211961 -0.0304409,0.0163346 -0.0603425,0.0334528 -0.0898661,0.051437z"/>
    <path id="_342990360" class="fil2" d="M0.869945 2.95012c0.0804016,0.35189 2.17906,-0.329236 2.48852,-0.399933 0.00173622,-0.000291339 0.00348031,-0.000629921 0.00522441,-0.00103937 0.0440433,-0.0102402 0.0719921,-0.0531457 0.0641811,-0.0971496 -0.626161,0.11898 -1.87386,0.614303 -2.46859,0.436157 -0.0536969,0.0365079 -0.0894882,0.0612717 -0.0893307,0.0619646z"/>
   </g>
   <path id="_342989928" class="fil3" d="M4.85918 2.07383l-2.03708 3.05312c-0.254268,0.381091 -0.838508,0.00911024 -0.584232,-0.371992l2.03708 -3.05312c0.25428,-0.381106 0.838504,-0.00909843 0.584236,0.371992z"/>
   <circle id="_342989808" class="fil4" cx="4.56147" cy="1.88284" r="0.113268"/>
   <circle id="_342990072" class="fil4" cx="2.53991" cy="4.91736" r="0.113268"/>
   <circle id="_342989184" class="fil5" cx="4.56147" cy="1.88284" r="0.0704577"/>
   <circle id="_342989160" class="fil5" cx="2.53991" cy="4.91736" r="0.0704577"/>
  </g>
  <rect class="fil6" width="6.82666" height="6.82666"/>
 </g>
</svg>
