<?xml version="1.0" encoding="UTF-8"?>
<!DOCTYPE svg PUBLIC "-//W3C//DTD SVG 1.1//EN" "http://www.w3.org/Graphics/SVG/1.1/DTD/svg11.dtd">
<!-- Creator: CorelDRAW -->
<svg xmlns="http://www.w3.org/2000/svg" xml:space="preserve" width="6.82666in" height="6.82666in" style="shape-rendering:geometricPrecision; text-rendering:geometricPrecision; image-rendering:optimizeQuality; fill-rule:evenodd; clip-rule:evenodd"
viewBox="0 0 6.82666 6.82666"
 xmlns:xlink="http://www.w3.org/1999/xlink">
 <defs>
  <style type="text/css">
   <![CDATA[
    .fil7 {fill:none}
    .fil5 {fill:#2F2F2F}
    .fil3 {fill:#3F3F3F}
    .fil2 {fill:#444444}
    .fil1 {fill:#7F7F7F}
    .fil6 {fill:#3F3F3F;fill-rule:nonzero}
    .fil4 {fill:#7F7F7F;fill-rule:nonzero}
    .fil0 {fill:#909090;fill-rule:nonzero}
   ]]>
  </style>
 </defs>
 <g id="Layer_x0020_1">
  <metadata id="CorelCorpID_0Corel-Layer"/>
  <g id="_342994080">
   <path id="_342994320" class="fil0" d="M3.47175 3.90884c-0.0297795,-0.004 -0.0571732,0.0169016 -0.0611732,0.0466811 -0.004,0.0297795 0.0169016,0.0571732 0.0466811,0.0611732 0.766417,0.104358 0.79361,0.397587 0.996748,0.574594 0.165445,0.144169 0.350953,0.305819 0.855858,0.475957 0.212224,0.0715079 0.192728,0.175921 0.170252,0.296315 -0.0268189,0.14363 -0.056811,0.304276 0.13261,0.470634 0.0225984,0.0197717 0.0569567,0.0174843 0.0767323,-0.00511417 0.0197717,-0.0226024 0.0174843,-0.0569606 -0.00511811,-0.0767323 -0.142744,-0.12537 -0.118713,-0.254091 -0.0972244,-0.369177 0.0317283,-0.169953 0.059252,-0.317335 -0.24272,-0.419091 -0.48352,-0.162933 -0.660728,-0.317346 -0.818772,-0.455067 -0.216272,-0.188453 -0.254543,-0.491327 -1.05387,-0.600173z"/>
   <g>
    <path id="_342994608" class="fil1" d="M1.82587 1.76891l2.6217 0 0 3.31798c-0.89752,0.328587 -1.77155,0.334492 -2.6217,0l0 -3.31798z"/>
    <path id="_342994992" class="fil2" d="M4.5426 4.81683c0.378,0.116528 0.610701,0.288988 0.610701,0.491421 0,0.206654 -0.242457,0.382075 -0.634453,0.498634 -0.354866,0.105524 -0.84302,0.170791 -1.38032,0.170791 -0.537303,0 -1.02546,-0.0652677 -1.38033,-0.170791 -0.391992,-0.116559 -0.634453,-0.29198 -0.634453,-0.498634 0,-0.206646 0.242465,-0.382067 0.634457,-0.49863l0.000562992 -0.000165354c0.0224646,0.213264 0.637236,0.384193 1.39241,0.384193 0.746461,0 1.35576,-0.167 1.39143,-0.376819z"/>
    <path id="_342994896" class="fil3" d="M4.54164 4.8002c0.0312874,0.035378 0.0480276,0.0725236 0.0480276,0.110835 0,0.239358 -0.650504,0.465366 -1.45294,0.465366 -0.802433,0 -1.45294,-0.226008 -1.45294,-0.465366 0,-0.0395354 0.0178543,-0.0778268 0.0510984,-0.114217 0.0206693,0.147071 0.190874,0.26824 0.455654,0.347118 0.244378,0.0727953 0.579685,0.117831 0.947988,0.117831 0.368299,0 0.70361,-0.0450354 0.947984,-0.117831 0.262744,-0.0782677 0.432343,-0.198189 0.45513,-0.343736z"/>
    <path id="_342994464" class="fil4" d="M1.95102 1.8897c0,-0.0602677 -0.0488622,-0.10913 -0.109134,-0.10913 -0.0602677,0 -0.109134,0.0488622 -0.109134,0.10913l0 2.87766c0,0.0602677 0.0488661,0.109134 0.109134,0.109134 0.0602717,0 0.109134,-0.0488661 0.109134,-0.109134l0 -2.87766z"/>
    <path id="_342994800" class="fil4" d="M4.54429 1.8897c0,-0.0602677 -0.0488622,-0.10913 -0.109134,-0.10913 -0.0602717,0 -0.109134,0.0488622 -0.109134,0.10913l0 2.87766c0,0.0602677 0.0488622,0.109134 0.109134,0.109134 0.0602717,0 0.109134,-0.0488661 0.109134,-0.109134l0 -2.87766z"/>
    <path id="_342994440" class="fil0" d="M4.53791 1.88611c-0.0160079,-0.0579134 -0.0759449,-0.0918858 -0.133858,-0.075878 -0.0539331,0.0149016 -0.0870945,0.0679094 -0.0784685,0.121898 0.000279528,-0.00057874 0.000440945,-0.00114567 0.000440945,-0.00168898 0,-0.00011811 1.5748e-005,-0.000106299 3.54331e-005,0l-3.54331e-005 0 3.54331e-005 0c0.000125984,0.000625984 0.000543307,0.00451575 0.00073622,0.00659843l5.11811e-005 0.000204724 -3.54331e-005 3.93701e-006 2.75591e-005 0.00030315 7.87402e-005 -1.1811e-005 2.3622e-005 0.00011811 0.0490354 -0.00678346 -0.0477402 0.0131929c-0.000169291,-0.00107874 -0.000929134,-0.00482283 -0.00129528,-0.00640945l-9.44882e-005 1.1811e-005 -7.87402e-006 -0.00011811 -0.000248031 3.14961e-005c-0.000385827,-0.00181496 -0.000720472,-0.0036378 -0.00100787,-0.00545276 -0.00766142,0.0156654 -0.11776,0.0454961 -0.291941,0.0815551 -0.226996,0.0469882 -0.543307,0.0760591 -0.895122,0.0760591 -0.351815,0 -0.66813,-0.0290709 -0.895126,-0.0760591 -0.180646,-0.0373976 -0.292382,-0.0681024 -0.292382,-0.0832441 0,-0.0602717 -0.0488622,-0.109134 -0.109134,-0.109134 -0.0602677,0 -0.109134,0.0488622 -0.109134,0.109134 0,0.0345787 0.0120669,0.0671535 0.0349685,0.0974882 -0.0215079,0.019937 -0.0349685,0.0484173 -0.0349685,0.0800512 0,0.0682756 0.0315551,0.131453 0.0895079,0.188004 -0.0509016,0.00924409 -0.0895079,0.0538031 -0.0895079,0.10737 0,0.0682756 0.0315551,0.131453 0.0895079,0.188004 -0.0509016,0.00924409 -0.0895079,0.0538031 -0.0895079,0.10737 0,0.0682795 0.0315551,0.131453 0.0895079,0.188004 -0.0509016,0.00924409 -0.0895079,0.0538031 -0.0895079,0.10737 0,0.0682795 0.0315551,0.131453 0.0895118,0.188008 -0.0509055,0.00924409 -0.0895118,0.0537992 -0.0895118,0.107374 0,0.0682756 0.0315551,0.131453 0.0895079,0.188004 -0.0509016,0.00924409 -0.0895079,0.0538031 -0.0895079,0.10737 0,0.0682795 0.0315551,0.131453 0.0895118,0.188004 -0.0509055,0.00924409 -0.0895118,0.0537992 -0.0895118,0.10737 0,0.0682795 0.0315551,0.131453 0.0895079,0.188008 -0.0509016,0.00924409 -0.0895079,0.0537992 -0.0895079,0.107366 0,0.0682795 0.0315551,0.131453 0.0895079,0.188008 -0.0509016,0.00924409 -0.0895079,0.0537992 -0.0895079,0.10737 0,0.0682756 0.0315551,0.131453 0.0895118,0.188004 -0.0509055,0.00924409 -0.0895118,0.0538031 -0.0895118,0.107374 0,0.160799 0.174945,0.293319 0.457787,0.377579 0.244378,0.0727953 0.579685,0.117831 0.947988,0.117831 0.368299,0 0.70361,-0.0450354 0.947984,-0.117831 0.282846,-0.0842598 0.457787,-0.21678 0.457787,-0.377579 0,-0.00452362 -0.000464567,-0.0116378 -0.00138189,-0.0212756 -0.000807087,-0.00842126 -0.00176772,-0.0155354 -0.00287008,-0.0212638 -0.00741339,-0.0387717 -0.0345315,-0.0687874 -0.069,-0.0816457 0.047563,-0.0521732 0.073252,-0.109606 0.073252,-0.171193 0,-0.00452362 -0.000464567,-0.0116378 -0.00138189,-0.0212756 -0.000807087,-0.0084252 -0.00176772,-0.0155354 -0.00287008,-0.0212638 -0.00741339,-0.0387717 -0.0345276,-0.0687835 -0.0689961,-0.0816496 0.0475591,-0.0521654 0.073248,-0.109598 0.073248,-0.171189 0,-0.00452362 -0.000464567,-0.0116339 -0.00138189,-0.0212756 -0.000807087,-0.00842126 -0.00176772,-0.0155354 -0.00287008,-0.0212638 -0.00741339,-0.0387677 -0.0345276,-0.0687795 -0.0689961,-0.0816457 0.0475591,-0.0521654 0.073248,-0.109602 0.073248,-0.171189 0,-0.00452362 -0.000464567,-0.0116378 -0.00138189,-0.0212756 -0.000807087,-0.00842126 -0.00176772,-0.0155354 -0.00287008,-0.0212638 -0.00741339,-0.0387717 -0.0345315,-0.0687835 -0.069,-0.0816457 0.047563,-0.0521654 0.073252,-0.109602 0.073252,-0.171189 0,-0.0045315 -0.000464567,-0.0116496 -0.00138189,-0.0212756 -0.000807087,-0.00842126 -0.00176772,-0.0155394 -0.00287008,-0.0212638 -0.00741339,-0.0387717 -0.0345276,-0.0687835 -0.0689961,-0.0816457 0.0475591,-0.0521693 0.073248,-0.109602 0.073248,-0.171189 0,-0.0045315 -0.000464567,-0.0116496 -0.00138189,-0.0212756 -0.000807087,-0.0084252 -0.00176772,-0.0155433 -0.00287008,-0.0212638 -0.00741339,-0.0387756 -0.0345315,-0.0687874 -0.069,-0.0816496 0.047563,-0.0521693 0.073252,-0.109602 0.073252,-0.171193 0,-0.0045315 -0.000464567,-0.0116457 -0.00138189,-0.0212756 -0.000807087,-0.00842126 -0.00176772,-0.0155394 -0.00287008,-0.0212638 -0.00741339,-0.0387677 -0.0345276,-0.0687795 -0.0689961,-0.0816457 0.0475591,-0.0521654 0.073248,-0.109602 0.073248,-0.171189 0,-0.0045315 -0.000464567,-0.0116496 -0.00138189,-0.0212756 -0.000807087,-0.00842126 -0.00176772,-0.0155394 -0.00287008,-0.0212638 -0.00741339,-0.0387677 -0.0345276,-0.0687795 -0.0689961,-0.0816457 0.0475591,-0.0521654 0.073248,-0.109602 0.073248,-0.171189 0,-0.0045315 -0.000464567,-0.0116496 -0.00138189,-0.0212756 -0.000807087,-0.0084252 -0.00176772,-0.0155394 -0.00287008,-0.0212638 -0.00741339,-0.0387717 -0.0345276,-0.0687835 -0.0689961,-0.0816496 0.0475591,-0.0521654 0.073248,-0.109598 0.073248,-0.171185 0,-0.0045315 -0.000464567,-0.0116496 -0.00138189,-0.0212756 -0.000807087,-0.0084252 -0.00176772,-0.0155433 -0.00287008,-0.0212638 -0.00355118,-0.0185512 -0.0116063,-0.0350945 -0.0228228,-0.0487165 0.0177638,-0.0271063 0.0270748,-0.0559252 0.0270748,-0.0862835 0,-0.0037874 -0.000216535,-0.00799606 -0.000649606,-0.0126378 -0.000149606,-0.00327165 -0.000440945,-0.00656693 -0.000897638,-0.00987795l-0.000248031 3.14961e-005 -1.5748e-005 -0.000114173 -5.90551e-005 7.87402e-006c-0.00101969,-0.00733071 -0.00254331,-0.0145866 -0.00451181,-0.0217402zm-2.58797 2.86496c0.0670906,0.0371969 0.148059,0.0699252 0.240591,0.0974882 0.244378,0.0727992 0.579685,0.117831 0.947988,0.117831 0.368299,0 0.70361,-0.0450315 0.947984,-0.117831 0.0913071,-0.0272008 0.171354,-0.0594291 0.237909,-0.0960197 0.000314961,0.00404724 0.000846457,0.00812205 0.00162598,0.0122087 0.000311024,0.00161417 0.000208661,-0.000259843 0.000311024,0.000799213 0.000212598,0.00227165 -0.000326772,-0.00201969 -0.000326772,0.000814961 0,0.0525315 -0.115319,0.113157 -0.30176,0.168697 -0.224909,0.067 -0.537937,0.108445 -0.885744,0.108445 -0.347811,0 -0.660839,-0.0414449 -0.885748,-0.108445 -0.186437,-0.0555394 -0.30176,-0.116165 -0.30176,-0.168697 0,-0.00518898 -0.000370079,-0.0102953 -0.00107087,-0.0152913zm0 -0.295374c0.0670906,0.0371929 0.148059,0.0699252 0.240591,0.0974882 0.244378,0.0727992 0.579685,0.117831 0.947988,0.117831 0.368299,0 0.70361,-0.0450315 0.947984,-0.117831 0.0913071,-0.0272008 0.171354,-0.0594331 0.237909,-0.0960236 0.000314961,0.00405118 0.000846457,0.00812205 0.00162598,0.0122047 0.000311024,0.00161811 0.000208661,-0.000255906 0.000311024,0.00080315 0.000212598,0.00227165 -0.000326772,-0.00202362 -0.000326772,0.000814961 0,0.0525315 -0.115319,0.113157 -0.30176,0.168693 -0.224909,0.0670039 -0.537937,0.108445 -0.885744,0.108445 -0.347811,0 -0.660839,-0.0414409 -0.885748,-0.108445 -0.186437,-0.0555354 -0.30176,-0.116161 -0.30176,-0.168693 0,-0.00518898 -0.000370079,-0.0102913 -0.00107087,-0.0152874zm0 -0.295374c0.0670906,0.0371929 0.148059,0.0699252 0.240591,0.0974882 0.244378,0.0727953 0.579685,0.117831 0.947988,0.117831 0.368299,0 0.70361,-0.0450354 0.947984,-0.117831 0.0913071,-0.0272008 0.171354,-0.0594331 0.237909,-0.0960236 0.000314961,0.00404724 0.000846457,0.00812205 0.00162598,0.0122047 0.000311024,0.00161417 0.000208661,-0.000255906 0.000311024,0.00080315 0.000212598,0.00227165 -0.000326772,-0.00202362 -0.000326772,0.000811024 0,0.0525354 -0.115319,0.113157 -0.30176,0.168697 -0.224909,0.067 -0.537937,0.108445 -0.885744,0.108445 -0.347811,0 -0.660839,-0.0414449 -0.885748,-0.108445 -0.186437,-0.0555394 -0.30176,-0.116161 -0.30176,-0.168697 0,-0.00518504 -0.000370079,-0.0102913 -0.00107087,-0.0152835zm0 -0.295378c0.0670906,0.0371969 0.148059,0.0699291 0.240591,0.0974921 0.244378,0.0727953 0.579685,0.117831 0.947988,0.117831 0.368299,0 0.70361,-0.0450354 0.947984,-0.117831 0.0913071,-0.0272008 0.171354,-0.0594331 0.237909,-0.0960236 0.000314961,0.00404724 0.000846457,0.00811811 0.00162598,0.0122047 0.000311024,0.00161417 0.000208661,-0.000259843 0.000311024,0.000799213 0.000212598,0.00227165 -0.000326772,-0.00201969 -0.000326772,0.000814961 0,0.0525315 -0.115319,0.113157 -0.30176,0.168697 -0.224909,0.067 -0.537937,0.108445 -0.885744,0.108445 -0.347811,0 -0.660839,-0.0414449 -0.885748,-0.108445 -0.186437,-0.0555394 -0.30176,-0.116165 -0.30176,-0.168697 0,-0.00518898 -0.000370079,-0.0102913 -0.00107087,-0.0152874zm0 -0.295374c0.0670906,0.0371969 0.148059,0.0699252 0.240591,0.0974882 0.244378,0.0727992 0.579685,0.117831 0.947988,0.117831 0.368299,0 0.70361,-0.0450315 0.947984,-0.117831 0.0913071,-0.0272008 0.171354,-0.0594331 0.237909,-0.0960197 0.000314961,0.00404724 0.000846457,0.00811811 0.00162598,0.0122047 0.000311024,0.00161417 0.000208661,-0.000259843 0.000311024,0.000799213 0.000212598,0.00226772 -0.000326772,-0.00201969 -0.000326772,0.000814961 0,0.0525315 -0.115319,0.113157 -0.30176,0.168697 -0.224909,0.067 -0.537937,0.108445 -0.885744,0.108445 -0.347811,0 -0.660839,-0.0414449 -0.885748,-0.108445 -0.186437,-0.0555394 -0.30176,-0.116165 -0.30176,-0.168697 0,-0.00518898 -0.000370079,-0.0102913 -0.00107087,-0.0152874zm0 -0.295378c0.0670906,0.0371929 0.148059,0.0699252 0.240591,0.0974882 0.244378,0.0727992 0.579685,0.117831 0.947988,0.117831 0.368299,0 0.70361,-0.0450315 0.947984,-0.117831 0.0913071,-0.0272008 0.171354,-0.0594331 0.237909,-0.0960236 0.000314961,0.00405118 0.000846457,0.00812598 0.00162598,0.0122087 0.000311024,0.00161811 0.000208661,-0.000255906 0.000311024,0.00080315 0.000212598,0.00226772 -0.000326772,-0.00202362 -0.000326772,0.000814961 0,0.0525315 -0.115319,0.113157 -0.30176,0.168693 -0.224909,0.0670039 -0.537937,0.108445 -0.885744,0.108445 -0.347811,0 -0.660839,-0.0414409 -0.885748,-0.108445 -0.186437,-0.0555354 -0.30176,-0.116161 -0.30176,-0.168693 0,-0.00518898 -0.000370079,-0.0102953 -0.00107087,-0.0152913zm0 -0.295374c0.0670906,0.0371929 0.148059,0.0699252 0.240591,0.0974882 0.244378,0.0727953 0.579685,0.117831 0.947988,0.117831 0.368299,0 0.70361,-0.0450354 0.947984,-0.117831 0.0913071,-0.0272008 0.171354,-0.0594331 0.237909,-0.0960236 0.000314961,0.00404724 0.000846457,0.00812205 0.00162598,0.0122047 0.000311024,0.00161417 0.000208661,-0.000255906 0.000311024,0.00080315 0.000212598,0.00226772 -0.000326772,-0.00202362 -0.000326772,0.000811024 0,0.0525354 -0.115319,0.113157 -0.30176,0.168697 -0.224909,0.067 -0.537937,0.108445 -0.885744,0.108445 -0.347811,0 -0.660839,-0.0414449 -0.885748,-0.108445 -0.186437,-0.0555394 -0.30176,-0.116161 -0.30176,-0.168697 0,-0.00518504 -0.000370079,-0.0102913 -0.00107087,-0.0152835zm0 -0.295378c0.0670906,0.0371969 0.148059,0.0699252 0.240591,0.0974921 0.244378,0.0727953 0.579685,0.117827 0.947988,0.117827 0.368299,0 0.70361,-0.0450315 0.947984,-0.117827 0.0913071,-0.0272008 0.171354,-0.0594331 0.237909,-0.0960236 0.000314961,0.00404724 0.000846457,0.00811811 0.00162598,0.0122047 0.000311024,0.00161417 0.000208661,-0.000259843 0.000311024,0.000799213 0.000212598,0.00226772 -0.000326772,-0.00201969 -0.000326772,0.000814961 0,0.0525315 -0.115319,0.113157 -0.30176,0.168697 -0.224909,0.067 -0.537937,0.108445 -0.885744,0.108445 -0.347811,0 -0.660839,-0.0414449 -0.885748,-0.108445 -0.186437,-0.0555394 -0.30176,-0.116165 -0.30176,-0.168697 0,-0.00518898 -0.000370079,-0.0102913 -0.00107087,-0.0152874zm0 -0.295374c0.0670906,0.0371929 0.148059,0.0699252 0.240591,0.0974882 0.244378,0.0727992 0.579685,0.117831 0.947988,0.117831 0.368299,0 0.70361,-0.0450315 0.947984,-0.117831 0.0913071,-0.0272008 0.171354,-0.0594331 0.237909,-0.0960197 0.000314961,0.00404724 0.000846457,0.00811811 0.00162598,0.0122047 0.000311024,0.00161417 0.000208661,-0.000259843 0.000311024,0.000799213 0.000212598,0.00226772 -0.000326772,-0.00201969 -0.000326772,0.000814961 0,0.0525315 -0.115319,0.113157 -0.30176,0.168693 -0.224909,0.0670039 -0.537937,0.108445 -0.885744,0.108445 -0.347811,0 -0.660839,-0.0414409 -0.885748,-0.108445 -0.186437,-0.0555354 -0.30176,-0.116161 -0.30176,-0.168693 0,-0.00518898 -0.000370079,-0.0102913 -0.00107087,-0.0152874zm0.0516969 -0.215295c0.0581693,0.0207126 0.124626,0.038811 0.198272,0.0540551 0.242287,0.0501575 0.574303,0.081185 0.93861,0.081185 0.364303,0 0.696323,-0.0310276 0.93861,-0.081185 0.0736417,-0.0152441 0.140102,-0.0333465 0.198272,-0.0540551 -0.0508583,0.0345394 -0.13787,0.0701614 -0.251138,0.103902 -0.224909,0.067 -0.537937,0.108445 -0.885744,0.108445 -0.347811,0 -0.660839,-0.0414449 -0.885748,-0.108445 -0.113268,-0.0337402 -0.20028,-0.0693622 -0.251134,-0.103902zm2.37481 -0.242028l0.00109449 -0.00030315 0.0011063 0 0.0559803 -0.0076811 -0.0570157 0.00766142 -7.08661e-005 1.9685e-005 0.0011063 0 -0.00220079 0.00030315zm-0.0496339 0.00650394l-3.54331e-005 3.93701e-006c-5.51181e-005,-0.000366142 -3.93701e-005,-0.000401575 1.9685e-005,-0.000212598l1.5748e-005 0.000208661z"/>
    <path id="_342994704" class="fil2" d="M3.13852 0.848984c0.537303,0 1.02545,0.0579528 1.38032,0.151654 0.391996,0.1035 0.634457,0.259264 0.634457,0.442752 0,0.183492 -0.242457,0.339256 -0.634453,0.442756 -0.354866,0.0937008 -0.84302,0.151654 -1.38032,0.151654 -0.537303,0 -1.02546,-0.0579528 -1.38033,-0.151654 -0.391992,-0.1035 -0.634453,-0.259264 -0.634453,-0.442756 0,-0.183488 0.242465,-0.339252 0.634457,-0.442752 0.35487,-0.0937008 0.84302,-0.151654 1.38032,-0.151654zm0 0.449815c0.194307,0 0.372701,0.010374 0.504039,0.0271535 0.174441,0.0222795 0.282343,0.063185 0.282343,0.117437 0,0.054252 -0.107902,0.0951575 -0.282339,0.117441 -0.131339,0.0167717 -0.309736,0.0271535 -0.504043,0.0271535 -0.194311,0 -0.372705,-0.0103819 -0.504043,-0.0271535 -0.174441,-0.0222835 -0.282343,-0.063189 -0.282343,-0.117441 0,-0.054252 0.107902,-0.0951575 0.282346,-0.117437 0.131339,-0.0167795 0.309728,-0.0271535 0.504039,-0.0271535z"/>
    <path id="_342994680" class="fil5" d="M3.69407 1.2901c-0.14476,-0.0218976 -0.341382,-0.035437 -0.555547,-0.035437 -0.214169,0 -0.410791,0.0135394 -0.555551,0.035437 -0.192268,0.0290827 -0.311197,0.0824764 -0.311197,0.153287 0,0.070811 0.118929,0.124205 0.311193,0.153291 0.14476,0.0218898 0.341386,0.035437 0.555555,0.035437 0.214165,0 0.410791,-0.0135472 0.555551,-0.035437 0.192264,-0.0290866 0.311193,-0.0824803 0.311193,-0.153291 0,-0.070811 -0.118929,-0.124205 -0.311197,-0.153287z"/>
    <path id="_342994416" class="fil6" d="M3.13852 1.14649c-0.121268,0 -0.731547,0.022563 -1.15253,0.112988 -0.221138,0.0474961 -0.387055,0.110213 -0.387055,0.190929 0,0.0797992 0.166146,0.142256 0.387504,0.189799 0.421236,0.0904764 1.03153,0.114114 1.15208,0.114114 0.129362,0 0.745295,-0.0152205 1.16863,-0.105134 0.222327,-0.0472205 0.388713,-0.111744 0.388713,-0.19878 0,-0.0870433 -0.166382,-0.151571 -0.388709,-0.198791 -0.423335,-0.0899094 -1.03926,-0.105126 -1.16863,-0.105126zm-1.16665 0.0463819c0.426953,-0.0917126 1.04409,-0.114591 1.16665,-0.114591 0.13063,0 0.752969,0.0154449 1.18276,0.106728 0.253264,0.0537913 0.442795,0.137075 0.442795,0.265398 0,0.128311 -0.189535,0.211594 -0.442799,0.265386 -0.429783,0.0912835 -1.05213,0.106736 -1.18275,0.106736 -0.121843,0 -0.739043,-0.0239685 -1.1662,-0.115717 -0.252252,-0.0541772 -0.441594,-0.135425 -0.441594,-0.256406 0,-0.121902 0.189106,-0.203402 0.441146,-0.257535z"/>
   </g>
  </g>
  <rect class="fil7" width="6.82666" height="6.82666"/>
 </g>
</svg>
