<?xml version="1.0" encoding="UTF-8"?>
<!DOCTYPE svg PUBLIC "-//W3C//DTD SVG 1.1//EN" "http://www.w3.org/Graphics/SVG/1.1/DTD/svg11.dtd">
<!-- Creator: CorelDRAW -->
<svg xmlns="http://www.w3.org/2000/svg" xml:space="preserve" width="6.82666in" height="6.82666in" style="shape-rendering:geometricPrecision; text-rendering:geometricPrecision; image-rendering:optimizeQuality; fill-rule:evenodd; clip-rule:evenodd"
viewBox="0 0 6.82666 6.82666"
 xmlns:xlink="http://www.w3.org/1999/xlink">
 <defs>
  <style type="text/css">
   <![CDATA[
    .fil3 {fill:none}
    .fil2 {fill:#BEBEBE}
    .fil0 {fill:#202020;fill-rule:nonzero}
    .fil1 {fill:#282929;fill-rule:nonzero}
   ]]>
  </style>
 </defs>
 <g id="Layer_x0020_1">
  <metadata id="CorelCorpID_0Corel-Layer"/>
  <polygon class="fil0" points="2.2909,5.17946 2.28793,5.21087 2.28811,5.21063 2.29119,5.17921 "/>
  <path class="fil1" d="M5.77437 2.8214c0.00320472,-0.294067 -0.0682244,-0.51587 -0.17324,-0.676346 -0.132409,-0.202346 -0.317224,-0.306295 -0.468764,-0.33324l0.0183346 -0.105 -0.0186772 0.10502c-0.0400866,-0.00712992 -0.0709331,-0.0357913 -0.0827559,-0.0719646 -0.104071,-0.253012 -0.31065,-0.451563 -0.567295,-0.59128 -0.292921,-0.159457 -0.65015,-0.241925 -0.997028,-0.241925 -0.647059,0 -1.24423,0.199717 -1.68537,0.54585 -0.42039,0.329854 -0.69887,0.793307 -0.741575,1.34303 -0.0500709,0.644307 0.25063,1.2246 0.570783,1.64922 0.210157,0.278732 0.42815,0.490047 0.563008,0.610047 -0.011622,-0.0644606 -0.027626,-0.130047 -0.0398071,-0.171465l-0.000255906 7.48031e-005c-0.00890551,-0.0302835 -0.00374803,-0.0613622 0.0116535,-0.086252 0.0422362,-0.0898031 -0.010878,-0.236276 -0.0690748,-0.396717 -0.0365551,-0.100787 -0.074815,-0.206256 -0.0974921,-0.318512 -0.0877402,-0.43422 0.0592283,-0.884945 1.39548,-1.15499l-8.66142e-005 -0.000433071c0.0271693,-0.00548819 0.0540118,-0.000125984 0.0760354,0.0131063 0.222669,0.112996 0.485224,0.135307 0.72987,0.100657 0.289689,-0.0410236 0.549697,-0.160142 0.686209,-0.30213l-0.000204724 -0.00019685c0.0408228,-0.0424685 0.10835,-0.0437992 0.150819,-0.00297638l0.000779528 0.000767717c0.313228,0.262138 0.255587,0.657354 0.215717,0.930425 -0.0143504,0.0982992 -0.0437047,0.159311 -0.0344843,0.166146 0.00113386,0.00084252 -0.000732283,-0.00106693 0.000944882,-0.000759843 0.023748,0.00435827 0.0596339,-0.00337402 0.0969567,-0.0194016 0.184476,-0.0792165 0.224937,-0.181583 0.35326,-0.471331 0.0611929,-0.138177 0.104043,-0.309492 0.10626,-0.519429z"/>
  <path class="fil2" d="M2.16861 4.9459c0.587921,0.785197 1.81017,1.26897 2.46951,0.459764 0.335504,-0.411768 0.502539,-1.00689 0.570634,-1.54783 0.00117717,-0.00944488 0.00360236,-0.0184646 0.00709843,-0.0269252 -0.00524409,-0.0115787 0.0219409,-0.071315 0.0355787,-0.164724 0.0398701,-0.273071 0.0975118,-0.668287 -0.215717,-0.930425l-0.000779528 -0.000767717c-0.0424685,-0.0408228 -0.109996,-0.0394921 -0.150819,0.00297638l0.000204724 0.00019685c-0.136512,0.141988 -0.39652,0.261106 -0.686209,0.30213 -0.244646,0.0346496 -0.507201,0.0123386 -0.72987,-0.100657 -0.0220236,-0.0132323 -0.0488661,-0.0185945 -0.0760354,-0.0131063l8.66142e-005 0.000433071c-1.33625,0.270043 -1.48322,0.720768 -1.39548,1.15499 0.0226772,0.112256 0.060937,0.217724 0.0974921,0.318512 0.0581969,0.160441 0.111311,0.306913 0.0690748,0.396717 -0.0154016,0.0248898 -0.0205591,0.0559685 -0.0116535,0.086252l0.000255906 -7.48031e-005c0.0050748,0.0172598 0.0108189,0.0387205 0.016626,0.0625472z"/>
  <rect class="fil3" width="6.82666" height="6.82666"/>
 </g>
</svg>
