<?xml version="1.0" encoding="UTF-8"?>
<!DOCTYPE svg PUBLIC "-//W3C//DTD SVG 1.1//EN" "http://www.w3.org/Graphics/SVG/1.1/DTD/svg11.dtd">
<!-- Creator: CorelDRAW -->
<svg xmlns="http://www.w3.org/2000/svg" xml:space="preserve" width="6.82666in" height="6.82666in" style="shape-rendering:geometricPrecision; text-rendering:geometricPrecision; image-rendering:optimizeQuality; fill-rule:evenodd; clip-rule:evenodd"
viewBox="0 0 6.82666 6.82666"
 xmlns:xlink="http://www.w3.org/1999/xlink">
 <defs>
  <style type="text/css">
   <![CDATA[
    .fil2 {fill:none}
    .fil1 {fill:#3E3E3E;fill-rule:nonzero}
    .fil0 {fill:#BEBEBE;fill-rule:nonzero}
   ]]>
  </style>
 </defs>
 <g id="Layer_x0020_1">
  <metadata id="CorelCorpID_0Corel-Layer"/>
  <path class="fil0" d="M3.50284 1.69528c0.615783,-0.0011811 1.05382,0.037252 1.36158,0.303102 0.779398,0.67326 0.633858,2.79748 -0.206417,3.3648 0.0115354,0.0353031 0.0234567,0.0767913 0.0355394,0.122705 0.023185,0.088063 0.109402,0.367157 0.131622,0.487398l-1.59419 -0.0026063c-0.016063,-0.053878 -0.0777953,-0.236823 -0.108512,-0.31024 -0.0246063,-0.0588228 -0.050811,-0.112933 -0.0732205,-0.140244 -0.300736,0.00818898 -0.495118,0.000925197 -0.610598,-0.0681299 -0.139717,-0.0835433 -0.163051,-0.215965 -0.0935551,-0.442181 -0.140157,-0.131012 -0.222783,-0.216949 -0.155976,-0.434736 -0.0737323,-0.0279685 -0.16089,-0.072563 -0.196913,-0.135524l-8.66142e-005 5.51181e-005c-0.0103307,-0.0180591 -0.014937,-0.0378346 -0.0143858,-0.0572165 -0.00148819,-0.103398 0.0996969,-0.25185 0.197335,-0.395091 0.0731339,-0.107295 0.144909,-0.202488 0.144201,-0.206496 -0.00510236,-0.0289331 -0.0317795,-0.0520354 -0.0481142,-0.0661772 -0.0100512,-0.00870079 -0.0185236,-0.0160472 -0.0260079,-0.0242402l-0.000141732 0.000125984c-0.00361024,-0.00395669 -0.00686614,-0.00811024 -0.00978346,-0.0124173 -0.074626,-0.0961181 -0.0498976,-0.250776 0.0191811,-0.413472 0.0522126,-0.122976 0.130969,-0.257067 0.204512,-0.366114 -0.249961,-0.0130945 -0.464783,-0.071748 -0.633732,-0.191244 -0.216193,-0.167516 -0.49128,-0.646933 -0.287031,-0.924693 0.0249331,-0.00170472 0.101185,0.246547 0.34485,0.244776 -0.0936063,-0.185768 -0.152346,-1.0459 0.183874,-1.16819 0.010622,0.139457 -0.17463,0.902201 1.43597,0.836043z"/>
  <path class="fil1" d="M3.50284 1.69528c0.615783,-0.0011811 1.05382,0.037252 1.36158,0.303102 0.779398,0.67326 0.633858,2.79748 -0.206417,3.3648l0.00172047 0.00529528c-0.00166929,-0.000996063 -0.00332283,-0.00201575 -0.00494488,-0.00305512 -0.0337165,-0.0216063 -0.0573976,-0.0525394 -0.0743504,-0.0887953 -0.0923898,-0.197622 0.0223228,-0.366752 -0.176583,-0.531394 -0.0767087,-0.0635 -0.162496,-0.0977205 -0.17037,-0.114665 -0.208453,-0.101819 0.0163465,-0.462457 -0.0293819,-0.708315 -0.0374803,-0.201484 -0.307335,-0.247728 -0.358732,0.00165748 -0.0110079,0.0534173 0.00467323,0.474594 0.0181457,0.556539 -0.0487441,0 -0.201386,-0.0239685 -0.255201,-0.026311 0.0568898,-0.0844961 0.0197008,-0.809039 -0.0335197,-1.02339 -0.0813071,-0.327461 -0.0377717,-0.177598 -0.280685,-0.27828 -0.234228,-0.0970827 -0.447339,-0.314972 -0.838449,-0.249055l0.00325197 -0.00483071c-0.249961,-0.0130945 -0.464783,-0.071748 -0.633732,-0.191244 -0.216193,-0.167516 -0.49128,-0.646933 -0.287031,-0.924693 0.0249331,-0.00170472 0.101185,0.246547 0.34485,0.244776 -0.0936063,-0.185768 -0.152346,-1.0459 0.183874,-1.16819 0.010622,0.139457 -0.17463,0.902201 1.43597,0.836043z"/>
  <rect class="fil2" width="6.82666" height="6.82666"/>
 </g>
</svg>
