<svg id="Layer_1" data-name="Layer 1" xmlns="http://www.w3.org/2000/svg" viewBox="0 0 468.85 686.75"><defs><style>.cls-1{fill:#fff;}</style></defs><title>Neat</title><path d="M996.2,309.14c17.17-9,27.77-22.64,33.49-41.1,0,3.72.61,7.56-.1,11.14-4,20.15-12.75,37.76-28.2,51.78-8.92,8.1-19.52,13.16-30.42,17.77-6.14,2.6-12.36,5-18.35,8a126.41,126.41,0,0,0,35.79-12.69c11.65-6.29,20.93-15.43,29.07-25.74a80.94,80.94,0,0,0,16.41-34.54l1.6.49c-2.33,9.11-4.14,18.4-7.11,27.3a81.7,81.7,0,0,1-18.47,30.49c-6.93,7.26-15.83,11.92-25.2,15.84-11.73,4.92-24.25,5.46-36.41,8-15.9,3.28-31.87,6.22-47.79,9.42-5.14,1-10.15,2.81-15.33,3.5-3.36.45-4,1.82-4.1,4.79a138.2,138.2,0,0,1-1,16.79c-1.9,13.19-10.87,20.52-22.3,25.46-3.75,1.63-7.87,2.45-11.53,4.23-3.37,1.64-6.36,4.07-9.52,6.15l.9,1.62c5-1.62,10.07-3.3,15.14-4.86,23.88-7.33,48.35-9.81,73.24-8.9,5,.19,9.49-.19,14.26-3.6,6.3-4.5,14.21-6.75,22.89-10.62-4.14,0-7.32-.57-10.22.11-7.76,1.83-15.46,4-23.07,6.41-8.66,2.71-16,3-14.58-10.76a5.21,5.21,0,0,1,1.15-3.29c.3,2.05.59,4.1.89,6.15l.67,0c.14-1.58.28-3.17.54-6.18,1.18,3.23,1.94,5.28,2.69,7.34l1-.17-.88-7.22c4.21,6,8.65,3.22,13,2.39,8.18-1.56,16.35-3.93,24.58-4.16,6.15-.17,12.42,2.37,18.57,3.94,4.57,1.16,6.45,5,8.54,8.83,1,1.78,3.27,2.79,4.82,4.3,3.7,3.59,7.14,7.48,11,10.85,1.8,1.55,4.42,2.16,6.49,3.12-3.27,2.18-6.89,1.87-10.35-1.42-2.63-2.5-5.36-4.91-8-7.4-11.57-10.87-37.55-6.36-48.3,4-2.89,2.78-5.8,3.69-9.83,2.56-2.78-.78-5.93-.38-8.9-.3-36.54.91-71.63,8.24-104.87,24.37,1.41-.12,3,.11,4.21-.41a247.49,247.49,0,0,1,50.25-15.46c8.54-1.62,17.24-2.48,25.91-3.26,7.22-.66,14.49-.8,21.75-.95a13.08,13.08,0,0,1,5.54,1.54c-10-1.47-42.83,3.12-49.47,7,7.78-.56,15.29-.92,22.75-1.7,7.28-.76,14.32-.58,21,3.05-30.24,2-59.73,6.68-87.42,20.29,4.7,6.48,7.63,13.53,6.33,21.94-2.2-4.15-4.29-8.16-6.45-12.12-4.21-7.7-19.65-16.26-29.75-8.41a39.44,39.44,0,0,0-10.86,13c-6.45,12.87-8.2,26.64-3.7,40.58,2.52,7.81,7.86,13.85,14.84,19-11.76-1.43-22.65-11.76-25.51-23.92a46.27,46.27,0,0,1,1.39-26.24,9.7,9.7,0,0,0-.35-7.33,123.27,123.27,0,0,1-8.13-36.73c-.65-12-1.31-23.78-7.92-34.55a211,211,0,0,1-12.35-24.43c-7.2-16.13-4-30.94,6.4-44.7,8.85-11.75,18.56-22.57,30.86-30.87a92.23,92.23,0,0,1,40.43-15.33c14.47-1.83,29.1-2.68,43.43-5.25,11.58-2.07,21.57-8.26,30.19-16.46,11-10.5,21.67-21.51,33.42-31.15s25.88-12.88,41.13-10.23c4.79.83,9.67,1.18,15.24,1.85A72.34,72.34,0,0,0,962,220.56c-10.38-1.62-21-1.41-31.26,2.13a41.88,41.88,0,0,1,18.15-8.81c16.78-3.32,33-2.86,48,6.73,14,9,20.7,21.89,21,38.34,0,.81.13,1.62.24,2.92,7.87-23.75-1.33-45.75-24.68-56.57,5.63-2.13,20.85,4.83,29.16,13.43,17.25,17.87,20.92,38.3,11,60.88,2.05-20.63.39-39.42-13.32-55.34,8.31,24.22,7,46.63-12.07,67,.84-4.43,1.31-7.76,2.11-11,2.27-9.16-2-15.75-8.41-21.39-15.68-13.74-33.07-11.7-50.89-5.38-.75.27-1.52.5-3,1,15.12-11.9,44.18-15.76,60.75.74,2.56-4.18.46-8.13-.89-11.34-4.09-9.75-10.59-17.45-21.45-20.45L997,234.76c-5.34-.3-10.45-.39-15.51-.92-10.25-1.06-20.1.54-29.77,3.84-11,3.73-18.85,11.8-27,19.3q-13.41,12.33-25.78,25.77c-9.23,10-21,13.9-33.84,16.2-15.42,2.76-30.92,5.29-46.07,9.15-12.7,3.24-24.71,8.7-34.46,18a33.57,33.57,0,0,0-3.35,4.45c9.24-4.22,17.75-9.5,27-12,13-3.54,26.55-5.54,40-7.25,17.59-2.24,34.33-6.45,49.11-16.69,1.2-.84,2.4-1.68,3.63-2.48.2-.13.55,0,1.23,0-7.72,9.25-17.85,14.39-28.67,17.58-10.12,3-20.69,4.7-31.18,6.1-20.84,2.79-41,7.52-57.91,20.68a52.83,52.83,0,0,0-19.54,29.77c5.31-7.16,9.6-13.87,14.81-19.77,11.68-13.23,26.87-20,44.17-22.32q21.41-2.92,42.8-6c13.1-1.84,24-8.13,33.83-16.64,12.58-10.85,25.11-21.78,38.16-32,9-7,19.8-10.16,31.2-10.16a38.39,38.39,0,0,1,21.47,6.07c9.29,6.13,9.28,15.82,8.43,25.33C999.16,296.68,997.5,302.53,996.2,309.14ZM870.7,396.87l-1.35-1.48a230.82,230.82,0,0,0-68.68,29,25.21,25.21,0,0,1,5.92-5.29c11.49-7,22.76-14.38,34.7-20.46,8.27-4.21,17.54-6.42,26.26-9.81,1.17-.46,1.68-2.6,2.5-4-1.33-.45-2.91-1.62-4-1.26-15.83,5.38-32.24,9.62-47.18,16.87-14.36,7-27.26,17-40.63,25.92-6.27,4.19-6.55,6.34-3.18,12.72,3.78-2.6,7.48-5.36,11.38-7.78s7.86-4.41,11.81-6.59a133.4,133.4,0,0,1-16.95,14.08c-6.6,4.78-6.79,5.14-4.28,12.81l5.79-2.69c-5.6,7.22-5.69,8.49-1.36,15,2.21-2.48,4.16-5,6.44-7.14a61.53,61.53,0,0,1,7.32-5.85c2.36-1.63,4.93-2.95,7.4-4.41a5.06,5.06,0,0,1-1.92,3.12c-5.06,4.49-10.35,8.75-15.15,13.5-4.19,4.16-4,4.53-1.21,8.13,4.78-4.82,9-10.65,14.67-14.43,8-5.37,16.88-9.54,25.68-13.59,5.18-2.39,9.15-5.34,10.9-11.46L805.68,445.4c1.5-1.72,1.9-2.49,2.52-2.86,16.55-9.79,32.79-20.2,51.43-25.77,3.89-1.16,6.23-3.52,7.47-8-15.3,3.09-29.47,7.68-42.71,14.64S798.6,438,785.73,445.32c-.24-.33-.48-.67-.71-1,11.71-8.12,22.8-17.4,35.29-24.05,14.73-7.84,30.7-13.35,46.08-20C868,399.57,869.27,398,870.7,396.87Z" transform="translate(-696.09 -204.91)"/><path d="M894.13,599.79c-6.59-5.14-13.48-9.93-19.7-15.48-14.8-13.2-22.44-30.33-25.07-49.62-1.91-14-2.77-28.15-4.1-42.23l2-.24c.63,4.12,1.33,8.23,1.89,12.36,2.69,19.81,6.91,39.24,16.44,57,6.31,11.75,15.9,20.65,27.49,27.19a118.88,118.88,0,0,0,18.2,8.08c-30.19-14.22-50.31-36-54.43-70.25,6.63,26.47,21.43,46.58,45.93,59.17,10.09,5.18,20.44,9.19,32.2,7.89-7.07-1.72-14.28-2.75-20.91-5.28a106.09,106.09,0,0,1-19.64-10.26c-6.14-4-11.62-9-17.4-13.56.29-.38.59-.76.88-1.15,4.25,3.16,8.43,6.41,12.76,9.45a97.54,97.54,0,0,0,34.48,15.35,28.59,28.59,0,0,0,14.15-.25c8-2.47,9.59-10,11-17.27,2.12-11.43,4.11-22.9,6.77-34.21,2.31-9.85,10.29-13.77,19.27-15.31,14.3-2.45,28.61-1.46,42.76,1.54,2.93.62,4.55.29,6.36-2.62a23.3,23.3,0,0,1,8.25-7.84c6.73-3.68,8.24-8.45,3.15-14.4-4.68-5.47-9.8-10.57-14.75-15.8-7.14-7.55-9.37-17-10.85-26.88-.49-3.27-1.76-6.41-2.68-9.61l-2.2-.3c-1.16,2.43-2.52,4.78-3.43,7.3-4,11.21-7.71,22.56-12,33.68-3.37,8.79-9.89,13.93-19.39,15.65s-18.85,1.45-27.65-2.4-11.21-12.61-12.57-21.13c-1.53-9.57-2-19.3-3.19-28.94-.26-2.13-1.31-4.17-2-6.32,3.45-1.62,6.23-.34,6.77,3.86.83,6.34,1.16,12.76,2.11,19.08.8,5.3,1.59,10.74,3.43,15.73,4,10.91,14.8,16.18,26.25,13.57,3.81-.86,7.75-1.28,11.48-2.4,4.34-1.28,7.75-3.86,9-8.87l-11.08,7.07-.92-.93c9.83-5.45,13.28-15,15.66-24.73,2.33-9.53,4.7-19.45-1-29,0,4.44.08,8.87,0,13.31a57,57,0,0,1-9.52,31.09,21,21,0,0,1-23,8.62c-8-2.24-13.84-7.76-14.79-16.19-1.34-11.79-1.55-23.71-2.17-35.57a3.82,3.82,0,0,1,.87-2.53c9.07-9.83,20.59-14.51,33.7-15,14.13-.5,21.11,9.56,21.86,21.61.39,6.19.07,12.43.07,17.51,1.6-5.11,3.53-11.42,5.58-17.7.92-2.78,2.83-3.95,5.94-3.78s4.94,1.62,5.42,4.59c1.08,6.61,1.79,13.29,3.15,19.84a29.33,29.33,0,0,0,4.3,9.35c-.33-8.46-1.26-16.95-.76-25.35.31-5.19,2.36-10.43,4.41-15.32,2.56-6.09,8.26-7.09,14.13-6.74,3.75.22,5.69,2.79,6.78,6.23,3.3,10.39,2.69,20.91.36,31.26a98.2,98.2,0,0,1-7.63,20.91c3.36-15,8.07-29.64,2.27-45.08,0,1.94-.09,3.88,0,5.82a84.55,84.55,0,0,1-6,36.69c-1.94,4.74,1.85,5.82,4.36,8.47a20.58,20.58,0,0,0,3.06-3.44c5.19-9.46,7.86-19.63,9.16-30.34,1-8.42,1.5-16.69-1.06-24.87-3-9.47-9.89-13.23-18.91-9.77-5.14,2-9.88,5-14.8,7.54a5.53,5.53,0,0,1-3.27.79l5.08-4.75v-8.31l5.67,5.05.83-.73c-.88-1.62-1.75-3.25-2.66-4.93,1.41-1.56,2.72-3,4.14-4.61-8.53-15.88-10.68-33.26-12.59-51.51l-22,1.35c12.82-3.11,23-10.41,31.2-20.24,10.85-13,17.69-28.17,22.32-44.42,4-14.18,4.25-28.64,3.89-43.17a78.86,78.86,0,0,0-1.11-8.47l1.18-.23c1.2,6,2.82,11.94,3.52,18a189.82,189.82,0,0,1,1.06,20.79c.06,19.27-6.17,36.78-16,53-4,6.7-9.48,12.55-13.72,19.15a14.69,14.69,0,0,0-2,8.84c1.53,14.8,3.51,29.55,5.41,45,6.07-2.34,9.84-1.11,11,5a2.93,2.93,0,0,0,2,1.79c10.45,2,14.3,9,15.47,18.9,2,16.57-.86,32.37-6.77,47.7-1.38,3.6-4.08,6.69-6.21,10.06a70.46,70.46,0,0,1,4.1,8.09c1.88,5.17.19,9.88-4.43,12.83-4.23,2.7-8.62,5.14-12.94,7.7.26.58.53,1.16.8,1.74l6.7-2.74c2.1,2.54,2.65,5.85.43,8.27-3.25,3.55-2.86,7.49-2.87,11.58,0,7.82-2.61,10.73-10.91,11.76.71,5.27-2.41,10.9,3.66,15.51,3.74,2.83,2.81,6.32-2.1,8.07-4.55,1.63-9.61,3.12-14.31,2.79-11.38-.81-23.16-.69-33.37-7-4.29-2.67-8.16-6-13.06-9.63.79,4.61,1.43,8.64,2.17,12.65,2.18,11.65,4.53,23.37,13,32.31a41.89,41.89,0,0,0,12.5,8.92c5,2.29,10.37-.42,12.94-6.14,2.9-6.47,4.95-13.31,7.38-20l-1.78-1.17c-1,1-2.38,1.89-3,3.13-2.82,5.73-5.43,11.56-8.83,17.15q2.91-10.32,5.83-20.65l-1.39-.57-7.34,15.45-.81-.27c1.23-4.69,2.47-9.39,3.73-14.22L987,582.06c.07-.46.13-.92.2-1.39,13.33,4.11,26.15,2.25,39-2.91.67,6.31,1.21,12.13,1.93,17.94,1.33,10.78,6.44,20.11,11.27,29.6,6.06,11.86,9.7,24.57,9.17,37.9-.53,13.18-2.75,26.29-11,37.24-3.56,4.77-8.32,8.64-12.95,12.48,1.89-16,6.43-31.56-4.44-47.29.74,13.51,1.53,25.7-2.21,37.42-3-3.65-5.45-7.66-8.86-10.52-6.37-5.34-14.61-5.21-22.37-6.1C974,685,961.4,683.08,950.47,675.5c-7.65-5.3-11.31-12.89-13.17-21.77-2.19-10.41,0-20.49,1.37-30.72-6.77,9.49-9.94,19.68-5.53,32.08-10.51-4.06-20.21-7.75-29.88-11.56-10.19-4-20.59-7.63-30.46-12.35-18.5-8.85-29.64-24-34.32-43.74-2.9-12.21-4.91-24.63-7.31-36.94-5.35,4.31-11.55,8.68-19.66,4.19-3.26-1.81-5-5.25-5-11.13a53,53,0,0,0,4.42,3.3c9,5.33,18.74,0,20.49-11,1.33-8.4,2.57-16.82,3.91-25.22.14-.86.72-1.64,2.25-2.3v30.87l9,2.12c-2.58,1.89-8.92-1.1-8.27,6L849,548.87l.09.68-9.71,2.62V558H852.1c-4.05,1.5-6.93,2.19-9.37,3.62-1.24.73-2.61,3.13-2.24,4.2a5.25,5.25,0,0,0,4.13,2.66c2.7-.05,5.37-1.1,8.43-.71l-11.23,4.52c.19,1.68.37,3.3.69,6l14.16-5.19c-3.26,5.17-11.58,5.56-12.73,12l1.5,1.54L861.09,579l.43.7c-4.94,3.63-9.87,7.26-15.11,11.13.7,1.6,1.39,3.18,2.37,5.4C854.71,592,860.36,588,866,584l.46.5c-2.8,3.11-6.08,5.92-8.25,9.42-1.8,2.92-7.8,4.4-4.6,10.47l17.69-15,.58.59-13.8,18.35,1.42,1.26c7.55-3.44,10.36-12.29,18.08-16.74-4.06,7.67-10.17,13.49-13.21,20.95l1.7,1.08,16.1-19.48.63.48c-3.6,6.36-7.27,12.68-10.72,19.12-.59,1.09-.27,2.67-.37,4,1.29-.71,3.1-1.08,3.8-2.17,3.9-6.06,7.53-12.29,12-18.21q-2.65,6.82-5.31,13.65c-1.07,2.76-2.25,5.48-3.13,8.3-.26.84.31,1.94.5,2.93.87-.55,2.16-.89,2.56-1.67,3.13-6.18,6-12.48,9.16-18.66a19.36,19.36,0,0,1,3-3.5c-2.63,8.82-6.58,17.33-7.11,26.61l2,.62c3.33-8.53,6.66-17,10-25.62-1.47-.5-2.08-.74-2.71-.92S894.91,600,894.13,599.79Zm80.46-36.25c7.66,8.62,28.09,10.4,38.49,6a4.56,4.56,0,0,0,2.59-2.64c.84-4.59,1.31-9.25,2-14.65-19.26,5.65-36.2-.9-53.51-5.57,1.6,7.06,6.92,9.47,12.47,11.1s11.09,2.4,16.65,3.56c0,.38,0,.76,0,1.13Zm-13.48-81.16c-9.28-15.75-3.08-33-4.19-50.6-4.62,3.13-11.24,2.78-11.72,8.29-1,11.63-.69,23.41,3.11,34.68C950,479.62,956.07,483,961.11,482.38Zm9.67,183.35c.26-.76.51-1.09.45-1.37a15.74,15.74,0,0,0-.7-2.31c-3.37-8.72-2.39-16.73,2.5-24.87,2.89-4.8,5.57-6.37,10.39-3.5-10.66,24.07-1.49,37.75,15.38,45.4-18.07-16.11-23.49-33.49-4.75-53.39-16.63,2.83-24.46-1-29.93-14.94-2.42-6.17-3.53-12.91-4.7-19.48-.95-5.27-1.09-10.67-1.59-16-.3,19.87-.3,39.71,15.29,55.25C962.27,646.18,962.26,655.25,970.78,665.73Zm55.67-129c-7.75.6-15.69,1.47-23.64,1.77-8.34.31-16.71-.11-25,.17-3.21.1-6.39,1.26-9.59,1.93l.05,1.51c3.93.83,7.82,1.93,11.79,2.45,9.91,1.3,19.82,2.91,29.77,3.32S1025.09,543.93,1026.45,536.74Zm-14.08,150.69,1-.27a16.46,16.46,0,0,0-.65-3.7c-2.76-6.46-5.4-13-8.55-19.27a43.66,43.66,0,0,1-3.22-32.47c1-3.54,2.09-7.05,3.13-10.58A17.62,17.62,0,0,0,998.9,626c-7.83,10.34-8.32,26.63-2.74,36.37C1001.09,671,1006.93,679.11,1012.37,687.43Zm25.57-3.2c4.61-10.59,7.55-21.49,4.09-32.52-3.1-9.89-7.89-19.25-11.63-29-3.48-9-6.56-18.2-9.59-26.68,0,.81-.43,2.71.07,4.33,2.45,8.07,4.56,16.32,7.87,24,5.92,13.85,11.27,27.66,10,43.14C1038.31,673.12,1038.21,678.68,1037.94,684.23Zm-68.32-256.7c-2,2.27-4.42,3.66-4.56,5.26-1,11.31-1.73,22.66-2.06,34-.1,3.54,1.32,7.13,2.23,11.59C966.71,461.21,968.1,445.14,969.62,427.53Zm56.12,10.05c-4.66,12.18-3.1,24.51,0,36.85Z" transform="translate(-696.09 -204.91)"/><path d="M796.11,505.46c5,7.27,5,17.06,15.46,21.11-1.27-8.58,1.51-14,8.69-17.62,1.49-.74,2.21-5.43,1.42-7.64-.9-2.52-3.87-4.31-5.95-6.41-1.51,2.11-3.06,4.2-4.53,6.35-1,1.41-1.52,3.32-2.81,4.18-.73.49-3.29-.31-3.75-1.2a6.61,6.61,0,0,1-.16-4.8c2.85-8,8-10.58,17.09-8.88-3.11-8.64-8.94-10.24-15.49-4-3.54,3.37-6.68,7.16-10.79,11.62,1.18-5.31,1.85-9.84,3.24-14.14,1.51-4.63,4.08-8.82,9.35-9.92,5.6-1.16,9.63,1.22,12.84,5.94,10.57,15.51,11.7,36.5,1.33,52A9.48,9.48,0,0,1,808.18,534c-5.49-4.48-9.71-9.83-10.75-17.11C796.89,513.07,796.54,509.26,796.11,505.46Z" transform="translate(-696.09 -204.91)"/><path d="M993.88,497.9c-11.32,6-13.32,10.2-6.35,16.44-6.21.73-9.78-1.14-11.8-6.51-15.33,8.55-31.19,16.13-40.19,32.53-5.14,9.36-4.53,18.46,0,27.7.47,1,.86,2,1.34,3.08-10.84.18-18.1-10.07-15-20.54a44.31,44.31,0,0,1,17.59-24c13.65-9.4,28.18-17.53,42.53-25.87,3.52-2.05,7.78-2.84,11.69-4.2Z" transform="translate(-696.09 -204.91)"/><path d="M1015.17,518.16c-6.74-1.56-12.12-9.26-20.06-4.08,3.82-4.93,13.72-7.75,18.85-5.93C1016.79,509.16,1017.32,512.13,1015.17,518.16Z" transform="translate(-696.09 -204.91)"/><path class="cls-1" d="M870.7,396.87c-1.43,1.16-2.69,2.7-4.31,3.4-15.38,6.64-31.35,12.15-46.08,20-12.49,6.65-23.58,15.93-35.29,24.05.23.34.47.68.71,1,12.87-7.33,25.56-15,38.66-21.9s27.41-11.55,42.71-14.64c-1.24,4.47-3.58,6.83-7.47,8-18.64,5.57-34.88,16-51.43,25.77-.62.37-1,1.14-2.52,2.86l29.94-13.59c-1.75,6.12-5.72,9.07-10.9,11.46-8.8,4.05-17.67,8.22-25.68,13.59-5.63,3.78-9.89,9.61-14.67,14.43-2.75-3.6-3-4,1.21-8.13,4.8-4.75,10.09-9,15.15-13.5a5.06,5.06,0,0,0,1.92-3.12c-2.47,1.46-5,2.78-7.4,4.41a61.53,61.53,0,0,0-7.32,5.85c-2.28,2.16-4.23,4.66-6.44,7.14-4.33-6.48-4.24-7.75,1.36-15l-5.79,2.69c-2.51-7.67-2.32-8,4.28-12.81a133.4,133.4,0,0,0,16.95-14.08c-3.95,2.18-8,4.22-11.81,6.59s-7.6,5.18-11.37,7.79c-3.38-6.39-3.1-8.54,3.17-12.73,13.37-8.93,26.27-18.94,40.63-25.92,14.94-7.25,31.35-11.49,47.18-16.87,1-.36,2.63.81,4,1.26-.82,1.36-1.33,3.5-2.5,4-8.72,3.39-18,5.6-26.26,9.81-11.94,6.08-23.21,13.5-34.7,20.46a25.21,25.21,0,0,0-5.92,5.29,230.82,230.82,0,0,1,68.68-29Z" transform="translate(-696.09 -204.91)"/><path class="cls-1" d="M974.59,563.54l18.69-1.08c0-.37,0-.75,0-1.13-5.56-1.16-11.22-2-16.65-3.56s-10.87-4-12.47-11.1c17.31,4.67,34.25,11.22,53.51,5.57-.7,5.4-1.17,10.06-2,14.65a4.56,4.56,0,0,1-2.59,2.64C1002.68,573.94,982.25,572.16,974.59,563.54Z" transform="translate(-696.09 -204.91)"/><path class="cls-1" d="M961.11,482.38c-5,.59-11.16-2.76-12.8-7.63-3.8-11.27-4.13-23.05-3.11-34.68.48-5.51,7.1-5.16,11.72-8.29C958,449.41,951.83,466.63,961.11,482.38Z" transform="translate(-696.09 -204.91)"/><path class="cls-1" d="M970.78,665.73c-8.52-10.48-8.51-19.55,2.34-35.22-15.59-15.54-15.59-35.38-15.29-55.25.5,5.34.64,10.74,1.59,16,1.17,6.57,2.28,13.31,4.7,19.48,5.47,14,13.3,17.77,29.93,14.94-18.74,19.9-13.32,37.28,4.75,53.39-16.87-7.65-26-21.33-15.38-45.4-4.82-2.87-7.5-1.3-10.39,3.5-4.89,8.14-5.87,16.15-2.5,24.87a15.74,15.74,0,0,1,.7,2.31C971.29,664.64,971,665,970.78,665.73Z" transform="translate(-696.09 -204.91)"/><path class="cls-1" d="M1026.45,536.74c-1.36,7.19-6.69,11.56-16.67,11.15s-19.86-2-29.77-3.32c-4-.52-7.86-1.62-11.79-2.45l-.05-1.51c3.2-.67,6.38-1.83,9.59-1.93,8.34-.28,16.71.14,25-.17C1010.76,538.21,1018.7,537.34,1026.45,536.74Z" transform="translate(-696.09 -204.91)"/><path class="cls-1" d="M1012.37,687.43c-5.44-8.32-11.28-16.42-16.21-25-5.58-9.74-5.09-26,2.74-36.37a17.62,17.62,0,0,1,5.16-4.88c-1,3.53-2.13,7-3.13,10.58a43.66,43.66,0,0,0,3.22,32.47c3.15,6.27,5.79,12.81,8.55,19.27a16.46,16.46,0,0,1,.65,3.7Z" transform="translate(-696.09 -204.91)"/><path class="cls-1" d="M1037.94,684.23c.27-5.55.37-11.11.82-16.65,1.26-15.48-4.09-29.29-10-43.14-3.31-7.72-5.42-16-7.87-24-.5-1.62-.07-3.52-.07-4.33,3,8.48,6.11,17.66,9.59,26.68,3.74,9.71,8.53,19.07,11.63,29C1045.49,662.74,1042.55,673.64,1037.94,684.23Z" transform="translate(-696.09 -204.91)"/><path class="cls-1" d="M969.62,427.53c-1.52,17.61-2.91,33.68-4.39,50.86-.91-4.46-2.33-8.05-2.23-11.59.33-11.35,1.08-22.7,2.06-34C965.2,431.19,967.58,429.8,969.62,427.53Z" transform="translate(-696.09 -204.91)"/><path class="cls-1" d="M894.13,599.79c.78.18,1.57.35,2.34.56s1.24.42,2.71.92c-3.34,8.57-6.67,17.09-10,25.62l-2-.62c.53-9.28,4.48-17.79,7.11-26.61Z" transform="translate(-696.09 -204.91)"/><path class="cls-1" d="M1025.74,437.58v36.85C1022.64,462.09,1021.08,449.76,1025.74,437.58Z" transform="translate(-696.09 -204.91)"/><path class="cls-1" d="M887.3,736.59c4.81-.22,6.06,2.43,6.14,6.44.21,10.06-.09,10.78-6.14,11.64Z" transform="translate(-696.09 -204.91)"/><path class="cls-1" d="M1069.6,810.46c-.74-1.93-2.1-3.85-2.12-5.8-.19-16.44-.23-32.89,0-49.33,0-1.82,1.82-3.62,2.79-5.43,1.2,1.75,3.43,3.48,3.45,5.25.25,16.27.2,32.56,0,48.83,0,2.11-1.3,4.2-2,6.3Z" transform="translate(-696.09 -204.91)"/><path d="M1004,739.59c0,7.65,0,14.9,0,22.15,0,2.21-.85,3.08-3.06,3.09q-38.69.17-77.37.43H920a4.52,4.52,0,0,1-.34-1.12c.05-11.71.16-23.42.15-35.13,0-2.32,1.38-2.08,2.86-2.06q34.2.27,68.39.56c4,0,8,.12,11.91.5a15.32,15.32,0,0,1,5.09,1.78q33.57,16.61,67.1,33.3c.71.35,1.46.6,3,1.24-1.12-5.14-2-9.65-3.11-14.07-.75-2.89-2-5.65-3-8.48-1.29-3.73-.42-6.07,3.14-7.87,5.51-2.78,11-5.52,16.63-8.14,4.45-2.1,6.66-1.5,9.65,2.31,5.08,6.48,7.56,14.23,10.43,21.75,2.51,6.6,4.57,13.39,6.65,20.15.56,1.84,1.37,2.38,3.24,2.32,11.89-.35,23.79-.59,35.69-.86l1.09,0c3.86,0,6.33,2,6.32,5.18s-2.37,5.16-6,5.25q-14.7.34-29.41.67c-2.34,0-4.67,0-7.43,0,.59,2.85,1.07,5.12,1.55,7.4,3.69,17.54,6.18,35.24,5.62,53.2a175.41,175.41,0,0,1-2.44,21.52c-1,6.49-5.3,11.06-10.44,14.72a66.22,66.22,0,0,1-34.89,12.26,44.36,44.36,0,0,1-12.83-1.47c-4.57-1.1-5.71-3.66-4.18-8.22,2-6.15,4.69-12.11,6.51-18.31,5-16.8,7.13-34.1,8-51.53.56-10.86.24-21.76.34-32.65a3.49,3.49,0,0,0-2.13-3.65q-35.79-17.67-71.5-35.47C1005.3,740.11,1004.88,740,1004,739.59Zm105.28,119.12a9.09,9.09,0,0,0-9.23-9.3,9.29,9.29,0,1,0,9.23,9.3Z" transform="translate(-696.09 -204.91)"/><path d="M809.16,806.2q0,27.91,0,55.83c0,1.63.15,3.27.14,4.9a10,10,0,0,1-7.38,10c-4.16,1.14-8-.9-10.84-4.86-6.44-8.9-13.12-17.61-19.78-26.35Q755.55,825,739.69,804.37a17.12,17.12,0,0,0-9.87-6.78,8.92,8.92,0,0,0-9.33,2.84c-4,4.28-5.13,9.5-5.17,15.07-.11,16.61-.12,33.23-.22,49.84a22,22,0,0,1-.55,5.12,9.28,9.28,0,0,1-17.9.14,16.35,16.35,0,0,1-.56-4.29q.2-57.46.46-114.94a49.84,49.84,0,0,1,.34-6,9.59,9.59,0,0,1,7-8.51c4.16-1.29,7.77,0,10.48,3.33,3.25,4,6.35,8.17,9.49,12.28q23.6,30.81,47.2,61.61a41,41,0,0,0,4.41,4.81,7.91,7.91,0,0,0,11.43-.31,12.46,12.46,0,0,0,3.44-8.91q.36-29.28.75-58.55c0-2.54,0-5.09.29-7.61a9.47,9.47,0,0,1,9.38-8.84c4.79,0,8.61,3.51,9.31,8.61a25.92,25.92,0,0,1,.17,3.53q0,29.68,0,59.37Z" transform="translate(-696.09 -204.91)"/><path d="M998.2,854.77c-1.69,2.05-3,3.86-4.55,5.52C971.05,885,931.72,877,920,845.17c-7.2-19.47-1.86-41.23,13.29-54.14,21.94-18.69,54.55-11.67,67.5,14.76,2.27,4.65,3.22,10,4.8,15a30,30,0,0,0,1.83,5.34c5.44,10,11,20,16.52,30,.35.63.69,1.28,1,1.94,2.48,5.6.59,11.62-4.51,14.33a10.73,10.73,0,0,1-14.45-4.06c-2.24-3.63-4.19-7.43-6.28-11.15C999.25,856.49,998.82,855.8,998.2,854.77Zm-14.29-27.58c-.53-8-2.29-12.61-6.51-17.41-6.51-7.4-18.1-10-27.38-4-8.8,5.7-13.35,17.49-10.53,28.46,2.34,9.09,7.66,15.72,17,18.06C971.09,856,985,843.1,983.91,827.19Z" transform="translate(-696.09 -204.91)"/><path d="M850.13,817.4c8.61,0,17.23,0,25.84,0,2.91,0,5.83.05,8.71.35,6.12.65,10.16,4.76,10.19,10.1s-4.17,9.95-10.38,10.18c-10.07.36-20.16.2-30.24.26H849.5a27.25,27.25,0,0,0,11.29,13.53A26.44,26.44,0,0,0,878,855.7a31,31,0,0,1,4.07-.28,10.44,10.44,0,0,1,10.39,9,9.61,9.61,0,0,1-7.92,10.77,58.55,58.55,0,0,1-15.68.71A48.43,48.43,0,0,1,826.22,835c-5.16-34.37,24.61-59.42,55.47-54.32a16.18,16.18,0,0,1,5.1,1.76,9.61,9.61,0,0,1,4.74,10.91,10,10,0,0,1-9.32,7.46c-2.08.07-4.17-.12-6.25-.23q-16.51-.84-25,13.29a20.88,20.88,0,0,0-1.11,2.4Z" transform="translate(-696.09 -204.91)"/><path class="cls-1" d="M1109.25,858.71a9.34,9.34,0,0,1-9.34,9.27,9.29,9.29,0,1,1,.11-18.57A9.09,9.09,0,0,1,1109.25,858.71Z" transform="translate(-696.09 -204.91)"/><path class="cls-1" d="M983.91,827.19C985,843.1,971.09,856,956.46,852.28c-9.31-2.34-14.63-9-17-18.06-2.82-11,1.73-22.76,10.53-28.46,9.28-6,20.87-3.38,27.38,4C981.62,814.58,983.38,819.19,983.91,827.19Z" transform="translate(-696.09 -204.91)"/></svg>