<?xml version="1.0" encoding="UTF-8"?>
<!DOCTYPE svg PUBLIC "-//W3C//DTD SVG 1.1//EN" "http://www.w3.org/Graphics/SVG/1.1/DTD/svg11.dtd">
<!-- Creator: CorelDRAW -->
<svg xmlns="http://www.w3.org/2000/svg" xml:space="preserve" width="6.82666in" height="6.82666in" style="shape-rendering:geometricPrecision; text-rendering:geometricPrecision; image-rendering:optimizeQuality; fill-rule:evenodd; clip-rule:evenodd"
viewBox="0 0 6.82666 6.82666"
 xmlns:xlink="http://www.w3.org/1999/xlink">
 <defs>
  <style type="text/css">
   <![CDATA[
    .fil0 {fill:none}
    .fil2 {fill:none;fill-rule:nonzero}
    .fil5 {fill:#2F2F2F}
    .fil1 {fill:#555555;fill-rule:nonzero}
    .fil4 {fill:#7A7A7A;fill-rule:nonzero}
    .fil3 {fill:#888888;fill-rule:nonzero}
   ]]>
  </style>
 </defs>
 <g id="Layer_x0020_1">
  <metadata id="CorelCorpID_0Corel-Layer"/>
  <rect class="fil0" width="6.82666" height="6.82666"/>
  <g id="_536458688">
   <path id="_536431880" class="fil1" d="M3.64538 4.10195l-2.40574 -2.40576c-0.0894213,-0.0894213 -0.0894449,-0.236083 -3.93701e-006,-0.325524l0.165965 -0.165965c0.070126,-0.070126 0.185524,-0.070126 0.25565,0l2.44009 2.44009c0.110555,0.107685 -0.317921,0.595193 -0.455961,0.457154z"/>
   <line id="_536431352" class="fil2" x1="5.66698" y1="5.6676" x2="5.66729" y2= "5.66729" />
   <path id="_536431688" class="fil3" d="M3.49837 4.09813l0.593768 -0.593772c0.0607402,-0.0607047 0.107976,-0.0792362 0.166933,0.00713386 0.373039,0.546705 0.8975,1.06776 1.55906,1.55486 0.492496,0.492496 -0.259248,1.2443 -0.75178,0.751787 -0.577689,-0.577689 -0.86378,-1.02845 -1.56681,-1.56723 -0.00015748,-0.000122047 -0.00175197,-0.00135433 -0.00176772,-0.00133858 -0.0416732,-0.0416732 -0.0417559,-0.110181 0.000606299,-0.151441z"/>
   <g>
    <path id="_536431760" class="fil4" d="M4.94057 4.36346c0.0436024,0.0429685 0.0882795,0.0857126 0.133996,0.128232 -0.240063,0.178374 -0.445913,0.386398 -0.614484,0.626732 -0.044815,-0.0498504 -0.0896969,-0.0993228 -0.135366,-0.148642 0.217748,-0.177169 0.425469,-0.374406 0.615854,-0.606323z"/>
    <path id="_536431616" class="fil4" d="M5.20075 4.60615c0.0480118,0.0424724 0.0970984,0.0847126 0.14722,0.126713 -0.254496,0.184346 -0.471559,0.401138 -0.647673,0.653425 -0.046122,-0.0509331 -0.0909921,-0.101098 -0.13535,-0.150732 0.225315,-0.183035 0.439949,-0.387445 0.635803,-0.629406z"/>
    <path id="_536431640" class="fil4" d="M4.69335 4.10484c0.0402717,0.0448386 0.0816732,0.0894528 0.124189,0.133846 -0.234256,0.176075 -0.435524,0.38074 -0.600909,0.616504 -0.0458228,-0.0476063 -0.0929606,-0.0952441 -0.142083,-0.143114 0.21876,-0.177421 0.427492,-0.374909 0.618803,-0.607236z"/>
   </g>
   <g>
    <g>
     <path id="_536430536" class="fil5" d="M1.62734 1.30172c-0.0222795,0.0219921 -0.0225079,0.0578504 -0.000511811,0.080126 0.0219921,0.0222795 0.0578465,0.0225079 0.080122,0.000511811l0.356634 -0.352087c0.0222756,-0.0219921 0.0225079,-0.0578504 0.000511811,-0.080126 -0.0219921,-0.0222795 -0.0578504,-0.0225079 -0.080126,-0.000511811l-0.35663 0.352087z"/>
     <path id="_536430704" class="fil5" d="M1.95803 1.63241c-0.0222795,0.0219921 -0.0225079,0.0578465 -0.000511811,0.080122 0.0219921,0.0222795 0.0578465,0.0225118 0.080122,0.000515748l0.35663 -0.352087c0.0222795,-0.0219921 0.0225118,-0.0578504 0.000515748,-0.080126 -0.0219921,-0.0222795 -0.0578504,-0.0225079 -0.080126,-0.000511811l-0.35663 0.352087z"/>
     <path id="_536430512" class="fil5" d="M2.28872 1.9631c-0.0222795,0.0219882 -0.0225079,0.0578465 -0.000515748,0.080122 0.0219921,0.0222795 0.0578504,0.0225118 0.080126,0.000515748l0.35663 -0.352087c0.0222795,-0.0219921 0.0225079,-0.0578504 0.000515748,-0.080126 -0.0219921,-0.0222795 -0.0578504,-0.0225079 -0.080126,-0.000515748l-0.35663 0.352091z"/>
     <path id="_536430800" class="fil5" d="M2.64456 2.31894c-0.0222795,0.0219921 -0.0225079,0.0578504 -0.000511811,0.080126 0.0219882,0.0222795 0.0578465,0.0225079 0.080122,0.000511811l0.35663 -0.352087c0.0222795,-0.0219921 0.0225118,-0.0578504 0.000515748,-0.080126 -0.0219921,-0.0222795 -0.0578504,-0.0225079 -0.080126,-0.000511811l-0.35663 0.352087z"/>
     <path id="_536430680" class="fil5" d="M2.9501 2.62448c-0.0222795,0.0219921 -0.0225079,0.0578504 -0.000511811,0.080126 0.0219921,0.0222795 0.0578504,0.0225079 0.080126,0.000511811l0.35663 -0.352087c0.0222795,-0.0219921 0.0225079,-0.0578504 0.000511811,-0.080126 -0.0219921,-0.0222756 -0.0578504,-0.0225079 -0.080122,-0.000511811l-0.356634 0.352087z"/>
     <path id="_536430872" class="fil5" d="M3.28079 2.95517c-0.0222795,0.0219921 -0.0225079,0.0578504 -0.000511811,0.080126 0.0219882,0.0222795 0.0578465,0.0225079 0.080122,0.000511811l0.35663 -0.352087c0.0222795,-0.0219921 0.0225118,-0.0578504 0.000515748,-0.080126 -0.0219921,-0.0222795 -0.0578504,-0.0225079 -0.080126,-0.000511811l-0.35663 0.352087z"/>
     <path id="_536430056" class="fil5" d="M3.61148 3.28586c-0.0222795,0.0219921 -0.0225079,0.0578465 -0.000515748,0.080122 0.0219921,0.0222795 0.0578504,0.0225118 0.080126,0.000515748l0.35663 -0.352087c0.0222795,-0.0219921 0.0225118,-0.0578504 0.000515748,-0.080126 -0.0219921,-0.0222795 -0.0578504,-0.0225079 -0.080126,-0.000511811l-0.35663 0.352087z"/>
     <path id="_536429744" class="fil5" d="M1.79233 1.46671c-0.0222795,0.0219921 -0.0225079,0.0578504 -0.000511811,0.080126 0.0219921,0.0222795 0.0578504,0.0225079 0.080122,0.000511811l0.356634 -0.352087c0.0222795,-0.0219921 0.0225079,-0.0578504 0.000511811,-0.080122 -0.0219921,-0.0222795 -0.0578504,-0.0225118 -0.080122,-0.000515748l-0.356634 0.352087z"/>
     <path id="_536429528" class="fil5" d="M2.12302 1.79741c-0.0222795,0.0219921 -0.0225079,0.0578465 -0.000511811,0.080122 0.0219921,0.0222795 0.0578465,0.0225118 0.080122,0.000515748l0.356634 -0.352087c0.0222756,-0.0219921 0.0225079,-0.0578504 0.000511811,-0.080126 -0.0219921,-0.0222795 -0.0578504,-0.0225079 -0.080126,-0.000511811l-0.35663 0.352087z"/>
     <path id="_536429576" class="fil5" d="M2.45371 2.12809c-0.0222795,0.0219921 -0.0225079,0.0578465 -0.000515748,0.080122 0.0219921,0.0222795 0.0578504,0.0225118 0.080126,0.000515748l0.35663 -0.352087c0.0222795,-0.0219921 0.0225118,-0.0578504 0.000515748,-0.080126 -0.0219921,-0.0222795 -0.0578504,-0.0225079 -0.080126,-0.000511811l-0.35663 0.352087z"/>
     <path id="_536429624" class="fil5" d="M2.80956 2.48394c-0.0222795,0.0219921 -0.0225079,0.0578504 -0.000511811,0.080126 0.0219921,0.0222795 0.0578465,0.0225079 0.080122,0.000511811l0.35663 -0.352087c0.0222795,-0.0219921 0.0225118,-0.0578504 0.000515748,-0.080126 -0.0219921,-0.0222756 -0.0578504,-0.0225079 -0.080126,-0.000511811l-0.35663 0.352087z"/>
     <path id="_536429408" class="fil5" d="M3.11509 2.78947c-0.0222756,0.0219921 -0.0225079,0.0578504 -0.000511811,0.080126 0.0219921,0.0222795 0.0578504,0.0225079 0.080126,0.000511811l0.35663 -0.352087c0.0222795,-0.0219921 0.0225079,-0.0578465 0.000511811,-0.080122 -0.0219921,-0.0222795 -0.0578465,-0.0225118 -0.080122,-0.000515748l-0.356634 0.352087z"/>
     <path id="_536429024" class="fil5" d="M3.44578 3.12016c-0.0222795,0.0219921 -0.0225079,0.0578504 -0.000511811,0.080126 0.0219882,0.0222795 0.0578465,0.0225079 0.080122,0.000511811l0.35663 -0.352087c0.0222795,-0.0219921 0.0225118,-0.0578504 0.000515748,-0.080122 -0.0219921,-0.0222795 -0.0578504,-0.0225118 -0.080126,-0.000515748l-0.35663 0.352087z"/>
     <path id="_536429192" class="fil5" d="M3.77647 3.45085c-0.0222795,0.0219921 -0.0225079,0.0578465 -0.000511811,0.080122 0.0219882,0.0222795 0.0578465,0.0225118 0.080122,0.000515748l0.35663 -0.352087c0.0222795,-0.0219921 0.0225118,-0.0578504 0.000515748,-0.080126 -0.0219921,-0.0222795 -0.0578504,-0.0225079 -0.080126,-0.000511811l-0.35663 0.352087z"/>
    </g>
    <g>
     <path id="_536429168" class="fil5" d="M0.954602 1.97446c-0.0222795,0.0219921 -0.0225079,0.0578504 -0.000511811,0.080126 0.0219882,0.0222795 0.0578465,0.0225079 0.080122,0.000511811l0.35663 -0.352087c0.0222795,-0.0219921 0.0225118,-0.0578465 0.000515748,-0.080122 -0.0219921,-0.0222795 -0.0578504,-0.0225118 -0.080126,-0.000515748l-0.35663 0.352087z"/>
     <path id="_536428832" class="fil5" d="M1.28529 2.30515c-0.0222795,0.0219921 -0.0225079,0.0578504 -0.000511811,0.080122 0.0219882,0.0222795 0.0578465,0.0225118 0.080122,0.000515748l0.35663 -0.352087c0.0222795,-0.0219921 0.0225118,-0.0578504 0.000515748,-0.080126 -0.0219921,-0.0222795 -0.0578504,-0.0225079 -0.080126,-0.000511811l-0.35663 0.352087z"/>
     <path id="_536461184" class="fil5" d="M1.61598 2.63584c-0.0222795,0.0219921 -0.0225118,0.0578465 -0.000515748,0.080122 0.0219921,0.0222795 0.0578504,0.0225118 0.080126,0.000515748l0.35663 -0.352087c0.0222795,-0.0219921 0.0225079,-0.0578504 0.000511811,-0.080126 -0.0219882,-0.0222795 -0.0578465,-0.0225079 -0.080122,-0.000511811l-0.35663 0.352087z"/>
     <path id="_536461208" class="fil5" d="M1.97183 2.99168c-0.0222795,0.0219921 -0.0225079,0.0578504 -0.000515748,0.080126 0.0219921,0.0222795 0.0578504,0.0225079 0.080126,0.000511811l0.35663 -0.352087c0.0222795,-0.0219921 0.0225118,-0.0578504 0.000515748,-0.080122 -0.0219921,-0.0222795 -0.0578504,-0.0225118 -0.080126,-0.000515748l-0.35663 0.352087z"/>
     <path id="_536460728" class="fil5" d="M2.27736 3.29722c-0.0222795,0.0219921 -0.0225079,0.0578504 -0.000511811,0.080126 0.0219921,0.0222795 0.0578465,0.0225079 0.080122,0.000511811l0.35663 -0.352087c0.0222795,-0.0219921 0.0225118,-0.0578465 0.000515748,-0.080122 -0.0219921,-0.0222795 -0.0578504,-0.0225118 -0.080126,-0.000515748l-0.35663 0.352087z"/>
     <path id="_536460392" class="fil5" d="M2.60805 3.62791c-0.0222795,0.0219921 -0.0225079,0.0578504 -0.000515748,0.080126 0.0219921,0.0222795 0.0578504,0.0225079 0.080126,0.000511811l0.35663 -0.352087c0.0222795,-0.0219921 0.0225079,-0.0578465 0.000515748,-0.080122 -0.0219921,-0.0222795 -0.0578504,-0.0225118 -0.080126,-0.000515748l-0.35663 0.352087z"/>
     <path id="_536460776" class="fil5" d="M2.93874 3.9586c-0.0222795,0.0219921 -0.0225118,0.0578504 -0.000515748,0.080122 0.0219921,0.0222795 0.0578504,0.0225118 0.080126,0.000515748l0.35663 -0.352087c0.0222795,-0.0219921 0.0225079,-0.0578504 0.000511811,-0.080126 -0.0219882,-0.0222795 -0.0578465,-0.0225079 -0.080122,-0.000511811l-0.35663 0.352087z"/>
     <path id="_536460608" class="fil5" d="M1.11959 2.13945c-0.0222795,0.0219921 -0.0225079,0.0578504 -0.000511811,0.080126 0.0219921,0.0222795 0.0578465,0.0225079 0.080122,0.000511811l0.35663 -0.352087c0.0222795,-0.0219921 0.0225118,-0.0578465 0.000515748,-0.080122 -0.0219921,-0.0222795 -0.0578504,-0.0225118 -0.080126,-0.000515748l-0.35663 0.352087z"/>
     <path id="_536460920" class="fil5" d="M1.45028 2.47014c-0.0222795,0.0219921 -0.0225079,0.0578504 -0.000511811,0.080126 0.0219882,0.0222795 0.0578465,0.0225079 0.080122,0.000511811l0.35663 -0.352087c0.0222795,-0.0219921 0.0225118,-0.0578504 0.000515748,-0.080126 -0.0219921,-0.0222795 -0.0578504,-0.0225079 -0.080126,-0.000511811l-0.35663 0.352087z"/>
     <path id="_536459816" class="fil5" d="M1.78098 2.80083c-0.0222795,0.0219921 -0.0225118,0.0578504 -0.000515748,0.080122 0.0219921,0.0222795 0.0578504,0.0225118 0.080126,0.000515748l0.35663 -0.352087c0.0222795,-0.0219921 0.0225079,-0.0578504 0.000511811,-0.080126 -0.0219882,-0.0222795 -0.0578465,-0.0225079 -0.080122,-0.000511811l-0.35663 0.352087z"/>
     <path id="_536460032" class="fil5" d="M2.13682 3.15667c-0.0222795,0.0219921 -0.0225079,0.0578504 -0.000511811,0.080126 0.0219882,0.0222795 0.0578465,0.0225079 0.080122,0.000511811l0.35663 -0.352087c0.0222795,-0.0219921 0.0225118,-0.0578465 0.000515748,-0.080122 -0.0219921,-0.0222795 -0.0578504,-0.0225118 -0.080126,-0.000515748l-0.35663 0.352087z"/>
     <path id="_536459696" class="fil5" d="M2.44235 3.46221c-0.0222795,0.0219921 -0.0225079,0.0578504 -0.000511811,0.080126 0.0219921,0.0222795 0.0578465,0.0225079 0.080122,0.000515748l0.356634 -0.352091c0.0222756,-0.0219882 0.0225079,-0.0578465 0.000511811,-0.080122 -0.0219921,-0.0222795 -0.0578504,-0.0225118 -0.080126,-0.000515748l-0.35663 0.352087z"/>
     <path id="_536459744" class="fil5" d="M2.77304 3.7929c-0.0222795,0.0219921 -0.0225079,0.0578504 -0.000515748,0.080126 0.0219921,0.0222795 0.0578504,0.0225079 0.080126,0.000511811l0.35663 -0.352087c0.0222795,-0.0219921 0.0225118,-0.0578465 0.000515748,-0.080122 -0.0219921,-0.0222795 -0.0578504,-0.0225118 -0.080126,-0.000515748l-0.35663 0.352087z"/>
     <path id="_536459528" class="fil5" d="M3.10374 4.12359c-0.0222795,0.0219921 -0.0225079,0.0578504 -0.000515748,0.080126 0.0219921,0.0222795 0.0578504,0.0225079 0.080126,0.000511811l0.35663 -0.352087c0.0222795,-0.0219921 0.0225079,-0.0578504 0.000515748,-0.080126 -0.0219921,-0.0222795 -0.0578504,-0.0225079 -0.080126,-0.000511811l-0.35663 0.352087z"/>
    </g>
   </g>
   <g>
    <circle id="_536460056" class="fil5" transform="matrix(-1.25375 1.25375 1.25375 1.25375 1.59671 1.58998)" r="0.0302087"/>
    <circle id="_536459096" class="fil5" transform="matrix(-1.25375 1.25375 1.25375 1.25375 1.75836 1.75163)" r="0.0302087"/>
    <circle id="_536459024" class="fil5" transform="matrix(-1.25375 1.25375 1.25375 1.25375 1.92001 1.91328)" r="0.0302087"/>
    <circle id="_536459432" class="fil5" transform="matrix(-1.25375 1.25375 1.25375 1.25375 2.08166 2.07494)" r="0.0302087"/>
    <circle id="_536458808" class="fil5" transform="matrix(-1.25375 1.25375 1.25375 1.25375 2.24332 2.23659)" r="0.0302087"/>
    <circle id="_536459192" class="fil5" transform="matrix(-1.25375 1.25375 1.25375 1.25375 2.40497 2.39824)" r="0.0302087"/>
    <circle id="_536459120" class="fil5" transform="matrix(-1.25375 1.25375 1.25375 1.25375 2.56662 2.55989)" r="0.0302087"/>
    <circle id="_536459456" class="fil5" transform="matrix(-1.25375 1.25375 1.25375 1.25375 2.72827 2.72155)" r="0.0302087"/>
    <circle id="_536459144" class="fil5" transform="matrix(-1.25375 1.25375 1.25375 1.25375 2.88992 2.8832)" r="0.0302087"/>
    <circle id="_536458136" class="fil5" transform="matrix(-1.25375 1.25375 1.25375 1.25375 3.05157 3.04485)" r="0.0302087"/>
    <circle id="_536458592" class="fil5" transform="matrix(-1.25375 1.25375 1.25375 1.25375 3.24124 3.25502)" r="0.0302087"/>
    <circle id="_536458352" class="fil5" transform="matrix(-1.25375 1.25375 1.25375 1.25375 3.40528 3.42418)" r="0.0302087"/>
    <circle id="_536458160" class="fil5" transform="matrix(-1.25375 1.25375 1.25375 1.25375 3.57957 3.59335)" r="0.0302087"/>
   </g>
  </g>
 </g>
</svg>
