<?xml version="1.0" encoding="UTF-8"?>
<!DOCTYPE svg PUBLIC "-//W3C//DTD SVG 1.1//EN" "http://www.w3.org/Graphics/SVG/1.1/DTD/svg11.dtd">
<!-- Creator: CorelDRAW -->
<svg xmlns="http://www.w3.org/2000/svg" xml:space="preserve" width="6.82666in" height="6.82666in" style="shape-rendering:geometricPrecision; text-rendering:geometricPrecision; image-rendering:optimizeQuality; fill-rule:evenodd; clip-rule:evenodd"
viewBox="0 0 6.82666 6.82666"
 xmlns:xlink="http://www.w3.org/1999/xlink">
 <defs>
  <style type="text/css">
   <![CDATA[
    .fil3 {fill:none}
    .fil1 {fill:#858585}
    .fil0 {fill:#333333;fill-rule:nonzero}
    .fil2 {fill:#909090;fill-rule:nonzero}
   ]]>
  </style>
 </defs>
 <g id="Layer_x0020_1">
  <metadata id="CorelCorpID_0Corel-Layer"/>
  <g id="_536432408">
   <path id="_536433320" class="fil0" d="M2.64888 2.64983c0.0217047,-0.0218543 0.0215866,-0.0571693 -0.00026378,-0.078874 -0.0218543,-0.0217047 -0.0571732,-0.0215866 -0.078878,0.00026378l-0.623815 0.606413c-0.0217047,0.0218504 -0.0215866,0.0571693 0.000267717,0.078874 0.0218504,0.0217047 0.0571693,0.0215866 0.078874,-0.000267717l0.623815 -0.606409zm-0.89176 -1.03867c0.0217047,-0.0218504 0.0215866,-0.0571654 -0.000267717,-0.078874 -0.0218504,-0.0217047 -0.0571732,-0.0215866 -0.078878,0.000267717l-0.623811 0.606409c-0.0217047,0.0218543 -0.0215866,0.0571732 0.000267717,0.078878 0.0218504,0.0217047 0.0571654,0.0215827 0.0788701,-0.000267717l0.623819 -0.606413zm0.271717 0.271724c0.0217047,-0.0218465 0.0215866,-0.0571693 -0.00026378,-0.078874 -0.0218543,-0.0217047 -0.0571693,-0.0215866 -0.078874,0.000267717l-0.623815 0.606413c-0.0217047,0.0218504 -0.0215866,0.0571693 0.00026378,0.078874 0.0218543,0.0217047 0.0571732,0.0215866 0.078878,-0.000267717l0.623811 -0.606413zm0.271724 0.271728c0.0217047,-0.0218543 0.0215827,-0.0571732 -0.000271654,-0.078874 -0.0218465,-0.0217047 -0.0571693,-0.0215866 -0.078874,0.00026378l-0.623811 0.606409c-0.0217047,0.0218543 -0.0215866,0.0571693 0.000267717,0.078874 0.0218504,0.0217047 0.0571654,0.0215866 0.078874,-0.00026378l0.623815 -0.606409zm0.0792283 0.226122c0.0217047,-0.0218504 0.0215827,-0.0571693 -0.000267717,-0.078878 -0.0218504,-0.0217047 -0.0571732,-0.0215827 -0.078878,0.000267717l-0.623811 0.606413c-0.0217047,0.0218543 -0.0215866,0.0571693 0.00026378,0.078874 0.0218543,0.0217047 0.0571693,0.0215866 0.078874,-0.00026378l0.623819 -0.606413zm-0.269098 -0.269094c0.0217047,-0.0218543 0.0215866,-0.0571693 -0.00026378,-0.078874 -0.0218543,-0.0217047 -0.0571693,-0.0215866 -0.078874,0.00026378l-0.623815 0.606417c-0.0217087,0.0218465 -0.0215866,0.0571693 0.000267717,0.078874 0.0218465,0.0217047 0.0571693,0.0215866 0.078874,-0.000267717l0.623811 -0.606413zm-0.269091 -0.269094c0.0217047,-0.0218504 0.0215866,-0.0571654 -0.000267717,-0.0788701 -0.0218504,-0.0217087 -0.0571693,-0.0215906 -0.078874,0.00026378l-0.623815 0.606409c-0.0217047,0.0218543 -0.0215866,0.0571732 0.000267717,0.078878 0.0218504,0.0217047 0.0571693,0.0215827 0.078878,-0.000267717l0.623811 -0.606413zm-0.26911 -0.28726c0.0217047,-0.0218504 0.0215866,-0.0571732 -0.000267717,-0.078878 -0.0218504,-0.0217047 -0.0571732,-0.0215827 -0.078878,0.000271654l-0.623811 0.606409c-0.0217047,0.0218543 -0.0215866,0.0571693 0.000267717,0.078874 0.0218504,0.0217047 0.0571693,0.0215866 0.078874,-0.00026378l0.623815 -0.606413zm0.999787 0.871047c0.0217047,-0.0218504 0.0215866,-0.0571693 -0.00026378,-0.078874 -0.0218543,-0.0217047 -0.0571732,-0.0215866 -0.078878,0.000267717l-0.623811 0.606409c-0.0217047,0.0218543 -0.0215866,0.0571732 0.00026378,0.078878 0.0218543,0.0217047 0.0571732,0.0215827 0.078874,-0.00026378l0.623815 -0.606417zm0.27172 0.271728c0.0217047,-0.0218543 0.0215866,-0.0571732 -0.000267717,-0.078878 -0.0218504,-0.0217047 -0.0571693,-0.0215827 -0.078874,0.00026378l-0.623815 0.606417c-0.0217047,0.0218504 -0.0215827,0.0571693 0.000271654,0.078874 0.0218465,0.0217047 0.0571693,0.0215866 0.078874,-0.000267717l0.623811 -0.606409zm0.27172 0.271724c0.0217047,-0.0218543 0.0215866,-0.0571693 -0.00026378,-0.078874 -0.0218543,-0.0217047 -0.0571732,-0.0215906 -0.078878,0.00026378l-0.623811 0.606409c-0.0217047,0.0218543 -0.0215866,0.0571732 0.00026378,0.078878 0.0218543,0.0217047 0.0571693,0.0215827 0.078874,-0.000267717l0.623815 -0.606409zm0.27172 0.27172c0.0217047,-0.0218504 0.0215866,-0.0571693 -0.000267717,-0.078874 -0.0218504,-0.0217047 -0.0571693,-0.0215866 -0.078874,0.000267717l-0.623815 0.606413c-0.0217047,0.0218465 -0.0215866,0.0571693 0.000267717,0.078874 0.0218504,0.0217047 0.0571732,0.0215866 0.078878,-0.000267717l0.623811 -0.606413zm0.27172 0.271728c0.0217047,-0.0218543 0.0215827,-0.0571732 -0.000267717,-0.078878 -0.0218504,-0.0217047 -0.0571693,-0.0215827 -0.078874,0.000267717l-0.623811 0.606413c-0.0217047,0.0218504 -0.0215866,0.0571654 0.00026378,0.0788701 0.0218543,0.0217087 0.0571693,0.0215906 0.078874,-0.00026378l0.623815 -0.606409zm0.0660945 0.212972c0.0217047,-0.0218543 0.0215866,-0.0571693 -0.000267717,-0.078874 -0.0218504,-0.0217047 -0.0571654,-0.0215866 -0.078874,0.00026378l-0.623815 0.606413c-0.0217047,0.0218504 -0.0215866,0.0571732 0.000267717,0.078878 0.0218504,0.0217047 0.0571732,0.0215827 0.078878,-0.000271654l0.623811 -0.606409zm-0.269091 -0.269098c0.0217087,-0.0218504 0.0215827,-0.0571732 -0.00026378,-0.078878 -0.0218504,-0.0217047 -0.0571732,-0.0215827 -0.078878,0.000271654l-0.623811 0.606409c-0.0217047,0.0218543 -0.0215866,0.0571693 0.00026378,0.078874 0.0218543,0.0217047 0.0571693,0.0215866 0.078874,-0.00026378l0.623815 -0.606413zm-0.269094 -0.269094c0.0217047,-0.0218504 0.0215827,-0.0571693 -0.000271654,-0.078874 -0.0218504,-0.0217047 -0.0571654,-0.0215866 -0.0788701,0.00026378l-0.623819 0.606417c-0.0217008,0.0218504 -0.0215827,0.0571693 0.000271654,0.078874 0.0218504,0.0217047 0.0571693,0.0215866 0.078874,-0.000267717l0.623815 -0.606413zm-0.269098 -0.269091c0.0217087,-0.0218504 0.0215906,-0.0571654 -0.00026378,-0.0788701 -0.0218543,-0.0217087 -0.0571693,-0.0215906 -0.078874,0.00026378l-0.623815 0.606409c-0.0217047,0.0218543 -0.0215827,0.0571732 0.00026378,0.078878 0.0218543,0.0217047 0.0571732,0.0215827 0.078878,-0.000267717l0.623811 -0.606413z"/>
   <path id="_536432696" class="fil1" d="M1.72803 1.17256l3.00685 3.08559c-0.428449,-0.978102 -0.63076,-1.84959 -1.24342,-2.35059 -0.466303,-0.381327 -1.07907,-0.644677 -1.76343,-0.735z"/>
   <path id="_536433032" class="fil2" d="M1.83066 1.17832c0.375256,0.292091 0.872476,0.750886 1.3327,1.21116 0.489571,0.489626 0.940811,0.984437 1.16257,1.28574l0.00219685 0.00275197 0.000102362 -7.48031e-005 0.00143307 0.00200394c0.157803,0.197709 0.33987,0.394047 0.540602,0.59189 0.192465,0.189701 0.40148,0.380429 0.622421,0.574862 0.0487441,-0.00788189 0.0973228,-0.0086063 0.147689,0.00188976 0.0724094,0.0150945 0.142213,0.0519606 0.212063,0.121811 0.0764724,0.0764764 0.120902,0.195189 0.120902,0.314012l-0.000448819 0c-3.93701e-006,0.110331 -0.0370197,0.223264 -0.120457,0.306701l-1.1811e-005 7.87402e-006c-0.0857047,0.0857047 -0.198035,0.128563 -0.310346,0.128563 -0.112307,0 -0.224634,-0.0428543 -0.310343,-0.128563l-7.87402e-006 -7.87402e-006c-0.0562717,-0.0562717 -0.0941063,-0.124335 -0.113453,-0.196531 -0.0139213,-0.0519252 -0.018122,-0.105937 -0.012622,-0.15915l-3.66244 -3.66244 -7.87402e-006 1.1811e-005c-0.00306299,-0.00306693 -0.00591339,-0.00627165 -0.00855512,-0.00957874 -0.0772244,-0.0885315 -0.102661,-0.173134 -0.093874,-0.245756 0.00628346,-0.0518819 0.0292244,-0.0958661 0.0638425,-0.130732 0.0307795,-0.0310118 0.0701181,-0.0535394 0.113909,-0.0665945 0.0888661,-0.0264843 0.20261,-0.0145551 0.297055,0.0468307l-0.0620118 0.0954685 0.0622402 -0.0957598c0.00534646,0.00347244 0.0102953,0.00732677 0.0148543,0.0114843z"/>
  </g>
  <rect class="fil3" width="6.82666" height="6.82666"/>
 </g>
</svg>
