<?xml version="1.0" encoding="UTF-8"?>
<!DOCTYPE svg PUBLIC "-//W3C//DTD SVG 1.1//EN" "http://www.w3.org/Graphics/SVG/1.1/DTD/svg11.dtd">
<!-- Creator: CorelDRAW -->
<svg xmlns="http://www.w3.org/2000/svg" xml:space="preserve" width="6.82666in" height="6.82666in" style="shape-rendering:geometricPrecision; text-rendering:geometricPrecision; image-rendering:optimizeQuality; fill-rule:evenodd; clip-rule:evenodd"
viewBox="0 0 6.82666 6.82666"
 xmlns:xlink="http://www.w3.org/1999/xlink">
 <defs>
  <style type="text/css">
   <![CDATA[
    .fil2 {fill:none}
    .fil0 {fill:#131313;fill-rule:nonzero}
    .fil1 {fill:#1A191A;fill-rule:nonzero}
   ]]>
  </style>
 </defs>
 <g id="Layer_x0020_1">
  <metadata id="CorelCorpID_0Corel-Layer"/>
  <g id="_536440832">
   <path id="_536441024" class="fil0" d="M5.03969 3.13468c0.274673,-0.00918898 0.550921,-0.0710236 0.833878,-0.163547 0.0345906,-0.0137362 0.075378,-0.00894882 0.106413,0.0160748 0.0458583,0.0369764 0.053063,0.104134 0.0160866,0.149992l-0.000216535 -0.000173228c-0.301087,0.373394 -0.647835,0.580736 -1.0241,0.683567 -0.370929,0.101374 -0.766441,0.099622 -1.1733,0.0555157 -0.122965,-0.0133346 -0.235697,-0.0656457 -0.316602,-0.146555 -0.079563,-0.0795551 -0.128823,-0.185673 -0.128823,-0.309291l0 -3.93701e-006c0,-0.0795866 0.0140394,-0.149043 0.0390118,-0.209181 0.0440669,-0.106142 0.12065,-0.179543 0.213933,-0.226299 0.0874606,-0.0438307 0.187949,-0.0629449 0.287713,-0.0629449 0.110173,0 0.222098,0.0232244 0.315272,0.0619094 0.282012,0.117083 0.556831,0.160094 0.830736,0.150937z"/>
   <path id="_536440880" class="fil0" d="M1.8797 3.13468c-0.274673,-0.00918898 -0.550921,-0.0710236 -0.833878,-0.163547 -0.0345906,-0.0137362 -0.075378,-0.00894882 -0.106413,0.0160748 -0.0458583,0.0369764 -0.053063,0.104134 -0.0160866,0.149992l0.000216535 -0.000173228c0.301087,0.373394 0.647835,0.580736 1.0241,0.683567 0.370929,0.101374 0.766441,0.099622 1.1733,0.0555157 0.122965,-0.0133346 0.235697,-0.0656457 0.316602,-0.146555 0.079563,-0.0795551 0.128823,-0.185673 0.128823,-0.309291l0 -3.93701e-006c0,-0.0795866 -0.0140394,-0.149043 -0.0390118,-0.209181 -0.0440669,-0.106142 -0.12065,-0.179543 -0.213933,-0.226299 -0.0874606,-0.0438307 -0.187949,-0.0629449 -0.287713,-0.0629449 -0.110173,0 -0.222098,0.0232244 -0.315272,0.0619094 -0.282012,0.117083 -0.556831,0.160094 -0.830736,0.150937z"/>
  </g>
  <g id="_536440736">
   <path id="_536440304" class="fil1" d="M5.03969 3.0554c0.274673,-0.00918898 0.550921,-0.0710236 0.833878,-0.163547 0.0345906,-0.0137362 0.075378,-0.00894882 0.106413,0.0160748 0.0458583,0.0369764 0.053063,0.104134 0.0160866,0.149992l-0.000216535 -0.000173228c-0.301087,0.373394 -0.647835,0.580736 -1.0241,0.683567 -0.370929,0.101374 -0.766441,0.099622 -1.1733,0.0555157 -0.122965,-0.0133346 -0.235697,-0.0656457 -0.316602,-0.146555 -0.079563,-0.0795551 -0.128823,-0.185673 -0.128823,-0.309291l0 -3.93701e-006c0,-0.0795866 0.0140394,-0.149043 0.0390118,-0.209181 0.0440669,-0.106142 0.12065,-0.179543 0.213933,-0.226299 0.0874606,-0.0438307 0.187949,-0.0629449 0.287713,-0.0629449 0.110173,0 0.222098,0.0232244 0.315272,0.0619094 0.282012,0.117083 0.556831,0.160094 0.830736,0.150937z"/>
   <path id="_536440784" class="fil1" d="M1.8797 3.0554c-0.274673,-0.00918898 -0.550921,-0.0710236 -0.833878,-0.163547 -0.0345906,-0.0137362 -0.075378,-0.00894882 -0.106413,0.0160748 -0.0458583,0.0369764 -0.053063,0.104134 -0.0160866,0.149992l0.000216535 -0.000173228c0.301087,0.373394 0.647835,0.580736 1.0241,0.683567 0.370929,0.101374 0.766441,0.099622 1.1733,0.0555157 0.122965,-0.0133346 0.235697,-0.0656457 0.316602,-0.146555 0.079563,-0.0795551 0.128823,-0.185673 0.128823,-0.309291l0 -3.93701e-006c0,-0.0795866 -0.0140394,-0.149043 -0.0390118,-0.209181 -0.0440669,-0.106142 -0.12065,-0.179543 -0.213933,-0.226299 -0.0874606,-0.0438307 -0.187949,-0.0629449 -0.287713,-0.0629449 -0.110173,0 -0.222098,0.0232244 -0.315272,0.0619094 -0.282012,0.117083 -0.556831,0.160094 -0.830736,0.150937z"/>
  </g>
  <rect class="fil2" width="6.82666" height="6.82666"/>
 </g>
</svg>
