<?xml version="1.0" encoding="UTF-8"?>
<!DOCTYPE svg PUBLIC "-//W3C//DTD SVG 1.1//EN" "http://www.w3.org/Graphics/SVG/1.1/DTD/svg11.dtd">
<!-- Creator: CorelDRAW -->
<svg xmlns="http://www.w3.org/2000/svg" xml:space="preserve" width="6.82666in" height="6.82666in" style="shape-rendering:geometricPrecision; text-rendering:geometricPrecision; image-rendering:optimizeQuality; fill-rule:evenodd; clip-rule:evenodd"
viewBox="0 0 6.82666 6.82666"
 xmlns:xlink="http://www.w3.org/1999/xlink">
 <defs>
  <style type="text/css">
   <![CDATA[
    .fil5 {fill:none}
    .fil4 {fill:#202020}
    .fil1 {fill:#3A3A3A}
    .fil3 {fill:#525252}
    .fil0 {fill:#ABABAB}
    .fil2 {fill:#BCBCBC}
   ]]>
  </style>
 </defs>
 <g id="Layer_x0020_1">
  <metadata id="CorelCorpID_0Corel-Layer"/>
  <g id="_536441552">
   <path id="_536442152" class="fil0" d="M3.71217 3.5727l0.212524 -0.277776 -0.0955 -0.207622c-0.255528,-0.692957 -0.495902,-1.53048 -0.731303,-2.23398l-0.00465354 0.0829567 0.462055 2.59283 0.156878 0.0435906zm0.356469 -0.0558858c0.116598,0.264339 0.136866,1.09528 0.503657,1.0968l0.00191339 0.00273622c0.293693,0.000586614 0.541248,0.263035 0.556,0.598807 0.0156181,0.34439 -0.21913,0.63552 -0.523047,0.648984 -0.396335,0.0183661 -0.566201,-0.250882 -0.578673,-0.600087 -0.00462992,-0.0868858 0.00824409,-0.169953 0.0330591,-0.246193 0.0315512,-0.156232 -0.177114,-1.20567 -0.279161,-1.28368l0.000653543 -0.00344094 0.0625315 -0.23687 0.223067 0.0229449zm0.312543 1.35438c-0.0104055,0.00931496 -0.0209567,0.0187205 -0.0318071,0.0274016 -0.0860512,0.083185 -0.139087,0.213283 -0.133394,0.35737 0.0111142,0.240425 0.182661,0.428654 0.382567,0.420024 0.200102,-0.00876378 0.354244,-0.211819 0.34348,-0.452264 -0.011122,-0.240429 -0.18198,-0.429142 -0.382079,-0.420378 -0.0664528,0.00238583 -0.126933,0.0287795 -0.178768,0.0678465z"/>
   <path id="_536442200" class="fil1" d="M4.01803 4.58672l0.302315 -0.167413c0.0600236,0.115713 0.13976,0.19385 0.251949,0.194315l0.00191339 0.00273622c0.293693,0.000586614 0.541248,0.263035 0.556,0.598807 0.0156181,0.34439 -0.21913,0.63552 -0.523047,0.648984 -0.396335,0.0183661 -0.566201,-0.250882 -0.578673,-0.600087 -0.00462992,-0.0868858 0.00824409,-0.169953 0.0330591,-0.246193 0.0113976,-0.0564409 -0.00856299,-0.229476 -0.0435157,-0.43115zm0.36315 0.284484c-0.0104055,0.00931496 -0.0209567,0.0187205 -0.0318071,0.0274016 -0.0860512,0.083185 -0.139087,0.213283 -0.133394,0.35737 0.0111142,0.240425 0.182661,0.428654 0.382567,0.420024 0.200102,-0.00876378 0.354244,-0.211819 0.34348,-0.452264 -0.011122,-0.240429 -0.18198,-0.429142 -0.382079,-0.420378 -0.0664528,0.00238583 -0.126933,0.0287795 -0.178768,0.0678465z"/>
   <path id="_536441288" class="fil2" d="M2.17882 5.54371c-0.0295315,-0.0905236 -0.0398031,-0.188413 -0.0254213,-0.286551 0.0414646,-0.264197 0.243602,-0.467465 0.491417,-0.506547 0.00173622,-0.00042126 0.00277953,-0.00194488 0.00394882,-0.00276378 0.348008,-0.0689961 0.772874,-1.17292 1.18824,-1.65534 -0.000452756,-0.000181102 0.835811,-2.00013 0.922717,-2.23824 0,0 0.00378346,0.0842244 -0.0012874,0.104717 -0.0596181,0.240677 -0.452299,1.71283 -0.62252,2.30737 -0.0737835,0.310921 -0.101882,0.378846 -0.381358,0.546398 -0.367878,0.220551 -0.619567,0.678862 -0.587618,1.03157 0.0137598,0.151902 0.141831,0.462079 0.122606,0.588067 -0.0494606,0.320134 -0.334728,0.555909 -0.659563,0.509303 -0.130142,-0.0201772 -0.243358,-0.0860276 -0.330075,-0.184492 -0.0557126,0.0149213 -0.131087,0.0445236 -0.182083,0.100154 -0.183827,0.216685 -0.373898,0.0734291 -0.419126,0.0190079 -0.0431378,-0.0518228 0.395874,-0.116752 0.480118,-0.332654zm0.478913 0.211579c0.0241535,0.0030748 0.0478307,0.0054685 0.0717008,0.00366929 0.185717,-0.00772047 0.343126,-0.15772 0.372744,-0.355677 0.017189,-0.109902 -0.00698819,-0.220291 -0.0682598,-0.30939 -0.0599016,-0.0872244 -0.148417,-0.143409 -0.249244,-0.159035 -0.221858,-0.0336299 -0.41074,0.136083 -0.443913,0.351421 -0.0177677,0.11052 0.00698425,0.220287 0.0683701,0.309531 0.0599488,0.087189 0.14889,0.144087 0.248602,0.15948z"/>
   <path id="_536441048" class="fil1" d="M2.17882 5.54371c-0.0295315,-0.0905236 -0.0398031,-0.188413 -0.0254213,-0.286551 0.0414646,-0.264197 0.243602,-0.467465 0.491417,-0.506547 0.00173622,-0.00042126 0.00277953,-0.00194488 0.00394882,-0.00276378 0.107571,-0.0213268 0.222496,-0.141606 0.342205,-0.311783l0.206591 0.114406c-0.0277913,0.101173 -0.0390039,0.201295 -0.0305787,0.294087 0.0227953,0.25115 0.18539,0.452024 0.0914724,0.70874 -0.0937087,0.256098 -0.346146,0.428906 -0.628469,0.388398 -0.130142,-0.0201772 -0.243358,-0.0860276 -0.330075,-0.184492 -0.0557126,0.0149213 -0.131087,0.0445236 -0.182083,0.100154 -0.183827,0.216685 -0.373898,0.0734291 -0.419126,0.0190079 -0.0431378,-0.0518228 0.395874,-0.116752 0.480118,-0.332654zm0.478913 0.211579c0.0241535,0.0030748 0.0478307,0.0054685 0.0717008,0.00366929 0.185717,-0.00772047 0.343126,-0.15772 0.372744,-0.355677 0.017189,-0.109902 -0.00698819,-0.220291 -0.0682598,-0.30939 -0.0599016,-0.0872244 -0.148417,-0.143409 -0.249244,-0.159035 -0.221858,-0.0336299 -0.41074,0.136083 -0.443913,0.351421 -0.0177677,0.11052 0.00698425,0.220287 0.0683701,0.309531 0.0599488,0.087189 0.14889,0.144087 0.248602,0.15948z"/>
   <circle id="_536441216" class="fil3" cx="3.82867" cy="3.46068" r="0.0913346"/>
   <circle id="_536441480" class="fil4" cx="3.82867" cy="3.46068" r="0.0514331"/>
  </g>
  <rect class="fil5" width="6.82666" height="6.82666"/>
 </g>
</svg>
