<?xml version="1.0" encoding="UTF-8"?>
<!DOCTYPE svg PUBLIC "-//W3C//DTD SVG 1.1//EN" "http://www.w3.org/Graphics/SVG/1.1/DTD/svg11.dtd">
<!-- Creator: CorelDRAW -->
<svg xmlns="http://www.w3.org/2000/svg" xml:space="preserve" width="6.82666in" height="6.82666in" style="shape-rendering:geometricPrecision; text-rendering:geometricPrecision; image-rendering:optimizeQuality; fill-rule:evenodd; clip-rule:evenodd"
viewBox="0 0 6.82666 6.82666"
 xmlns:xlink="http://www.w3.org/1999/xlink">
 <defs>
  <style type="text/css">
   <![CDATA[
    .fil2 {fill:none}
    .fil1 {fill:#A1A1A1}
    .fil0 {fill:#848484;fill-rule:nonzero}
   ]]>
  </style>
 </defs>
 <g id="Layer_x0020_1">
  <metadata id="CorelCorpID_0Corel-Layer"/>
  <g id="_277017184">
   <path id="_277016992" class="fil0" d="M5.94208 2.2438l7.87402e-006 -7.87402e-006c0.0416535,0.0416535 0.0416535,0.109197 0,0.15085l-0.000409449 0.000397638c-0.0783031,0.0785236 -0.117461,0.182055 -0.117461,0.285665 0,0.103791 0.0392913,0.207504 0.117862,0.286075l7.87402e-006 -7.87402e-006c0.0416535,0.0416535 0.0416535,0.109197 0,0.15085l-0.000606299 0.000590551 -2.82387 2.82387 7.87402e-006 7.87402e-006c-0.0416535,0.0416535 -0.109197,0.0416535 -0.15085,0l-0.000397638 -0.000409449c-0.0785197,-0.0783031 -0.182051,-0.117461 -0.285661,-0.117461 -0.103787,0 -0.207504,0.0392913 -0.286075,0.117862 0.00109055,0.00109055 -0.110547,0.0403031 -0.150843,7.87402e-006l-0.000590551 -0.000606299 -0.38922 -0.38922 0.00400394 -0.00400394 -0.581701 -0.577472 -0.00188976 0.00188976 -0.389815 -0.389815 -7.87402e-006 7.87402e-006c-0.0416535,-0.0416535 -0.0416535,-0.109197 0,-0.15085l0.000409449 -0.000397638c0.0783031,-0.0785236 0.117461,-0.182055 0.117461,-0.285665 0,-0.103787 -0.0392913,-0.2075 -0.117862,-0.286071l-7.87402e-006 7.87402e-006c-0.0416535,-0.0416535 -0.0416535,-0.109197 0,-0.15085l0.000606299 -0.000590551 2.82387 -2.82387 -7.87402e-006 -7.87402e-006c0.0416535,-0.0416535 0.109197,-0.0416535 0.15085,0l0.000397638 0.000409449c0.0785157,0.0782992 0.182055,0.117461 0.285665,0.117461 0.103783,0 0.207496,-0.0392913 0.286067,-0.117858l3.93701e-006 -3.93701e-006 -7.87402e-006 -7.87402e-006c0.0416535,-0.0416535 0.109197,-0.0416535 0.15085,0l0.000590551 0.000606299c0.452909,0.452909 0.905252,0.905252 1.35862,1.35862zm-1.26996 -0.668846l-0.0345945 0.0345945c-0.0641457,0.000771654 -0.128453,0.0123543 -0.189972,0.034752 -0.0767795,0.0279567 -0.148433,0.0723307 -0.209181,0.133075 -0.0607441,0.060748 -0.105122,0.132398 -0.133071,0.209177 -0.0224016,0.0615197 -0.0339843,0.125827 -0.0347598,0.189972l-0.63772 0.63772c-0.0717795,-0.00237008 -0.143819,0.00805512 -0.212362,0.0312795 -0.0847795,0.0287362 -0.164185,0.0766417 -0.231244,0.143697 -0.0670551,0.0670591 -0.114961,0.146465 -0.143697,0.231244 -0.0232244,0.0685433 -0.0336496,0.140583 -0.0312795,0.212362l-0.63772 0.63772c-0.0641457,0.000775591 -0.128453,0.0123583 -0.189972,0.0347598 -0.0767795,0.0279488 -0.148429,0.0723268 -0.209177,0.133071 -0.0607441,0.060748 -0.105118,0.132402 -0.133075,0.209181 -0.0223976,0.0615197 -0.0339803,0.125827 -0.034752,0.189972l-0.0333228 0.0333228 0.581693 0.577472 0.0312126 -0.0312126c0.0641457,-0.000771654 0.128453,-0.0123543 0.189972,-0.034752 0.0767795,-0.0279567 0.148433,-0.0723307 0.209181,-0.133075 0.0607441,-0.060748 0.105122,-0.132398 0.133071,-0.209177 0.0224016,-0.0615197 0.0339843,-0.125827 0.0347598,-0.189972l0.63772 -0.63772c0.0717795,0.00237008 0.143819,-0.00805512 0.212362,-0.0312795 0.0847795,-0.0287362 0.164185,-0.0766417 0.231244,-0.143697 0.0670551,-0.0670591 0.114961,-0.146465 0.143697,-0.231244 0.0232244,-0.0685433 0.0336496,-0.140583 0.0312795,-0.212362l0.63772 -0.63772c0.0641457,-0.000775591 0.128453,-0.0123583 0.189972,-0.0347598 0.0767795,-0.0279488 0.148429,-0.0723268 0.209177,-0.133071 0.0607441,-0.060748 0.105118,-0.132402 0.133075,-0.209181 0.0223976,-0.0615197 0.0339803,-0.125827 0.034752,-0.189972l0.0367047 -0.0367047 -0.581693 -0.577472z"/>
   <path id="_277017040" class="fil1" d="M3.11762 5.94209l0 0zm2.82447 -2.97531l0 0zm-0.0182165 -0.0194528l-2.96427 2.98767c0.00227953,0.00219685 0.00453543,0.00442913 0.00676772,0.00669291 0.0414646,0.0420157 0.109421,0.0422362 0.15124,0.000401575l2.82387 -2.82387c0.0422874,-0.0417323 0.0424449,-0.109602 0.000598425,-0.151433 -0.00632677,-0.00632677 -0.0123976,-0.0128189 -0.0182087,-0.0194606z"/>
   <path id="_277017232" class="fil1" d="M3.70904 0.884571l0 0zm-2.82447 2.97532l0 0zm0.028248 0.0313701l2.96562 -2.98903c-0.00619685,-0.00552362 -0.012252,-0.0112717 -0.0181496,-0.017248 -0.0414646,-0.0420157 -0.109421,-0.0422362 -0.15124,-0.000401575l-2.82387 2.82387c-0.0422874,0.0417323 -0.0424449,0.109602 -0.000598425,0.151433 0.0100591,0.0100591 0.0194724,0.0205394 0.0282402,0.031378z"/>
  </g>
  <rect class="fil2" width="6.82666" height="6.82666"/>
 </g>
</svg>
