<?xml version="1.0" encoding="UTF-8"?>
<!DOCTYPE svg PUBLIC "-//W3C//DTD SVG 1.1//EN" "http://www.w3.org/Graphics/SVG/1.1/DTD/svg11.dtd">
<!-- Creator: CorelDRAW -->
<svg xmlns="http://www.w3.org/2000/svg" xml:space="preserve" width="6.82666in" height="6.82666in" style="shape-rendering:geometricPrecision; text-rendering:geometricPrecision; image-rendering:optimizeQuality; fill-rule:evenodd; clip-rule:evenodd"
viewBox="0 0 6.82666 6.82666"
 xmlns:xlink="http://www.w3.org/1999/xlink">
 <defs>
  <style type="text/css">
   <![CDATA[
    .fil11 {fill:none}
    .fil6 {fill:#B3B4B4}
    .fil9 {fill:#D1D1D1}
    .fil8 {fill:#D5D5D6}
    .fil7 {fill:#DFDFDF}
    .fil10 {fill:#E0E1E1}
    .fil0 {fill:#272727;fill-rule:nonzero}
    .fil1 {fill:#2F2F2F;fill-rule:nonzero}
    .fil2 {fill:#444444;fill-rule:nonzero}
    .fil3 {fill:#4C4C4C;fill-rule:nonzero}
    .fil4 {fill:#ABABAB;fill-rule:nonzero}
    .fil5 {fill:#DADADA;fill-rule:nonzero}
   ]]>
  </style>
 </defs>
 <g id="Layer_x0020_1">
  <metadata id="CorelCorpID_0Corel-Layer"/>
  <g id="_277019320">
   <path id="_277019752" class="fil0" d="M2.75908 1.50858c0.0315551,0 0.0021063,-0.0887126 0.0021063,-0.19813 0,-0.109421 0.0294488,-0.19813 -0.0021063,-0.19813l-0.138933 0c-0.0315551,0 -0.0571378,0.0887087 -0.0571378,0.19813 0,0.109417 0.0255827,0.19813 0.0571378,0.19813l0.138933 0z"/>
   <path id="_277019584" class="fil1" d="M2.56947 1.92215l-0.427528 0c-0.0590315,0 -0.106886,-0.0478583 -0.106886,-0.106886l0 -0.855055c0,-0.0590276 0.0478543,-0.106882 0.106886,-0.106882l0.427528 0c0.0590276,0 0.106882,0.0478543 0.106882,0.106882l0 0.855055c0,0.0590276 -0.0478543,0.106886 -0.106882,0.106886z"/>
   <path id="_277020016" class="fil2" d="M1.93053 1.70838l0.0148543 0c0.00255118,0.0141693 0.0150197,0.0250079 0.0298976,0.0250079l3.93701e-006 0c0.014878,0 0.0273465,-0.0108386 0.0298976,-0.0250079l0.0670079 0c0.00255118,0.0141693 0.0150197,0.0250079 0.0298976,0.0250079l3.93701e-006 0c0.014878,0 0.0273465,-0.0108386 0.0298976,-0.0250079l0.0670039 0c0.00255512,0.0141693 0.0150236,0.0250079 0.0299016,0.0250079l3.93701e-006 0c0.014874,0 0.0273465,-0.0108386 0.0298976,-0.0250079l0.0670039 0c0.00255118,0.0141693 0.0150197,0.0250079 0.0298976,0.0250079l3.93701e-006 0c0.014878,0 0.0273465,-0.0108386 0.0298976,-0.0250079l0.0670079 0c0.00255118,0.0141693 0.0150197,0.0250079 0.0298976,0.0250079l3.93701e-006 0c0.014878,0 0.0273465,-0.0108386 0.0298976,-0.0250079l0.0670079 0c0.00255118,0.0141693 0.0150197,0.0250079 0.0298976,0.0250079l3.93701e-006 0c0.014878,0 0.0273465,-0.0108386 0.0298976,-0.0250079l0.0670039 0c0.00255512,0.0141693 0.0150236,0.0250079 0.0298976,0.0250079l3.93701e-006 0c0.014878,0 0.0273465,-0.0108386 0.0299016,-0.0250079l0.0148504 0c0.0590276,0 0.106886,0.0478583 0.106886,0.106886l0 0.32065 -1.06411 0 0 -0.32065c0,-0.0590276 0.0478543,-0.106886 0.106882,-0.106886z"/>
   <path id="_277019992" class="fil3" d="M1.94491 1.70838l0.000480315 0c0.00255118,0.0141693 0.0150197,0.0250079 0.0298976,0.0250079l3.93701e-006 0c0.014878,0 0.0273465,-0.0108386 0.0298976,-0.0250079l0.000480315 0 0 0.285228c0,0.0167126 -0.0136654,0.030378 -0.030378,0.030378l-3.93701e-006 0c-0.0167087,0 -0.030378,-0.0136654 -0.030378,-0.030378l0 -0.285228zm0.126807 0l0.000480315 0c0.00255118,0.0141693 0.0150197,0.0250079 0.0298976,0.0250079l3.93701e-006 0c0.014878,0 0.0273465,-0.0108386 0.0298976,-0.0250079l0.000480315 0 0 0.285228c0,0.0167126 -0.0136693,0.030378 -0.030378,0.030378l-3.93701e-006 0c-0.0167126,0 -0.030378,-0.0136654 -0.030378,-0.030378l0 -0.285228zm0.126807 0l0.000476378 0c0.00255512,0.0141693 0.0150236,0.0250079 0.0299016,0.0250079l3.93701e-006 0c0.014874,0 0.0273465,-0.0108386 0.0298976,-0.0250079l0.000476378 0 0 0.285228c0,0.0167126 -0.0136654,0.030378 -0.030374,0.030378l-3.93701e-006 0c-0.0167126,0 -0.030378,-0.0136654 -0.030378,-0.030378l0 -0.285228zm0.126803 0l0.000480315 0c0.00255118,0.0141693 0.0150197,0.0250079 0.0298976,0.0250079l3.93701e-006 0c0.014878,0 0.0273465,-0.0108386 0.0298976,-0.0250079l0.000480315 0 0 0.285228c0,0.0167126 -0.0136654,0.030378 -0.030378,0.030378l-3.93701e-006 0c-0.0167087,0 -0.030378,-0.0136654 -0.030378,-0.030378l0 -0.285228zm0.126807 0l0.000480315 0c0.00255118,0.0141693 0.0150197,0.0250079 0.0298976,0.0250079l3.93701e-006 0c0.014878,0 0.0273465,-0.0108386 0.0298976,-0.0250079l0.000480315 0 0 0.285228c0,0.0167126 -0.0136693,0.030378 -0.030378,0.030378l-3.93701e-006 0c-0.0167087,0 -0.030378,-0.0136654 -0.030378,-0.030378l0 -0.285228zm0.126807 0l0.000480315 0c0.00255118,0.0141693 0.0150197,0.0250079 0.0298976,0.0250079l3.93701e-006 0c0.014878,0 0.0273465,-0.0108386 0.0298976,-0.0250079l0.000480315 0 0 0.285228c0,0.0167126 -0.0136693,0.030378 -0.030378,0.030378l-3.93701e-006 0c-0.0167126,0 -0.030378,-0.0136654 -0.030378,-0.030378l0 -0.285228zm0.126807 0l0.000476378 0c0.00255512,0.0141693 0.0150236,0.0250079 0.0298976,0.0250079l3.93701e-006 0c0.014878,0 0.0273465,-0.0108386 0.0299016,-0.0250079l0.000476378 0 0 0.285228c0,0.0167126 -0.0136654,0.030378 -0.030378,0.030378l-3.93701e-006 0c-0.0167087,0 -0.030374,-0.0136654 -0.030374,-0.030378l0 -0.285228z"/>
   <path id="_277019896" class="fil4" d="M1.68149 2.12292l1.34843 0c0.0754291,0 0.143929,0.0307835 0.19352,0.0803701 0.0495866,0.0495906 0.0803701,0.118091 0.0803701,0.193516l0 3.3c0,0.0183465 -0.00214961,0.0375472 -0.00621654,0.0571063 -0.0115433,0.0554882 -0.0399882,0.10828 -0.0792008,0.147461 -0.043752,0.0437244 -0.101063,0.0717205 -0.16535,0.0717205 -0.0138976,0 -0.0288465,-0.00158661 -0.0448307,-0.00490945 -0.203295,-0.0422717 -0.411594,-0.0684724 -0.627244,-0.0709803 -0.216264,-0.00251575 -0.440882,0.0184921 -0.676512,0.0705669 -0.0170906,0.00377559 -0.0327441,0.00556693 -0.0469764,0.00556693 -0.0635945,0 -0.120358,-0.0277402 -0.163921,-0.0710866 -0.0385039,-0.038311 -0.066748,-0.0901339 -0.0788307,-0.144787 -0.00465354,-0.0210591 -0.00712205,-0.0414803 -0.00712205,-0.0606575l0 -3.3c0,-0.0754252 0.0307795,-0.143925 0.0803701,-0.193516 0.0495866,-0.0495866 0.118087,-0.0803701 0.193516,-0.0803701z"/>
   <path id="_277020040" class="fil5" d="M3.62751 1.06281c0.0396181,0.00614961 0.0777047,0.017311 0.113681,0.032752 0.00981496,0.00420866 0.0194291,0.00873228 0.0288386,0.0135472 0.0377047,-0.0376102 0.0820669,-0.0680197 0.130732,-0.0894961 0.0729134,-0.0321811 0.155539,-0.0445748 0.24002,-0.0314606 0.0553465,0.00859449 0.106677,0.0274016 0.15235,0.054189 0.014685,0.00861811 0.0287835,0.0180591 0.0422244,0.0282559 0.0571417,-0.0629252 0.126768,-0.113689 0.204276,-0.148925 0.106886,-0.0485945 0.228303,-0.0676614 0.352205,-0.0484252 0.169752,0.0263583 0.312843,0.119161 0.406953,0.247874 0.0940984,0.128701 0.139154,0.293012 0.112843,0.462417 -0.023874,0.153748 -0.102323,0.285665 -0.212626,0.379134 -0.0936378,0.0793465 -0.21026,0.130835 -0.335941,0.144299 -0.0341063,0.119941 -0.107236,0.220925 -0.203055,0.290984 -0.112941,0.0825787 -0.25711,0.122122 -0.405701,0.0990472 -0.0507874,-0.00788583 -0.0990945,-0.0227047 -0.144094,-0.0433543 -0.0291496,-0.013374 -0.0568346,-0.0292244 -0.0828189,-0.0472402 -0.0270394,0.00940157 -0.0550236,0.016374 -0.0836614,0.0206772 -0.0460906,0.00692913 -0.0937205,0.00712992 -0.141606,-0.00030315 -0.128126,-0.0198976 -0.236161,-0.0899764 -0.307228,-0.187177 -0.0558583,-0.0763937 -0.0888268,-0.169366 -0.0907441,-0.267713 -0.0739882,-0.0251614 -0.138756,-0.0678425 -0.190209,-0.122488 -0.0520551,-0.0552795 -0.0904646,-0.122878 -0.111004,-0.197008 -0.0747835,-0.00877559 -0.140984,-0.0442087 -0.189268,-0.096252 -0.0535276,-0.0576929 -0.0850512,-0.135815 -0.081874,-0.220665 0.0031811,-0.0848465 0.0404606,-0.160394 0.0981575,-0.213921 0.0576969,-0.0535276 0.135819,-0.0850512 0.220669,-0.081874 0.049878,0.00187008 0.0969843,0.0159331 0.138567,0.0392756 0.0168031,0.00943307 0.0326063,0.020378 0.0472244,0.0326299 0.0320472,-0.016937 0.0661654,-0.030248 0.101728,-0.0394567 0.0601378,-0.0155787 0.12428,-0.0194252 0.189362,-0.00932283z"/>
   <rect id="_277019080" class="fil6" x="1.95907" y="2.72207" width="0.670442" height="2.81587"/>
   <rect id="_277018960" class="fil7" x="2.02048" y="2.64019" width="0.670442" height="2.81587"/>
   <circle id="_277018888" class="fil8" transform="matrix(1.01374 0.037981 -0.037981 1.01374 4.06126 1.3854)" r="0.390626"/>
   <circle id="_277019008" class="fil9" transform="matrix(1.16425 0.04362 -0.04362 1.16425 3.88607 1.92167)" r="0.397571"/>
   <circle id="_277018840" class="fil10" transform="matrix(1.11999 0.0419617 -0.0419617 1.11999 3.58378 1.52261)" r="0.397571"/>
  </g>
  <rect class="fil11" width="6.82666" height="6.82666"/>
 </g>
</svg>
