<?xml version="1.0" encoding="UTF-8"?>
<!DOCTYPE svg PUBLIC "-//W3C//DTD SVG 1.1//EN" "http://www.w3.org/Graphics/SVG/1.1/DTD/svg11.dtd">
<!-- Creator: CorelDRAW -->
<svg xmlns="http://www.w3.org/2000/svg" xml:space="preserve" width="6.82666in" height="6.82666in" style="shape-rendering:geometricPrecision; text-rendering:geometricPrecision; image-rendering:optimizeQuality; fill-rule:evenodd; clip-rule:evenodd"
viewBox="0 0 6.82666 6.82666"
 xmlns:xlink="http://www.w3.org/1999/xlink">
 <defs>
  <style type="text/css">
   <![CDATA[
    .fil7 {fill:none}
    .fil6 {fill:#202020}
    .fil2 {fill:#565656}
    .fil3 {fill:#A1A1A1}
    .fil5 {fill:#BABABB}
    .fil0 {fill:#474747;fill-rule:nonzero}
    .fil4 {fill:#5F5F5F;fill-rule:nonzero}
    .fil1 {fill:#6A6A6A;fill-rule:nonzero}
   ]]>
  </style>
 </defs>
 <g id="Layer_x0020_1">
  <metadata id="CorelCorpID_0Corel-Layer"/>
  <g id="_277021840">
   <path id="_277022272" class="fil0" d="M1.17133 5.16402c0.753421,-0.341358 1.42485,-0.782102 2.01753,-1.31335 0.607661,-0.544689 1.13324,-1.1853 1.58017,-1.91223 0.0773504,-0.125815 0.226524,-0.166378 0.369047,-0.135535 0.0552008,0.0119449 0.109811,0.0347795 0.158488,0.0675236 0.0495118,0.033311 0.0932953,0.0772677 0.125992,0.130969 0.0813189,0.133598 0.0924173,0.320232 -0.0526693,0.539787 -0.570693,0.863646 -1.04513,1.44611 -1.60155,1.9354 -0.555496,0.488476 -1.18959,0.881087 -2.08086,1.36608 -0.225724,0.122831 -0.405315,0.0922283 -0.527346,-0.00382283 -0.0512165,-0.040311 -0.0910827,-0.0918465 -0.119146,-0.148283 -0.0276732,-0.0556496 -0.0441929,-0.116201 -0.0490276,-0.175421 -0.0120315,-0.147075 0.0456181,-0.290512 0.17937,-0.35111z"/>
   <g>
    <path id="_277022632" class="fil1" d="M3.95382 1.95936l-0.10761 0.260409 0.000251969 0.000318898c-0.0226378,0.0547913 -0.0854134,0.0808543 -0.140201,0.0582126 -0.00210236,-0.000866142 -0.00414961,-0.00179921 -0.00616142,-0.00277953 -0.3715,-0.155173 -3.03965,-0.999417 -2.8632,-1.42187 0.0012874,-0.00307874 0.753008,0.0165787 0.853248,0.0294488 0.243571,0.0312677 0.483094,0.0997638 0.7575,0.21072 0.000354331,-0.000125984 2.13061,0.896154 2.3292,0.979673 0.0544173,0.0229213 0.0799488,0.0856339 0.0570236,0.140051 -0.0229213,0.0544173 -0.0856339,0.0799488 -0.140051,0.0570236l-0.74 -0.311209z"/>
    <path id="_277022584" class="fil2" d="M1.55948 0.869941c0.10298,0.17511 0.347744,0.168335 0.730224,0.336028 0.358213,0.157055 1.40461,0.636445 1.6634,0.755118l0.000716535 -0.00172441 0.627157 0.263756c0.289815,0.100083 0.710063,0.296618 1.00765,0.280354 0.222516,-0.0121614 0.317626,-0.0845551 0.402531,-0.286114 0.045437,-0.296311 -0.130079,0.142614 -0.556469,0.0751614 -0.335291,-0.0530433 -0.741531,-0.254228 -0.776965,-0.26913 -0.497343,-0.209217 -2.20976,-0.929681 -2.21008,-0.929567 -0.274406,-0.110957 -0.513929,-0.179453 -0.7575,-0.21072 -0.0434606,-0.00557874 -0.0869409,-0.00995669 -0.130669,-0.0131614z"/>
    <path id="_277022248" class="fil3" d="M0.836898 0.853654c-0.176445,0.422453 2.4917,1.2667 2.8632,1.42187 0.00201181,0.000980315 0.00405906,0.00191339 0.00616142,0.00277953 0.0530039,0.0219016 0.11348,-0.00177559 0.137862,-0.0529488 -0.733969,-0.338835 -2.38687,-0.747472 -2.86935,-1.3698 -0.0823346,-0.00190945 -0.137531,-0.00273622 -0.137878,-0.00190551z"/>
    <path id="_277022392" class="fil4" d="M1.19114 5.21402c0.76452,-0.341358 1.44584,-0.782102 2.04726,-1.31335 0.616618,-0.544689 1.14994,-1.1853 1.60346,-1.91223 0.0784921,-0.125815 0.229862,-0.166378 0.374484,-0.135535 0.0560157,0.0119449 0.111429,0.0347795 0.160823,0.0675236 0.0502441,0.033311 0.0946732,0.0772677 0.12785,0.130969 0.0825197,0.133598 0.0937795,0.320232 -0.0534449,0.539787 -0.579102,0.863646 -1.06053,1.44611 -1.62515,1.9354 -0.563685,0.488476 -1.20712,0.881087 -2.11153,1.36608 -0.229047,0.122831 -0.411287,0.0922283 -0.535118,-0.00382283 -0.0519724,-0.040311 -0.0924213,-0.0918465 -0.120902,-0.148283 -0.0280787,-0.0556496 -0.0448425,-0.116201 -0.049752,-0.175421 -0.0122047,-0.147075 0.0462913,-0.290512 0.18202,-0.35111z"/>
    <circle id="_277022368" class="fil5" cx="5.14606" cy="2.28837" r="0.13313"/>
    <circle id="_277022320" class="fil6" cx="5.14606" cy="2.28837" r="0.0828128"/>
   </g>
  </g>
  <rect class="fil7" width="6.82666" height="6.82666"/>
 </g>
</svg>
