<?xml version="1.0" encoding="UTF-8"?>
<!DOCTYPE svg PUBLIC "-//W3C//DTD SVG 1.1//EN" "http://www.w3.org/Graphics/SVG/1.1/DTD/svg11.dtd">
<!-- Creator: CorelDRAW -->
<svg xmlns="http://www.w3.org/2000/svg" xml:space="preserve" width="6.82666in" height="6.82666in" style="shape-rendering:geometricPrecision; text-rendering:geometricPrecision; image-rendering:optimizeQuality; fill-rule:evenodd; clip-rule:evenodd"
viewBox="0 0 6.82666 6.82666"
 xmlns:xlink="http://www.w3.org/1999/xlink">
 <defs>
  <style type="text/css">
   <![CDATA[
    .fil7 {fill:none}
    .fil2 {fill:#4E4E4F;fill-rule:nonzero}
    .fil1 {fill:#565656;fill-rule:nonzero}
    .fil0 {fill:#8C8D8D;fill-rule:nonzero}
    .fil5 {fill:#969696;fill-rule:nonzero}
    .fil4 {fill:#9E9E9E;fill-rule:nonzero}
    .fil3 {fill:#A4A4A5;fill-rule:nonzero}
    .fil6 {fill:#BFBFBF;fill-rule:nonzero}
   ]]>
  </style>
 </defs>
 <g id="Layer_x0020_1">
  <metadata id="CorelCorpID_0Corel-Layer"/>
  <g id="_277027888">
   <path id="_277028752" class="fil0" d="M3.51573 1.19532c-0.121976,-0.475614 -0.0828268,-0.475614 -0.204803,0l0 0.708508c0,0.0565512 0.0458504,0.102402 0.102402,0.102402 0.0565512,0 0.102402,-0.0458504 0.102402,-0.102402l0 -0.708508z"/>
   <path id="_277028488" class="fil1" d="M4.02773 2.51036l-1.2288 0c-0.0897047,0 -0.171189,-0.0366299 -0.230189,-0.0956299 -0.0590039,-0.0590039 -0.0956299,-0.140484 -0.0956299,-0.230189l0 -7.87402e-006c0,-0.0897047 0.036626,-0.171181 0.0956299,-0.230185 0.059,-0.059 0.140484,-0.0956299 0.230189,-0.0956299l1.2288 0c0.0897047,0 0.171189,0.0366299 0.230189,0.0956299 0.0590039,0.0590039 0.0956299,0.14048 0.0956299,0.230185l0 7.87402e-006c0,0.0897047 -0.036626,0.171185 -0.0956299,0.230189 -0.059,0.059 -0.140484,0.0956299 -0.230189,0.0956299z"/>
   <path id="_277028560" class="fil2" d="M2.47787 2.12902c0.011689,-0.0675512 0.0443071,-0.12811 0.0908701,-0.174673 0.059,-0.059 0.140484,-0.0956299 0.230189,-0.0956299l1.2288 0c0.0897047,0 0.171189,0.0366299 0.230189,0.0956299 0.046563,0.046563 0.0791811,0.107122 0.0908701,0.174673l-1.87092 0z"/>
   <path id="_277028320" class="fil3" d="M2.43587 2.30555l1.95491 0c0.0285984,0 0.0544528,0.0117283 0.0730315,0.0306339l0.306571 0.306567 3.93701e-006 -3.93701e-006c0.0199961,0.0199921 0.0299921,0.0462008 0.0299921,0.0724055l3.93701e-006 0 0 2.96136c-0.0526142,0.0574764 -0.226646,0.296815 -0.279177,0.296815l-2.21576 0c-0.0509488,0 -0.226374,-0.235441 -0.279177,-0.291709l0 -2.96647c0,-0.0285984 0.0117283,-0.0544488 0.0306339,-0.0730315l0.306567 -0.306567 -7.87402e-006 -7.87402e-006c0.0199961,-0.0199961 0.0462008,-0.0299921 0.0724094,-0.0299921l0 -3.93701e-006z"/>
   <path id="_277028608" class="fil4" d="M4.80039 5.67652c-0.0526142,0.0574764 -0.226646,0.296815 -0.279177,0.296815l-2.21576 0c-0.0509488,0 -0.226374,-0.235441 -0.279177,-0.291709l0 -0.0051063 2.77411 0z"/>
   <path id="_277027408" class="fil5" d="M2.43587 2.30555l1.95491 0c0.0285984,0 0.0544528,0.0117283 0.0730315,0.0306339l0.306571 0.306567 3.93701e-006 -3.93701e-006c0.00814173,0.0081378 0.014622,0.0173071 0.0194488,0.0270866l-2.75301 0c0.00511811,-0.0103465 0.0119291,-0.0197047 0.0200748,-0.0277126l0.306567 -0.306567 -7.87402e-006 -7.87402e-006c0.0199961,-0.0199961 0.0462008,-0.0299921 0.0724094,-0.0299921l0 -3.93701e-006z"/>
   <path id="_277027696" class="fil6" d="M4.01841 4.86164c0,-0.0624528 -0.0458504,-0.113087 -0.102402,-0.113087 -0.0565551,0 -0.102402,0.0506339 -0.102402,0.113087l0 0.571185c0,0.0624567 0.0458465,0.113091 0.102402,0.113091 0.0565512,0 0.102402,-0.0506339 0.102402,-0.113091l0 -0.571185z"/>
   <path id="_277027936" class="fil6" d="M4.35355 3.08889c0,-0.0624567 -0.0458504,-0.113087 -0.102402,-0.113087 -0.0565551,0 -0.102402,0.0506299 -0.102402,0.113087l0 2.34393c0,0.0624567 0.0458465,0.113091 0.102402,0.113091 0.0565512,0 0.102402,-0.0506339 0.102402,-0.113091l0 -2.34393z"/>
  </g>
  <rect class="fil7" width="6.82666" height="6.82666"/>
 </g>
</svg>
