<?xml version="1.0" encoding="UTF-8"?>
<!DOCTYPE svg PUBLIC "-//W3C//DTD SVG 1.1//EN" "http://www.w3.org/Graphics/SVG/1.1/DTD/svg11.dtd">
<!-- Creator: CorelDRAW -->
<svg xmlns="http://www.w3.org/2000/svg" xml:space="preserve" width="6.82666in" height="6.82666in" style="shape-rendering:geometricPrecision; text-rendering:geometricPrecision; image-rendering:optimizeQuality; fill-rule:evenodd; clip-rule:evenodd"
viewBox="0 0 6.82666 6.82666"
 xmlns:xlink="http://www.w3.org/1999/xlink">
 <defs>
  <style type="text/css">
   <![CDATA[
    .fil8 {fill:none}
    .fil3 {fill:none;fill-rule:nonzero}
    .fil7 {fill:#2F2F2F}
    .fil4 {fill:#7F7F7F}
    .fil0 {fill:#333333;fill-rule:nonzero}
    .fil6 {fill:#747474;fill-rule:nonzero}
    .fil1 {fill:#7F7F7F;fill-rule:nonzero}
    .fil5 {fill:#868686;fill-rule:nonzero}
    .fil2 {fill:#909090;fill-rule:nonzero}
   ]]>
  </style>
 </defs>
 <g id="Layer_x0020_1">
  <metadata id="CorelCorpID_0Corel-Layer"/>
  <g id="_276993952">
   <g>
    <path id="_277000552" class="fil0" d="M2.92954 2.37419c0.0247087,-8.26772e-005 0.0446772,-0.0201811 0.0445906,-0.0448898 -8.26772e-005,-0.0247087 -0.020185,-0.0446772 -0.0448937,-0.0445945l-0.697843 -0.00987008c-0.0247087,8.26772e-005 -0.0446732,0.020185 -0.0445906,0.0448937 8.26772e-005,0.0247087 0.020185,0.0446732 0.0448898,0.0445906l0.697846 0.00987008zm0.0833346 -1.09504c0.0247087,-8.26772e-005 0.0446732,-0.0201811 0.0445906,-0.0448898 -8.66142e-005,-0.0247087 -0.020189,-0.0446772 -0.0448937,-0.0445945l-0.697846 -0.00987008c-0.0247087,8.26772e-005 -0.0446772,0.020185 -0.0445906,0.0448937 8.26772e-005,0.0247087 0.020185,0.0446732 0.0448937,0.0445866l0.697846 0.00987402zm-3.93701e-006 0.308268c0.0247047,-8.26772e-005 0.0446732,-0.020185 0.0445906,-0.0448898 -8.26772e-005,-0.0247087 -0.020185,-0.0446772 -0.0448898,-0.0445906l-0.69785 -0.00987402c-0.0247087,8.66142e-005 -0.0446732,0.020185 -0.0445906,0.0448937 8.26772e-005,0.0247087 0.020185,0.0446772 0.0448937,0.0445945l0.697846 0.00986614zm-3.93701e-006 0.308272c0.0247087,-8.26772e-005 0.0446772,-0.020189 0.0445906,-0.0448937 -8.26772e-005,-0.0247047 -0.020185,-0.0446732 -0.0448937,-0.0445906l-0.697843 -0.00987008c-0.0247087,8.26772e-005 -0.0446732,0.020185 -0.0445906,0.0448898 8.26772e-005,0.0247087 0.020185,0.0446772 0.0448937,0.0445906l0.697843 0.00987402zm-0.0833268 0.173213c0.0247087,-8.26772e-005 0.0446772,-0.020189 0.0445945,-0.0448937 -8.26772e-005,-0.0247087 -0.020189,-0.0446732 -0.0448937,-0.0445945l-0.697846 -0.00986614c-0.0247087,8.26772e-005 -0.0446732,0.0201811 -0.0445906,0.0448898 8.26772e-005,0.0247087 0.020185,0.0446732 0.0448898,0.0445906l0.697846 0.00987402zm0 -0.305291c0.0247087,-8.26772e-005 0.0446772,-0.0201811 0.0445906,-0.0448898 -8.26772e-005,-0.0247087 -0.0201811,-0.0446772 -0.0448898,-0.0445906l-0.69785 -0.00987008c-0.0247047,7.87402e-005 -0.0446693,0.020185 -0.0445866,0.0448937 7.87402e-005,0.0247047 0.020185,0.0446732 0.0448898,0.0445906l0.697846 0.00986614zm0 -0.305283c0.0247087,-8.66142e-005 0.0446772,-0.020185 0.0445906,-0.0448937 -8.26772e-005,-0.0247087 -0.0201811,-0.0446732 -0.0448898,-0.0445906l-0.697846 -0.00987402c-0.0247087,8.66142e-005 -0.0446772,0.020189 -0.0445945,0.0448976 8.26772e-005,0.0247047 0.020189,0.0446732 0.0448976,0.0445906l0.697843 0.00987008zm0.0102992 -0.315602c0.0247047,-8.26772e-005 0.0446732,-0.020185 0.0445906,-0.0448937 -8.26772e-005,-0.0247087 -0.020189,-0.0446732 -0.0448976,-0.0445906l-0.697843 -0.00987008c-0.0247087,8.26772e-005 -0.0446732,0.0201811 -0.0445906,0.0448898 8.26772e-005,0.0247087 0.020185,0.0446772 0.0448937,0.0445906l0.697846 0.00987402zm0.0730276 1.06123c0.0247087,-8.26772e-005 0.0446732,-0.020185 0.0445906,-0.0448898 -8.26772e-005,-0.0247087 -0.020185,-0.0446772 -0.0448937,-0.0445945l-0.697846 -0.00987008c-0.0247047,8.26772e-005 -0.0446732,0.020185 -0.0445906,0.0448937 8.26772e-005,0.0247087 0.020189,0.0446732 0.0448898,0.0445906l0.69785 0.00987008zm-3.93701e-006 0.308272c0.0247047,-8.66142e-005 0.0446732,-0.020189 0.0445906,-0.0448976 -8.26772e-005,-0.0247047 -0.020185,-0.0446693 -0.0448898,-0.0445906l-0.69785 -0.00987008c-0.0247087,8.66142e-005 -0.0446693,0.020189 -0.0445866,0.0448937 7.87402e-005,0.0247087 0.0201811,0.0446772 0.0448898,0.0445906l0.697846 0.00987402zm0 0.308268c0.0247047,-8.26772e-005 0.0446732,-0.020185 0.0445906,-0.0448898 -8.66142e-005,-0.0247087 -0.020189,-0.0446772 -0.0448976,-0.0445945l-0.697843 -0.00987008c-0.0247087,8.26772e-005 -0.0446772,0.020185 -0.0445906,0.0448937 8.26772e-005,0.0247087 0.020185,0.0446732 0.0448937,0.0445866l0.697846 0.00987402zm-3.93701e-006 0.308268c0.0247087,-8.26772e-005 0.0446732,-0.020185 0.0445906,-0.0448937 -8.26772e-005,-0.0247047 -0.020185,-0.0446732 -0.0448937,-0.0445906l-0.697846 -0.00987008c-0.0247047,8.26772e-005 -0.0446732,0.020185 -0.0445906,0.0448937 8.26772e-005,0.0247087 0.020185,0.0446772 0.0448937,0.0445906l0.697846 0.00987008zm-3.93701e-006 0.308272c0.0247087,-8.26772e-005 0.0446772,-0.020189 0.0445906,-0.0448976 -7.87402e-005,-0.0247047 -0.020185,-0.0446693 -0.0448937,-0.0445866l-0.697843 -0.00987008c-0.0247087,8.26772e-005 -0.0446732,0.020185 -0.0445906,0.0448898 8.26772e-005,0.0247087 0.020185,0.0446772 0.0448898,0.0445906l0.697846 0.00987402zm-0.083315 0.158299c0.0247047,-8.26772e-005 0.0446732,-0.0201811 0.0445906,-0.0448898 -8.66142e-005,-0.0247087 -0.020185,-0.0446732 -0.0448937,-0.0445906l-0.697846 -0.00987402c-0.0247087,8.26772e-005 -0.0446772,0.020185 -0.0445906,0.0448937 8.26772e-005,0.0247087 0.020185,0.0446772 0.0448937,0.0445906l0.697846 0.00987008zm3.93701e-006 -0.305283c0.0247087,-8.26772e-005 0.0446732,-0.020189 0.0445906,-0.0448937 -8.26772e-005,-0.0247087 -0.020185,-0.0446772 -0.0448937,-0.0445906l-0.697846 -0.00987008c-0.0247047,8.26772e-005 -0.0446732,0.0201811 -0.0445906,0.0448898 8.66142e-005,0.0247087 0.020185,0.0446732 0.0448937,0.0445906l0.697846 0.00987402zm0 -0.305291c0.0247047,-8.26772e-005 0.0446732,-0.020185 0.0445866,-0.0448937 -8.26772e-005,-0.0247087 -0.0201811,-0.0446732 -0.0448898,-0.0445906l-0.69785 -0.00987008c-0.0247047,8.66142e-005 -0.0446693,0.020185 -0.0445866,0.0448937 8.26772e-005,0.0247087 0.0201811,0.0446732 0.0448898,0.0445906l0.69785 0.00987008zm-3.93701e-006 -0.305283c0.0247047,-8.66142e-005 0.0446732,-0.020185 0.0445906,-0.0448937 -8.66142e-005,-0.0247087 -0.020185,-0.0446732 -0.0448937,-0.0445906l-0.697846 -0.00987402c-0.0247087,8.66142e-005 -0.0446732,0.020189 -0.0445906,0.0448937 8.26772e-005,0.0247087 0.020185,0.0446772 0.0448937,0.0445906l0.697846 0.00987402z"/>
    <path id="_277000624" class="fil1" d="M1.94464 3.68177l0.681098 0 0 -1.1811e-005c0.0472559,0 0.0855709,0.038315 0.0855709,0.0855709l-7.87402e-006 0.000681102c-0.181083,0.608705 -0.181323,1.20168 0,1.77887 0,0.117378 -0.0479488,0.22402 -0.125189,0.301264 -0.0772441,0.0772402 -0.183886,0.125185 -0.301264,0.125185l0 7.87402e-006 -0.00167717 -2.3622e-005c-0.116713,-0.000452756 -0.222713,-0.0482992 -0.299583,-0.125169 -0.0772402,-0.0772441 -0.125189,-0.183886 -0.125189,-0.301264 0.15524,-0.581823 0.167776,-1.17409 0,-1.77955l-7.87402e-006 0c0,-0.0472559 0.038315,-0.0855709 0.0855709,-0.0855709l0.000677165 1.1811e-005z"/>
    <path id="_277001056" class="fil2" d="M1.85613 3.75774c-0.0932835,-0.397937 -0.168012,-0.917142 -0.16628,-1.32948 0.00194094,-0.462043 0.0608504,-0.932209 0.170909,-1.40965 0.00991339,-0.0430079 0.0296339,-0.0840197 0.059937,-0.114323 0.0314094,-0.0314094 0.0720354,-0.0509528 0.122354,-0.0509528l0.187622 0 0.000677165 -7.87402e-006 -1.1811e-005 0.0855669 0.00023622 -0.0853228c0.0399843,3.93701e-006 0.0761693,0.016189 0.10226,0.0422835 0.0262323,0.0262323 0.0425157,0.0625118 0.0425157,0.102492l0 3.93701e-006 0.0118189 2.68647 -0.43115 0c-0.0457362,0 -0.0797165,0.0261969 -0.10089,0.0729134z"/>
    <line id="_277000432" class="fil3" x1="2.28435" y1="5.8022" x2="2.2845" y2= "5.8022" />
    <polyline id="_277000960" class="fil3" points="2.2845,5.8022 2.28485,5.80219 2.28485,5.8022 "/>
    <path id="_277000648" class="fil4" d="M2.20914 2.35831c0.000700787,0.0762874 0.00240157,0.151587 0.00502756,0.225311 0.00100394,0.0281614 0.00214173,0.0560945 0.00341339,0.0837677 0.00343701,0.0748031 0.00783465,0.147697 0.0131181,0.218028 0.00227559,0.0303465 0.00472047,0.0602244 0.00732677,0.0895669 0.00673228,0.0758819 0.0145276,0.148228 0.0232795,0.216138 0.00397638,0.0308268 0.00814173,0.0607402 0.0125,0.0896575 0.00354331,0.0235039 0.00720866,0.0463583 0.0109961,0.0685039 0.00443307,0.0259331 0.00902756,0.0509016 0.0137756,0.0748307 0.0050748,0.025563 0.0103228,0.0499409 0.0157402,0.0730433 0.00762598,0.0325512 0.0155866,0.0625709 0.0238425,0.0898189 0.0111811,0.0368976 0.0229134,0.0687008 0.035122,0.0947953 0.000480315,0.0010315 0.000964567,0.00204724 0.00144488,0.00306299l0.0134449 0 -1.1811e-005 -0.00306299 -0.000413386 -0.0940945 -0.000393701 -0.0894882 -0.000307087 -0.0700039 -0.000397638 -0.0894843 -0.000248031 -0.0563307 -0.000389764 -0.0894843 -0.000322835 -0.0729843 -0.000393701 -0.0894882 -0.00023622 -0.0533504 -0.000393701 -0.0894843 -0.000330709 -0.0759724 -0.000393701 -0.0894803 -0.000220472 -0.0503661 -0.000397638 -0.0894843 -0.000346457 -0.0789528 -0.000393701 -0.0894882 -0.000208661 -0.0473858 -0.000393701 -0.0894843 -0.000362205 -0.0819331 -0.000393701 -0.0894843 -0.000192913 -0.0444016 -0.000393701 -0.0894843 -0.000374016 -0.0849173 -0.000393701 -0.0894882 -0.000181102 -0.0414173 -0.000393701 -0.0894843 -0.000385827 -0.0878976 -0.000397638 -0.0894843 -0.000165354 -0.038437 -0.000397638 -0.0894882 -0.000397638 -0.0908819 -0.000393701 -0.0894803 -0.000200787 -0.0459213 -0.000397638 -0.0894843 -0.000204724 -0.0469213c0,-0.0120669 -0.00148031,-0.0238031 -0.00427953,-0.0350236 -0.012626,0.0207047 -0.0248425,0.048 -0.0365197,0.0813661 -0.00912598,0.0260748 -0.0179252,0.0558583 -0.0263346,0.0891063 -0.00398425,0.0157244 -0.00787795,0.0322244 -0.0116811,0.0494724 -0.00503937,0.0228898 -0.0099252,0.0471024 -0.0146299,0.0725669 -0.00601181,0.0325276 -0.0117323,0.0671063 -0.0171417,0.103614 -0.00423228,0.0286063 -0.00827559,0.0584016 -0.0121063,0.089311 -0.00828346,0.0667992 -0.0155866,0.138835 -0.0217677,0.2155 -0.00234252,0.0290354 -0.00452362,0.0587244 -0.00653543,0.0890512 -0.00464961,0.0700157 -0.0083937,0.143386 -0.0111496,0.219709 -0.000964567,0.0267638 -0.00181102,0.0538898 -0.00252756,0.0813622 -0.000129921,0.0049252 -0.000251969,0.00986614 -0.000374016,0.014815 -0.00172835,0.0709724 -0.00255512,0.141736 -0.00253543,0.211843 1.1811e-005,0.0258504 0.000133858,0.0516142 0.000370079,0.0772598z"/>
    <path id="_277000096" class="fil5" d="M2.55015 4.74104c0.000275591,0.0491063 0.00111024,0.0986969 0.00248819,0.148748 -0.180551,-0.0349961 -0.359134,-0.0337638 -0.535575,0.00694882 0.00217323,-0.0537008 0.00415354,-0.10722 0.00572441,-0.161106 0.170409,0.0230197 0.345146,0.0289646 0.527362,0.00540945z"/>
    <path id="_277000120" class="fil5" d="M2.55671 5.0263c0.00238976,0.0513268 0.00534646,0.10313 0.00885039,0.155386 -0.189362,-0.0397913 -0.376567,-0.0399449 -0.561417,0.00326378 0.0020748,-0.0550551 0.00435827,-0.108965 0.0066378,-0.162283 0.176201,0.0239882 0.357016,0.0297874 0.545929,0.00363386z"/>
    <path id="_276999880" class="fil5" d="M2.54959 4.4541c-0.0019685,0.0482795 -0.00335827,0.0970709 -0.00416535,0.14637 -0.177055,-0.0330039 -0.352213,-0.0310748 -0.525307,0.00884646 0.000767717,-0.053 0.000984252,-0.106756 0.000444882,-0.16178 0.170949,0.0234528 0.346232,0.0298307 0.529028,0.00656299z"/>
   </g>
   <g>
    <path id="_277000240" class="fil1" d="M4.24596 3.77102l7.87402e-006 -2.72933c0,-0.101449 0.0831811,-0.184657 0.18465,-0.184657l0.188287 0c0.0795591,0 0.145016,0.0654606 0.145016,0.14502l0 2.76829c0.00162992,0.123799 -0.517961,0.157283 -0.517961,0.000677165z"/>
    <line id="_277000360" class="fil3" x1="4.5046" y1="5.80589" x2="4.50494" y2= "5.80588" />
    <path id="_277000168" class="fil6" d="M4.16474 3.68546l0.673634 0c0.0688898,1.9685e-005 0.106197,0.0162992 0.0906457,0.0987362 -0.0985118,0.521728 -0.0965827,1.1148 0.00238189,1.76637 0,0.558736 -0.85289,0.558772 -0.852902,3.93701e-006 0,-0.65539 0.0934094,-1.07337 0.00023622,-1.77779 -1.9685e-005,-0.00015748 -0.000224409,-0.00175984 -0.000244094,-0.00175984 0,-0.0472795 0.038815,-0.086189 0.086248,-0.085563z"/>
    <path id="_277000312" class="fil5" d="M4.83231 4.65406c0.000362205,0.0491063 0.00145669,0.0986969 0.00326772,0.148748 -0.237354,-0.0349921 -0.472126,-0.0337598 -0.704075,0.00694882 0.00285433,-0.0536969 0.00546063,-0.10722 0.00752756,-0.161102 0.22402,0.0230157 0.453732,0.0289646 0.69328,0.00540551z"/>
    <path id="_276999304" class="fil5" d="M4.84223 4.93931c0.00314173,0.0513268 0.00702756,0.10313 0.0116339,0.15539 -0.248937,-0.0397953 -0.495039,-0.0399488 -0.738047,0.00325984 0.00272835,-0.0550512 0.00572835,-0.108965 0.00872441,-0.16228 0.231638,0.0239843 0.469339,0.0297835 0.717689,0.00362992z"/>
    <path id="_276998968" class="fil5" d="M4.83878 4.36712c-0.00259055,0.0482756 -0.00441339,0.0970709 -0.00547638,0.14637 -0.23276,-0.0330039 -0.463028,-0.0310748 -0.690579,0.00884252 0.00101181,-0.0529961 0.00129528,-0.106756 0.000582677,-0.161776 0.224736,0.0234488 0.455165,0.0298268 0.695472,0.00656299z"/>
    <path id="_276998872" class="fil7" d="M4.68965 1.03785c-0.0251102,-0.000165354 -0.0455827,0.0200472 -0.0457402,0.0451575 -0.000165354,0.0251142 0.0200433,0.0455827 0.0451575,0.0457441l0.40202 0.0025748c0.0251142,0.000165354 0.0455827,-0.0200433 0.0457441,-0.0451575 0.000161417,-0.0251142 -0.0200472,-0.0455827 -0.0451614,-0.0457441l-0.40202 -0.0025748z"/>
    <path id="_276999208" class="fil7" d="M4.68965 1.41302c-0.0251142,-0.000165354 -0.0455827,0.0200433 -0.0457441,0.0451575 -0.000161417,0.0251142 0.0200472,0.0455827 0.0451614,0.0457402l0.40202 0.00257874c0.0251102,0.000165354 0.0455827,-0.0200472 0.0457402,-0.0451575 0.000165354,-0.0251142 -0.0200472,-0.0455827 -0.0451575,-0.0457441l-0.40202 -0.0025748z"/>
    <path id="_276999016" class="fil7" d="M4.68965 1.78819c-0.0251102,-0.000161417 -0.0455827,0.0200472 -0.0457402,0.0451614 -0.000165354,0.0251102 0.0200472,0.0455827 0.0451575,0.0457402l0.40202 0.00257874c0.0251142,0.000161417 0.0455827,-0.0200472 0.0457441,-0.0451614 0.000161417,-0.0251102 -0.0200472,-0.0455827 -0.0451614,-0.0457402l-0.40202 -0.00257874z"/>
    <path id="_276998272" class="fil7" d="M4.68965 2.19189c-0.0251142,-0.000161417 -0.0455827,0.0200472 -0.0457402,0.0451614 -0.000165354,0.0251102 0.0200433,0.0455827 0.0451575,0.0457402l0.40202 0.00257874c0.0251142,0.000161417 0.0455827,-0.0200472 0.0457441,-0.0451614 0.000161417,-0.0251102 -0.0200472,-0.0455827 -0.0451614,-0.0457402l-0.40202 -0.00257874z"/>
    <path id="_276998488" class="fil7" d="M4.68965 2.53852c-0.0251102,-0.000165354 -0.0455827,0.0200472 -0.0457402,0.0451575 -0.000165354,0.0251142 0.0200472,0.0455827 0.0451575,0.0457441l0.40202 0.0025748c0.0251142,0.000165354 0.0455827,-0.0200472 0.0457441,-0.0451575 0.000161417,-0.0251142 -0.0200472,-0.0455827 -0.0451614,-0.0457441l-0.40202 -0.0025748z"/>
    <path id="_276998104" class="fil7" d="M4.68965 2.91369c-0.0251142,-0.000165354 -0.0455827,0.0200472 -0.0457402,0.0451575 -0.000165354,0.0251142 0.0200433,0.0455827 0.0451575,0.0457441l0.40202 0.0025748c0.0251142,0.000165354 0.0455827,-0.0200433 0.0457441,-0.0451575 0.000161417,-0.0251142 -0.0200472,-0.0455827 -0.0451614,-0.0457441l-0.40202 -0.0025748z"/>
    <path id="_276998824" class="fil7" d="M4.68965 3.28886c-0.0251102,-0.000161417 -0.0455827,0.0200472 -0.0457402,0.0451614 -0.000165354,0.0251102 0.0200472,0.0455827 0.0451575,0.0457402l0.40202 0.00257874c0.0251142,0.000161417 0.0455827,-0.0200472 0.0457441,-0.0451614 0.000161417,-0.0251102 -0.0200472,-0.0455827 -0.0451614,-0.0457402l-0.40202 -0.00257874z"/>
    <path id="_276998584" class="fil7" d="M4.68965 1.22504c-0.0251102,-0.000165354 -0.0455827,0.0200433 -0.0457402,0.0451575 -0.000165354,0.0251142 0.0200433,0.0455827 0.0451575,0.0457441l0.40202 0.0025748c0.0251142,0.000165354 0.0455827,-0.0200472 0.0457441,-0.0451575 0.000161417,-0.0251142 -0.0200472,-0.0455827 -0.0451614,-0.0457441l-0.40202 -0.0025748z"/>
    <path id="_276998008" class="fil7" d="M4.68965 1.6002c-0.0251142,-0.000161417 -0.0455827,0.0200472 -0.0457441,0.0451614 -0.000161417,0.0251102 0.0200472,0.0455827 0.0451614,0.0457402l0.40202 0.00257874c0.0251102,0.000161417 0.0455827,-0.0200472 0.0457402,-0.0451614 0.000165354,-0.0251102 -0.0200472,-0.0455827 -0.0451575,-0.0457402l-0.40202 -0.00257874z"/>
    <path id="_276997624" class="fil7" d="M4.68965 1.97537c-0.0251102,-0.000161417 -0.0455827,0.0200472 -0.0457402,0.0451614 -0.000165354,0.0251102 0.0200472,0.0455827 0.0451575,0.0457402l0.40202 0.00257874c0.0251142,0.000161417 0.0455827,-0.0200472 0.0457441,-0.0451614 0.000161417,-0.0251102 -0.0200472,-0.0455827 -0.0451614,-0.0457402l-0.40202 -0.00257874z"/>
    <path id="_276997312" class="fil7" d="M4.68965 2.37907c-0.0251142,-0.000161417 -0.0455827,0.0200472 -0.0457402,0.0451614 -0.000165354,0.0251102 0.0200433,0.0455827 0.0451575,0.0457402l0.40202 0.00257874c0.0251142,0.000161417 0.0455827,-0.0200472 0.0457441,-0.0451614 0.000161417,-0.0251102 -0.0200472,-0.0455827 -0.0451614,-0.0457402l-0.40202 -0.00257874z"/>
    <path id="_276997480" class="fil7" d="M4.68965 2.72571c-0.0251102,-0.000165354 -0.0455827,0.0200433 -0.0457402,0.0451575 -0.000165354,0.0251142 0.0200472,0.0455827 0.0451575,0.0457402l0.40202 0.00257874c0.0251142,0.000161417 0.0455827,-0.0200472 0.0457441,-0.0451575 0.000161417,-0.0251142 -0.0200472,-0.0455866 -0.0451614,-0.0457441l-0.40202 -0.0025748z"/>
    <path id="_276997648" class="fil7" d="M4.68965 3.10087c-0.0251142,-0.000165354 -0.0455827,0.0200433 -0.0457402,0.0451575 -0.000165354,0.0251142 0.0200433,0.0455827 0.0451575,0.0457441l0.40202 0.0025748c0.0251142,0.000165354 0.0455827,-0.0200472 0.0457441,-0.0451575 0.000161417,-0.0251142 -0.0200472,-0.0455827 -0.0451614,-0.0457441l-0.40202 -0.0025748z"/>
    <path id="_276997432" class="fil7" d="M4.68965 3.47604c-0.0251102,-0.000165354 -0.0455827,0.0200472 -0.0457402,0.0451575 -0.000165354,0.0251142 0.0200472,0.0455866 0.0451575,0.0457441l0.40202 0.0025748c0.0251142,0.000165354 0.0455827,-0.0200433 0.0457441,-0.0451575 0.000161417,-0.0251142 -0.0200472,-0.0455827 -0.0451614,-0.0457402l-0.40202 -0.00257874z"/>
    <path id="_276996736" class="fil7" d="M3.92643 1.03785c-0.0251102,-0.000165354 -0.0455827,0.0200472 -0.0457402,0.0451575 -0.000165354,0.0251142 0.0200433,0.0455827 0.0451575,0.0457441l0.40202 0.0025748c0.0251142,0.000165354 0.0455827,-0.0200433 0.0457441,-0.0451575 0.000161417,-0.0251142 -0.0200472,-0.0455827 -0.0451614,-0.0457441l-0.40202 -0.0025748z"/>
    <path id="_276997264" class="fil7" d="M3.92643 1.41302c-0.0251142,-0.000165354 -0.0455827,0.0200433 -0.0457441,0.0451575 -0.000161417,0.0251142 0.0200472,0.0455827 0.0451614,0.0457402l0.40202 0.00257874c0.0251102,0.000165354 0.0455827,-0.0200472 0.0457402,-0.0451575 0.000165354,-0.0251142 -0.0200472,-0.0455827 -0.0451575,-0.0457441l-0.40202 -0.0025748z"/>
    <path id="_276997168" class="fil7" d="M3.92643 1.78819c-0.0251102,-0.000161417 -0.0455827,0.0200472 -0.0457402,0.0451614 -0.000165354,0.0251102 0.0200433,0.0455827 0.0451575,0.0457402l0.40202 0.00257874c0.0251142,0.000161417 0.0455827,-0.0200472 0.0457441,-0.0451614 0.000161417,-0.0251102 -0.0200472,-0.0455827 -0.0451614,-0.0457402l-0.40202 -0.00257874z"/>
    <path id="_276997240" class="fil7" d="M3.92643 2.19189c-0.0251142,-0.000161417 -0.0455827,0.0200472 -0.0457402,0.0451614 -0.000165354,0.0251102 0.0200433,0.0455827 0.0451575,0.0457402l0.40202 0.00257874c0.0251142,0.000161417 0.0455827,-0.0200472 0.0457441,-0.0451614 0.000161417,-0.0251102 -0.0200472,-0.0455827 -0.0451614,-0.0457402l-0.40202 -0.00257874z"/>
    <path id="_276996544" class="fil7" d="M3.92643 2.53852c-0.0251102,-0.000165354 -0.0455827,0.0200472 -0.0457402,0.0451575 -0.000165354,0.0251142 0.0200433,0.0455827 0.0451575,0.0457441l0.40202 0.0025748c0.0251142,0.000165354 0.0455827,-0.0200472 0.0457441,-0.0451575 0.000161417,-0.0251142 -0.0200472,-0.0455827 -0.0451614,-0.0457441l-0.40202 -0.0025748z"/>
    <path id="_276995944" class="fil7" d="M3.92643 2.91369c-0.0251142,-0.000165354 -0.0455827,0.0200472 -0.0457402,0.0451575 -0.000165354,0.0251142 0.0200433,0.0455827 0.0451575,0.0457441l0.40202 0.0025748c0.0251142,0.000165354 0.0455827,-0.0200433 0.0457441,-0.0451575 0.000161417,-0.0251142 -0.0200472,-0.0455827 -0.0451614,-0.0457441l-0.40202 -0.0025748z"/>
    <path id="_276995848" class="fil7" d="M3.92643 3.28886c-0.0251102,-0.000161417 -0.0455827,0.0200472 -0.0457402,0.0451614 -0.000165354,0.0251102 0.0200433,0.0455827 0.0451575,0.0457402l0.40202 0.00257874c0.0251142,0.000161417 0.0455827,-0.0200472 0.0457441,-0.0451614 0.000161417,-0.0251102 -0.0200472,-0.0455827 -0.0451614,-0.0457402l-0.40202 -0.00257874z"/>
    <path id="_276996304" class="fil7" d="M3.92643 1.22504c-0.0251102,-0.000165354 -0.0455827,0.0200433 -0.0457402,0.0451575 -0.000165354,0.0251142 0.0200433,0.0455827 0.0451575,0.0457441l0.40202 0.0025748c0.0251142,0.000165354 0.0455827,-0.0200472 0.0457441,-0.0451575 0.000161417,-0.0251142 -0.0200472,-0.0455827 -0.0451614,-0.0457441l-0.40202 -0.0025748z"/>
    <path id="_276996016" class="fil7" d="M3.92643 1.6002c-0.0251142,-0.000161417 -0.0455827,0.0200472 -0.0457441,0.0451614 -0.000161417,0.0251102 0.0200472,0.0455827 0.0451614,0.0457402l0.40202 0.00257874c0.0251102,0.000161417 0.0455827,-0.0200472 0.0457402,-0.0451614 0.000165354,-0.0251102 -0.0200472,-0.0455827 -0.0451575,-0.0457402l-0.40202 -0.00257874z"/>
    <path id="_276996520" class="fil7" d="M3.92643 1.97537c-0.0251102,-0.000161417 -0.0455827,0.0200472 -0.0457402,0.0451614 -0.000165354,0.0251102 0.0200433,0.0455827 0.0451575,0.0457402l0.40202 0.00257874c0.0251142,0.000161417 0.0455827,-0.0200472 0.0457441,-0.0451614 0.000161417,-0.0251102 -0.0200472,-0.0455827 -0.0451614,-0.0457402l-0.40202 -0.00257874z"/>
    <path id="_276995248" class="fil7" d="M3.92643 2.37907c-0.0251142,-0.000161417 -0.0455827,0.0200472 -0.0457402,0.0451614 -0.000165354,0.0251102 0.0200433,0.0455827 0.0451575,0.0457402l0.40202 0.00257874c0.0251142,0.000161417 0.0455827,-0.0200472 0.0457441,-0.0451614 0.000161417,-0.0251102 -0.0200472,-0.0455827 -0.0451614,-0.0457402l-0.40202 -0.00257874z"/>
    <path id="_276995488" class="fil7" d="M3.92643 2.72571c-0.0251102,-0.000165354 -0.0455827,0.0200433 -0.0457402,0.0451575 -0.000165354,0.0251142 0.0200433,0.0455827 0.0451575,0.0457402l0.40202 0.00257874c0.0251142,0.000161417 0.0455827,-0.0200472 0.0457441,-0.0451575 0.000161417,-0.0251142 -0.0200472,-0.0455866 -0.0451614,-0.0457441l-0.40202 -0.0025748z"/>
    <path id="_276995632" class="fil7" d="M3.92643 3.10087c-0.0251142,-0.000165354 -0.0455827,0.0200433 -0.0457402,0.0451575 -0.000165354,0.0251142 0.0200433,0.0455827 0.0451575,0.0457441l0.40202 0.0025748c0.0251142,0.000165354 0.0455827,-0.0200472 0.0457441,-0.0451575 0.000161417,-0.0251142 -0.0200472,-0.0455827 -0.0451614,-0.0457441l-0.40202 -0.0025748z"/>
    <path id="_276995008" class="fil7" d="M3.92643 3.47604c-0.0251102,-0.000165354 -0.0455827,0.0200472 -0.0457402,0.0451575 -0.000165354,0.0251142 0.0200433,0.0455866 0.0451575,0.0457441l0.40202 0.0025748c0.0251142,0.000165354 0.0455827,-0.0200433 0.0457441,-0.0451575 0.000161417,-0.0251142 -0.0200472,-0.0455827 -0.0451614,-0.0457402l-0.40202 -0.00257874z"/>
    <circle id="_276995680" class="fil7" cx="4.50876" cy="1.18399" r="0.0429683"/>
    <circle id="_276995272" class="fil7" cx="4.50876" cy="1.36738" r="0.0429683"/>
    <circle id="_276995752" class="fil7" cx="4.50876" cy="1.55077" r="0.0429683"/>
    <circle id="_276994936" class="fil7" cx="4.50876" cy="1.73417" r="0.0429683"/>
    <circle id="_276994816" class="fil7" cx="4.50876" cy="1.91757" r="0.0429683"/>
    <circle id="_276994720" class="fil7" cx="4.50876" cy="2.10096" r="0.0429683"/>
    <circle id="_276994960" class="fil7" cx="4.50876" cy="2.28435" r="0.0429683"/>
    <circle id="_276994432" class="fil7" cx="4.50876" cy="2.46775" r="0.0429683"/>
    <circle id="_276994696" class="fil7" cx="4.50876" cy="2.65114" r="0.0429683"/>
    <circle id="_276994336" class="fil7" cx="4.50876" cy="2.83454" r="0.0429683"/>
    <circle id="_276994768" class="fil7" cx="4.49713" cy="3.06135" r="0.0429683"/>
    <circle id="_276994120" class="fil7" cx="4.49422" cy="3.25035" r="0.0429683"/>
    <circle id="_276994168" class="fil7" cx="4.49713" cy="3.44518" r="0.0429683"/>
   </g>
  </g>
  <rect class="fil8" width="6.82666" height="6.82666"/>
 </g>
</svg>
