<?xml version="1.0" encoding="UTF-8"?>
<!DOCTYPE svg PUBLIC "-//W3C//DTD SVG 1.1//EN" "http://www.w3.org/Graphics/SVG/1.1/DTD/svg11.dtd">
<!-- Creator: CorelDRAW -->
<svg xmlns="http://www.w3.org/2000/svg" xml:space="preserve" width="6.82666in" height="6.82666in" style="shape-rendering:geometricPrecision; text-rendering:geometricPrecision; image-rendering:optimizeQuality; fill-rule:evenodd; clip-rule:evenodd"
viewBox="0 0 6.82666 6.82666"
 xmlns:xlink="http://www.w3.org/1999/xlink">
 <defs>
  <style type="text/css">
   <![CDATA[
    .fil4 {fill:none}
    .fil2 {fill:#B6B6B6}
    .fil3 {fill:#C2C2C2}
    .fil0 {fill:#C9C9C9;fill-rule:nonzero}
    .fil1 {fill:#DEDEDE;fill-rule:nonzero}
   ]]>
  </style>
 </defs>
 <g id="Layer_x0020_1">
  <metadata id="CorelCorpID_0Corel-Layer"/>
  <path class="fil0" d="M4.72703 3.46011c0.263287,0.0733031 0.494311,0.219492 0.667043,0.420248 0.20176,0.2345 0.323406,0.542512 0.323406,0.894709l-0.000429134 0c-0.00430315,1.7481 0.0169409,-0.157276 -0.00011811,0.0173346 -0.00381496,0.354339 -0.12424,0.648012 -0.33778,0.854846 -0.215177,0.208421 -0.521555,0.326083 -0.89489,0.326083l0 -0.000429134 -0.00733071 -1.5748e-005 0 -0.109496 -0.000244094 0.109921c-0.00332677,-7.87402e-006 -0.00661417,-0.000169291 -0.00986614,-0.000468504l-2.28639 -0.0100197 0.000429134 -0.109496 -0.000484252 0.109921c-0.00966929,-3.93701e-005 -0.0190433,-0.00133071 -0.0279724,-0.00372047 -0.962264,-0.193862 -1.35265,-1.38732 -0.788366,-2.15831 0.145339,-0.198583 0.342972,-0.356445 0.572571,-0.453299 -0.188744,-0.460272 0.136976,-0.709421 0.499673,-0.915445 -0.120311,-0.232807 0.00719291,-0.419307 0.220311,-0.589807 0.095311,-0.076252 0.206079,-0.146736 0.316831,-0.21722 0.106539,-0.0677913 0.213075,-0.135591 0.297925,-0.203472 0.147811,-0.118248 0.232248,-0.243244 0.115177,-0.38963 -0.00643307,0.00514961 -0.059626,-0.0930669 0.0167402,-0.154157 0.0202874,-0.0162283 0.044563,-0.0240984 0.0686693,-0.0240827 0,-0.00409843 0.0962756,0.0095315 0.10461,0.0112835 0.26524,0.0556378 0.508913,0.321173 0.683736,0.638843 0.169409,0.307827 0.278283,0.670232 0.278283,0.932657 0,0.028752 -0.00133465,0.0567244 -0.00405906,0.0837559 0.0127638,0.0101181 0.0250591,0.0202677 0.0368898,0.0304528 0.293764,0.252835 0.362433,0.57661 0.155638,0.90902z"/>
  <path class="fil1" d="M2.52966 5.43837c0.0607087,0 0.109925,-0.0492165 0.109925,-0.109925 0,-0.0607087 -0.0492165,-0.109925 -0.109925,-0.109925 -0.177795,0 -0.338764,-0.0720669 -0.45526,-0.188563 -0.116496,-0.116496 -0.188563,-0.277465 -0.188563,-0.45526 0,-0.0900079 0.0185197,-0.177504 0.0533346,-0.257378 0.0349803,-0.080248 0.0864409,-0.153461 0.152138,-0.214508 0.0443465,-0.0412598 0.0468425,-0.110661 0.00558268,-0.155004 -0.0412598,-0.0443465 -0.110661,-0.0468465 -0.155008,-0.00558268 -0.0877795,0.081563 -0.156669,0.179697 -0.203665,0.2875 -0.0471457,0.108177 -0.0722323,0.225472 -0.0722323,0.344972 0,0.238472 0.0966811,0.454406 0.252976,0.610697 0.156291,0.156295 0.37222,0.252976 0.610697,0.252976z"/>
  <path class="fil2" d="M2.43442 2.43352c0.560894,-0.225 1.76931,-0.164311 2.1007,0.0806102 0.00230315,-0.0250079 0.00343307,-0.0507992 0.00343307,-0.077252 0,-0.262425 -0.108874,-0.624831 -0.278283,-0.932657 -0.174823,-0.317669 -0.418496,-0.583205 -0.683736,-0.638843 -0.00833465,-0.00175197 -0.10461,-0.0153819 -0.10461,-0.0112835 -0.0241063,-1.5748e-005 -0.0483819,0.00785433 -0.0686693,0.0240827 -0.0763661,0.0610906 -0.0231732,0.159307 -0.0167402,0.154157 0.117071,0.146386 0.0326339,0.271382 -0.115177,0.38963 -0.0848504,0.0678819 -0.191386,0.135681 -0.297925,0.203472 -0.110752,0.0704843 -0.22152,0.140969 -0.316831,0.21722 -0.213118,0.1705 -0.340622,0.357 -0.220311,0.589807 -0.00061811,0.000350394 -0.00123622,0.000700787 -0.00185433,0.00105512z"/>
  <path class="fil3" d="M2.45808 3.23087c0.356071,0 0.679878,0.138138 0.920756,0.363744 0.222441,-0.162157 0.496441,-0.257843 0.792787,-0.257843 0.198752,0 0.387449,0.0430394 0.557283,0.120303 0.204492,-0.331343 0.13535,-0.653917 -0.15752,-0.90598 -0.0118307,-0.010185 -0.024126,-0.0203346 -0.0368898,-0.0304528 0.000216535,-0.00216142 0.000425197,-0.00433071 0.000625984,-0.00650394 -0.331394,-0.244921 -1.53981,-0.30561 -2.1007,-0.0806102 -0.359157,0.204228 -0.681232,0.451059 -0.502091,0.903787 0.161539,-0.0685354 0.33922,-0.106445 0.525752,-0.106445z"/>
  <rect class="fil4" width="6.82666" height="6.82666"/>
 </g>
</svg>
