<?xml version="1.0" encoding="UTF-8"?>
<!DOCTYPE svg PUBLIC "-//W3C//DTD SVG 1.1//EN" "http://www.w3.org/Graphics/SVG/1.1/DTD/svg11.dtd">
<!-- Creator: CorelDRAW -->
<svg xmlns="http://www.w3.org/2000/svg" xml:space="preserve" width="6.82666in" height="6.82666in" style="shape-rendering:geometricPrecision; text-rendering:geometricPrecision; image-rendering:optimizeQuality; fill-rule:evenodd; clip-rule:evenodd"
viewBox="0 0 6.82666 6.82666"
 xmlns:xlink="http://www.w3.org/1999/xlink">
 <defs>
  <style type="text/css">
   <![CDATA[
    .fil7 {fill:none}
    .fil5 {fill:#2F2F2F}
    .fil6 {fill:#A1A1A1}
    .fil1 {fill:#444444;fill-rule:nonzero}
    .fil2 {fill:#4C4C4C;fill-rule:nonzero}
    .fil0 {fill:#565656;fill-rule:nonzero}
    .fil4 {fill:#5F5F5F;fill-rule:nonzero}
    .fil3 {fill:#B1B1B1;fill-rule:nonzero}
   ]]>
  </style>
 </defs>
 <g id="Layer_x0020_1">
  <metadata id="CorelCorpID_0Corel-Layer"/>
  <g id="_277004224">
   <path id="_277005712" class="fil0" d="M3.14541 4.39979l0.241783 0c0.0534094,0 0.0967126,0.0481181 0.0967126,0.107469l0 0.949728c0.143929,0.0209252 0.290339,0.0615551 0.416992,0.109803 0.177516,0.067626 0.322843,0.155126 0.378657,0.230409l0.000271654 -0.000255906c0.0339488,0.0458189 0.0280433,0.113551 -0.013189,0.151276 -0.0203504,0.0186181 -0.0455039,0.0264409 -0.0698465,0.0240906l-1.86977 0.000602362 0 0.000413386c-0.0534134,1.5748e-005 -0.0967244,-0.0480827 -0.0967402,-0.107433 -7.87402e-006,-0.0298031 0.0109055,-0.0567756 0.0285354,-0.0762441 0.0644331,-0.0806063 0.194205,-0.150374 0.337996,-0.205232 0.154268,-0.0588543 0.330331,-0.103843 0.451886,-0.125346l0 -0.951811c0,-0.0593504 0.0433031,-0.107469 0.0967126,-0.107469z"/>
   <path id="_277005688" class="fil1" d="M2.96529 4.45505l0.602079 0c0.0288465,0 0.0522323,0.0217323 0.0522323,0.0485354l0 0.194142c0,0.0268031 -0.0233858,0.0485354 -0.0522323,0.0485354l-0.602079 0c-0.0288465,0 -0.0522323,-0.0217323 -0.0522323,-0.0485354l0 -0.194142c0,-0.0268031 0.0233858,-0.0485354 0.0522323,-0.0485354z"/>
   <path id="_277005520" class="fil2" d="M2.64691 3.96991l1.23882 0c0.0593543,0 0.107472,0.0481181 0.107472,0.107472l0 0.429874c0,0.0593543 -0.0481181,0.107472 -0.107472,0.107472l-1.23882 0c-0.0593543,0 -0.107472,-0.0481181 -0.107472,-0.107472l0 -0.429874c0,-0.0593543 0.0481181,-0.107472 0.107472,-0.107472z"/>
   <path id="_277005376" class="fil3" d="M1.52253 0.853339l0.295732 0c0.107937,0 0.211657,0.0434409 0.292248,0.113394 0.0803071,0.0697087 0.138465,0.166748 0.155476,0.274098 0.00409055,0.451555 0.0659685,0.881453 0.203382,1.28302 0.00359055,0.0226693 0.00533071,0.0435039 0.00533071,0.0624646 0,0.0892677 -0.0311732,0.170386 -0.0847362,0.233299 -0.0534961,0.0628268 -0.128579,0.106217 -0.216496,0.12015 -0.0214213,0.00338976 -0.0420276,0.00516142 -0.0615748,0.00516142l-0.296823 0c-0.056937,0 -0.103528,-0.0442835 -0.107224,-0.100283l-0.292169 -1.86729 -0.000417323 6.69291e-005c-0.00916929,-0.0586378 0.0309291,-0.113622 0.0895669,-0.122791 0.00595276,-0.000933071 0.0118661,-0.00135039 0.0177047,-0.00129134z"/>
   <path id="_277005136" class="fil4" d="M4.47094 4.11278c-0.0185472,-0.0561063 -0.0790709,-0.0865551 -0.135177,-0.0680079 -0.0561063,0.0185472 -0.0865551,0.0790709 -0.0680079,0.135177l0.42987 1.28962 -0.000358268 0.000401575c0.0152598,0.0457913 0.0583622,0.0744646 0.104213,0.0734843l0.535083 0c0.0593504,0 0.107472,-0.0481181 0.107472,-0.107469 0,-0.0593543 -0.048122,-0.107472 -0.107472,-0.107472l-0.460378 0 -0.405244 -1.21573z"/>
   <path id="_277004560" class="fil1" d="M1.48081 1.90127c-0.0584213,0.0101969 -0.0975118,0.0658346 -0.087315,0.12426 0.0101969,0.0584252 0.0658386,0.0975157 0.12426,0.087315l0.124831 -0.0175472c0.0584252,-0.0101969 0.0975157,-0.0658346 0.087315,-0.12426 -0.0101969,-0.0584252 -0.0658346,-0.0975157 -0.12426,-0.0873189l-0.124831 0.0175512z"/>
   <path id="_277004416" class="fil3" d="M4.74221 3.95559c-0.000787402,-0.0137047 -0.00171654,-0.0271693 -0.00280709,-0.0403976 -0.0135551,-0.164933 -0.050815,-0.292917 -0.122161,-0.388614 -0.251512,-0.337386 -2.11344,-0.195902 -2.64888,-0.195902l-0.000566929 -0.00396457 -0.000129921 0.00103937 0.0945512 0.646882 2.67999 -0.0190433z"/>
   <path id="_277004368" class="fil4" d="M1.62765 0.945697c-0.00834646,-0.0586575 -0.0626693,-0.0994449 -0.121323,-0.0910984 -0.0586535,0.00834646 -0.0994449,0.0626693 -0.0910984,0.121323l0.445228 3.11657 -0.000181102 8.66142e-005c0.00767323,0.0537008 0.0538189,0.0924213 0.106563,0.0922717l0.103898 0 2.41887 0 0.148409 0c0.0593504,0 0.107469,-0.048122 0.107469,-0.107472 0,-0.0425472 -0.00105512,-0.083122 -0.00327559,-0.121791l-2.67999 0.0190433 -0.0945512 -0.646882 0.000129921 -0.00103937 -0.0490551 -0.343382 -0.291091 -2.03763z"/>
   <path id="_277004848" class="fil4" d="M1.78173 2.33743c-0.0593504,0 -0.107469,0.0481181 -0.107469,0.107469 0,0.0593543 0.0481181,0.107472 0.107469,0.107472l1.80816 0c0.0545,0 0.104134,0.022378 0.140185,0.0584291 0.0360472,0.0360512 0.0584291,0.085689 0.0584291,0.140185l0 1.2955c0,0.0593543 0.0481181,0.107472 0.107472,0.107472 0.0593504,0 0.107469,-0.0481181 0.107469,-0.107472l0 -1.2955c0,-0.113819 -0.0465,-0.21724 -0.121406,-0.292154 -0.0749055,-0.0749016 -0.178315,-0.121402 -0.29215,-0.121402l-1.80816 0z"/>
   <path id="_277004968" class="fil5" d="M1.40883 1.85745l0.0637165 -0.00904331 0.046685 0.328949 -0.0637165 0.00904331c-0.0350433,0.00497244 -0.0677795,-0.0196299 -0.072752,-0.0546732l-0.0286024 -0.201524c-0.00497244,-0.0350394 0.019626,-0.0677795 0.0546693,-0.072752z"/>
   <rect id="_277004272" class="fil6" x="4.90439" y="5.31037" width="0.568752" height="0.0854173"/>
  </g>
  <rect class="fil7" width="6.82666" height="6.82666"/>
 </g>
</svg>
