<?xml version="1.0" encoding="UTF-8"?>
<!DOCTYPE svg PUBLIC "-//W3C//DTD SVG 1.1//EN" "http://www.w3.org/Graphics/SVG/1.1/DTD/svg11.dtd">
<!-- Creator: CorelDRAW -->
<svg xmlns="http://www.w3.org/2000/svg" xml:space="preserve" width="6.82666in" height="6.82666in" style="shape-rendering:geometricPrecision; text-rendering:geometricPrecision; image-rendering:optimizeQuality; fill-rule:evenodd; clip-rule:evenodd"
viewBox="0 0 6.82666 6.82666"
 xmlns:xlink="http://www.w3.org/1999/xlink">
 <defs>
  <style type="text/css">
   <![CDATA[
    .fil5 {fill:none}
    .fil4 {fill:#2D2D2D;fill-rule:nonzero}
    .fil3 {fill:#3A3A3A;fill-rule:nonzero}
    .fil1 {fill:#545454;fill-rule:nonzero}
    .fil0 {fill:#757575;fill-rule:nonzero}
    .fil2 {fill:#8E8E8F;fill-rule:nonzero}
   ]]>
  </style>
 </defs>
 <g id="Layer_x0020_1">
  <metadata id="CorelCorpID_0Corel-Layer"/>
  <g id="_277009672">
   <path id="_277010680" class="fil0" d="M3.68725 3.77959c0.00584252,-0.0023189 0.0117441,-0.00345276 0.0187756,-0.00471654 -0.027,-0.0855197 -0.0677362,-0.269154 -0.0758937,-0.34652 -0.0786969,0.0632992 -0.153815,0.168878 -0.206488,0.254539l0.0676614 0.170618c0.00822835,-0.00585039 0.0176496,-0.0117441 0.0270787,-0.0151969l0.168866 -0.0587244z"/>
   <path id="_277010752" class="fil0" d="M3.243 2.70266c-0.0279646,0 -0.0233031,-0.517307 0.0186417,-0.885484 0.0394724,-0.346614 0.0978031,-0.960047 0.15839,-0.960047 0.0226693,0.00809843 -0.0980118,1.85483 -0.177031,1.84553z"/>
   <path id="_277010032" class="fil1" d="M4.43557 5.3226l0 0c-0.0222205,-0.189965 -0.11837,-0.34948 -0.248626,-0.44337 0,0 -0.101988,-0.0903071 -0.158394,-0.247433l-0.293287 -0.830559c-0.00590945,-0.0164567 -0.0199764,-0.0270079 -0.0362165,-0.0293268 -0.00119685,0 -0.00359449,-0.00112992 -0.00485827,-0.00112992 -0.0045748,0 -0.00927953,0.00112992 -0.0151929,0.00225591l-0.168866 0.0586535c-0.00710236,0.00239764 -0.0141339,0.00702756 -0.0187047,0.0129409 -0.00949606,0.011748 -0.0142126,0.0281299 -0.00830315,0.0433937l0.214728 0.606476c0.0784882,0.259185 -0.10213,0.440992 -0.10213,0.440992 -0.0716654,0.076311 -0.12202,0.17837 -0.144323,0.292165l-0.0319803 0.0316417c0.0070315,0.0527559 0.00822835,0.105579 0.00365354,0.159516l0.0225591 0.025815c0.038689,0.301445 0.262697,0.526728 0.514909,0.526728 0.0163898,0 0.0327756,-0.00119685 0.0504331,-0.00359449 0.272118,-0.0304488 0.463283,-0.320224 0.424598,-0.645165zm-0.444646 0.497398l0 0c-0.0127992,0.00119685 -0.0244764,0.00238976 -0.0374213,0.00238976 -0.188843,0 -0.356587,-0.170201 -0.383669,-0.396465 -0.0281299,-0.241665 0.113882,-0.457583 0.318055,-0.48213 0.0127953,-0.00119291 0.0245472,-0.00238976 0.0374094,-0.00238976 0.188913,0 0.356594,0.170134 0.383669,0.396539 0.0281417,0.241583 -0.113866,0.457437 -0.318043,0.482055z"/>
   <path id="_277009912" class="fil2" d="M3.41394 3.70454l0 0c0.0622362,-0.093815 0.145378,-0.202902 0.232236,-0.26163 0,0 -0.00105118,-0.0315827 -0.00464567,-0.0855276 -0.0234882,-0.425795 -0.127717,-2.50208 -0.206417,-2.50208 -0.000716535,0.00484646 -0.12787,1.7185 -0.183016,1.81578 -0.0585787,0.102118 -0.0446535,0.12202 -0.0481693,0.211205 -0.00337795,0.0820827 -0.0104094,0.490287 -0.0832717,0.892591 0.0105433,0 0.0211575,0.00239764 0.0317126,0.00590945l0.168866 0.0587283c0.00351969,0.00112992 0.00584252,0.00344882 0.00942913,0.00464173 0.0164567,-0.0317165 0.0457874,-0.0832756 0.0832756,-0.139614z"/>
   <path id="_277009840" class="fil3" d="M3.52886 2.95747l0 0c0,0.0655551 -0.052685,0.118366 -0.11837,0.118366 -0.0657598,0 -0.118441,-0.052811 -0.118441,-0.118366 0,-0.0658307 0.0526811,-0.118571 0.118441,-0.118571 0.065685,0 0.11837,0.0527402 0.11837,0.118571z"/>
   <path id="_277009600" class="fil4" d="M3.45639 2.95741l0 0c0,0.0254291 -0.020437,0.0459173 -0.0459213,0.0459173 -0.0255079,0 -0.0459449,-0.0204882 -0.0459449,-0.0459173 0,-0.0255394 0.020437,-0.046 0.0459449,-0.046 0.0254843,0 0.0459213,0.0204606 0.0459213,0.046z"/>
   <path id="_277010200" class="fil1" d="M2.81959 5.96515c0.0164646,0.00239764 0.0340433,0.00351969 0.0505079,0.00351969 0.253406,0 0.478461,-0.227528 0.514906,-0.53137 0,-0.0760945 0.00894882,-0.116295 -0.00485827,-0.197 -0.0198346,-0.120898 -0.071311,-0.227598 -0.146504,-0.307421 0,0 -0.180543,-0.181807 -0.101984,-0.441051l0.188913 -0.533693 0.0256024 -0.0727283c0.00471654,-0.0117402 0.00359055,-0.0246102 -0.0023189,-0.0352362 -0.00464173,-0.00935039 -0.0138504,-0.0175039 -0.0244764,-0.0222913l-0.00119291 0 -0.167886 -0.0586535c-0.00464567,-0.00112598 -0.00922047,-0.00225591 -0.015122,-0.00225591 -0.00232283,0 -0.0047126,0.00112992 -0.00830709,0.00112992 -0.0151181,0.0023189 -0.0280591,0.0128701 -0.0339606,0.0281339l-0.00822441 0.0234882 -0.011752 0.0316417 -0.274516 0.775429c-0.0550709,0.157126 -0.158248,0.2475 -0.158248,0.2475 -0.130319,0.0938228 -0.226398,0.253335 -0.248689,0.443303 -0.0138701,0.113563 0.000909449,0.172941 0.0245394,0.280496 0.0666772,0.213331 0.177559,0.34198 0.403571,0.367059zm-0.301516 -0.63102c0.0233819,-0.197028 0.170173,-0.396539 0.383669,-0.396539 0.0128701,0 0.0245472,0.00119685 0.0374055,0.00238976 0.20426,0.0245472 0.346114,0.240465 0.31798,0.48213 -0.0269331,0.227457 -0.194752,0.396465 -0.383665,0.396465 -0.0129291,0 -0.0246102,-0.00119291 -0.0374094,-0.00238976 -0.204114,-0.0246181 -0.346039,-0.240472 -0.31798,-0.482055z"/>
  </g>
  <rect class="fil5" width="6.82666" height="6.82666"/>
 </g>
</svg>
