<?xml version="1.0" encoding="UTF-8"?>
<!DOCTYPE svg PUBLIC "-//W3C//DTD SVG 1.1//EN" "http://www.w3.org/Graphics/SVG/1.1/DTD/svg11.dtd">
<!-- Creator: CorelDRAW -->
<svg xmlns="http://www.w3.org/2000/svg" xml:space="preserve" width="6.82666in" height="6.82666in" style="shape-rendering:geometricPrecision; text-rendering:geometricPrecision; image-rendering:optimizeQuality; fill-rule:evenodd; clip-rule:evenodd"
viewBox="0 0 6.82666 6.82666"
 xmlns:xlink="http://www.w3.org/1999/xlink">
 <defs>
  <style type="text/css">
   <![CDATA[
    .fil5 {fill:none}
    .fil4 {fill:none;fill-rule:nonzero}
    .fil3 {fill:#9B9B9C}
    .fil0 {fill:#767676;fill-rule:nonzero}
    .fil1 {fill:#888888;fill-rule:nonzero}
    .fil2 {fill:#ABABAB;fill-rule:nonzero}
   ]]>
  </style>
   <clipPath id="id0" style="clip-rule:nonzero">
    <path d="M2.05891 1.43972l2.81501 0c0.0589094,0 0.106669,0.0477598 0.106669,0.106669 0,0.00965748 -0.00129134,0.0190157 -0.00369685,0.0279134 -0.121579,0.681386 -0.00291339,1.45437 0.112768,2.2077 0.0794961,0.517685 0.157594,1.02627 0.157594,1.49828 0,0.0589094 -0.0477598,0.106669 -0.106669,0.106669l-2.8167 0c-0.0589094,0 -0.106669,-0.0477598 -0.106669,-0.106669 0,-0.439488 -0.0851378,-0.925957 -0.171756,-1.42088 -0.140004,-0.8 -0.283791,-1.62159 -0.0911575,-2.34051l-0.000114173 -0.000106299c0.0129252,-0.048248 0.0569449,-0.0798543 0.104724,-0.079063z"/>
   </clipPath>
 </defs>
 <g id="Layer_x0020_1">
  <metadata id="CorelCorpID_0Corel-Layer"/>
  <path class="fil0" d="M0.975528 1.70583c-0.0589094,0 -0.106669,0.0477598 -0.106669,0.106669 0,0.0589094 0.0477598,0.106669 0.106669,0.106669l0.171094 0c0.0589094,0 0.106669,-0.0477598 0.106669,-0.106669 0,-0.0589094 -0.0477598,-0.106669 -0.106669,-0.106669l-0.171094 0zm0.597764 0c-0.0589094,0 -0.106669,0.0477598 -0.106669,0.106669 0,0.0589094 0.0477598,0.106669 0.106669,0.106669l0.427323 0c0.0589094,0 0.106669,-0.0477598 0.106669,-0.106669 0,-0.0589094 -0.0477598,-0.106669 -0.106669,-0.106669l-0.427323 0zm3.26315 0c-0.0589094,0 -0.106669,0.0477598 -0.106669,0.106669 0,0.0589094 0.0477598,0.106669 0.106669,0.106669l0.424748 0c0.0589094,0 0.106669,-0.0477598 0.106669,-0.106669 0,-0.0589094 -0.0477598,-0.106669 -0.106669,-0.106669l-0.424748 0zm0.851417 0c-0.0589094,0 -0.106669,0.0477598 -0.106669,0.106669 0,0.0589094 0.0477598,0.106669 0.106669,0.106669l0.16328 0c0.0589094,0 0.106669,-0.0477598 0.106669,-0.106669 0,-0.0589094 -0.0477598,-0.106669 -0.106669,-0.106669l-0.16328 0z"/>
  <path class="fil1" d="M1.35996 1.4925c0.0883504,0 0.168358,0.0358268 0.226268,0.0937362 0.0579094,0.0579094 0.0937362,0.137913 0.0937362,0.226268 0,0.0883504 -0.0358268,0.168358 -0.0937362,0.226268 -0.0579094,0.0579094 -0.137917,0.0937362 -0.226268,0.0937362 -0.0883543,0 -0.168358,-0.0358268 -0.226268,-0.0937362 -0.0579094,-0.0579094 -0.0937362,-0.137917 -0.0937362,-0.226268 0,-0.0883543 0.0358268,-0.168358 0.0937362,-0.226268 0.0579094,-0.0579094 0.137913,-0.0937362 0.226268,-0.0937362z"/>
  <path class="fil1" d="M5.47452 1.4925c0.0883543,0 0.168358,0.0358268 0.226268,0.0937362 0.0579094,0.0579094 0.0937362,0.137913 0.0937362,0.226268 0,0.0883504 -0.0358268,0.168358 -0.0937362,0.226268 -0.0579094,0.0579094 -0.137913,0.0937362 -0.226268,0.0937362 -0.0883504,0 -0.168358,-0.0358268 -0.226268,-0.0937362 -0.0579094,-0.0579094 -0.0937362,-0.137917 -0.0937362,-0.226268 0,-0.0883543 0.0358268,-0.168358 0.0937362,-0.226268 0.0579094,-0.0579094 0.137917,-0.0937362 0.226268,-0.0937362z"/>
  <path class="fil2" d="M2.05891 1.43972l2.81501 0c0.0589094,0 0.106669,0.0477598 0.106669,0.106669 0,0.00965748 -0.00129134,0.0190157 -0.00369685,0.0279134 -0.121579,0.681386 -0.00291339,1.45437 0.112768,2.2077 0.0794961,0.517685 0.157594,1.02627 0.157594,1.49828 0,0.0589094 -0.0477598,0.106669 -0.106669,0.106669l-2.8167 0c-0.0589094,0 -0.106669,-0.0477598 -0.106669,-0.106669 0,-0.439488 -0.0851378,-0.925957 -0.171756,-1.42088 -0.140004,-0.8 -0.283791,-1.62159 -0.0911575,-2.34051l-0.000114173 -0.000106299c0.0129252,-0.048248 0.0569449,-0.0798543 0.104724,-0.079063z"/>
  <g style="clip-path:url(#id0)">
   <g id="_536457104">
    <path id="_5364565761" class="fil3" d="M2.19598 5.85159c0.0170512,-0.0425906 0.034878,-0.085185 0.0519291,-0.128272 0.0170551,0.0430866 0.0333307,0.0856811 0.0503819,0.128272 -0.0182126,0.0430866 -0.0356535,0.0856772 -0.0530945,0.128268 -0.0166654,-0.0425906 -0.0333268,-0.0851811 -0.0492165,-0.128268zm3.16472 -4.69548c0.0507677,-0.0425906 0.102311,-0.0856772 0.153854,-0.128768 -0.0174409,0.0430906 -0.034878,0.0861772 -0.0523189,0.128768 -0.0519331,0.0430866 -0.103087,0.0856772 -0.144941,0.128268 0.0081378,-0.0425906 0.0255748,-0.0851811 0.0434055,-0.128268zm-0.205402 0c0.0496063,-0.0425906 0.0999882,-0.0856772 0.150756,-0.128768 -0.0166654,0.0430906 -0.0333307,0.0861772 -0.0499961,0.128768 -0.050378,0.0430866 -0.10076,0.0856772 -0.141843,0.128268 0.00775197,-0.0425906 0.0240276,-0.0851811 0.0410827,-0.128268zm-0.205791 0c0.0488346,-0.0425906 0.0984409,-0.0856772 0.148047,-0.128768 -0.0158898,0.0430906 -0.0313937,0.0861772 -0.0468937,0.128768 -0.0496063,0.0430866 -0.0988268,0.0856772 -0.13952,0.128268 0.0073622,-0.0425906 0.0228661,-0.0851811 0.0383661,-0.128268zm-0.205787 0c0.0476693,-0.0425906 0.0961142,-0.0856772 0.144945,-0.128768 -0.0147283,0.0430906 -0.0294528,0.0861772 -0.0437953,0.128768 -0.0488307,0.0430866 -0.0968858,0.0856772 -0.137193,0.128268 0.00697638,-0.0425906 0.0213189,-0.0851811 0.0360433,-0.128268zm-0.205402 0c0.0465079,-0.0425906 0.0941772,-0.0856772 0.141843,-0.128768 -0.0139488,0.0430906 -0.0275157,0.0861772 -0.040689,0.128768 -0.0476693,0.0430866 -0.0949528,0.0856772 -0.13448,0.128268 0.00620079,-0.0425906 0.0197638,-0.0851811 0.0333268,-0.128268zm-0.205787 0c0.0461181,-0.0425906 0.0922362,-0.0856772 0.138744,-0.128768 -0.0124016,0.0430906 -0.0251929,0.0861772 -0.0372047,0.128768 -0.0468937,0.0430866 -0.0930118,0.0856772 -0.132154,0.128268 0.00581102,-0.0425906 0.0182126,-0.0851811 0.0306142,-0.128268zm-0.205402 0c0.0445709,-0.0425906 0.0899134,-0.0856772 0.135256,-0.128768 -0.011626,0.0430906 -0.0228661,0.0861772 -0.0344921,0.128768 -0.0453425,0.0430866 -0.090685,0.0856772 -0.129441,0.128268 0.00581102,-0.0425906 0.0170512,-0.0851811 0.0286772,-0.128268zm-0.205787 0c0.0437913,-0.0425906 0.0879724,-0.0856772 0.132543,-0.128768 -0.0104646,0.0430906 -0.0209291,0.0861772 -0.0313937,0.128768 -0.0445669,0.0430866 -0.088748,0.0856772 -0.127114,0.128268 0.0054252,-0.0425906 0.0155,-0.0851811 0.0259646,-0.128268zm-0.205787 0c0.0430157,-0.0425906 0.0864213,-0.0856772 0.129827,-0.128768 -0.00968898,0.0430906 -0.0189882,0.0861772 -0.0282913,0.128768 -0.0434055,0.0430866 -0.086811,0.0856772 -0.124402,0.128268 0.00464961,-0.0425906 0.013563,-0.0851811 0.0228661,-0.128268zm-0.205402 0c0.0414685,-0.0425906 0.0837087,-0.0856772 0.126343,-0.128768 -0.00852756,0.0430906 -0.0170551,0.0861772 -0.0251929,0.128768 -0.0426299,0.0430866 -0.0844843,0.0856772 -0.122079,0.128268 0.00426378,-0.0425906 0.0124016,-0.0851811 0.0209291,-0.128268zm-0.205402 0c0.0403071,-0.0425906 0.0817717,-0.0856772 0.12324,-0.128768 -0.00775197,0.0430906 -0.0151142,0.0861772 -0.0220906,0.128768 -0.0414685,0.0430866 -0.0825472,0.0856772 -0.119752,0.128268 0.00387402,-0.0425906 0.0108504,-0.0851811 0.0186024,-0.128268zm-0.205787 0c0.0395276,-0.0425906 0.0794488,-0.0856772 0.120138,-0.128768 -0.00620079,0.0430906 -0.0124016,0.0861772 -0.0189882,0.128768 -0.0403031,0.0430866 -0.0802244,0.0856772 -0.117429,0.128268 0.00348819,-0.0425906 0.00968898,-0.0851811 0.0162795,-0.128268zm-0.205787 0c0.038752,-0.0425906 0.0778976,-0.0856772 0.117039,-0.128768 -0.0054252,0.0430906 -0.0104646,0.0861772 -0.0158898,0.128768 -0.0391417,0.0430866 -0.0782874,0.0856772 -0.114717,0.128268 0.00310236,-0.0425906 0.0081378,-0.0851811 0.0135669,-0.128268zm-0.205402 0c0.0375906,-0.0425906 0.0755709,-0.0856772 0.113937,-0.128768 -0.00425984,0.0430906 -0.00852362,0.0861772 -0.0127874,0.128768 -0.0383661,0.0430866 -0.0763465,0.0856772 -0.112,0.128268 0.00232283,-0.0425906 0.00658661,-0.0851811 0.0108504,-0.128268zm-0.205787 0c0.0364291,-0.0425906 0.0736339,-0.0856772 0.110839,-0.128768 -0.00310236,0.0430906 -0.00620079,0.0861772 -0.00930315,0.128768 -0.0375906,0.0430866 -0.0744094,0.0856772 -0.110063,0.128268 0.00193701,-0.0425906 0.00503937,-0.0851811 0.00852756,-0.128268zm-0.205402 0c0.0352638,-0.0425906 0.0716969,-0.0856772 0.107736,-0.128768 -0.00232283,0.0430906 -0.00464961,0.0861772 -0.00658661,0.128768 -0.0364291,0.0430866 -0.0724724,0.0856772 -0.10735,0.128268 0.00154724,-0.0425906 0.00387402,-0.0851811 0.00620079,-0.128268zm-0.205402 0c0.0344921,-0.0425906 0.0693701,-0.0856772 0.104638,-0.128768 -0.00155118,0.0430906 -0.00232677,0.0861772 -0.00387402,0.128768 -0.0352677,0.0430866 -0.0701496,0.0856772 -0.104642,0.128268 0.00116535,-0.0425906 0.00232677,-0.0851811 0.00387795,-0.128268zm3.12054 0.275854c0.0379803,-0.0425906 0.0767323,-0.0851811 0.115488,-0.128272 -0.0054252,0.0430906 -0.0108504,0.0856811 -0.0158898,0.128272 -0.0387559,0.0430866 -0.0763465,0.0856772 -0.106189,0.128272 -0.00309843,-0.0425945 0.000775591,-0.085185 0.00659055,-0.128272zm-0.201913 0c0.0375906,-0.0425906 0.0759606,-0.0851811 0.114327,-0.128272 -0.00503937,0.0430906 -0.0100748,0.0856811 -0.0151142,0.128272 -0.0379803,0.0430866 -0.075185,0.0856772 -0.104638,0.128272 -0.00310236,-0.0425945 0.000385827,-0.085185 0.0054252,-0.128272zm-0.201913 0c0.0372047,-0.0425906 0.075185,-0.0851811 0.113551,-0.128272 -0.00503543,0.0430906 -0.00968898,0.0856811 -0.0139528,0.128272 -0.0379764,0.0430866 -0.0744094,0.0856772 -0.103472,0.128272 -0.00348819,-0.0425945 -0.000389764,-0.085185 0.00387402,-0.128272zm-0.201913 0c0.0364291,-0.0425906 0.0744094,-0.0851811 0.112004,-0.128272 -0.00465354,0.0430906 -0.00891732,0.0856811 -0.0127913,0.128272 -0.0372047,0.0430866 -0.0728583,0.0856772 -0.102311,0.128272 -0.00348819,-0.0425945 -0.000775591,-0.085185 0.00309843,-0.128272zm-0.201524 0c0.0360394,-0.0425906 0.0732441,-0.0851811 0.110839,-0.128272 -0.00464961,0.0430906 -0.00852756,0.0856811 -0.011626,0.128272 -0.0368189,0.0430866 -0.0720866,0.0856772 -0.101539,0.128272 -0.00348819,-0.0425945 -0.00116142,-0.085185 0.00232677,-0.128272zm-0.202303 0c0.0360433,-0.0425906 0.0728622,-0.0851811 0.110067,-0.128272 -0.00426378,0.0430906 -0.00775197,0.0856811 -0.0104646,0.128272 -0.0360433,0.0430866 -0.0709213,0.0856772 -0.100374,0.128272 -0.00348819,-0.0425945 -0.00155118,-0.085185 0.000771654,-0.128272zm-0.201524 0c0.034878,-0.0425906 0.0713071,-0.0851811 0.108512,-0.128272 -0.00425984,0.0430906 -0.0073622,0.0856811 -0.00929921,0.128272 -0.0356535,0.0430866 -0.0701457,0.0856772 -0.0996024,0.128272 -0.00309843,-0.0425945 -0.00193701,-0.085185 0.000389764,-0.128272zm-0.201913 0c0.0344921,-0.0425906 0.0705354,-0.0851811 0.10774,-0.128272 -0.00387795,0.0430906 -0.00697638,0.0856811 -0.00852756,0.128272 -0.034878,0.0430866 -0.0689843,0.0856772 -0.098437,0.128272 -0.00310236,-0.0425945 -0.0027126,-0.085185 -0.000775591,-0.128272zm-0.201913 0c0.0341063,-0.0425906 0.0697598,-0.0851811 0.106575,-0.128272 -0.00348425,0.0430906 -0.00620079,0.0856811 -0.0073622,0.128272 -0.0341024,0.0430866 -0.0678189,0.0856772 -0.0968858,0.128272 -0.00348819,-0.0425945 -0.00348819,-0.085185 -0.00232677,-0.128272zm-0.201913 0c0.0333307,-0.0425906 0.0689843,-0.0851811 0.105413,-0.128272 -0.00348819,0.0430906 -0.00581102,0.0856811 -0.00620079,0.128272 -0.0337165,0.0430866 -0.0666575,0.0856772 -0.0961102,0.128272 -0.00348819,-0.0425945 -0.00387795,-0.085185 -0.00310236,-0.128272zm-0.201524 0c0.0325551,-0.0425906 0.0678189,-0.0851811 0.103862,-0.128272 -0.00309843,0.0430906 -0.00464961,0.0856811 -0.00464961,0.128272 -0.0333307,0.0430866 -0.0658858,0.0856772 -0.0953386,0.128272 -0.00348819,-0.0425945 -0.00426378,-0.085185 -0.00387402,-0.128272zm-0.202299 0c0.0321654,-0.0425906 0.0670433,-0.0851811 0.103087,-0.128272 -0.0027126,0.0430906 -0.00387795,0.0856811 -0.00348819,0.128272 -0.0329409,0.0430866 -0.0647205,0.0856772 -0.094563,0.128272 -0.00348819,-0.0425945 -0.00464961,-0.085185 -0.00503543,-0.128272zm-0.201528 0c0.0313898,-0.0425906 0.0658819,-0.0851811 0.101539,-0.128272 -0.00232677,0.0430906 -0.00348819,0.0856811 -0.00232677,0.128272 -0.0325551,0.0430866 -0.0639449,0.0856772 -0.0933976,0.128272 -0.00310236,-0.0425945 -0.00503937,-0.085185 -0.00581496,-0.128272zm-0.201913 0c0.0310039,-0.0425906 0.0651102,-0.0851811 0.100764,-0.128272 -0.00232677,0.0430906 -0.00310236,0.0856811 -0.00155118,0.128272 -0.0317795,0.0430866 -0.0627835,0.0856772 -0.0922362,0.128272 -0.00309843,-0.0425945 -0.0054252,-0.085185 -0.00697638,-0.128272zm-0.201913 0c0.0306181,-0.0425906 0.0643346,-0.0851811 0.0992126,-0.128272 -0.00154724,0.0430906 -0.00193701,0.0856811 0,0.128272 -0.0310039,0.0430866 -0.0616181,0.0856772 -0.0910748,0.128272 -0.00348425,-0.0425945 -0.00620079,-0.085185 -0.0081378,-0.128272zm-0.201913 0c0.0302323,-0.0425906 0.0635591,-0.0851811 0.098437,-0.128272 -0.00193701,0.0430906 -0.00193701,0.0856811 0.000775591,0.128272 -0.0306142,0.0430866 -0.0604567,0.0856772 -0.0899094,0.128272 -0.00348819,-0.0425945 -0.00659055,-0.085185 -0.00930315,-0.128272zm-0.201524 0c0.0294528,-0.0425906 0.0623937,-0.0851811 0.0968858,-0.128272 -0.00154724,0.0430906 -0.00116142,0.0856811 0.00193701,0.128272 -0.0298386,0.0430866 -0.0592913,0.0856772 -0.088748,0.128272 -0.00348819,-0.0425945 -0.0073622,-0.085185 -0.0100748,-0.128272zm3.12713 0.27635c0.0298425,-0.0425906 0.059685,-0.085185 0.0895236,-0.128272 0.00310236,0.0430866 0.00659055,0.0856811 0.00968898,0.128272 -0.0298386,0.0430866 -0.0600669,0.0856772 -0.0840984,0.128272 -0.00891339,-0.0425945 -0.0120118,-0.085185 -0.0151142,-0.128272zm-0.200748 0c0.0298386,-0.0425906 0.0596811,-0.085185 0.0895236,-0.128272 0.0027126,0.0430866 0.00620079,0.0856811 0.00929921,0.128272 -0.0294528,0.0430866 -0.0592953,0.0856772 -0.0833228,0.128272 -0.00852362,-0.0425945 -0.0120118,-0.085185 -0.0155,-0.128272zm-0.200752 0c0.0298425,-0.0425906 0.059685,-0.085185 0.0899134,-0.128272 0.0027126,0.0430866 0.00581102,0.0856811 0.00891339,0.128272 -0.0290669,0.0430866 -0.0585197,0.0856772 -0.0825472,0.128272 -0.00891732,-0.0425945 -0.0124016,-0.085185 -0.0162795,-0.128272zm-0.200748 0c0.0298386,-0.0425906 0.0592953,-0.085185 0.0895236,-0.128272 0.0027126,0.0430866 0.00620079,0.0856811 0.00929921,0.128272 -0.0290669,0.0430866 -0.0585197,0.0856772 -0.0825472,0.128272 -0.00852756,-0.0425945 -0.0124016,-0.085185 -0.0162756,-0.128272zm-0.200366 0c0.0294567,-0.0425906 0.0592953,-0.085185 0.0891378,-0.128272 0.0027126,0.0430866 0.00620079,0.0856811 0.00930315,0.128272 -0.0290669,0.0430866 -0.057748,0.0856772 -0.0817756,0.128272 -0.00852362,-0.0425945 -0.0127874,-0.085185 -0.0166654,-0.128272zm-0.201138 0c0.0298425,-0.0425906 0.059685,-0.085185 0.0895276,-0.128272 0.00309843,0.0430866 0.00620079,0.0856811 0.00968504,0.128272 -0.029063,0.0430866 -0.0573543,0.0856772 -0.0817717,0.128272 -0.00852362,-0.0425945 -0.0131772,-0.085185 -0.0174409,-0.128272zm-0.200362 0c0.0294567,-0.0425906 0.0589094,-0.085185 0.0891378,-0.128272 0.0027126,0.0430866 0.00620079,0.0856811 0.00929921,0.128272 -0.0286772,0.0430866 -0.0569685,0.0856772 -0.0809961,0.128272 -0.00852756,-0.0425945 -0.013563,-0.085185 -0.0174409,-0.128272zm-0.200748 0c0.0294528,-0.0425906 0.0592953,-0.085185 0.0891339,-0.128272 0.0027126,0.0430866 0.00620079,0.0856811 0.00930315,0.128272 -0.0282913,0.0430866 -0.0561969,0.0856772 -0.0806102,0.128272 -0.0081378,-0.0425945 -0.013563,-0.085185 -0.0178268,-0.128272zm-0.201138 0c0.0298386,-0.0425906 0.0596811,-0.085185 0.0895236,-0.128272 0.0027126,0.0430866 0.00620079,0.0856811 0.00968898,0.128272 -0.0282913,0.0430866 -0.0558071,0.0856772 -0.0802244,0.128272 -0.00852362,-0.0425945 -0.0139528,-0.085185 -0.0189882,-0.128272zm-0.200362 0c0.029063,-0.0425906 0.0589055,-0.085185 0.088748,-0.128272 0.00309843,0.0430866 0.00620079,0.0856811 0.00968898,0.128272 -0.0279055,0.0430866 -0.0550315,0.0856772 -0.0798346,0.128272 -0.00814173,-0.0425945 -0.0139528,-0.085185 -0.0186024,-0.128272zm-0.200752 0c0.0294528,-0.0425906 0.0589094,-0.085185 0.088748,-0.128272 0.00310236,0.0430866 0.00659055,0.0856811 0.0100787,0.128272 -0.0279055,0.0430866 -0.0550354,0.0856772 -0.0794488,0.128272 -0.0081378,-0.0425945 -0.0143386,-0.085185 -0.019378,-0.128272zm-0.200752 0c0.0290669,-0.0425906 0.0589094,-0.085185 0.088752,-0.128272 0.00309843,0.0430866 0.00658661,0.0856811 0.0100748,0.128272 -0.0275157,0.0430866 -0.0542559,0.0856772 -0.0794488,0.128272 -0.00774803,-0.0425945 -0.0143386,-0.085185 -0.019378,-0.128272zm-0.200748 0c0.0290669,-0.0425906 0.0589055,-0.085185 0.088748,-0.128272 0.00310236,0.0430866 0.00620079,0.0856811 0.00968898,0.128272 -0.0271299,0.0430866 -0.0534803,0.0856772 -0.0782835,0.128272 -0.00814173,-0.0425945 -0.0147283,-0.085185 -0.0201535,-0.128272zm-0.200752 0c0.0294567,-0.0425906 0.0589094,-0.085185 0.088748,-0.128272 0.00310236,0.0430866 0.00659055,0.0856811 0.0100787,0.128272 -0.0275157,0.0430866 -0.0534843,0.0856772 -0.0782874,0.128272 -0.00774803,-0.0425945 -0.0147244,-0.085185 -0.0205394,-0.128272zm-0.200748 0c0.0290669,-0.0425906 0.0589055,-0.085185 0.0883583,-0.128272 0.00348819,0.0430866 0.00697638,0.0856811 0.0104646,0.128272 -0.027126,0.0430866 -0.0527047,0.0856772 -0.0778976,0.128272 -0.00774803,-0.0425945 -0.0151142,-0.085185 -0.0209252,-0.128272zm-0.200752 0c0.0290669,-0.0425906 0.0589094,-0.085185 0.088748,-0.128272 0.0027126,0.0430866 0.00620079,0.0856811 0.0100787,0.128272 -0.0271299,0.0430866 -0.0523189,0.0856772 -0.0775118,0.128272 -0.00775197,-0.0425945 -0.0155,-0.085185 -0.021315,-0.128272zm-0.200362 0c0.0286772,-0.0425906 0.0585197,-0.085185 0.0883622,-0.128272 0.00309843,0.0430866 0.00620079,0.0856811 0.0100748,0.128272 -0.0267402,0.0430866 -0.0519291,0.0856772 -0.0767323,0.128272 -0.00775197,-0.0425945 -0.0158898,-0.085185 -0.0217047,-0.128272zm3.15271 0.27635c0.0232559,-0.0425906 0.0468937,-0.085185 0.0705354,-0.128272 0.00929921,0.0430866 0.0189882,0.0856811 0.0286772,0.128272 -0.0236378,0.0430866 -0.0472795,0.0856772 -0.0709213,0.128272 -0.00929921,-0.0425945 -0.0189882,-0.085185 -0.0282913,-0.128272zm-0.200362 0c0.023252,-0.0425906 0.0468937,-0.085185 0.0705354,-0.128272 0.00891339,0.0430866 0.0186024,0.0856811 0.0279016,0.128272 -0.0236378,0.0430866 -0.0472795,0.0856772 -0.0701457,0.128272 -0.00968898,-0.0425945 -0.019378,-0.085185 -0.0282913,-0.128272zm-0.200748 0c0.0236378,-0.0425906 0.0472795,-0.085185 0.0709213,-0.128272 0.00929921,0.0430866 0.0186024,0.0856811 0.0279016,0.128272 -0.0236417,0.0430866 -0.0472795,0.0856772 -0.0705315,0.128272 -0.00968898,-0.0425945 -0.0189921,-0.085185 -0.0282913,-0.128272zm-0.200752 0c0.0236417,-0.0425906 0.0472795,-0.085185 0.0713071,-0.128272 0.00891732,0.0430866 0.0182165,0.0856811 0.0275197,0.128272 -0.0240315,0.0430866 -0.0476693,0.0856772 -0.0705354,0.128272 -0.0100748,-0.0425945 -0.019378,-0.085185 -0.0282913,-0.128272zm-0.200362 0c0.0236417,-0.0425906 0.0472795,-0.085185 0.0713071,-0.128272 0.00891339,0.0430866 0.0178268,0.0856811 0.0271299,0.128272 -0.0240276,0.0430866 -0.0476693,0.0856772 -0.0701457,0.128272 -0.0104646,-0.0425945 -0.0197677,-0.085185 -0.0282913,-0.128272zm-0.201138 0c0.0240276,-0.0425906 0.0480551,-0.085185 0.0720827,-0.128272 0.00891339,0.0430866 0.0178268,0.0856811 0.0271299,0.128272 -0.0240276,0.0430866 -0.0480551,0.0856772 -0.0705354,0.128272 -0.0100748,-0.0425945 -0.019378,-0.085185 -0.0286772,-0.128272zm-0.200362 0c0.0236378,-0.0425906 0.0480551,-0.085185 0.0720827,-0.128272 0.00852756,0.0430866 0.0174409,0.0856811 0.0267402,0.128272 -0.0244134,0.0430866 -0.0480551,0.0856772 -0.0705315,0.128272 -0.0104646,-0.0425945 -0.0197677,-0.085185 -0.0282913,-0.128272zm-0.200362 0c0.0236378,-0.0425906 0.0480551,-0.085185 0.0720827,-0.128272 0.00852756,0.0430866 0.0174409,0.0856811 0.0263543,0.128272 -0.0244173,0.0430866 -0.0480591,0.0856772 -0.0705354,0.128272 -0.0104646,-0.0425945 -0.0197638,-0.085185 -0.0279016,-0.128272zm-0.201138 0c0.0244134,-0.0425906 0.0488307,-0.085185 0.0732441,-0.128272 0.0081378,0.0430866 0.0170512,0.0856811 0.0259685,0.128272 -0.0244173,0.0430866 -0.0484449,0.0856772 -0.0705354,0.128272 -0.0108504,-0.0425945 -0.0197638,-0.085185 -0.0286772,-0.128272zm-0.200366 0c0.0240315,-0.0425906 0.0484449,-0.085185 0.0728622,-0.128272 0.00852362,0.0430866 0.0170512,0.0856811 0.0255787,0.128272 -0.0244173,0.0430866 -0.0484449,0.0856772 -0.0701496,0.128272 -0.0108504,-0.0425945 -0.0201496,-0.085185 -0.0282913,-0.128272zm-0.200362 0c0.0240276,-0.0425906 0.0484449,-0.085185 0.0728622,-0.128272 0.00852362,0.0430866 0.0170512,0.0856811 0.0255748,0.128272 -0.0248031,0.0430866 -0.0488307,0.0856772 -0.0705315,0.128272 -0.0108504,-0.0425945 -0.0201535,-0.085185 -0.0279055,-0.128272zm-0.201138 0c0.0244173,-0.0425906 0.0488307,-0.085185 0.0736339,-0.128272 0.00852756,0.0430866 0.0170551,0.0856811 0.0255787,0.128272 -0.0248031,0.0430866 -0.0488307,0.0856772 -0.0709213,0.128272 -0.0112362,-0.0425945 -0.0201535,-0.085185 -0.0282913,-0.128272zm-0.200362 0c0.0244173,-0.0425906 0.0488307,-0.085185 0.0736339,-0.128272 0.0081378,0.0430866 0.0166654,0.0856811 0.0248031,0.128272 -0.0248031,0.0430866 -0.0488307,0.0856772 -0.0705315,0.128272 -0.0112402,-0.0425945 -0.0201535,-0.085185 -0.0279055,-0.128272zm-0.200362 0c0.0244173,-0.0425906 0.0492205,-0.085185 0.0736339,-0.128272 0.0081378,0.0430866 0.0162756,0.0856811 0.0248031,0.128272 -0.025189,0.0430866 -0.0492165,0.0856772 -0.0705315,0.128272 -0.0116299,-0.0425945 -0.0205433,-0.085185 -0.0279055,-0.128272zm-0.201138 0c0.0248031,-0.0425906 0.0496063,-0.085185 0.0744094,-0.128272 0.0081378,0.0430866 0.0162756,0.0856811 0.0248031,0.128272 -0.025189,0.0430866 -0.0496063,0.0856772 -0.0709213,0.128272 -0.011626,-0.0425945 -0.0205394,-0.085185 -0.0282913,-0.128272zm-0.200362 0c0.0244134,-0.0425906 0.0496063,-0.085185 0.0744094,-0.128272 0.00775197,0.0430866 0.0158898,0.0856811 0.0240276,0.128272 -0.025189,0.0430866 -0.0492205,0.0856772 -0.0705354,0.128272 -0.011626,-0.0425945 -0.0205394,-0.085185 -0.0279016,-0.128272zm-0.200362 0c0.0244134,-0.0425906 0.0496063,-0.085185 0.0747953,-0.128272 0.0073622,0.0430866 0.0155039,0.0856811 0.0236417,0.128272 -0.0255787,0.0430866 -0.0496063,0.0856772 -0.0705354,0.128272 -0.0120118,-0.0425945 -0.0209252,-0.085185 -0.0279016,-0.128272zm3.181 0.27635c0.0186024,-0.0425906 0.0375906,-0.085185 0.0561929,-0.128272 0.0143425,0.0430866 0.0286811,0.0856811 0.0430197,0.128272 -0.0189921,0.0430866 -0.0379803,0.0856772 -0.0565827,0.128268 -0.0147283,-0.0425906 -0.0290669,-0.0851811 -0.0426299,-0.128268zm-0.201138 0c0.0186024,-0.0425906 0.0379803,-0.085185 0.0569685,-0.128272 0.0135669,0.0430866 0.0279055,0.0856811 0.0418543,0.128272 -0.0189882,0.0430866 -0.0383661,0.0856772 -0.0565787,0.128268 -0.0143425,-0.0425906 -0.0286811,-0.0851811 -0.0422441,-0.128268zm-0.201528 0c0.019378,-0.0425906 0.0387559,-0.085185 0.057748,-0.128272 0.013563,0.0430866 0.0275157,0.0856811 0.0414646,0.128272 -0.0189882,0.0430866 -0.0383661,0.0856772 -0.0569685,0.128268 -0.0143386,-0.0425906 -0.0282913,-0.0851811 -0.0422441,-0.128268zm-0.201138 0c0.019378,-0.0425906 0.0387559,-0.085185 0.0581339,-0.128272 0.0131772,0.0430866 0.0271299,0.0856811 0.0410787,0.128272 -0.019374,0.0430866 -0.038752,0.0856772 -0.0577441,0.128268 -0.0139528,-0.0425906 -0.0279016,-0.0851811 -0.0414685,-0.128268zm-0.200748 0c0.0189882,-0.0425906 0.0387559,-0.085185 0.0581299,-0.128272 0.0131772,0.0430866 0.0271299,0.0856811 0.0406929,0.128272 -0.019374,0.0430866 -0.0391417,0.0856772 -0.0581299,0.128268 -0.0139528,-0.0425906 -0.0275157,-0.0851811 -0.0406929,-0.128268zm-0.201528 0c0.0197677,-0.0425906 0.0395315,-0.085185 0.0589094,-0.128272 0.0131772,0.0430866 0.0267402,0.0856811 0.0403031,0.128272 -0.0197638,0.0430866 -0.0391417,0.0856772 -0.0581299,0.128268 -0.0139528,-0.0425906 -0.0275157,-0.0851811 -0.0410827,-0.128268zm-0.201138 0c0.0197677,-0.0425906 0.0395315,-0.085185 0.0592953,-0.128272 0.0127913,0.0430866 0.0263543,0.0856811 0.0399173,0.128272 -0.0197638,0.0430866 -0.0399173,0.0856772 -0.0589055,0.128268 -0.013563,-0.0425906 -0.0271299,-0.0851811 -0.0403071,-0.128268zm-0.200748 0c0.019378,-0.0425906 0.0395276,-0.085185 0.0592953,-0.128272 0.0127874,0.0430866 0.0263543,0.0856811 0.0395276,0.128272 -0.0201496,0.0430866 -0.0399173,0.0856772 -0.0592953,0.128268 -0.013563,-0.0425906 -0.0267402,-0.0851811 -0.0395276,-0.128268zm-0.201528 0c0.0201535,-0.0425906 0.0403071,-0.085185 0.0604606,-0.128272 0.0124016,0.0430866 0.0255748,0.0856811 0.038752,0.128272 -0.0201496,0.0430866 -0.0399173,0.0856772 -0.0596811,0.128268 -0.0131772,-0.0425906 -0.0263543,-0.0851811 -0.0395315,-0.128268zm-0.201138 0c0.0201535,-0.0425906 0.0403071,-0.085185 0.0604606,-0.128272 0.0127874,0.0430866 0.0255748,0.0856811 0.0383661,0.128272 -0.0201535,0.0430866 -0.0403071,0.0856772 -0.0600709,0.128268 -0.0131772,-0.0425906 -0.0259646,-0.0851811 -0.0387559,-0.128268zm-0.200748 0c0.0197638,-0.0425906 0.0403031,-0.085185 0.0604567,-0.128272 0.0127874,0.0430866 0.0255787,0.0856811 0.0383661,0.128272 -0.0205394,0.0430866 -0.0406929,0.0856772 -0.0608425,0.128268 -0.0127913,-0.0425906 -0.0255787,-0.0851811 -0.0379803,-0.128268zm-0.201528 0c0.0201535,-0.0425906 0.0406929,-0.085185 0.0612323,-0.128272 0.0127913,0.0430866 0.0251929,0.0856811 0.0379803,0.128272 -0.0205394,0.0430866 -0.0410787,0.0856772 -0.0612323,0.128268 -0.0127874,-0.0425906 -0.0255787,-0.0851811 -0.0379803,-0.128268zm-0.201138 0c0.0205433,-0.0425906 0.0410827,-0.085185 0.061622,-0.128272 0.0124016,0.0430866 0.0248031,0.0856811 0.0372047,0.128272 -0.0205394,0.0430866 -0.0410787,0.0856772 -0.0612323,0.128268 -0.0127913,-0.0425906 -0.0251929,-0.0851811 -0.0375945,-0.128268zm-0.200748 0c0.0201535,-0.0425906 0.0410787,-0.085185 0.0620079,-0.128272 0.0120118,0.0430866 0.0244134,0.0856811 0.036815,0.128272 -0.0209252,0.0430866 -0.0418543,0.0856772 -0.0620079,0.128268 -0.0124016,-0.0425906 -0.0248031,-0.0851811 -0.036815,-0.128268zm-0.201528 0c0.0205433,-0.0425906 0.0414685,-0.085185 0.0623976,-0.128272 0.0124016,0.0430866 0.0244134,0.0856811 0.036815,0.128272 -0.0209252,0.0430866 -0.0418543,0.0856772 -0.0627835,0.128268 -0.0124016,-0.0425906 -0.0244134,-0.0851811 -0.0364291,-0.128268zm-0.201138 0c0.0209291,-0.0425906 0.0418583,-0.085185 0.0627835,-0.128272 0.0120157,0.0430866 0.0240276,0.0856811 0.0360433,0.128272 -0.0209291,0.0430866 -0.0418543,0.0856772 -0.0627835,0.128268 -0.0120157,-0.0425906 -0.0240276,-0.0851811 -0.0360433,-0.128268zm-0.200748 0c0.0205394,-0.0425906 0.0418543,-0.085185 0.0631693,-0.128272 0.011626,0.0430866 0.0236417,0.0856811 0.0356535,0.128272 -0.021315,0.0430866 -0.0426299,0.0856772 -0.0635551,0.128268 -0.0120157,-0.0425906 -0.0240315,-0.0851811 -0.0352677,-0.128268zm3.21161 0.275854c0.0151181,-0.0425906 0.0302323,-0.085185 0.0480591,-0.128272 0.0155,0.0430866 0.0337165,0.0856811 0.0515433,0.128272 -0.0151142,0.0430866 -0.0310039,0.0856772 -0.0461181,0.128272 -0.0182165,-0.0425945 -0.0356535,-0.085185 -0.0534843,-0.128272zm-0.201909 0c0.0155,-0.0425906 0.0306142,-0.085185 0.0484409,-0.128272 0.0151142,0.0430866 0.0329409,0.0856811 0.0507717,0.128272 -0.0151142,0.0430866 -0.0310039,0.0856772 -0.0457323,0.128272 -0.0182165,-0.0425945 -0.0356535,-0.085185 -0.0534803,-0.128272zm-0.201913 0c0.0155,-0.0425906 0.0310039,-0.085185 0.0488307,-0.128272 0.0151142,0.0430866 0.0329409,0.0856811 0.0503819,0.128272 -0.0151142,0.0430866 -0.0310039,0.0856772 -0.0461181,0.128272 -0.0178268,-0.0425945 -0.0356575,-0.085185 -0.0530945,-0.128272zm-0.201913 0c0.0155,-0.0425906 0.0313898,-0.085185 0.0488307,-0.128272 0.0155,0.0430866 0.0329409,0.0856811 0.0503819,0.128272 -0.0155039,0.0430866 -0.0313937,0.0856772 -0.0468937,0.128272 -0.0178268,-0.0425945 -0.034878,-0.085185 -0.0523189,-0.128272zm-0.201913 0c0.0158898,-0.0425906 0.0317795,-0.085185 0.0496063,-0.128272 0.0151142,0.0430866 0.0325551,0.0856811 0.0496063,0.128272 -0.0155039,0.0430866 -0.0317795,0.0856772 -0.0472795,0.128272 -0.0174409,-0.0425945 -0.0344921,-0.085185 -0.0519331,-0.128272zm-0.201913 0c0.0162756,-0.0425906 0.0321654,-0.085185 0.0499921,-0.128272 0.0151181,0.0430866 0.0325551,0.0856811 0.0496063,0.128272 -0.0158858,0.0430866 -0.0321654,0.0856772 -0.0476654,0.128272 -0.0174409,-0.0425945 -0.0348819,-0.085185 -0.0519331,-0.128272zm-0.201913 0c0.0162795,-0.0425906 0.0321654,-0.085185 0.0499961,-0.128272 0.0151142,0.0430866 0.0321654,0.0856811 0.0492165,0.128272 -0.0158898,0.0430866 -0.0325551,0.0856772 -0.0480551,0.128272 -0.0174409,-0.0425945 -0.0341063,-0.085185 -0.0511575,-0.128272zm-0.201524 0c0.0158898,-0.0425906 0.0321654,-0.085185 0.0499921,-0.128272 0.0151142,0.0430866 0.0321654,0.0856811 0.0492205,0.128272 -0.0162795,0.0430866 -0.0329409,0.0856772 -0.0488307,0.128272 -0.0170551,-0.0425945 -0.0337165,-0.085185 -0.0503819,-0.128272zm-0.202303 0c0.0166654,-0.0425906 0.0333307,-0.085185 0.0511575,-0.128272 0.0151142,0.0430866 0.0317795,0.0856811 0.0484449,0.128272 -0.0162795,0.0430866 -0.0329409,0.0856772 -0.0488307,0.128272 -0.0174409,-0.0425945 -0.0337165,-0.085185 -0.0507717,-0.128272zm-0.201524 0c0.0162756,-0.0425906 0.0329409,-0.085185 0.0507677,-0.128272 0.0151142,0.0430866 0.0317795,0.0856811 0.0484449,0.128272 -0.0166654,0.0430866 -0.0337165,0.0856772 -0.0496063,0.128272 -0.0170512,-0.0425945 -0.0333307,-0.085185 -0.0496063,-0.128272zm-0.201913 0c0.0166654,-0.0425906 0.0333307,-0.085185 0.0511575,-0.128272 0.0151142,0.0430866 0.0317795,0.0856811 0.0480551,0.128272 -0.0166654,0.0430866 -0.0337165,0.0856772 -0.0499921,0.128272 -0.0166654,-0.0425945 -0.0329449,-0.085185 -0.0492205,-0.128272zm-0.202299 0c0.0170512,-0.0425906 0.0337165,-0.085185 0.0515433,-0.128272 0.0155,0.0430866 0.0317795,0.0856811 0.0480551,0.128272 -0.0166654,0.0430866 -0.0337165,0.0856772 -0.0507677,0.128272 -0.0162795,-0.0425945 -0.0325551,-0.085185 -0.0488307,-0.128272zm-0.201528 0c0.0166654,-0.0425906 0.0341063,-0.085185 0.0515433,-0.128272 0.0155039,0.0430866 0.0313937,0.0856811 0.0476693,0.128272 -0.0170512,0.0430866 -0.0344921,0.0856772 -0.0507677,0.128272 -0.0166654,-0.0425945 -0.0325551,-0.085185 -0.0484449,-0.128272zm-0.201913 0c0.0170551,-0.0425906 0.0344921,-0.085185 0.0523189,-0.128272 0.0151181,0.0430866 0.0310039,0.0856811 0.0468937,0.128272 -0.0170512,0.0430866 -0.0344921,0.0856772 -0.0511535,0.128272 -0.0162795,-0.0425945 -0.0321693,-0.085185 -0.0480591,-0.128272zm-0.201909 0c0.0170512,-0.0425906 0.0344882,-0.085185 0.0523189,-0.128272 0.0155,0.0430866 0.0313898,0.0856811 0.0472795,0.128272 -0.0174409,0.0430866 -0.034878,0.0856772 -0.0523189,0.128272 -0.0162756,-0.0425945 -0.0317795,-0.085185 -0.0472795,-0.128272zm-0.201913 0c0.017437,-0.0425906 0.034878,-0.085185 0.0527047,-0.128272 0.0151142,0.0430866 0.0310039,0.0856811 0.0465079,0.128272 -0.0174409,0.0430866 -0.0352677,0.0856772 -0.0519331,0.128272 -0.0162756,-0.0425945 -0.0317795,-0.085185 -0.0472795,-0.128272zm-0.201528 0c0.0174409,-0.0425906 0.0348819,-0.085185 0.0527087,-0.128272 0.0151142,0.0430866 0.0306142,0.0856811 0.0465039,0.128272 -0.0178268,0.0430866 -0.0356535,0.0856772 -0.0527047,0.128272 -0.0158898,-0.0425945 -0.0313937,-0.085185 -0.0465079,-0.128272zm3.23991 0.27635c0.0131772,-0.0425906 0.0286772,-0.085185 0.0437913,-0.128272 0.0182165,0.0430866 0.0360433,0.0856811 0.0561969,0.128272 -0.0127913,0.0430866 -0.0255787,0.0856772 -0.0379803,0.128272 -0.0209291,-0.0425945 -0.0414685,-0.085185 -0.0620079,-0.128272zm-0.202689 0c0.013563,-0.0425906 0.0290669,-0.085185 0.0441811,-0.128272 0.0178268,0.0430866 0.0356535,0.0856811 0.0554213,0.128272 -0.0124016,0.0430866 -0.0255787,0.0856772 -0.0379803,0.128272 -0.0205433,-0.0425945 -0.0410827,-0.085185 -0.061622,-0.128272zm-0.202689 0c0.0139528,-0.0425906 0.0290669,-0.085185 0.0445709,-0.128272 0.0178268,0.0430866 0.0356535,0.0856811 0.0554173,0.128272 -0.0127874,0.0430866 -0.0259646,0.0856772 -0.0383661,0.128272 -0.0205394,-0.0425945 -0.0410787,-0.085185 -0.061622,-0.128272zm-0.202299 0c0.0131772,-0.0425906 0.0286772,-0.085185 0.0445669,-0.128272 0.0170551,0.0430866 0.0352677,0.0856811 0.0546457,0.128272 -0.0127874,0.0430866 -0.0259646,0.0856772 -0.0383661,0.128272 -0.0209291,-0.0425945 -0.0406929,-0.085185 -0.0608465,-0.128272zm-0.202689 0c0.0135669,-0.0425906 0.0290669,-0.085185 0.0449567,-0.128272 0.0170512,0.0430866 0.0352677,0.0856811 0.0546457,0.128272 -0.0131772,0.0430866 -0.0263543,0.0856772 -0.0391457,0.128272 -0.0205394,-0.0425945 -0.0403031,-0.085185 -0.0604567,-0.128272zm-0.202689 0c0.0139528,-0.0425906 0.0290669,-0.085185 0.0453465,-0.128272 0.0170512,0.0430866 0.034878,0.0856811 0.0546417,0.128272 -0.0131772,0.0430866 -0.0267402,0.0856772 -0.0395276,0.128272 -0.0205394,-0.0425945 -0.0403071,-0.085185 -0.0604606,-0.128272zm-0.202685 0c0.0139488,-0.0425906 0.0290669,-0.085185 0.0453425,-0.128272 0.0166654,0.0430866 0.034878,0.0856811 0.0542559,0.128272 -0.0131772,0.0430866 -0.0267402,0.0856772 -0.0399173,0.128272 -0.0201535,-0.0425945 -0.0399173,-0.085185 -0.0596811,-0.128272zm-0.202303 0c0.0139528,-0.0425906 0.0290669,-0.085185 0.0453465,-0.128272 0.0166614,0.0430866 0.034878,0.0856811 0.0542559,0.128272 -0.013563,0.0430866 -0.0275157,0.0856772 -0.0403071,0.128272 -0.0201496,-0.0425945 -0.0395276,-0.085185 -0.0592953,-0.128272zm-0.202685 0c0.0139488,-0.0425906 0.029063,-0.085185 0.0457283,-0.128272 0.0166654,0.0430866 0.0348819,0.0856811 0.0538701,0.128272 -0.013563,0.0430866 -0.0275157,0.0856772 -0.0403031,0.128272 -0.0201535,-0.0425945 -0.0395315,-0.085185 -0.0592953,-0.128272zm-0.202689 0c0.0139528,-0.0425906 0.0290669,-0.085185 0.0457283,-0.128272 0.0166654,0.0430866 0.0348819,0.0856811 0.0538701,0.128272 -0.013563,0.0430866 -0.0279016,0.0856772 -0.0410787,0.128272 -0.0197638,-0.0425945 -0.0391417,-0.085185 -0.0585197,-0.128272zm-0.202299 0c0.0139488,-0.0425906 0.029063,-0.085185 0.0457283,-0.128272 0.0162795,0.0430866 0.0344921,0.0856811 0.0538701,0.128272 -0.0139528,0.0430866 -0.0282913,0.0856772 -0.0414685,0.128272 -0.0197638,-0.0425945 -0.0391417,-0.085185 -0.0581299,-0.128272zm-0.202689 0c0.0139528,-0.0425906 0.0290669,-0.085185 0.0457283,-0.128272 0.0166654,0.0430866 0.0348819,0.0856811 0.0538701,0.128272 -0.0139528,0.0430866 -0.0282913,0.0856772 -0.0422402,0.128272 -0.019378,-0.0425945 -0.0383701,-0.085185 -0.0573583,-0.128272zm-0.202689 0c0.0143386,-0.0425906 0.0290669,-0.085185 0.0461181,-0.128272 0.0162756,0.0430866 0.0344921,0.0856811 0.0534803,0.128272 -0.0143386,0.0430866 -0.0286772,0.0856772 -0.0422402,0.128272 -0.0197677,-0.0425945 -0.0383701,-0.085185 -0.0573583,-0.128272zm-0.202299 0c0.0139488,-0.0425906 0.0290669,-0.085185 0.0465039,-0.128272 0.0155039,0.0430866 0.0341063,0.0856811 0.0530945,0.128272 -0.0143386,0.0430866 -0.0290669,0.0856772 -0.0430157,0.128272 -0.019378,-0.0425945 -0.0379803,-0.085185 -0.0565827,-0.128272zm-0.203075 0c0.0143386,-0.0425906 0.0294528,-0.085185 0.0468898,-0.128272 0.0158898,0.0430866 0.0344921,0.0856811 0.0530945,0.128272 -0.0143386,0.0430866 -0.029063,0.0856772 -0.0434055,0.128272 -0.019374,-0.0425945 -0.0379764,-0.085185 -0.0565787,-0.128272zm-0.202303 0c0.0143386,-0.0425906 0.0290669,-0.085185 0.0468937,-0.128272 0.0155039,0.0430866 0.0337165,0.0856811 0.0527087,0.128272 -0.0147283,0.0430866 -0.0294567,0.0856772 -0.0434055,0.128272 -0.019378,-0.0425945 -0.0375945,-0.085185 -0.0561969,-0.128272zm-0.202299 0c0.0143386,-0.0425906 0.0290669,-0.085185 0.0468937,-0.128272 0.0151142,0.0430866 0.0337165,0.0856811 0.0523189,0.128272 -0.0147283,0.0430866 -0.0298425,0.0856772 -0.0437953,0.128272 -0.0189882,-0.0425945 -0.0372047,-0.085185 -0.0554173,-0.128272zm3.26743 0.27635c0.0120118,-0.0425906 0.025189,-0.085185 0.0375906,-0.128272 0.0209291,0.0430866 0.0414685,0.0856811 0.0627835,0.128272 -0.0127913,0.0430866 -0.0240276,0.0856772 -0.0344921,0.128268 -0.023252,-0.0425906 -0.0453425,-0.0851811 -0.0658819,-0.128268zm-0.203465 0c0.0124016,-0.0425906 0.0255787,-0.085185 0.0379803,-0.128272 0.0205394,0.0430866 0.0410787,0.0856811 0.0620079,0.128272 -0.0124016,0.0430866 -0.0236417,0.0856772 -0.0341063,0.128268 -0.0228622,-0.0425906 -0.0449528,-0.0851811 -0.0658819,-0.128268zm-0.203465 0c0.0124016,-0.0425906 0.0259685,-0.085185 0.0387559,-0.128272 0.0201535,0.0430866 0.0406929,0.0856811 0.061622,0.128272 -0.0124016,0.0430866 -0.0240315,0.0856772 -0.0344921,0.128268 -0.0224803,-0.0425906 -0.0445709,-0.0851811 -0.0658858,-0.128268zm-0.203075 0c0.0120157,-0.0425906 0.0255787,-0.085185 0.0383661,-0.128272 0.0201535,0.0430866 0.0403071,0.0856811 0.061622,0.128272 -0.0124016,0.0430866 -0.0240276,0.0856772 -0.0344921,0.128268 -0.0228661,-0.0425906 -0.0449567,-0.0851811 -0.0654961,-0.128268zm-0.203075 0c0.0120118,-0.0425906 0.0255787,-0.085185 0.0383661,-0.128272 0.0201535,0.0430866 0.0403071,0.0856811 0.061622,0.128272 -0.0127913,0.0430866 -0.0244173,0.0856772 -0.0348819,0.128268 -0.0224764,-0.0425906 -0.0445669,-0.0851811 -0.0651063,-0.128268zm-0.203465 0c0.0120157,-0.0425906 0.0259685,-0.085185 0.0391417,-0.128272 0.0197677,0.0430866 0.0399213,0.0856811 0.0608465,0.128272 -0.0124016,0.0430866 -0.0240276,0.0856772 -0.034878,0.128268 -0.0224803,-0.0425906 -0.0441811,-0.0851811 -0.0651102,-0.128268zm-0.203461 0c0.0120118,-0.0425906 0.0259646,-0.085185 0.0391417,-0.128272 0.0197638,0.0430866 0.0395276,0.0856811 0.0608465,0.128272 -0.0124016,0.0430866 -0.0240315,0.0856772 -0.0352677,0.128268 -0.0220906,-0.0425906 -0.0437953,-0.0851811 -0.0647205,-0.128268zm-0.203079 0c0.0120157,-0.0425906 0.0259685,-0.085185 0.0395315,-0.128272 0.019378,0.0430866 0.0391417,0.0856811 0.0604567,0.128272 -0.0127874,0.0430866 -0.0244134,0.0856772 -0.0352638,0.128268 -0.0220906,-0.0425906 -0.0441811,-0.0851811 -0.0647244,-0.128268zm-0.203461 0c0.0120118,-0.0425906 0.0263543,-0.085185 0.0399173,-0.128272 0.019378,0.0430866 0.0391417,0.0856811 0.0600709,0.128272 -0.0124016,0.0430866 -0.0240276,0.0856772 -0.0352677,0.128268 -0.0220906,-0.0425906 -0.0437953,-0.0851811 -0.0647205,-0.128268zm-0.203465 0c0.0120157,-0.0425906 0.0263543,-0.085185 0.0399173,-0.128272 0.019378,0.0430866 0.0387559,0.0856811 0.0600709,0.128272 -0.0124016,0.0430866 -0.0240276,0.0856772 -0.0356535,0.128268 -0.0217047,-0.0425906 -0.0434055,-0.0851811 -0.0643346,-0.128268zm-0.203075 0c0.0120157,-0.0425906 0.0263543,-0.085185 0.0403031,-0.128272 0.0189921,0.0430866 0.0383701,0.0856811 0.059685,0.128272 -0.0124016,0.0430866 -0.0244173,0.0856772 -0.0356535,0.128268 -0.0220906,-0.0425906 -0.0437953,-0.0851811 -0.0643346,-0.128268zm-0.203465 0c0.0120157,-0.0425906 0.0263543,-0.085185 0.0403071,-0.128272 0.019378,0.0430866 0.0387559,0.0856811 0.0600709,0.128272 -0.0127913,0.0430866 -0.0244173,0.0856772 -0.0364291,0.128268 -0.0217047,-0.0425906 -0.0434055,-0.0851811 -0.0639488,-0.128268zm-0.203075 0c0.011626,-0.0425906 0.0263543,-0.085185 0.0406929,-0.128272 0.0189921,0.0430866 0.0375945,0.0856811 0.0589094,0.128272 -0.0124016,0.0430866 -0.0244173,0.0856772 -0.0360433,0.128268 -0.021315,-0.0425906 -0.0430197,-0.0851811 -0.0635591,-0.128268zm-0.203461 0c0.0120118,-0.0425906 0.0267402,-0.085185 0.0410787,-0.128272 0.0189882,0.0430866 0.0375906,0.0856811 0.0589055,0.128272 -0.0124016,0.0430866 -0.0244134,0.0856772 -0.0360394,0.128268 -0.0217047,-0.0425906 -0.0430197,-0.0851811 -0.0639449,-0.128268zm-0.203465 0c0.0120118,-0.0425906 0.0267402,-0.085185 0.0414685,-0.128272 0.0189882,0.0430866 0.0375906,0.0856811 0.0589055,0.128272 -0.0124016,0.0430866 -0.0244134,0.0856772 -0.036815,0.128268 -0.021315,-0.0425906 -0.0426299,-0.0851811 -0.0635591,-0.128268zm-0.203075 0c0.011626,-0.0425906 0.0267402,-0.085185 0.0414646,-0.128272 0.0186024,0.0430866 0.0368189,0.0856811 0.0585236,0.128272 -0.0127913,0.0430866 -0.0248031,0.0856772 -0.0368189,0.128268 -0.0209291,-0.0425906 -0.0426299,-0.0851811 -0.0631693,-0.128268zm-0.203079 0c0.0116299,-0.0425906 0.0267441,-0.085185 0.0414685,-0.128272 0.0186024,0.0430866 0.0368189,0.0856811 0.0581339,0.128272 -0.0124016,0.0430866 -0.0244173,0.0856772 -0.0364291,0.128268 -0.021315,-0.0425906 -0.0426299,-0.0851811 -0.0631732,-0.128268zm3.28991 0.27635c0.0104606,-0.0425906 0.0209252,-0.085185 0.0317756,-0.128272 0.0228661,0.0430866 0.0457323,0.0856811 0.0689843,0.128272 -0.0108504,0.0430866 -0.0217008,0.0856772 -0.0325512,0.128268 -0.0228661,-0.0425906 -0.0453465,-0.0851811 -0.0682087,-0.128268zm-0.20385 0c0.0104606,-0.0425906 0.021315,-0.085185 0.0321654,-0.128272 0.0224764,0.0430866 0.0453425,0.0856811 0.0682087,0.128272 -0.0104646,0.0430866 -0.0217047,0.0856772 -0.0317795,0.128268 -0.023252,-0.0425906 -0.0457323,-0.0851811 -0.0685945,-0.128268zm-0.203854 0c0.0108543,-0.0425906 0.0217047,-0.085185 0.0325551,-0.128272 0.0224803,0.0430866 0.0449567,0.0856811 0.0678228,0.128272 -0.0104646,0.0430866 -0.021315,0.0856772 -0.0317795,0.128268 -0.0228661,-0.0425906 -0.0457323,-0.0851811 -0.0685984,-0.128268zm-0.20385 0c0.0104646,-0.0425906 0.0217047,-0.085185 0.0325551,-0.128272 0.0224764,0.0430866 0.0449567,0.0856811 0.0678228,0.128272 -0.0108543,0.0430866 -0.0217047,0.0856772 -0.0317795,0.128268 -0.023252,-0.0425906 -0.0457323,-0.0851811 -0.0685984,-0.128268zm-0.20385 0c0.0108543,-0.0425906 0.0220906,-0.085185 0.0329409,-0.128272 0.0220906,0.0430866 0.0449567,0.0856811 0.067437,0.128272 -0.0104646,0.0430866 -0.021315,0.0856772 -0.0317795,0.128268 -0.0228661,-0.0425906 -0.0457323,-0.0851811 -0.0685984,-0.128268zm-0.20385 0c0.0112402,-0.0425906 0.0224803,-0.085185 0.0333307,-0.128272 0.0220906,0.0430866 0.0445669,0.0856811 0.0670472,0.128272 -0.0104646,0.0430866 -0.0213189,0.0856772 -0.0313937,0.128268 -0.023252,-0.0425906 -0.0461181,-0.0851811 -0.0689843,-0.128268zm-0.20385 0c0.0108504,-0.0425906 0.0220906,-0.085185 0.0333307,-0.128272 0.0220906,0.0430866 0.0445669,0.0856811 0.0670433,0.128272 -0.0108504,0.0430866 -0.021315,0.0856772 -0.0313898,0.128268 -0.023252,-0.0425906 -0.0461181,-0.0851811 -0.0689843,-0.128268zm-0.20385 0c0.0112402,-0.0425906 0.0224764,-0.085185 0.0337165,-0.128272 0.0220906,0.0430866 0.0441811,0.0856811 0.0666575,0.128272 -0.0104606,0.0430866 -0.021315,0.0856772 -0.0313898,0.128268 -0.023252,-0.0425906 -0.0461181,-0.0851811 -0.0689843,-0.128268zm-0.20385 0c0.0112402,-0.0425906 0.0228661,-0.085185 0.0344921,-0.128272 0.0217008,0.0430866 0.0437913,0.0856811 0.0658819,0.128272 -0.0104646,0.0430866 -0.021315,0.0856772 -0.0310039,0.128268 -0.023252,-0.0425906 -0.0465039,-0.0851811 -0.0693701,-0.128268zm-0.20385 0c0.0112402,-0.0425906 0.0228661,-0.085185 0.0344921,-0.128272 0.0217008,0.0430866 0.0437913,0.0856811 0.0658819,0.128272 -0.0108504,0.0430866 -0.021315,0.0856772 -0.0313898,0.128268 -0.023252,-0.0425906 -0.0461181,-0.0851811 -0.0689843,-0.128268zm-0.20385 0c0.0112402,-0.0425906 0.023252,-0.085185 0.034878,-0.128272 0.0217047,0.0430866 0.0434055,0.0856811 0.0654961,0.128272 -0.0104646,0.0430866 -0.021315,0.0856772 -0.0310039,0.128268 -0.023252,-0.0425906 -0.0465039,-0.0851811 -0.0693701,-0.128268zm-0.20385 0c0.0112362,-0.0425906 0.023252,-0.085185 0.034878,-0.128272 0.0220906,0.0430866 0.0437953,0.0856811 0.0654961,0.128272 -0.0104646,0.0430866 -0.0209291,0.0856772 -0.0313898,0.128268 -0.0232559,-0.0425906 -0.0465079,-0.0851811 -0.0689843,-0.128268zm-0.20385 0c0.011626,-0.0425906 0.0236378,-0.085185 0.0352677,-0.128272 0.0217008,0.0430866 0.0430157,0.0856811 0.0651063,0.128272 -0.0108504,0.0430866 -0.021315,0.0856772 -0.0310039,0.128268 -0.023252,-0.0425906 -0.0465039,-0.0851811 -0.0693701,-0.128268zm-0.20385 0c0.011626,-0.0425906 0.0240276,-0.085185 0.0356535,-0.128272 0.021315,0.0430866 0.0430157,0.0856811 0.0647205,0.128272 -0.0104646,0.0430866 -0.0209291,0.0856772 -0.0310039,0.128268 -0.023252,-0.0425906 -0.0465079,-0.0851811 -0.0693701,-0.128268zm-0.20385 0c0.011626,-0.0425906 0.0240276,-0.085185 0.0356535,-0.128272 0.0217008,0.0430866 0.0430157,0.0856811 0.0647205,0.128272 -0.0104646,0.0430866 -0.0209291,0.0856772 -0.0310039,0.128268 -0.023252,-0.0425906 -0.0468937,-0.0851811 -0.0693701,-0.128268zm-0.203854 0c0.0116299,-0.0425906 0.0240315,-0.085185 0.0360433,-0.128272 0.021315,0.0430866 0.0426299,0.0856811 0.0643346,0.128272 -0.0108504,0.0430866 -0.0209291,0.0856772 -0.0310039,0.128268 -0.023252,-0.0425906 -0.0465079,-0.0851811 -0.069374,-0.128268zm-0.203461 0c0.011626,-0.0425906 0.0240276,-0.085185 0.0364291,-0.128272 0.0209291,0.0430866 0.0422441,0.0856811 0.0635591,0.128272 -0.0104646,0.0430866 -0.0209291,0.0856772 -0.0306181,0.128268 -0.0236417,-0.0425906 -0.0468937,-0.0851811 -0.0693701,-0.128268zm3.30618 0.275854c0.00891339,-0.0425906 0.0178268,-0.085185 0.0267441,-0.128272 0.0247992,0.0430866 0.0492165,0.0856811 0.0740197,0.128272 -0.00929921,0.0430866 -0.0182165,0.0856772 -0.0275157,0.128272 -0.0244173,-0.0425945 -0.0492205,-0.085185 -0.073248,-0.128272zm-0.20385 0c0.00852756,-0.0425906 0.0178268,-0.085185 0.0271299,-0.128272 0.0240276,0.0430866 0.0484449,0.0856811 0.0728583,0.128272 -0.00891339,0.0430866 -0.0182126,0.0856772 -0.0267402,0.128272 -0.0248031,-0.0425945 -0.0492205,-0.085185 -0.073248,-0.128272zm-0.204626 0c0.00930315,-0.0425906 0.0186024,-0.085185 0.0279055,-0.128272 0.0240276,0.0430866 0.0484409,0.0856811 0.0728583,0.128272 -0.00929921,0.0430866 -0.0182165,0.0856772 -0.0271299,0.128272 -0.0244134,-0.0425945 -0.0488307,-0.085185 -0.0736339,-0.128272zm-0.20385 0c0.00930315,-0.0425906 0.0186024,-0.085185 0.0279055,-0.128272 0.0240276,0.0430866 0.0480551,0.0856811 0.0724724,0.128272 -0.00930315,0.0430866 -0.0182165,0.0856772 -0.0271299,0.128272 -0.0244173,-0.0425945 -0.0492205,-0.085185 -0.073248,-0.128272zm-0.20385 0c0.00930315,-0.0425906 0.0186024,-0.085185 0.0279055,-0.128272 0.0240276,0.0430866 0.0480551,0.0856811 0.0724685,0.128272 -0.00929921,0.0430866 -0.0186024,0.0856772 -0.027126,0.128272 -0.0248031,-0.0425945 -0.0492205,-0.085185 -0.073248,-0.128272zm-0.204236 0c0.00968898,-0.0425906 0.0189882,-0.085185 0.0282913,-0.128272 0.0240276,0.0430866 0.0480551,0.0856811 0.0724685,0.128272 -0.00968898,0.0430866 -0.0186024,0.0856772 -0.0275157,0.128272 -0.0244134,-0.0425945 -0.0488307,-0.085185 -0.0732441,-0.128272zm-0.20385 0c0.00929921,-0.0425906 0.0189882,-0.085185 0.0282913,-0.128272 0.0240276,0.0430866 0.0476654,0.0856811 0.0716929,0.128272 -0.00929921,0.0430866 -0.0182126,0.0856772 -0.027126,0.128272 -0.0244173,-0.0425945 -0.0492205,-0.085185 -0.0728583,-0.128272zm-0.20424 0c0.00968898,-0.0425906 0.019378,-0.085185 0.0286772,-0.128272 0.0240315,0.0430866 0.0476693,0.0856811 0.0716969,0.128272 -0.00929921,0.0430866 -0.0186024,0.0856772 -0.027126,0.128272 -0.0248031,-0.0425945 -0.0492205,-0.085185 -0.073248,-0.128272zm-0.204236 0c0.0100748,-0.0425906 0.0197638,-0.085185 0.0294528,-0.128272 0.0236378,0.0430866 0.0472795,0.0856811 0.0713071,0.128272 -0.00968898,0.0430866 -0.0186024,0.0856772 -0.027126,0.128272 -0.0248031,-0.0425945 -0.0492205,-0.085185 -0.0736339,-0.128272zm-0.203854 0c0.00968898,-0.0425906 0.019378,-0.085185 0.0290669,-0.128272 0.0236417,0.0430866 0.0476693,0.0856811 0.071311,0.128272 -0.00968898,0.0430866 -0.0186024,0.0856772 -0.0275157,0.128272 -0.0244173,-0.0425945 -0.0492205,-0.085185 -0.0728622,-0.128272zm-0.20385 0c0.00968898,-0.0425906 0.0197677,-0.085185 0.0290669,-0.128272 0.0240276,0.0430866 0.0476693,0.0856811 0.071311,0.128272 -0.00968898,0.0430866 -0.0189921,0.0856772 -0.0275157,0.128272 -0.0248031,-0.0425945 -0.0492205,-0.085185 -0.0728622,-0.128272zm-0.204236 0c0.00968898,-0.0425906 0.0197638,-0.085185 0.0294528,-0.128272 0.0240276,0.0430866 0.0476693,0.0856811 0.0709213,0.128272 -0.00929921,0.0430866 -0.0186024,0.0856772 -0.0275157,0.128272 -0.0248031,-0.0425945 -0.0492165,-0.085185 -0.0728583,-0.128272zm-0.20424 0c0.0100787,-0.0425906 0.0201535,-0.085185 0.0298425,-0.128272 0.0236417,0.0430866 0.0472795,0.0856811 0.0705354,0.128272 -0.00968898,0.0430866 -0.0186024,0.0856772 -0.0275157,0.128272 -0.0244173,-0.0425945 -0.0492205,-0.085185 -0.0728622,-0.128272zm-0.20385 0c0.0100787,-0.0425906 0.0205433,-0.085185 0.0302283,-0.128272 0.0232559,0.0430866 0.0468937,0.0856811 0.0701496,0.128272 -0.00968898,0.0430866 -0.0189921,0.0856772 -0.0275157,0.128272 -0.0248031,-0.0425945 -0.0492205,-0.085185 -0.0728622,-0.128272zm-0.204236 0c0.0100748,-0.0425906 0.0205394,-0.085185 0.0302283,-0.128272 0.0240276,0.0430866 0.0472795,0.0856811 0.0705354,0.128272 -0.00968898,0.0430866 -0.0189921,0.0856772 -0.0279055,0.128272 -0.0248031,-0.0425945 -0.0492205,-0.085185 -0.0728583,-0.128272zm-0.20385 0c0.0100748,-0.0425906 0.0205394,-0.085185 0.0302283,-0.128272 0.0236417,0.0430866 0.0468937,0.0856811 0.0701457,0.128272 -0.0100748,0.0430866 -0.0189882,0.0856772 -0.0279016,0.128272 -0.0244173,-0.0425945 -0.0492205,-0.085185 -0.0724724,-0.128272zm-0.20385 0c0.0100748,-0.0425906 0.0205394,-0.085185 0.0306142,-0.128272 0.023252,0.0430866 0.0465079,0.0856811 0.069374,0.128272 -0.00968898,0.0430866 -0.0189921,0.0856772 -0.0275197,0.128272 -0.0248031,-0.0425945 -0.0492165,-0.085185 -0.0724685,-0.128272zm3.31625 0.27635c0.00736614,-0.0425906 0.0166654,-0.085185 0.0251929,-0.128272 0.025189,0.0430866 0.0496063,0.0856811 0.0755709,0.128272 -0.0081378,0.0430866 -0.0162756,0.0856772 -0.0244134,0.128272 -0.0255787,-0.0425945 -0.0511575,-0.085185 -0.0763504,-0.128272zm-0.204236 0c0.00775197,-0.0425906 0.0166654,-0.085185 0.0255787,-0.128272 0.0244134,0.0430866 0.0492165,0.0856811 0.0747953,0.128272 -0.00774803,0.0430866 -0.0162756,0.0856772 -0.0240276,0.128272 -0.0255787,-0.0425945 -0.0507677,-0.085185 -0.0763465,-0.128272zm-0.20424 0c0.00814173,-0.0425906 0.0170551,-0.085185 0.0259685,-0.128272 0.0244134,0.0430866 0.0488307,0.0856811 0.0747953,0.128272 -0.0081378,0.0430866 -0.0166654,0.0856772 -0.0240276,0.128272 -0.0259646,-0.0425945 -0.0511575,-0.085185 -0.0767362,-0.128272zm-0.204236 0c0.00775197,-0.0425906 0.0170512,-0.085185 0.0255787,-0.128272 0.0248031,0.0430866 0.0492165,0.0856811 0.0747953,0.128272 -0.0081378,0.0430866 -0.0162756,0.0856772 -0.0240276,0.128272 -0.0255787,-0.0425945 -0.0511575,-0.085185 -0.0763465,-0.128272zm-0.20385 0c0.00775197,-0.0425906 0.0166654,-0.085185 0.0255787,-0.128272 0.0244134,0.0430866 0.0492165,0.0856811 0.0747953,0.128272 -0.0081378,0.0430866 -0.0166654,0.0856772 -0.0244134,0.128272 -0.0255787,-0.0425945 -0.0507717,-0.085185 -0.0759606,-0.128272zm-0.20424 0c0.00814173,-0.0425906 0.0170551,-0.085185 0.0259685,-0.128272 0.0244134,0.0430866 0.0488307,0.0856811 0.0744094,0.128272 -0.00814173,0.0430866 -0.0166654,0.0856772 -0.0240276,0.128272 -0.0259685,-0.0425945 -0.0511575,-0.085185 -0.0763504,-0.128272zm-0.204236 0c0.00775197,-0.0425906 0.0170512,-0.085185 0.0259646,-0.128272 0.0244173,0.0430866 0.0488307,0.0856811 0.0744094,0.128272 -0.00852362,0.0430866 -0.0166654,0.0856772 -0.0244134,0.128272 -0.0255787,-0.0425945 -0.0511575,-0.085185 -0.0759606,-0.128272zm-0.20385 0c0.00775197,-0.0425906 0.0166654,-0.085185 0.0255787,-0.128272 0.0244134,0.0430866 0.0492165,0.0856811 0.0744094,0.128272 -0.00814173,0.0430866 -0.0166654,0.0856772 -0.0244173,0.128272 -0.0255787,-0.0425945 -0.0507677,-0.085185 -0.0755709,-0.128272zm-0.204626 0c0.00852362,-0.0425906 0.0174409,-0.085185 0.0263543,-0.128272 0.0244134,0.0430866 0.0488307,0.0856811 0.0744094,0.128272 -0.00852756,0.0430866 -0.0170551,0.0856772 -0.0244173,0.128272 -0.0259646,-0.0425945 -0.0511575,-0.085185 -0.0763465,-0.128272zm-0.20385 0c0.00775197,-0.0425906 0.0170512,-0.085185 0.0259646,-0.128272 0.0244173,0.0430866 0.0488307,0.0856811 0.0744094,0.128272 -0.00891339,0.0430866 -0.0174409,0.0856772 -0.0248031,0.128272 -0.0259646,-0.0425945 -0.0507677,-0.085185 -0.0755709,-0.128272zm-0.20424 0c0.0081378,-0.0425906 0.0170551,-0.085185 0.0263543,-0.128272 0.0240276,0.0430866 0.0488307,0.0856811 0.0740236,0.128272 -0.00852756,0.0430866 -0.0170551,0.0856772 -0.0248031,0.128272 -0.0255787,-0.0425945 -0.0507717,-0.085185 -0.0755748,-0.128272zm-0.204236 0c0.0081378,-0.0425906 0.0170512,-0.085185 0.0259646,-0.128272 0.0248031,0.0430866 0.0496063,0.0856811 0.0747953,0.128272 -0.00891339,0.0430866 -0.017437,0.0856772 -0.025189,0.128272 -0.0259646,-0.0425945 -0.0511575,-0.085185 -0.0755709,-0.128272zm-0.20424 0c0.0081378,-0.0425906 0.0174409,-0.085185 0.0263543,-0.128272 0.0244173,0.0430866 0.0488307,0.0856811 0.0740236,0.128272 -0.00852756,0.0430866 -0.0174409,0.0856772 -0.0248031,0.128272 -0.0259685,-0.0425945 -0.0507717,-0.085185 -0.0755748,-0.128272zm-0.20385 0c0.0081378,-0.0425906 0.0170512,-0.085185 0.0263543,-0.128272 0.0240276,0.0430866 0.0488307,0.0856811 0.0740197,0.128272 -0.00891339,0.0430866 -0.017437,0.0856772 -0.025189,0.128272 -0.0255787,-0.0425945 -0.0507677,-0.085185 -0.075185,-0.128272zm-0.204626 0c0.00852756,-0.0425906 0.0174409,-0.085185 0.0267402,-0.128272 0.0244173,0.0430866 0.0492205,0.0856811 0.0740236,0.128272 -0.00891339,0.0430866 -0.0174409,0.0856772 -0.0255787,0.128272 -0.0255787,-0.0425945 -0.0507677,-0.085185 -0.075185,-0.128272zm-0.20385 0c0.0081378,-0.0425906 0.0174409,-0.085185 0.0263543,-0.128272 0.0244134,0.0430866 0.0488307,0.0856811 0.0740197,0.128272 -0.00891339,0.0430866 -0.0178268,0.0856772 -0.025189,0.128272 -0.0259646,-0.0425945 -0.0507677,-0.085185 -0.075185,-0.128272zm-0.20385 0c0.0081378,-0.0425906 0.0170512,-0.085185 0.0263543,-0.128272 0.0240276,0.0430866 0.0488307,0.0856811 0.0736339,0.128272 -0.00891339,0.0430866 -0.0174409,0.0856772 -0.025189,0.128272 -0.0255787,-0.0425945 -0.0507717,-0.085185 -0.0747992,-0.128272zm3.32284 0.27635c0.00775197,-0.0425906 0.0158898,-0.085185 0.0236417,-0.128272 0.0259646,0.0430866 0.0515433,0.0856811 0.077122,0.128272 -0.00775197,0.0430866 -0.0151142,0.0856772 -0.0228661,0.128268 -0.0259646,-0.0425906 -0.0523189,-0.0851811 -0.0778976,-0.128268zm-0.204236 0c0.00775197,-0.0425906 0.0158898,-0.085185 0.0236417,-0.128272 0.0255748,0.0430866 0.0511535,0.0856811 0.0767323,0.128272 -0.00775197,0.0430866 -0.0151142,0.0856772 -0.0224764,0.128268 -0.0259685,-0.0425906 -0.0523189,-0.0851811 -0.0778976,-0.128268zm-0.204626 0c0.00852756,-0.0425906 0.0162756,-0.085185 0.0244134,-0.128272 0.0251929,0.0430866 0.0511575,0.0856811 0.0763504,0.128272 -0.00775197,0.0430866 -0.0151142,0.0856772 -0.0224803,0.128268 -0.0259646,-0.0425906 -0.0523189,-0.0851811 -0.0782835,-0.128268zm-0.20424 0c0.00814173,-0.0425906 0.0162795,-0.085185 0.0240315,-0.128272 0.0255748,0.0430866 0.0511535,0.0856811 0.0763465,0.128272 -0.00736614,0.0430866 -0.0151142,0.0856772 -0.0224803,0.128268 -0.0259646,-0.0425906 -0.0519291,-0.0851811 -0.0778976,-0.128268zm-0.20385 0c0.00775197,-0.0425906 0.0158898,-0.085185 0.0236417,-0.128272 0.0255787,0.0430866 0.0511575,0.0856811 0.0767362,0.128272 -0.00775197,0.0430866 -0.0155039,0.0856772 -0.0228661,0.128268 -0.0259685,-0.0425906 -0.0519331,-0.0851811 -0.0775118,-0.128268zm-0.204626 0c0.00852756,-0.0425906 0.0162795,-0.085185 0.0244173,-0.128272 0.025189,0.0430866 0.0511575,0.0856811 0.0763465,0.128272 -0.00775197,0.0430866 -0.0155,0.0856772 -0.0228661,0.128268 -0.0259646,-0.0425906 -0.0519291,-0.0851811 -0.0778976,-0.128268zm-0.204236 0c0.0081378,-0.0425906 0.0162756,-0.085185 0.0240276,-0.128272 0.0255787,0.0430866 0.0511575,0.0856811 0.0763465,0.128272 -0.00775197,0.0430866 -0.0155,0.0856772 -0.0228661,0.128268 -0.0259646,-0.0425906 -0.0519291,-0.0851811 -0.0775079,-0.128268zm-0.20424 0c0.00814173,-0.0425906 0.0162795,-0.085185 0.0240276,-0.128272 0.0255787,0.0430866 0.0511575,0.0856811 0.0763504,0.128272 -0.00775197,0.0430866 -0.0155039,0.0856772 -0.0228661,0.128268 -0.0259646,-0.0425906 -0.0519331,-0.0851811 -0.0775118,-0.128268zm-0.204236 0c0.00852362,-0.0425906 0.0162756,-0.085185 0.0244134,-0.128272 0.0251929,0.0430866 0.0511575,0.0856811 0.0763504,0.128272 -0.00775197,0.0430866 -0.0158898,0.0856772 -0.0232559,0.128268 -0.0259646,-0.0425906 -0.0515433,-0.0851811 -0.0775079,-0.128268zm-0.20424 0c0.00814173,-0.0425906 0.0158898,-0.085185 0.0240276,-0.128272 0.0251929,0.0430866 0.0511575,0.0856811 0.0763504,0.128272 -0.00775197,0.0430866 -0.0158898,0.0856772 -0.0232559,0.128268 -0.0259646,-0.0425906 -0.0515433,-0.0851811 -0.077122,-0.128268zm-0.204236 0c0.0081378,-0.0425906 0.0162756,-0.085185 0.0240276,-0.128272 0.0255787,0.0430866 0.0511575,0.0856811 0.0763465,0.128272 -0.00775197,0.0430866 -0.0158898,0.0856772 -0.023252,0.128268 -0.0259646,-0.0425906 -0.0515433,-0.0851811 -0.077122,-0.128268zm-0.204626 0c0.00852362,-0.0425906 0.0162756,-0.085185 0.0244134,-0.128272 0.0255787,0.0430866 0.0511575,0.0856811 0.0763504,0.128272 -0.00775197,0.0430866 -0.0158898,0.0856772 -0.0236417,0.128268 -0.0259646,-0.0425906 -0.0515433,-0.0851811 -0.077122,-0.128268zm-0.20385 0c0.0081378,-0.0425906 0.0158898,-0.085185 0.0240276,-0.128272 0.025189,0.0430866 0.0511575,0.0856811 0.0763465,0.128272 -0.0081378,0.0430866 -0.0162756,0.0856772 -0.0236417,0.128268 -0.0259646,-0.0425906 -0.0515433,-0.0851811 -0.0767323,-0.128268zm-0.20424 0c0.0081378,-0.0425906 0.0162795,-0.085185 0.0240276,-0.128272 0.0255787,0.0430866 0.0511575,0.0856811 0.0763504,0.128272 -0.00775197,0.0430866 -0.0162795,0.0856772 -0.0236417,0.128268 -0.0259646,-0.0425906 -0.0511575,-0.0851811 -0.0767362,-0.128268zm-0.204626 0c0.00852756,-0.0425906 0.0162795,-0.085185 0.0240276,-0.128272 0.0259685,0.0430866 0.0515472,0.0856811 0.0767362,0.128272 -0.00775197,0.0430866 -0.0158898,0.0856772 -0.0240276,0.128268 -0.0255787,-0.0425906 -0.0511575,-0.0851811 -0.0767362,-0.128268zm-0.204236 0c0.00852362,-0.0425906 0.0162756,-0.085185 0.0244134,-0.128272 0.0251929,0.0430866 0.0511575,0.0856811 0.0759606,0.128272 -0.00775197,0.0430866 -0.0158898,0.0856772 -0.0236417,0.128268 -0.0255748,-0.0425906 -0.0511535,-0.0851811 -0.0767323,-0.128268zm-0.20385 0c0.0081378,-0.0425906 0.0162756,-0.085185 0.0240276,-0.128272 0.0255787,0.0430866 0.0511575,0.0856811 0.0763465,0.128272 -0.0081378,0.0430866 -0.0162756,0.0856772 -0.0240276,0.128268 -0.0255787,-0.0425906 -0.0511575,-0.0851811 -0.0763465,-0.128268zm3.32788 0.27635c0.0073622,-0.0425906 0.0151142,-0.085185 0.0224764,-0.128272 0.0263543,0.0430866 0.0523189,0.0856811 0.0786732,0.128272 -0.00775197,0.0430866 -0.0151142,0.0856772 -0.0228661,0.128268 -0.0259646,-0.0425906 -0.0523189,-0.0851811 -0.0782835,-0.128268zm-0.20424 0c0.00736614,-0.0425906 0.0151142,-0.085185 0.0224803,-0.128272 0.0259646,0.0430866 0.0519291,0.0856811 0.0778937,0.128272 -0.0073622,0.0430866 -0.0151142,0.0856772 -0.0220866,0.128268 -0.0263543,-0.0425906 -0.0523189,-0.0851811 -0.0782874,-0.128268zm-0.204626 0c0.00775197,-0.0425906 0.0151142,-0.085185 0.0228661,-0.128272 0.0259646,0.0430866 0.0519331,0.0856811 0.0778976,0.128272 -0.0073622,0.0430866 -0.0151142,0.0856772 -0.0224764,0.128268 -0.0259685,-0.0425906 -0.0519331,-0.0851811 -0.0782874,-0.128268zm-0.204236 0c0.0073622,-0.0425906 0.0151142,-0.085185 0.0224764,-0.128272 0.0259646,0.0430866 0.0519331,0.0856811 0.0778976,0.128272 -0.0073622,0.0430866 -0.0151142,0.0856772 -0.0224764,0.128268 -0.0259685,-0.0425906 -0.0523189,-0.0851811 -0.0778976,-0.128268zm-0.20424 0c0.00736614,-0.0425906 0.0151142,-0.085185 0.0224803,-0.128272 0.0259646,0.0430866 0.0519291,0.0856811 0.0778976,0.128272 -0.00775197,0.0430866 -0.0151181,0.0856772 -0.0224803,0.128268 -0.0259646,-0.0425906 -0.0523189,-0.0851811 -0.0778976,-0.128268zm-0.204626 0c0.00775197,-0.0425906 0.0151142,-0.085185 0.0228661,-0.128272 0.0259646,0.0430866 0.0519331,0.0856811 0.0778976,0.128272 -0.00775197,0.0430866 -0.0151142,0.0856772 -0.0228661,0.128268 -0.0255787,-0.0425906 -0.0519291,-0.0851811 -0.0778976,-0.128268zm-0.204236 0c0.0073622,-0.0425906 0.0151142,-0.085185 0.0224764,-0.128272 0.0259646,0.0430866 0.0519331,0.0856811 0.0778976,0.128272 -0.00775197,0.0430866 -0.0151142,0.0856772 -0.0228661,0.128268 -0.0259646,-0.0425906 -0.0519291,-0.0851811 -0.0775079,-0.128268zm-0.20424 0c0.00736614,-0.0425906 0.0151142,-0.085185 0.0224803,-0.128272 0.0259646,0.0430866 0.0519291,0.0856811 0.0778976,0.128272 -0.00775197,0.0430866 -0.0155039,0.0856772 -0.0228661,0.128268 -0.0259685,-0.0425906 -0.0519331,-0.0851811 -0.0775118,-0.128268zm-0.204626 0c0.00775197,-0.0425906 0.0155039,-0.085185 0.0228661,-0.128272 0.0259646,0.0430866 0.0519331,0.0856811 0.0778976,0.128272 -0.00775197,0.0430866 -0.0155,0.0856772 -0.0228661,0.128268 -0.0259646,-0.0425906 -0.0519291,-0.0851811 -0.0778976,-0.128268zm-0.204626 0c0.00775197,-0.0425906 0.0155039,-0.085185 0.0228661,-0.128272 0.0259646,0.0430866 0.0519331,0.0856811 0.0778976,0.128272 -0.00775197,0.0430866 -0.0155,0.0856772 -0.023252,0.128268 -0.0255787,-0.0425906 -0.0519331,-0.0851811 -0.0775118,-0.128268zm-0.204236 0c0.0073622,-0.0425906 0.0155,-0.085185 0.0228661,-0.128272 0.0259646,0.0430866 0.0519291,0.0856811 0.0775079,0.128272 -0.00775197,0.0430866 -0.0151142,0.0856772 -0.0228661,0.128268 -0.0255787,-0.0425906 -0.0519291,-0.0851811 -0.0775079,-0.128268zm-0.204626 0c0.0073622,-0.0425906 0.0155,-0.085185 0.0228661,-0.128272 0.0263504,0.0430866 0.0519291,0.0856811 0.0778976,0.128272 -0.00775197,0.0430866 -0.0151142,0.0856772 -0.0232559,0.128268 -0.0255748,-0.0425906 -0.0519291,-0.0851811 -0.0775079,-0.128268zm-0.20424 0c0.00736614,-0.0425906 0.0155039,-0.085185 0.0228661,-0.128272 0.0259685,0.0430866 0.0515433,0.0856811 0.0775118,0.128272 -0.00775197,0.0430866 -0.0151142,0.0856772 -0.0232559,0.128268 -0.0255748,-0.0425906 -0.0515433,-0.0851811 -0.077122,-0.128268zm-0.204236 0c0.0073622,-0.0425906 0.0155,-0.085185 0.0228661,-0.128272 0.0259646,0.0430866 0.0515433,0.0856811 0.0775079,0.128272 -0.00775197,0.0430866 -0.0155,0.0856772 -0.023252,0.128268 -0.0255787,-0.0425906 -0.0515433,-0.0851811 -0.077122,-0.128268zm-0.204626 0c0.0073622,-0.0425906 0.0155,-0.085185 0.0228661,-0.128272 0.0263543,0.0430866 0.0519291,0.0856811 0.0778976,0.128272 -0.00775197,0.0430866 -0.0155039,0.0856772 -0.0236417,0.128268 -0.0255787,-0.0425906 -0.0515433,-0.0851811 -0.077122,-0.128268zm-0.20424 0c0.00736614,-0.0425906 0.0155039,-0.085185 0.0228661,-0.128272 0.0259685,0.0430866 0.0515433,0.0856811 0.0775118,0.128272 -0.0081378,0.0430866 -0.0155039,0.0856772 -0.0232559,0.128268 -0.0255748,-0.0425906 -0.0519291,-0.0851811 -0.077122,-0.128268zm-0.204236 0c0.0073622,-0.0425906 0.0155,-0.085185 0.0228661,-0.128272 0.0259646,0.0430866 0.0515433,0.0856811 0.0775079,0.128272 -0.0081378,0.0430866 -0.0155,0.0856772 -0.0236378,0.128268 -0.0251929,-0.0425906 -0.0515472,-0.0851811 -0.0767362,-0.128268zm3.33021 0.275854c0.0073622,-0.0425906 0.0147244,-0.085185 0.0224764,-0.128272 0.0259646,0.0430866 0.0523189,0.0856811 0.0786732,0.128272 -0.00736614,0.0430866 -0.0151142,0.0856772 -0.0224803,0.128272 -0.0263504,-0.0425945 -0.0523189,-0.085185 -0.0786693,-0.128272zm-0.204626 0c0.0073622,-0.0425906 0.0151142,-0.085185 0.0228622,-0.128272 0.0255787,0.0430866 0.0515472,0.0856811 0.0778976,0.128272 -0.0073622,0.0430866 -0.0151142,0.0856772 -0.0220906,0.128272 -0.0263504,-0.0425945 -0.0523189,-0.085185 -0.0786693,-0.128272zm-0.204626 0c0.00774803,-0.0425906 0.0151142,-0.085185 0.0228622,-0.128272 0.0259685,0.0430866 0.0519331,0.0856811 0.0778976,0.128272 -0.0073622,0.0430866 -0.0151142,0.0856772 -0.0224764,0.128272 -0.0259646,-0.0425945 -0.0519331,-0.085185 -0.0782835,-0.128272zm-0.204626 0c0.0073622,-0.0425906 0.0151142,-0.085185 0.0228622,-0.128272 0.0255787,0.0430866 0.0515472,0.0856811 0.0775118,0.128272 -0.0073622,0.0430866 -0.0151142,0.0856772 -0.0224764,0.128272 -0.0259685,-0.0425945 -0.0519331,-0.085185 -0.0778976,-0.128272zm-0.204626 0c0.0073622,-0.0425906 0.0151142,-0.085185 0.0228661,-0.128272 0.0259646,0.0430866 0.0519291,0.0856811 0.0778937,0.128272 -0.00774803,0.0430866 -0.0155,0.0856772 -0.0228622,0.128272 -0.0259685,-0.0425945 -0.0519331,-0.085185 -0.0778976,-0.128272zm-0.204626 0c0.00775197,-0.0425906 0.0155,-0.085185 0.023252,-0.128272 0.0255787,0.0430866 0.0515433,0.0856811 0.0775118,0.128272 -0.00775197,0.0430866 -0.0155039,0.0856772 -0.0228661,0.128272 -0.0259685,-0.0425945 -0.0519331,-0.085185 -0.0778976,-0.128272zm-0.204626 0c0.0073622,-0.0425906 0.0155,-0.085185 0.023252,-0.128272 0.0255787,0.0430866 0.0511575,0.0856811 0.077122,0.128272 -0.0073622,0.0430866 -0.0155,0.0856772 -0.0228661,0.128272 -0.0259646,-0.0425945 -0.0519291,-0.085185 -0.0775079,-0.128272zm-0.204626 0c0.00775197,-0.0425906 0.0155,-0.085185 0.023252,-0.128272 0.0255787,0.0430866 0.0515433,0.0856811 0.0775118,0.128272 -0.00775197,0.0430866 -0.0158898,0.0856772 -0.0232559,0.128272 -0.0259646,-0.0425945 -0.0519291,-0.085185 -0.0775079,-0.128272zm-0.205016 0c0.00814173,-0.0425906 0.0158898,-0.085185 0.0240315,-0.128272 0.0255748,0.0430866 0.0511535,0.0856811 0.077122,0.128272 -0.00775197,0.0430866 -0.0158898,0.0856772 -0.0232559,0.128272 -0.0259646,-0.0425945 -0.0519291,-0.085185 -0.0778976,-0.128272zm-0.204236 0c0.0073622,-0.0425906 0.0155,-0.085185 0.0236417,-0.128272 0.025189,0.0430866 0.0511535,0.0856811 0.0767323,0.128272 -0.00774803,0.0430866 -0.0158898,0.0856772 -0.0236378,0.128272 -0.0255787,-0.0425945 -0.0511575,-0.085185 -0.0767362,-0.128272zm-0.204626 0c0.00775197,-0.0425906 0.0158898,-0.085185 0.0236417,-0.128272 0.0255787,0.0430866 0.0511535,0.0856811 0.0767323,0.128272 -0.00774803,0.0430866 -0.0158898,0.0856772 -0.0236378,0.128272 -0.0255787,-0.0425945 -0.0511575,-0.085185 -0.0767362,-0.128272zm-0.205012 0c0.00774803,-0.0425906 0.0158898,-0.085185 0.0240276,-0.128272 0.0255787,0.0430866 0.0511575,0.0856811 0.077122,0.128272 -0.0081378,0.0430866 -0.0162795,0.0856772 -0.0244173,0.128272 -0.0255787,-0.0425945 -0.0511535,-0.085185 -0.0767323,-0.128272zm-0.204626 0c0.0081378,-0.0425906 0.0162756,-0.085185 0.0244134,-0.128272 0.0251929,0.0430866 0.0507717,0.0856811 0.0763465,0.128272 -0.0081378,0.0430866 -0.0162756,0.0856772 -0.0240276,0.128272 -0.0255787,-0.0425945 -0.0511535,-0.085185 -0.0767323,-0.128272zm-0.20424 0c0.00775197,-0.0425906 0.0158898,-0.085185 0.0240276,-0.128272 0.0251929,0.0430866 0.0507717,0.0856811 0.0763465,0.128272 -0.0081378,0.0430866 -0.0162756,0.0856772 -0.0240276,0.128272 -0.0255787,-0.0425945 -0.0511535,-0.085185 -0.0763465,-0.128272zm-0.205012 0c0.00775197,-0.0425906 0.0162756,-0.085185 0.0244134,-0.128272 0.0255787,0.0430866 0.0511575,0.0856811 0.0763504,0.128272 -0.00814173,0.0430866 -0.0162795,0.0856772 -0.0244173,0.128272 -0.0255787,-0.0425945 -0.0511575,-0.085185 -0.0763465,-0.128272zm-0.204626 0c0.0081378,-0.0425906 0.0162756,-0.085185 0.0248031,-0.128272 0.0248031,0.0430866 0.0503819,0.0856811 0.0759606,0.128272 -0.00814173,0.0430866 -0.0166654,0.0856772 -0.0244173,0.128272 -0.0255787,-0.0425945 -0.0511575,-0.085185 -0.0763465,-0.128272zm-0.20424 0c0.00775197,-0.0425906 0.0162795,-0.085185 0.0244173,-0.128272 0.025189,0.0430866 0.0503819,0.0856811 0.0759606,0.128272 -0.00814173,0.0430866 -0.0166654,0.0856772 -0.0248031,0.128272 -0.0251929,-0.0425945 -0.0507717,-0.085185 -0.0755748,-0.128272zm3.33292 0.27635c0.00775197,-0.0425906 0.0158898,-0.085185 0.0240276,-0.128272 0.0255787,0.0430866 0.0515433,0.0856811 0.0775118,0.128272 -0.00814173,0.0430866 -0.0162795,0.0856772 -0.0244173,0.128268 -0.0255787,-0.0425906 -0.0515433,-0.0851811 -0.077122,-0.128268zm-0.205012 0c0.0081378,-0.0425906 0.0162756,-0.085185 0.0240276,-0.128272 0.0255787,0.0430866 0.0511535,0.0856811 0.077122,0.128272 -0.0081378,0.0430866 -0.0162795,0.0856772 -0.0240276,0.128268 -0.0259685,-0.0425906 -0.0515472,-0.0851811 -0.077122,-0.128268zm-0.205016 0c0.0081378,-0.0425906 0.0162795,-0.085185 0.0244173,-0.128272 0.025189,0.0430866 0.0507677,0.0856811 0.0767323,0.128272 -0.00852362,0.0430866 -0.0166614,0.0856772 -0.0244134,0.128268 -0.0255787,-0.0425906 -0.0511575,-0.0851811 -0.0767362,-0.128268zm-0.205402 0c0.00814173,-0.0425906 0.0166654,-0.085185 0.0248031,-0.128272 0.0251929,0.0430866 0.0507717,0.0856811 0.0763504,0.128272 -0.00852756,0.0430866 -0.0166654,0.0856772 -0.0248031,0.128268 -0.0255787,-0.0425906 -0.0511575,-0.0851811 -0.0763504,-0.128268zm-0.205012 0c0.0081378,-0.0425906 0.0166654,-0.085185 0.0248031,-0.128272 0.025189,0.0430866 0.0507677,0.0856811 0.0763465,0.128272 -0.00852362,0.0430866 -0.0170512,0.0856772 -0.025189,0.128268 -0.0251929,-0.0425906 -0.0507717,-0.0851811 -0.0759606,-0.128268zm-0.205012 0c0.0081378,-0.0425906 0.0166614,-0.085185 0.025189,-0.128272 0.025189,0.0430866 0.0503819,0.0856811 0.0759606,0.128272 -0.00852756,0.0430866 -0.0170512,0.0856772 -0.0251929,0.128268 -0.0255787,-0.0425906 -0.0507677,-0.0851811 -0.0759567,-0.128268zm-0.205402 0c0.00852362,-0.0425906 0.0170512,-0.085185 0.0255787,-0.128272 0.0248031,0.0430866 0.0499921,0.0856811 0.0755709,0.128272 -0.00852756,0.0430866 -0.0174409,0.0856772 -0.0255787,0.128268 -0.025189,-0.0425906 -0.0503819,-0.0851811 -0.0755709,-0.128268zm-0.205016 0c0.00852756,-0.0425906 0.0170551,-0.085185 0.0255787,-0.128272 0.0251929,0.0430866 0.0503819,0.0856811 0.0755748,0.128272 -0.00891339,0.0430866 -0.0174409,0.0856772 -0.0259685,0.128268 -0.025189,-0.0425906 -0.0503819,-0.0851811 -0.075185,-0.128268zm-0.205012 0c0.00852756,-0.0425906 0.0174409,-0.085185 0.0259646,-0.128272 0.0248031,0.0430866 0.0499961,0.0856811 0.075185,0.128272 -0.00891339,0.0430866 -0.0178268,0.0856772 -0.0259646,0.128268 -0.0251929,-0.0425906 -0.0503819,-0.0851811 -0.075185,-0.128268zm-0.205012 0c0.00852362,-0.0425906 0.0170512,-0.085185 0.0259646,-0.128272 0.0248031,0.0430866 0.0496063,0.0856811 0.0747953,0.128272 -0.00891339,0.0430866 -0.0178268,0.0856772 -0.0263504,0.128268 -0.0251929,-0.0425906 -0.0499961,-0.0851811 -0.0744094,-0.128268zm-0.205402 0c0.00891339,-0.0425906 0.0178268,-0.085185 0.0263543,-0.128272 0.0248031,0.0430866 0.0496063,0.0856811 0.0747953,0.128272 -0.00891339,0.0430866 -0.0182165,0.0856772 -0.0267402,0.128268 -0.0248031,-0.0425906 -0.0496063,-0.0851811 -0.0744094,-0.128268zm-0.205016 0c0.00852756,-0.0425906 0.0174409,-0.085185 0.0263543,-0.128272 0.0251929,0.0430866 0.0499961,0.0856811 0.0747992,0.128272 -0.00930315,0.0430866 -0.0182165,0.0856772 -0.0275157,0.128268 -0.0248031,-0.0425906 -0.0492205,-0.0851811 -0.0736378,-0.128268zm-0.205012 0c0.00852756,-0.0425906 0.0178268,-0.085185 0.0267402,-0.128272 0.0244173,0.0430866 0.0492205,0.0856811 0.0740236,0.128272 -0.00930315,0.0430866 -0.0186024,0.0856772 -0.0271299,0.128268 -0.0248031,-0.0425906 -0.0496063,-0.0851811 -0.0736339,-0.128268zm-0.205402 0c0.00930315,-0.0425906 0.0182165,-0.085185 0.0271299,-0.128272 0.0248031,0.0430866 0.0492165,0.0856811 0.0740197,0.128272 -0.00929921,0.0430866 -0.0186024,0.0856772 -0.0275157,0.128268 -0.0248031,-0.0425906 -0.0492165,-0.0851811 -0.0736339,-0.128268zm-0.205012 0c0.00891339,-0.0425906 0.0182126,-0.085185 0.027126,-0.128272 0.0248031,0.0430866 0.0492205,0.0856811 0.0740236,0.128272 -0.00929921,0.0430866 -0.0189882,0.0856772 -0.0282913,0.128268 -0.0244134,-0.0425906 -0.0488307,-0.0851811 -0.0728583,-0.128268zm-0.205016 0c0.00891732,-0.0425906 0.0182165,-0.085185 0.0275197,-0.128272 0.0244134,0.0430866 0.0488307,0.0856811 0.0732441,0.128272 -0.00968898,0.0430866 -0.0189882,0.0856772 -0.0279016,0.128268 -0.0244173,-0.0425906 -0.0488307,-0.0851811 -0.0728622,-0.128268zm-0.205012 0c0.00891339,-0.0425906 0.0186024,-0.085185 0.0275157,-0.128272 0.0244173,0.0430866 0.0488307,0.0856811 0.073248,0.128272 -0.00968898,0.0430866 -0.0189921,0.0856772 -0.0282913,0.128268 -0.0244173,-0.0425906 -0.0488307,-0.0851811 -0.0724724,-0.128268zm3.33602 0.27635c0.00968898,-0.0425906 0.0186024,-0.085185 0.0271299,-0.128272 0.0255787,0.0430866 0.0503819,0.0856811 0.0747953,0.128272 -0.00929921,0.0430866 -0.0186024,0.0856772 -0.0279016,0.128268 -0.0248031,-0.0425906 -0.0496063,-0.0851811 -0.0740236,-0.128268zm-0.205787 0c0.00968898,-0.0425906 0.0189882,-0.085185 0.0275157,-0.128272 0.025189,0.0430866 0.0496063,0.0856811 0.0740236,0.128272 -0.00968898,0.0430866 -0.0189921,0.0856772 -0.0279055,0.128268 -0.0248031,-0.0425906 -0.0492165,-0.0851811 -0.0736339,-0.128268zm-0.206177 0c0.0100787,-0.0425906 0.0197677,-0.085185 0.0282913,-0.128272 0.0248031,0.0430866 0.0492205,0.0856811 0.073248,0.128272 -0.00930315,0.0430866 -0.0189921,0.0856772 -0.0279055,0.128268 -0.0248031,-0.0425906 -0.0492165,-0.0851811 -0.0736339,-0.128268zm-0.205787 0c0.00968898,-0.0425906 0.019378,-0.085185 0.0282913,-0.128272 0.0248031,0.0430866 0.0492165,0.0856811 0.0728583,0.128272 -0.00929921,0.0430866 -0.0189882,0.0856772 -0.0282913,0.128268 -0.0244134,-0.0425906 -0.0488307,-0.0851811 -0.0728583,-0.128268zm-0.205787 0c0.00968898,-0.0425906 0.0197638,-0.085185 0.0286772,-0.128272 0.0248031,0.0430866 0.0488307,0.0856811 0.0724724,0.128272 -0.00968898,0.0430866 -0.019378,0.0856772 -0.0290669,0.128268 -0.0240276,-0.0425906 -0.0480551,-0.0851811 -0.0720827,-0.128268zm-0.206177 0c0.0104646,-0.0425906 0.0205394,-0.085185 0.0294528,-0.128272 0.0244173,0.0430866 0.0484449,0.0856811 0.0720866,0.128272 -0.00968898,0.0430866 -0.0197677,0.0856772 -0.0294567,0.128268 -0.0240276,-0.0425906 -0.0480551,-0.0851811 -0.0720827,-0.128268zm-0.205787 0c0.0100748,-0.0425906 0.0201535,-0.085185 0.0298386,-0.128272 0.0240315,0.0430866 0.0476693,0.0856811 0.071311,0.128272 -0.00968898,0.0430866 -0.0197638,0.0856772 -0.0298425,0.128268 -0.0236378,-0.0425906 -0.0476693,-0.0851811 -0.0713071,-0.128268zm-0.205787 0c0.0100748,-0.0425906 0.0205394,-0.085185 0.0302283,-0.128272 0.0240276,0.0430866 0.0476654,0.0856811 0.0709213,0.128272 -0.0100787,0.0430866 -0.0201535,0.0856772 -0.0302283,0.128268 -0.0236417,-0.0425906 -0.0472835,-0.0851811 -0.0709213,-0.128268zm-0.206177 0c0.0104646,-0.0425906 0.021315,-0.085185 0.0310039,-0.128272 0.0236417,0.0430866 0.0472795,0.0856811 0.0705315,0.128272 -0.0100748,0.0430866 -0.0205394,0.0856772 -0.0306142,0.128268 -0.0236417,-0.0425906 -0.0472795,-0.0851811 -0.0709213,-0.128268zm-0.205787 0c0.0104606,-0.0425906 0.0209252,-0.085185 0.0310039,-0.128272 0.0236378,0.0430866 0.0468937,0.0856811 0.0701457,0.128272 -0.0100787,0.0430866 -0.0209291,0.0856772 -0.0310039,0.128268 -0.0236417,-0.0425906 -0.0468937,-0.0851811 -0.0701457,-0.128268zm-0.205791 0c0.0104646,-0.0425906 0.021315,-0.085185 0.0313937,-0.128272 0.0236378,0.0430866 0.0465039,0.0856811 0.0697559,0.128272 -0.0104606,0.0430866 -0.0209252,0.0856772 -0.0313898,0.128268 -0.023252,-0.0425906 -0.0465039,-0.0851811 -0.0697598,-0.128268zm-0.206173 0c0.0104606,-0.0425906 0.0217008,-0.085185 0.0317756,-0.128272 0.0236417,0.0430866 0.0465079,0.0856811 0.0697598,0.128272 -0.0104646,0.0430866 -0.021315,0.0856772 -0.0321654,0.128268 -0.023252,-0.0425906 -0.0465079,-0.0851811 -0.0693701,-0.128268zm-0.205791 0c0.0104646,-0.0425906 0.0220906,-0.085185 0.0321693,-0.128272 0.023252,0.0430866 0.0461181,0.0856811 0.0689843,0.128272 -0.0108543,0.0430866 -0.0217047,0.0856772 -0.0321693,0.128268 -0.023252,-0.0425906 -0.0461181,-0.0851811 -0.0689843,-0.128268zm-0.205787 0c0.0108504,-0.0425906 0.0220906,-0.085185 0.0325551,-0.128272 0.023252,0.0430866 0.0457283,0.0856811 0.0685945,0.128272 -0.0108504,0.0430866 -0.0220906,0.0856772 -0.0325512,0.128268 -0.0228661,-0.0425906 -0.0457323,-0.0851811 -0.0685984,-0.128268zm-0.206177 0c0.0108543,-0.0425906 0.0224803,-0.085185 0.0329449,-0.128272 0.023252,0.0430866 0.0457283,0.0856811 0.0685945,0.128272 -0.0108504,0.0430866 -0.0220906,0.0856772 -0.0333307,0.128268 -0.0228622,-0.0425906 -0.0457283,-0.0851811 -0.0682087,-0.128268zm-0.205787 0c0.0108504,-0.0425906 0.0228661,-0.085185 0.0333307,-0.128272 0.0228661,0.0430866 0.0453425,0.0856811 0.0678189,0.128272 -0.0112362,0.0430866 -0.0224764,0.0856772 -0.0337165,0.128268 -0.0224764,-0.0425906 -0.0449528,-0.0851811 -0.0674331,-0.128268zm-0.205787 0c0.0108504,-0.0425906 0.0228661,-0.085185 0.0337165,-0.128272 0.0228661,0.0430866 0.0449567,0.0856811 0.0674331,0.128272 -0.0112402,0.0430866 -0.0228661,0.0856772 -0.0341024,0.128268 -0.0224803,-0.0425906 -0.0449567,-0.0851811 -0.0670472,-0.128268zm3.33989 0.27635c0.0108543,-0.0425945 0.0228661,-0.085185 0.0321693,-0.128272 0.0248031,0.0430866 0.0468937,0.0856772 0.0701457,0.128272 -0.0120157,0.0430866 -0.0236417,0.0856772 -0.034878,0.128268 -0.0228661,-0.0425906 -0.0453465,-0.0851811 -0.067437,-0.128268zm-0.206949 0c0.0112402,-0.0425945 0.0228661,-0.085185 0.0325551,-0.128272 0.0244134,0.0430866 0.0465039,0.0856772 0.0693701,0.128272 -0.0120157,0.0430866 -0.0236417,0.0856772 -0.034878,0.128268 -0.0228661,-0.0425906 -0.0449567,-0.0851811 -0.0670472,-0.128268zm-0.207339 0c0.011626,-0.0425945 0.0236417,-0.085185 0.0337165,-0.128272 0.0236417,0.0430866 0.0461181,0.0856772 0.0685945,0.128272 -0.0120118,0.0430866 -0.0240276,0.0856772 -0.0352677,0.128268 -0.0224764,-0.0425906 -0.0449528,-0.0851811 -0.0670433,-0.128268zm-0.206953 0c0.011626,-0.0425945 0.0236417,-0.085185 0.0341063,-0.128272 0.023252,0.0430866 0.0453425,0.0856772 0.0678189,0.128272 -0.0120118,0.0430866 -0.0244134,0.0856772 -0.0360394,0.128268 -0.0220906,-0.0425906 -0.0441811,-0.0851811 -0.0658858,-0.128268zm-0.206949 0c0.011626,-0.0425945 0.0240276,-0.085185 0.0344921,-0.128272 0.023252,0.0430866 0.0453425,0.0856772 0.0674331,0.128272 -0.0124016,0.0430866 -0.0244173,0.0856772 -0.0364291,0.128268 -0.0220906,-0.0425906 -0.0437953,-0.0851811 -0.0654961,-0.128268zm-0.206953 0c0.0120157,-0.0425945 0.0244173,-0.085185 0.0352677,-0.128272 0.0228661,0.0430866 0.0445669,0.0856772 0.0666575,0.128272 -0.0124016,0.0430866 -0.0248031,0.0856772 -0.036815,0.128268 -0.0220906,-0.0425906 -0.0437953,-0.0851811 -0.0651102,-0.128268zm-0.206949 0c0.0120118,-0.0425945 0.0244134,-0.085185 0.0356535,-0.128272 0.0224764,0.0430866 0.0441811,0.0856772 0.0658819,0.128272 -0.0124016,0.0430866 -0.025189,0.0856772 -0.0372047,0.128268 -0.0217008,-0.0425906 -0.0434055,-0.0851811 -0.0643307,-0.128268zm-0.206953 0c0.0120157,-0.0425945 0.0248031,-0.085185 0.0360433,-0.128272 0.0224764,0.0430866 0.0437913,0.0856772 0.0654961,0.128272 -0.0127913,0.0430866 -0.0255787,0.0856772 -0.0375945,0.128268 -0.0217008,-0.0425906 -0.0430157,-0.0851811 -0.0639449,-0.128268zm-0.207339 0c0.0124016,-0.0425945 0.0255787,-0.085185 0.0372047,-0.128272 0.0220906,0.0430866 0.0434055,0.0856772 0.0647205,0.128272 -0.0127874,0.0430866 -0.0255787,0.0856772 -0.0379803,0.128268 -0.0217008,-0.0425906 -0.0430157,-0.0851811 -0.0639449,-0.128268zm-0.206953 0c0.0124016,-0.0425945 0.0255787,-0.085185 0.0375945,-0.128272 0.0217008,0.0430866 0.0426299,0.0856772 0.0639449,0.128272 -0.0127874,0.0430866 -0.0259646,0.0856772 -0.0387559,0.128268 -0.0209252,-0.0425906 -0.0422402,-0.0851811 -0.0627835,-0.128268zm-0.206949 0c0.0127874,-0.0425945 0.0259646,-0.085185 0.0379803,-0.128272 0.0217008,0.0430866 0.0426299,0.0856772 0.0639449,0.128272 -0.013563,0.0430866 -0.0267402,0.0856772 -0.0395315,0.128268 -0.0209252,-0.0425906 -0.0418543,-0.0851811 -0.0623937,-0.128268zm-0.207339 0c0.0127874,-0.0425945 0.0263543,-0.085185 0.0387559,-0.128272 0.0217008,0.0430866 0.0422402,0.0856772 0.0635551,0.128272 -0.013563,0.0430866 -0.0267402,0.0856772 -0.0403031,0.128268 -0.0209291,-0.0425906 -0.0418543,-0.0851811 -0.0620079,-0.128268zm-0.206953 0c0.0131772,-0.0425945 0.0267402,-0.085185 0.0395315,-0.128272 0.0209252,0.0430866 0.0414685,0.0856772 0.0623937,0.128272 -0.013563,0.0430866 -0.027126,0.0856772 -0.0403031,0.128268 -0.0205394,-0.0425906 -0.0414685,-0.0851811 -0.061622,-0.128268zm-0.206949 0c0.0131772,-0.0425945 0.027126,-0.085185 0.0399173,-0.128272 0.0209252,0.0430866 0.0410787,0.0856772 0.0620079,0.128272 -0.0139528,0.0430866 -0.0275157,0.0856772 -0.0406929,0.128268 -0.0205394,-0.0425906 -0.0410827,-0.0851811 -0.0612323,-0.128268zm-0.207339 0c0.013563,-0.0425945 0.0275157,-0.085185 0.0406929,-0.128272 0.0209252,0.0430866 0.0410787,0.0856772 0.0616181,0.128272 -0.0139528,0.0430866 -0.0275157,0.0856772 -0.0414685,0.128268 -0.0205394,-0.0425906 -0.0410787,-0.0851811 -0.0608425,-0.128268zm-0.206953 0c0.013563,-0.0425945 0.0279055,-0.085185 0.0414685,-0.128272 0.0201535,0.0430866 0.0399173,0.0856772 0.0604567,0.128272 -0.0139528,0.0430866 -0.0279016,0.0856772 -0.0418543,0.128268 -0.0197638,-0.0425906 -0.0403071,-0.0851811 -0.0600709,-0.128268zm-0.206563 0c0.013563,-0.0425945 0.0279016,-0.085185 0.0414685,-0.128272 0.0201496,0.0430866 0.0399173,0.0856772 0.0600709,0.128272 -0.0143425,0.0430866 -0.0282913,0.0856772 -0.0422441,0.128268 -0.0197638,-0.0425906 -0.0399173,-0.0851811 -0.0592953,-0.128268zm3.33951 0.275854c0.0147283,-0.0425906 0.0302283,-0.085185 0.0426299,-0.128272 0.0217047,0.0430866 0.0406929,0.0856811 0.0600709,0.128272 -0.0155039,0.0430866 -0.0306181,0.0856772 -0.0461181,0.128268 -0.0189921,-0.0425906 -0.0379803,-0.0851811 -0.0565827,-0.128268zm-0.2085 0c0.0151142,-0.0425906 0.0306142,-0.085185 0.0434055,-0.128272 0.021315,0.0430866 0.0403031,0.0856811 0.0592953,0.128272 -0.0155039,0.0430866 -0.0310039,0.0856772 -0.0461181,0.128268 -0.0189921,-0.0425906 -0.0379803,-0.0851811 -0.0565827,-0.128268zm-0.208114 0c0.0155,-0.0425906 0.0310039,-0.085185 0.0441811,-0.128272 0.0209252,0.0430866 0.0395276,0.0856811 0.0585197,0.128272 -0.0158898,0.0430866 -0.0313937,0.0856772 -0.0465079,0.128268 -0.0189882,-0.0425906 -0.0375906,-0.0851811 -0.0561929,-0.128268zm-0.208114 0c0.0151142,-0.0425906 0.0310039,-0.085185 0.0441811,-0.128272 0.0205394,0.0430866 0.0391417,0.0856811 0.0581299,0.128272 -0.0158898,0.0430866 -0.0313898,0.0856772 -0.0468937,0.128268 -0.0186024,-0.0425906 -0.0372047,-0.0851811 -0.0554173,-0.128268zm-0.2085 0c0.0158898,-0.0425906 0.0317756,-0.085185 0.0453425,-0.128272 0.0201535,0.0430866 0.0387559,0.0856811 0.0573583,0.128272 -0.0158898,0.0430866 -0.0317795,0.0856772 -0.0476693,0.128268 -0.0182165,-0.0425906 -0.0368189,-0.0851811 -0.0550315,-0.128268zm-0.208114 0c0.0158898,-0.0425906 0.0317795,-0.085185 0.0457283,-0.128272 0.0201535,0.0430866 0.0383701,0.0856811 0.0569724,0.128272 -0.0162795,0.0430866 -0.0321693,0.0856772 -0.0480591,0.128268 -0.0182126,-0.0425906 -0.0364291,-0.0851811 -0.0546417,-0.128268zm-0.208114 0c0.0155,-0.0425906 0.0317795,-0.085185 0.0461181,-0.128272 0.0197638,0.0430866 0.0379803,0.0856811 0.0561929,0.128272 -0.0162756,0.0430866 -0.0325512,0.0856772 -0.0484409,0.128268 -0.0182165,-0.0425906 -0.0364291,-0.0851811 -0.0538701,-0.128268zm-0.2085 0c0.0162756,-0.0425906 0.0325512,-0.085185 0.0472795,-0.128272 0.019378,0.0430866 0.0372047,0.0856811 0.0554173,0.128272 -0.0166614,0.0430866 -0.0329409,0.0856772 -0.0488307,0.128268 -0.0182126,-0.0425906 -0.0360394,-0.0851811 -0.0538661,-0.128268zm-0.208114 0c0.0162756,-0.0425906 0.0329409,-0.085185 0.0476654,-0.128272 0.0189921,0.0430866 0.0368189,0.0856811 0.0550354,0.128272 -0.0166654,0.0430866 -0.0333307,0.0856772 -0.0492205,0.128268 -0.0178268,-0.0425906 -0.0360433,-0.0851811 -0.0534803,-0.128268zm-0.208114 0c0.0158898,-0.0425906 0.0329409,-0.085185 0.0480551,-0.128272 0.0186024,0.0430866 0.0364291,0.0856811 0.0542559,0.128272 -0.0170512,0.0430866 -0.0333268,0.0856772 -0.0499921,0.128268 -0.0174409,-0.0425906 -0.0352677,-0.0851811 -0.0523189,-0.128268zm-0.208504 0c0.0166654,-0.0425906 0.0333307,-0.085185 0.0488346,-0.128272 0.0186024,0.0430866 0.0360394,0.0856811 0.0538661,0.128272 -0.0170512,0.0430866 -0.0337165,0.0856772 -0.0503819,0.128268 -0.017437,-0.0425906 -0.034878,-0.0851811 -0.0523189,-0.128268zm-0.20811 0c0.0162756,-0.0425906 0.0333268,-0.085185 0.0492165,-0.128272 0.0186024,0.0430866 0.0356535,0.0856811 0.0534803,0.128272 -0.0170512,0.0430866 -0.0341024,0.0856772 -0.0511535,0.128268 -0.0174409,-0.0425906 -0.0348819,-0.0851811 -0.0515433,-0.128268zm-0.208114 0c0.0162756,-0.0425906 0.0337165,-0.085185 0.0496063,-0.128272 0.0182126,0.0430866 0.0352638,0.0856811 0.0527047,0.128272 -0.0174409,0.0430866 -0.0344921,0.0856772 -0.0511575,0.128268 -0.0170512,-0.0425906 -0.0344921,-0.0851811 -0.0511535,-0.128268zm-0.208504 0c0.0170551,-0.0425906 0.0344921,-0.085185 0.0507717,-0.128272 0.017437,0.0430866 0.0344921,0.0856811 0.0519291,0.128272 -0.017437,0.0430866 -0.0344921,0.0856772 -0.0519291,0.128268 -0.0166654,-0.0425906 -0.0341063,-0.0851811 -0.0507717,-0.128268zm-0.208114 0c0.0166654,-0.0425906 0.0344921,-0.085185 0.0507717,-0.128272 0.0178268,0.0430866 0.0344921,0.0856811 0.0519291,0.128272 -0.0178268,0.0430866 -0.034878,0.0856772 -0.0527047,0.128268 -0.0166654,-0.0425906 -0.0337165,-0.0851811 -0.0499961,-0.128268zm-0.20811 0c0.0170512,-0.0425906 0.0344921,-0.085185 0.0515433,-0.128272 0.0170512,0.0430866 0.0337165,0.0856811 0.0507677,0.128272 -0.0178268,0.0430866 -0.0352677,0.0856772 -0.0527047,0.128268 -0.0166654,-0.0425906 -0.0337165,-0.0851811 -0.0496063,-0.128268z"/>
   </g>
  </g>
  <path class="fil4" d="M2.05891 1.43972l2.81501 0c0.0589094,0 0.106669,0.0477598 0.106669,0.106669 0,0.00965748 -0.00129134,0.0190157 -0.00369685,0.0279134 -0.121579,0.681386 -0.00291339,1.45437 0.112768,2.2077 0.0794961,0.517685 0.157594,1.02627 0.157594,1.49828 0,0.0589094 -0.0477598,0.106669 -0.106669,0.106669l-2.8167 0c-0.0589094,0 -0.106669,-0.0477598 -0.106669,-0.106669 0,-0.439488 -0.0851378,-0.925957 -0.171756,-1.42088 -0.140004,-0.8 -0.283791,-1.62159 -0.0911575,-2.34051l-0.000114173 -0.000106299c0.0129252,-0.048248 0.0569449,-0.0798543 0.104724,-0.079063z"/>
  <rect class="fil5" width="6.82666" height="6.82666"/>
 </g>
</svg>
