<?xml version="1.0" encoding="UTF-8"?>
<!DOCTYPE svg PUBLIC "-//W3C//DTD SVG 1.1//EN" "http://www.w3.org/Graphics/SVG/1.1/DTD/svg11.dtd">
<!-- Creator: CorelDRAW -->
<svg xmlns="http://www.w3.org/2000/svg" xml:space="preserve" width="6.82666in" height="6.82666in" style="shape-rendering:geometricPrecision; text-rendering:geometricPrecision; image-rendering:optimizeQuality; fill-rule:evenodd; clip-rule:evenodd"
viewBox="0 0 6.82666 6.82666"
 xmlns:xlink="http://www.w3.org/1999/xlink">
 <defs>
  <style type="text/css">
   <![CDATA[
    .fil5 {fill:none}
    .fil1 {fill:#2B2B2B}
    .fil4 {fill:#A2A2A2}
    .fil3 {fill:#565656;fill-rule:nonzero}
    .fil0 {fill:#8C8D8D;fill-rule:nonzero}
    .fil2 {fill:#AFAFAF;fill-rule:nonzero}
   ]]>
  </style>
 </defs>
 <g id="Layer_x0020_1">
  <metadata id="CorelCorpID_0Corel-Layer"/>
  <g id="_343005408">
   <path id="_343006512" class="fil0" d="M2.95948 3.014c0.0405433,0.0405433 0.106283,0.0405433 0.146823,0 0.0405433,-0.0405394 0.0405433,-0.10628 0,-0.146823l-1.79723 -1.79723c-0.0405433,-0.0405433 -0.106283,-0.0405433 -0.146823,0 -0.0405433,0.0405433 -0.0405433,0.10628 0,0.146823l1.79723 1.79723z"/>
   <path id="_343006200" class="fil0" d="M1.08362 0.881594c-0.0202677,0.0202677 0.123831,0.0444646 0.144098,0.0647362l1.69071 1.6907 -3.93701e-006 3.93701e-006c0.0131181,0.0131181 0.0315079,0.0177441 0.0483465,0.0138898l0.343508 -0.0596102 0.489992 0.391992c0.0222835,0.0178071 0.0547953,0.0141772 0.0725984,-0.0081063 0.0178071,-0.0222874 0.0141772,-0.0547953 -0.00811024,-0.0726024l-0.50426 -0.403406c-0.0115236,-0.0112598 -0.0281102,-0.0170197 -0.0451969,-0.0140551l1.1811e-005 7.08661e-005 -0.342461 0.0594252 -1.52989 -1.52989c-0.0549724,-0.048378 -0.201894,-0.188724 -0.359346,-0.133157z"/>
   <path id="_343006032" class="fil1" d="M4.76113 4.71096c-0.0294213,-0.00338976 -0.0560276,0.0178661 -0.0593819,0.0472638 -0.0033622,0.0294685 0.017878,0.0560512 0.047311,0.0594449 0.0993543,0.0114528 0.189646,0.0487795 0.248161,0.133189 0.0819882,0.11828 0.0735354,0.292937 0.0691102,0.430642 -0.00272835,0.0849567 -0.00627559,0.172602 0.00183071,0.257283 0.00633465,0.0661811 0.0207756,0.137083 0.0583268,0.193177 0.0600709,0.0897402 0.166083,0.11787 0.268181,0.12598 0.0269921,0.00214567 0.0561457,0.00088189 0.083185,-0.00046063 0.0373819,-0.00185433 0.0747717,-0.00484646 0.112063,-0.0080315 0.0189764,-0.00162205 0.0379449,-0.00331496 0.0569134,-0.00500787 0.0282087,-0.00251575 0.0561339,-0.00612992 0.0841654,-0.0100945 0.0192047,-0.0027126 0.0447323,-0.00805906 0.0631732,-0.00127559 0.0278268,0.0102362 0.0586339,-0.00412598 0.0688307,-0.031937 0.0102244,-0.0278858 -0.00414567,-0.0586575 -0.0319843,-0.0689055 -0.0299528,-0.0110236 -0.158067,0.0026378 -0.193138,0.00576772 -0.0151654,0.00135039 -0.0303307,0.00270472 -0.0455,0.00401969 -0.0350945,0.00303937 -0.0702677,0.00594882 -0.105441,0.00790551 -0.0272795,0.00151969 -0.0567323,0.00300787 -0.0839606,0.00084252 -0.0609173,-0.00484252 -0.11702,-0.0254843 -0.158654,-0.0716693 -0.0446969,-0.0495906 -0.0617244,-0.116622 -0.0687047,-0.181409 -0.00754331,-0.0699528 -0.00462992,-0.142646 -0.00237008,-0.212909 0.011185,-0.348362 0.0092126,-0.62524 -0.412118,-0.673815z"/>
   <path id="_343005864" class="fil2" d="M3.26118 3.67515l-0.229815 -0.229815c-0.0697008,-0.0697008 -0.104559,-0.161461 -0.104559,-0.253134 0,-0.0916693 0.0348583,-0.183429 0.104559,-0.253134l3.93701e-006 -3.93701e-006 3.93701e-006 -3.93701e-006c0.0697047,-0.0696969 0.161453,-0.104555 0.25313,-0.104555 0.0916732,0 0.183429,0.0348583 0.25313,0.104555l3.93701e-006 3.93701e-006 0.228697 0.228697c0.0214882,0.020874 0.0338307,0.0508346 0.031189,0.0830197l-8.66142e-005 -7.87402e-006c-0.0010315,0.0131811 0.000602362,0.0261732 0.00490157,0.0379606 0.00397244,0.0108858 0.0106614,0.0214488 0.0201024,0.0308937l0.700535 0.700535c0.00944094,0.00943701 0.02,0.0161299 0.0308937,0.0201024 0.0109921,0.00400787 0.0230236,0.00570079 0.0352835,0.0050748 0.0301575,-0.00324409 0.0614646,0.00669291 0.0845748,0.0298031l-7.87402e-006 7.87402e-006 0.229819 0.229811c0.0697008,0.0697047 0.104555,0.161465 0.104555,0.253138 0,0.0916772 -0.0348543,0.183433 -0.104555,0.253134l-3.93701e-006 3.93701e-006c-0.0697047,0.0697008 -0.161465,0.104559 -0.253134,0.104559 -0.0916732,0 -0.183433,-0.0348583 -0.253134,-0.104559l-0.228787 -0.228787c-0.021437,-0.0208701 -0.0337402,-0.0507992 -0.0310945,-0.0829449l8.26772e-005 7.87402e-006c0.0010315,-0.0131693 -0.000602362,-0.0261535 -0.00490157,-0.037937 -0.0039685,-0.0108937 -0.0106654,-0.0214567 -0.0201024,-0.0308976l-0.700539 -0.700539c-0.00944094,-0.00943701 -0.0200079,-0.0161339 -0.0308976,-0.0201024 -0.0109921,-0.00401575 -0.0230236,-0.00570079 -0.0352795,-0.0050748 -0.0301535,0.00324016 -0.0614606,-0.00668898 -0.0845748,-0.0298031l7.87402e-006 -7.87402e-006z"/>
   <path id="_343006128" class="fil3" d="M1.14436 0.867563c0.0505236,0 0.0963937,0.0206063 0.129697,0.0539016l0.000401575 -1.9685e-005c0.00275591,0.00275591 0.00531496,0.00562992 0.00769685,0.00860236 0.0287441,0.0324449 0.0462087,0.0750079 0.0462087,0.121516 0,0.0505276 -0.0206063,0.0963976 -0.0539016,0.129697l1.9685e-005 0.000405512c-0.00275591,0.00275591 -0.00562992,0.00531496 -0.00859843,0.00769291 -0.0324488,0.028748 -0.0750118,0.0462126 -0.121524,0.0462126 -0.0505276,0 -0.0963937,-0.0206063 -0.129697,-0.0539016l-0.000405512 1.5748e-005 -0.00106693 -0.00109449c-0.0326811,-0.0332165 -0.0528386,-0.0787756 -0.0528386,-0.129028 0,-0.0505276 0.0206102,-0.0963898 0.0539016,-0.129693l-1.5748e-005 -0.000401575 0.00109449 -0.00106693c0.0332205,-0.032685 0.0787756,-0.0528386 0.129028,-0.0528386z"/>
   <path id="_343005360" class="fil4" d="M3.41193 3.73014l0.700539 0.700539c0.00637795,0.00637795 0.0115236,0.0132874 0.0154685,0.0206457l0.415748 -0.415748c-0.00751181,-0.00403543 -0.0145079,-0.00921654 -0.0207047,-0.0154134l-0.700535 -0.700535c-0.0117008,-0.0117008 -0.0192598,-0.025189 -0.0228543,-0.0399567l-0.427567 0.427567c0.0148307,0.00377559 0.0286732,0.0116693 0.0399055,0.0229016z"/>
  </g>
  <rect class="fil5" width="6.82666" height="6.82666"/>
 </g>
</svg>
