<?xml version="1.0" encoding="UTF-8"?>
<!DOCTYPE svg PUBLIC "-//W3C//DTD SVG 1.1//EN" "http://www.w3.org/Graphics/SVG/1.1/DTD/svg11.dtd">
<!-- Creator: CorelDRAW -->
<svg xmlns="http://www.w3.org/2000/svg" xml:space="preserve" width="6.82666in" height="6.82666in" style="shape-rendering:geometricPrecision; text-rendering:geometricPrecision; image-rendering:optimizeQuality; fill-rule:evenodd; clip-rule:evenodd"
viewBox="0 0 6.82666 6.82666"
 xmlns:xlink="http://www.w3.org/1999/xlink">
 <defs>
  <style type="text/css">
   <![CDATA[
    .fil3 {fill:none}
    .fil0 {fill:#565656}
    .fil1 {fill:#212121;fill-rule:nonzero}
    .fil2 {fill:#737373;fill-rule:nonzero}
   ]]>
  </style>
 </defs>
 <g id="Layer_x0020_1">
  <metadata id="CorelCorpID_0Corel-Layer"/>
  <g id="_343007136">
   <path id="_343008072" class="fil0" d="M5.03676 4.75513c-0.0294213,-0.00338976 -0.0560276,0.0178661 -0.0593819,0.0472638 -0.0033622,0.0294685 0.017878,0.0560512 0.047311,0.0594449 0.0993543,0.0114528 0.189646,0.0487795 0.248161,0.133189 0.0819882,0.11828 0.0735354,0.292937 0.0691102,0.430642 -0.00272835,0.0849567 -0.00627559,0.172602 0.00183071,0.257283 0.00633465,0.0661811 0.0207756,0.137083 0.0583268,0.193177 0.0600709,0.0897402 0.166083,0.11787 0.268181,0.12598 0.0269921,0.00214567 0.0561457,0.00088189 0.083185,-0.00046063 0.0373819,-0.00185433 0.0747717,-0.00484646 0.112063,-0.0080315 0.0189764,-0.00162205 0.0379449,-0.00331496 0.0569134,-0.00500787 0.0282087,-0.00251575 0.0561339,-0.00612992 0.0841654,-0.0100945 0.0192047,-0.0027126 0.0447323,-0.00805906 0.0631732,-0.00127559 0.0278268,0.0102362 0.0586339,-0.00412598 0.0688307,-0.031937 0.0102244,-0.0278858 -0.00414567,-0.0586575 -0.0319843,-0.0689055 -0.0299528,-0.0110236 -0.158067,0.0026378 -0.193138,0.00576772 -0.0151654,0.00135039 -0.0303307,0.00270472 -0.0455,0.00401969 -0.0350945,0.00303937 -0.0702677,0.00594882 -0.105441,0.00790551 -0.0272795,0.00151969 -0.0567323,0.00300787 -0.0839606,0.00084252 -0.0609173,-0.00484252 -0.11702,-0.0254843 -0.158654,-0.0716693 -0.0446969,-0.0495906 -0.0617244,-0.116622 -0.0687047,-0.181409 -0.00754331,-0.0699528 -0.00462992,-0.142646 -0.00237008,-0.212909 0.011185,-0.348362 0.0092126,-0.62524 -0.412118,-0.673815z"/>
   <g>
    <path id="_343007280" class="fil1" d="M0.714138 2.86062c0.00375197,-0.0101575 0.00774016,-0.0202835 0.0119961,-0.0303543 0.000944882,-0.00275197 0.002,-0.00548819 0.00318504,-0.00820079 0.0235906,-0.0539803 0.0864803,-0.0786102 0.140461,-0.0550197l-0.000122047 0.000283465 2.00087 0.87452c0.00253937,0.000889764 0.00506693,0.00188189 0.0075748,0.00297638 0.0539803,0.0235906 0.0786102,0.0864803 0.0550197,0.140461l-0.000283465 -0.000122047 -0.000877953 0.00200394 -2.21782 -0.926547z"/>
    <path id="_343007112" class="fil2" d="M4.30184 5.07644l-3.19506 -1.39647c-0.177685,-0.0776575 -0.307378,-0.220752 -0.373173,-0.388713 -0.0533307,-0.136142 -0.0647126,-0.288803 -0.0257165,-0.436366l2.21131 0.923827 -0.00967323 0.0221299 2.14556 0.937764c0.0137795,0.00476772 0.0267953,0.0124488 0.0381063,0.0230787 0.0429252,0.0403425 0.0450157,0.10785 0.00467323,0.150776l-0.0777244 -0.0730512 0.0775 0.0729173c-0.100402,0.106823 -0.23172,0.178902 -0.37328,0.20813 -0.137547,0.0283976 -0.28472,0.0162047 -0.422524,-0.0440197z"/>
   </g>
   <g>
    <path id="_343006752" class="fil1" d="M2.26878 0.902709c-0.00916929,0.00575984 -0.0182598,0.0117441 -0.0272402,0.0179803 -0.0025,0.00149213 -0.00496063,0.00308661 -0.00737008,0.00480315 -0.0479764,0.034189 -0.0591457,0.100799 -0.0249567,0.148772l0.000251969 -0.000177165 1.2673 1.77826c0.0013937,0.00230315 0.00288583,0.0045748 0.00447244,0.00680315 0.034185,0.0479764 0.100799,0.0591457 0.148772,0.0249567l-0.000177165 -0.000251969 0.00177953 -0.00127165 -1.36283 -1.97987z"/>
    <path id="_343007160" class="fil2" d="M5.17503 3.95805l-2.02368 -2.83959c-0.112539,-0.157917 -0.279244,-0.255409 -0.457146,-0.28526 -0.144201,-0.0241929 -0.295941,-0.00393701 -0.432331,0.0645709l1.35883 1.97406 0.0196654 -0.0140157 1.35895 1.90685c0.00749606,0.0125039 0.0176929,0.0236614 0.0304213,0.0325472 0.0483071,0.0337087 0.114803,0.021874 0.148512,-0.0264331l-0.0874724 -0.0610433 0.0872953 0.0608504c0.0838937,-0.120224 0.127425,-0.263559 0.126917,-0.408102 -0.000496063,-0.140449 -0.0426929,-0.281969 -0.129969,-0.404441z"/>
   </g>
  </g>
  <rect class="fil3" width="6.82666" height="6.82666"/>
 </g>
</svg>
