<?xml version="1.0" encoding="UTF-8"?>
<!DOCTYPE svg PUBLIC "-//W3C//DTD SVG 1.1//EN" "http://www.w3.org/Graphics/SVG/1.1/DTD/svg11.dtd">
<!-- Creator: CorelDRAW -->
<svg xmlns="http://www.w3.org/2000/svg" xml:space="preserve" width="6.82666in" height="6.82666in" style="shape-rendering:geometricPrecision; text-rendering:geometricPrecision; image-rendering:optimizeQuality; fill-rule:evenodd; clip-rule:evenodd"
viewBox="0 0 6.82666 6.82666"
 xmlns:xlink="http://www.w3.org/1999/xlink">
 <defs>
  <style type="text/css">
   <![CDATA[
    .fil10 {fill:none}
    .fil4 {fill:#2F2F2F}
    .fil3 {fill:#444444}
    .fil7 {fill:#535353}
    .fil2 {fill:#676767}
    .fil5 {fill:#8C8D8D}
    .fil6 {fill:#A1A1A1}
    .fil8 {fill:#B4B4B5}
    .fil0 {fill:#8C8D8D;fill-rule:nonzero}
    .fil1 {fill:#A1A1A1;fill-rule:nonzero}
    .fil9 {fill:#BFBFBF;fill-rule:nonzero}
   ]]>
  </style>
 </defs>
 <g id="Layer_x0020_1">
  <metadata id="CorelCorpID_0Corel-Layer"/>
  <g id="_343007904">
   <path id="_343009896" class="fil0" d="M4.1113 0.906047c0,-0.0291102 -0.0236063,-0.0527165 -0.0527165,-0.0527165 -0.0291102,0 -0.0527165,0.0236063 -0.0527165,0.0527165l0 0.0860748 -1.19528 0 0 -0.0860748c0,-0.0291102 -0.0236024,-0.0527165 -0.0527165,-0.0527165 -0.0291102,0 -0.0527165,0.0236063 -0.0527165,0.0527165l0 0.575941 0.0019252 -0.00168898 0 0.227976 1.4023 0 0 -0.234886 0.00192126 0.00147638 0 -0.568819z"/>
   <path id="_343010328" class="fil1" d="M3.46604 1.01715c0,-0.0291102 -0.0236063,-0.0527165 -0.0527165,-0.0527165 -0.0291102,0 -0.0527165,0.0236063 -0.0527165,0.0527165l0 0.503055c0.0344173,0.000279528 0.0697913,0.00102756 0.105433,0.00224409l0 -0.505299z"/>
   <path id="_343010232" class="fil1" d="M3.81517 1.01715c0,-0.0291102 -0.0236063,-0.0527165 -0.0527165,-0.0527165 -0.0291142,0 -0.0527165,0.0236063 -0.0527165,0.0527165l0 0.521354c0.0372402,0.00383465 0.0727126,0.00826378 0.105433,0.0133031l0 -0.534657z"/>
   <path id="_343009704" class="fil1" d="M3.11692 1.01715c0,-0.0291102 -0.0236024,-0.0527165 -0.0527165,-0.0527165 -0.0291102,0 -0.0527126,0.0236063 -0.0527126,0.0527165l0 0.523846c0.0126142,-0.00181496 0.0253031,-0.0032126 0.0380472,-0.00418898 0.0184449,-0.00347244 0.0412362,-0.00639764 0.0673819,-0.00879528l0 -0.510862z"/>
   <path id="_343009680" class="fil1" d="M2.94236 1.01715c0,-0.0291102 -0.0236024,-0.0527165 -0.0527126,-0.0527165 -0.0291142,0 -0.0527165,0.0236063 -0.0527165,0.0527165l0 0.57761c0.0337795,-0.0164606 0.0691024,-0.0297205 0.105429,-0.0395197l0 -0.538091z"/>
   <path id="_343009464" class="fil1" d="M3.29148 1.01715c0,-0.0291102 -0.0236063,-0.0527165 -0.0527165,-0.0527165 -0.0291102,0 -0.0527165,0.0236063 -0.0527165,0.0527165l0 0.50613c0.032563,-0.00160236 0.0680512,-0.0026063 0.105433,-0.00300787l0 -0.503122z"/>
   <path id="_343009320" class="fil1" d="M3.98972 1.01715c0,-0.0291102 -0.0236024,-0.0527165 -0.0527165,-0.0527165 -0.0291102,0 -0.0527126,0.0236063 -0.0527126,0.0527165l0 0.547142c0.0427677,0.00911024 0.077311,0.0196378 0.0999291,0.0316024l0.0055 0.00292913 0 -0.581673z"/>
   <path id="_343009224" class="fil1" d="M3.64061 1.01715c0,-0.0291102 -0.0236063,-0.0527165 -0.0527165,-0.0527165 -0.0291102,0 -0.0527165,0.0236063 -0.0527165,0.0527165l0 0.508232c0.0355709,0.00181496 0.0709488,0.00409055 0.105433,0.00683858l0 -0.515071z"/>
   <path id="_343008888" class="fil2" d="M3.73292 1.43985c0.122949,0 0.247953,0.0504016 0.338087,0.13913 0.0819331,0.0806457 0.13376,0.189795 0.13376,0.310787 0,0.00755906 -0.000370079,0.0169528 -0.00112205,0.0282205l-0.263571 3.95691 0.000181102 1.1811e-005c-0.0037126,0.055748 -0.050126,0.0984685 -0.105201,0.0984252l-0.843445 0c-0.0578937,0 -0.104882,-0.0466693 -0.105421,-0.104433l-0.263169 -3.95091c-0.000751969,-0.0112677 -0.00111811,-0.0206614 -0.00111811,-0.0282244 0,-0.120992 0.0518228,-0.230142 0.133756,-0.310787 0.0799331,-0.078685 0.189197,-0.130083 0.306598,-0.137902 -0.000444882,-0.0105157 0.614787,-0.00122441 0.670665,-0.00122441z"/>
   <path id="_343009104" class="fil3" d="M3.25519 2.49414l0.316291 0c0.0582244,0 0.105433,0.0472087 0.105433,0.105433l0 0.632579c0,0.0582244 -0.0472087,0.105433 -0.105433,0.105433l-0.316291 0c-0.0582244,0 -0.105433,-0.0472087 -0.105433,-0.105433l0 -0.632579c0,-0.0582244 0.0472087,-0.105433 0.105433,-0.105433z"/>
   <path id="_343008408" class="fil4" d="M3.3052 2.58585l0.21626 0c0.039811,0 0.0720906,0.0369409 0.0720906,0.0825039l0 0.495028c0,0.045563 -0.0322795,0.0825079 -0.0720906,0.0825079l-0.21626 0c-0.039811,0 -0.0720906,-0.0369449 -0.0720906,-0.0825079l0 -0.495028c0,-0.045563 0.0322795,-0.0825039 0.0720906,-0.0825039z"/>
   <path id="_343008600" class="fil5" d="M3.31033 2.75574l0.205992 0c0.0379213,0 0.0686654,0.0179252 0.0686654,0.0400315l0 0.240189c0,0.0221063 -0.0307441,0.0400315 -0.0686654,0.0400315l-0.205992 0c-0.0379213,0 -0.0686654,-0.0179252 -0.0686654,-0.0400315l0 -0.240189c0,-0.0221063 0.0307441,-0.0400315 0.0686654,-0.0400315z"/>
   <path id="_343008264" class="fil6" d="M3.31033 2.8849l0.205992 0c0.0379213,0 0.0686654,0.00346457 0.0686654,0.00774016l0 0.0464488c0,0.00427559 -0.0307441,0.00774016 -0.0686654,0.00774016l-0.205992 0c-0.0379213,0 -0.0686654,-0.00346457 -0.0686654,-0.00774016l0 -0.0464488c0,-0.00427559 0.0307441,-0.00774016 0.0686654,-0.00774016z"/>
   <path id="_343008720" class="fil7" d="M3.52222 3.75115c0,-0.0582244 -0.0472087,-0.105433 -0.105433,-0.105433 -0.0582283,0 -0.105433,0.0472087 -0.105433,0.105433l0 1.5238c0,0.0582244 0.0472047,0.105433 0.105433,0.105433 0.0582244,0 0.105433,-0.0472087 0.105433,-0.105433l0 -1.5238z"/>
   <g>
    <circle id="_343008816" class="fil8" cx="3.41333" cy="2.07545" r="0.0651024"/>
    <path id="_343007832" class="fil9" d="M3.41333 1.99368c0.0225276,0 0.0429567,0.00915748 0.0577559,0.0239528l-0.0117205 0.0117835 0.0117835 -0.0117874 0.00026378 0.000271654c0.0146417,0.0147717 0.023689,0.0351063 0.023689,0.0575512 0,0.0225276 -0.00915748,0.0429567 -0.0239528,0.0577559l-0.0117835 -0.0117205 0.0117874 0.0117835c-0.00034252,0.00034252 -0.00069685,0.000669291 -0.00106299,0.000976378 -0.0147126,0.0142165 -0.0347323,0.0229764 -0.0567598,0.0229764 -0.0225787,0 -0.0430236,-0.00915748 -0.0578189,-0.0239528l-3.93701e-006 3.93701e-006c-0.000354331,-0.000354331 -0.000688976,-0.000720472 -0.00100394,-0.00109843 -0.0142008,-0.0147126 -0.0229449,-0.0347126 -0.0229449,-0.0567244 0,-0.0225787 0.00915748,-0.0430236 0.0239528,-0.0578189 0.0147953,-0.0147953 0.0352402,-0.0239528 0.0578189,-0.0239528zm0.0342835 0.0474882c-0.00875984,-0.00874016 -0.0208819,-0.0141496 -0.0342835,-0.0141496 -0.013378,0 -0.0254921,0.00542126 -0.034252,0.0141811 -0.00875984,0.00875984 -0.0141811,0.020874 -0.0141811,0.034252 0,0.0130039 0.00509843,0.0248071 0.0133819,0.0334961 0.000275591,0.000240157 0.000543307,0.000492126 0.00080315,0.000751969l-3.93701e-006 3.93701e-006c0.00875984,0.00875984 0.020874,0.0141811 0.034252,0.0141811 0.0130236,0 0.0248425,-0.00511024 0.0335315,-0.0134173l0.000716535 -0.00076378 3.14961e-005 3.14961e-005 3.93701e-006 0c0.00874016,-0.00875984 0.0141496,-0.0208819 0.0141496,-0.0342835 0,-0.0133228 -0.00537402,-0.0253858 -0.0140709,-0.0341378l-0.000110236 -0.000110236 0 -3.93701e-006 3.14961e-005 -3.14961e-005zm0.0237992 -0.0232677c0.00624016,0.00652362 0.00615354,0.0168819 -0.000259843,0.0232992"/>
   </g>
  </g>
  <rect class="fil10" width="6.82666" height="6.82666"/>
 </g>
</svg>
