<?xml version="1.0" encoding="UTF-8"?>
<!DOCTYPE svg PUBLIC "-//W3C//DTD SVG 1.1//EN" "http://www.w3.org/Graphics/SVG/1.1/DTD/svg11.dtd">
<!-- Creator: CorelDRAW -->
<svg xmlns="http://www.w3.org/2000/svg" xml:space="preserve" width="6.82666in" height="6.82666in" style="shape-rendering:geometricPrecision; text-rendering:geometricPrecision; image-rendering:optimizeQuality; fill-rule:evenodd; clip-rule:evenodd"
viewBox="0 0 6.82666 6.82666"
 xmlns:xlink="http://www.w3.org/1999/xlink">
 <defs>
  <style type="text/css">
   <![CDATA[
    .fil6 {fill:none}
    .fil2 {fill:black}
    .fil5 {fill:#202020}
    .fil4 {fill:#525252}
    .fil1 {fill:#5F5F5F}
    .fil0 {fill:#757575}
    .fil3 {fill:#9E9E9E}
   ]]>
  </style>
 </defs>
 <g id="Layer_x0020_1">
  <metadata id="CorelCorpID_0Corel-Layer"/>
  <g id="_343011048">
   <path id="_343012104" class="fil0" d="M3.62476 3.40003l-0.273063 -0.210839 -0.215972 0.101209c-0.717878,0.273465 -1.58233,0.534327 -2.31,0.78752l0.0842953 0.00312205 2.66301 -0.520543 0.0517362 -0.160469zm-0.0402913 -0.361614c0.27474,-0.123776 1.1222,-0.160551 1.14088,-0.533787l0.00287795 -0.002c0.014311,-0.298839 0.293236,-0.555823 0.635992,-0.577362 0.351575,-0.0225866 0.637205,0.210606 0.636728,0.519575 0.000208661,0.402909 -0.28202,0.58098 -0.638354,0.600457 -0.0887323,0.00640157 -0.172752,-0.00508268 -0.249264,-0.0288504 -0.157689,-0.029063 -1.23654,0.203654 -1.32078,0.309l-0.00347244 -0.000598425 -0.238394 -0.0590197 0.0337913 -0.227413zm1.39437 -0.344339c0.00900394,0.0104055 0.0180945,0.0209606 0.0264291,0.0318307 0.0807283,0.085937 0.210787,0.13737 0.357843,0.12878 0.245453,-0.0159843 0.44522,-0.194189 0.44576,-0.397421 0.000417323,-0.203433 -0.199248,-0.356323 -0.444705,-0.340693 -0.245457,0.0159882 -0.445681,0.193504 -0.446098,0.396929 -0.000673228,0.0675709 0.0233937,0.128594 0.0607717,0.180575z"/>
   <path id="_343012152" class="fil1" d="M4.67206 3.06911l-0.156437 -0.304346c0.120685,-0.0633228 0.204008,-0.145972 0.20972,-0.260134l0.00287795 -0.002c0.014311,-0.298839 0.293236,-0.555823 0.635992,-0.577362 0.351575,-0.0225866 0.637205,0.210606 0.636728,0.519575 0.000208661,0.402909 -0.28202,0.58098 -0.638354,0.600457 -0.0887323,0.00640157 -0.172752,-0.00508268 -0.249264,-0.0288504 -0.0569685,-0.0105 -0.234181,0.0131772 -0.441264,0.0526614zm0.306772 -0.375031c0.00900394,0.0104055 0.0180945,0.0209606 0.0264291,0.0318307 0.0807283,0.085937 0.210787,0.13737 0.357843,0.12878 0.245453,-0.0159843 0.44522,-0.194189 0.44576,-0.397421 0.000417323,-0.203433 -0.199248,-0.356323 -0.444705,-0.340693 -0.245457,0.0159882 -0.445681,0.193504 -0.446098,0.396929 -0.000673228,0.0675709 0.0233937,0.128594 0.0607717,0.180575z"/>
   <g>
    <path id="_343011936" class="fil2" d="M2.56455 1.18627c-0.209713,0.823165 -0.181843,1.35698 0.0282559,2.16428 0.136169,0.52322 0.315575,1.26719 0.296736,1.82874 -0.0101378,0.302169 -0.0313386,0.302063 -0.0928583,0.554409 -0.000377953,0.00155512 -0.000724409,0.00312598 -0.00104331,0.0047126 0.0125394,-0.104327 0.0525866,-0.158252 0.0716693,-0.360382 0.0765079,-0.810327 -0.19663,-1.29274 -0.335882,-1.9942 -0.168642,-0.849524 -0.198421,-1.35906 0.033122,-2.19756zm0.231091 4.55214c-0.00339764,0.0169173 -0.00351969,0.0354567 -0.00367717,0.0533543 0.000433071,-0.0195157 0.00172047,-0.0370551 0.00367717,-0.0533543zm-0.00367717 0.0533543c-3.93701e-005,0.00429134 -7.48031e-005,0.00854331 -0.000161417,0.0127283 1.1811e-005,-0.00434252 7.08661e-005,-0.00857087 0.000161417,-0.0127283z"/>
    <path id="_343012296" class="fil2" d="M2.2343 1.17789c-0.224724,0.822287 -0.206413,1.35555 -0.0105984,2.162 0.126913,0.522677 0.293138,1.26588 0.264189,1.82683 -0.0155748,0.30185 -0.0367953,0.301744 -0.102913,0.553819 -0.000409449,0.00155512 -0.000779528,0.00312598 -0.00112992,0.0047126 0.0144291,-0.10422 0.0554843,-0.158087 0.0782205,-0.36 0.0911457,-0.809469 -0.17361,-1.29139 -0.300406,-1.99213 -0.153555,-0.848638 -0.174217,-1.35764 0.0726378,-2.19524zm0.149547 4.54737c-0.00370472,0.0168937 -0.00416142,0.0354173 -0.0046378,0.0532953 0.000783465,-0.0194961 0.00238583,-0.0370157 0.0046378,-0.0532953zm-0.0046378 0.0532953c-0.00011811,0.0042874 -0.000228346,0.00853543 -0.000393701,0.0127165 9.05512e-005,-0.00434252 0.000228346,-0.00856693 0.000393701,-0.0127165z"/>
    <path id="_343012560" class="fil2" d="M2.32083 1.19971c-0.148953,0.711417 -0.244169,1.35976 -0.0113307,2.04495 0.209213,0.615677 0.427331,1.20063 0.472909,1.91319 0.0015315,0.0239646 0.0218307,0.47826 0.0512795,0.512343 -0.0227874,-0.0248386 -0.0419646,-0.272197 -0.0444331,-0.300339 -0.0664724,-0.757996 -0.148898,-1.05569 -0.412575,-1.72148 -0.339783,-0.857961 -0.265681,-1.53535 -0.0558504,-2.44867z"/>
    <path id="_343011480" class="fil2" d="M2.16802 1.1983c-0.190114,0.690583 -0.323146,1.32546 -0.132717,2.04185 0.171106,0.643697 0.381504,1.2596 0.384417,1.97782 9.44882e-005,0.0241417 -0.0188898,0.358177 -0.0855669,0.500736 0.155941,-0.630591 -0.143268,-1.74561 -0.256142,-2.066 -0.335921,-0.953512 -0.172535,-1.57037 0.0900079,-2.45441z"/>
    <path id="_343011792" class="fil2" d="M1.91978 1.14851c-0.209713,0.823165 -0.181843,1.35698 0.0282559,2.16428 0.136169,0.52322 0.315575,1.26719 0.296732,1.82874 -0.0101378,0.302173 -0.0313346,0.302063 -0.0928543,0.554409 -0.00038189,0.00155906 -0.000724409,0.00312992 -0.00104331,0.00471654 0.0125394,-0.104331 0.0525866,-0.158256 0.0716693,-0.360386 0.0765079,-0.810323 -0.19663,-1.29273 -0.335882,-1.9942 -0.168642,-0.84952 -0.198425,-1.35906 0.033122,-2.19755zm0.231091 4.55214c-0.00339764,0.0169134 -0.00352362,0.0354567 -0.00367717,0.0533543 0.000429134,-0.0195197 0.00171654,-0.0370551 0.00367717,-0.0533543zm-0.00367717 0.0533543c-3.93701e-005,0.00429134 -7.48031e-005,0.00854331 -0.000161417,0.0127283 7.87402e-006,-0.00434646 7.08661e-005,-0.0085748 0.000161417,-0.0127283z"/>
    <path id="_343011504" class="fil2" d="M1.83734 1.02217c-0.179205,0.696732 -0.302177,1.33574 -0.100197,2.04431 0.181484,0.636677 0.373181,1.24352 0.387559,1.9608 0.000484252,0.0241102 0.000933071,0.480551 0.0287677,0.517579 -0.0216063,-0.0271181 -0.029937,-0.276453 -0.0311693,-0.304843 -0.0332087,-0.764795 -0.102319,-1.0708 -0.335839,-1.76303 -0.300917,-0.892039 -0.197705,-1.5622 0.050878,-2.45482z"/>
   </g>
   <path id="_343011192" class="fil3" d="M5.26801 4.95331c-0.267213,-0.0370551 -0.464854,-0.238776 -0.493098,-0.490161 -0.000346457,-0.00175984 -0.00185039,-0.00279134 -0.00262992,-0.00396457 -0.0540394,-0.352752 -1.15882,-0.763583 -1.63089,-1.17684 -0.000204724,0.000464567 -1.9986,-0.811539 -2.23712,-0.895335 0,0 0.0859803,-0.00548425 0.106622,-0.000724409 0.242406,0.0559803 1.72382,0.426906 2.32156,0.588543 0.313307,0.0690315 0.381193,0.0962992 0.538835,0.377406 0.207512,0.37002 0.662661,0.617201 1.02348,0.577835 0.15539,-0.0169528 0.477362,-0.153291 0.604815,-0.136181 0.323827,0.0441024 0.550705,0.329772 0.488055,0.661193 -0.00674409,0.23528 -0.212657,0.520831 -0.719622,0.498228zm0.53102 -0.522839c0.00425984,-0.0246339 0.00780315,-0.0487717 0.00708268,-0.0730236 0.000807087,-0.188815 -0.144654,-0.346059 -0.344941,-0.372346 -0.111157,-0.0153543 -0.224748,0.0113898 -0.318378,0.0754685 -0.0916535,0.0626417 -0.153028,0.153799 -0.173654,0.256693 -0.0446181,0.22639 0.119457,0.415276 0.337283,0.444843 0.111764,0.0159291 0.224744,-0.0113898 0.318528,-0.0755827 0.091622,-0.0626929 0.15374,-0.154295 0.174079,-0.256051z"/>
   <path id="_343010760" class="fil1" d="M4.77491 4.46315c-0.000346457,-0.00175984 -0.00185039,-0.00279134 -0.00262992,-0.00396457 -0.0167047,-0.109039 -0.133874,-0.223634 -0.30165,-0.342126l0.126193 -0.212429c0.101776,0.026311 0.203248,0.0357756 0.298173,0.0253976 0.256925,-0.0280787 0.469154,-0.197421 0.726299,-0.10685 0.538996,0.201598 0.476913,0.964819 -0.0402559,1.113 -0.34385,0.0985236 -0.76322,-0.0911299 -0.80613,-0.473028zm1.02412 -0.0326772c0.00425984,-0.0246339 0.00780315,-0.0487717 0.00708268,-0.0730236 0.000807087,-0.188815 -0.144654,-0.346059 -0.344941,-0.372346 -0.111157,-0.0153543 -0.224748,0.0113898 -0.318378,0.0754685 -0.0916535,0.0626417 -0.153028,0.153799 -0.173654,0.256693 -0.0446181,0.22639 0.119457,0.415276 0.337283,0.444843 0.111764,0.0159291 0.224744,-0.0113898 0.318528,-0.0755827 0.091622,-0.0626929 0.15374,-0.154295 0.174079,-0.256051z"/>
   <circle id="_343010424" class="fil4" transform="matrix(0.0829147 -1.80684 1.80909 -0.0345242 3.51607 3.28367)" r="0.0514331"/>
   <circle id="_343010952" class="fil5" transform="matrix(0.0466916 -1.01748 1.01875 -0.0194416 3.51607 3.28367)" r="0.0514331"/>
  </g>
  <rect class="fil6" width="6.82666" height="6.82666"/>
 </g>
</svg>
