<?xml version="1.0" encoding="UTF-8"?>
<!DOCTYPE svg PUBLIC "-//W3C//DTD SVG 1.1//EN" "http://www.w3.org/Graphics/SVG/1.1/DTD/svg11.dtd">
<!-- Creator: CorelDRAW -->
<svg xmlns="http://www.w3.org/2000/svg" xml:space="preserve" width="6.82666in" height="6.82666in" style="shape-rendering:geometricPrecision; text-rendering:geometricPrecision; image-rendering:optimizeQuality; fill-rule:evenodd; clip-rule:evenodd"
viewBox="0 0 6.82666 6.82666"
 xmlns:xlink="http://www.w3.org/1999/xlink">
 <defs>
  <style type="text/css">
   <![CDATA[
    .fil6 {fill:none}
    .fil4 {fill:#8C8D8D}
    .fil5 {fill:#E4E5E5}
    .fil3 {fill:#444444;fill-rule:nonzero}
    .fil1 {fill:#565656;fill-rule:nonzero}
    .fil2 {fill:#959595;fill-rule:nonzero}
    .fil0 {fill:#BCBCBC;fill-rule:nonzero}
   ]]>
  </style>
 </defs>
 <g id="Layer_x0020_1">
  <metadata id="CorelCorpID_0Corel-Layer"/>
  <path class="fil0" d="M2.30093 0.877071c-0.0460236,0 -0.0833346,0.037311 -0.0833346,0.0833346 0,0.0460236 0.037311,0.0833346 0.0833346,0.0833346l1.02826 0 -0.00149213 0.269622c-0.000177165,0.0458425 0.0368386,0.0831575 0.0826811,0.0833346 0.0458425,0.000177165 0.0831575,-0.0368386 0.0833346,-0.0826811l0.00190945 -0.345783c0.000240157,-0.0025748 0.000370079,-0.00518504 0.000370079,-0.00782677 0,-0.0460236 -0.037311,-0.0833346 -0.0833346,-0.0833346l-1.11173 0z"/>
  <path class="fil1" d="M3.68 2.34521l-0.533335 0c-0.0589094,0 -0.106669,-0.0477598 -0.106669,-0.106669l0 -0.97972c0,-0.0589094 0.0477598,-0.106669 0.106669,-0.106669l0.533335 0c0.0589094,0 0.106669,0.0477598 0.106669,0.106669l0 0.97972c0,0.0589094 -0.0477598,0.106669 -0.106669,0.106669z"/>
  <path class="fil2" d="M2.87547 1.83305l1.07762 0c0.0517874,0 0.0949567,0.0369134 0.104638,0.0858622l0.397406 1.36607c0.00246063,-0.000708661 0.0046811,0.0288622 0.00461811,0.031937l0 0.568665c0,-0.53872 0,0.538906 0,0l0 1.02109c0,-0.53872 0,0.538906 0,0l0 0.761488c0,0.161268 -0.124465,0.305177 -0.29,0.305177l-1.51284 0c-0.165535,0 -0.29,-0.143909 -0.29,-0.305177l0 -2.33845c0,-0.0120551 0.00200394,-0.0236496 0.00569291,-0.0344567l0.398469 -1.3847c-0.000952756,-0.0405394 0.0652402,-0.0782244 0.104398,-0.0775039z"/>
  <path class="fil3" d="M2.88 1.15216c-0.0589094,0 -0.106669,0.0477598 -0.106669,0.106669 0,0.0589094 0.0477598,0.106669 0.106669,0.106669l1.06667 0c0.0589094,0 0.106669,-0.0477598 0.106669,-0.106669 0,-0.0589094 -0.0477598,-0.106669 -0.106669,-0.106669l-1.06667 0z"/>
  <path class="fil4" d="M2.36744 3.31905l2.09231 0 0 -0.00212992c6.29921e-005,-0.0030748 -0.00215748,-0.0326457 -0.00461811,-0.031937l-0.397406 -1.36607c-0.0096811,-0.0489488 -0.0528504,-0.0858622 -0.104638,-0.0858622l-0.166425 0 -0.746673 0 -0.164524 0c-0.0391575,-0.000720472 -0.10535,0.0369646 -0.104398,0.0775039l-0.398469 1.3847c-0.00258661,0.00758268 -0.00434646,0.0155512 -0.00516535,0.0237953z"/>
  <rect class="fil5" x="3.10481" y="3.3142" width="0.617031" height="1.94458"/>
  <rect class="fil6" width="6.82666" height="6.82666"/>
 </g>
</svg>
