<?xml version="1.0" encoding="UTF-8"?>
<!DOCTYPE svg PUBLIC "-//W3C//DTD SVG 1.1//EN" "http://www.w3.org/Graphics/SVG/1.1/DTD/svg11.dtd">
<!-- Creator: CorelDRAW -->
<svg xmlns="http://www.w3.org/2000/svg" xml:space="preserve" width="6.82666in" height="6.82666in" style="shape-rendering:geometricPrecision; text-rendering:geometricPrecision; image-rendering:optimizeQuality; fill-rule:evenodd; clip-rule:evenodd"
viewBox="0 0 6.82666 6.82666"
 xmlns:xlink="http://www.w3.org/1999/xlink">
 <defs>
  <style type="text/css">
   <![CDATA[
    .fil5 {fill:none}
    .fil4 {fill:#7F7F7F}
    .fil0 {fill:#888888}
    .fil1 {fill:#A8A8A8}
    .fil3 {fill:#464646;fill-rule:nonzero}
    .fil2 {fill:#545454;fill-rule:nonzero}
   ]]>
  </style>
 </defs>
 <g id="Layer_x0020_1">
  <metadata id="CorelCorpID_0Corel-Layer"/>
  <path class="fil0" d="M4.6272 2.81711c0.0222756,0.0209803 0.0335197,0.0492835 0.0335236,0.0776457l7.87402e-006 2.01054c0,0.218087 -0.0570669,0.423949 -0.157047,0.603413 -0.1035,0.185772 -0.252925,0.342669 -0.43252,0.454957 0.00888189,0.0144331 -0.0750866,0.0179173 -0.0991063,0.00746063 -0.170965,-0.0559134 -0.347776,-0.0895787 -0.532638,-0.0924961 -0.187874,-0.00296457 -0.384937,0.0259134 -0.593748,0.0955709 0.00019685,0.0175787 -0.0785866,-0.0017874 -0.0957874,-0.014063 -0.361496,-0.228677 -0.583969,-0.626472 -0.583969,-1.05484l0 -2.01054c0,-0.0332638 0.0152283,-0.0629724 0.0390945,-0.0825354l0.452854 -0.426583 0 -0.355634c0,-0.131933 0.0346102,-0.256626 0.095248,-0.365469 0.0627126,-0.112571 0.153201,-0.207591 0.261913,-0.275531 0.0452047,0.0613661 0.745118,0.0536102 0.796591,0 0.108713,0.0679409 0.199201,0.162961 0.261913,0.275531 0.0606378,0.108843 0.095248,0.233535 0.095248,0.365469l0 0.355634 0.458421 0.431472z"/>
  <path class="fil1" d="M3.7205 5.57393c-0.0249646,0.0155315 -0.0326142,0.0483701 -0.0170827,0.0733346 0.0155315,0.0249646 0.0483701,0.0326142 0.0733346,0.0170827 0.13098,-0.0818583 0.239933,-0.19622 0.315366,-0.331614 0.0727953,-0.130669 0.114346,-0.280654 0.114346,-0.439646 0,-0.0294528 -0.0238819,-0.0533346 -0.0533346,-0.0533346 -0.0294528,0 -0.0533346,0.0238819 -0.0533346,0.0533346 0,0.140697 -0.0365551,0.273031 -0.100591,0.387976 -0.0665512,0.119453 -0.162843,0.220457 -0.278705,0.292866z"/>
  <path class="fil1" d="M2.98298 5.66435c0.0249646,0.0155315 0.0578031,0.00788189 0.0733346,-0.0170827 0.0155315,-0.0249646 0.00788189,-0.0578031 -0.0170827,-0.0733346 -0.115862,-0.0724094 -0.212154,-0.173413 -0.278705,-0.292866 -0.0640354,-0.114945 -0.100591,-0.24728 -0.100591,-0.387976 0,-0.0294528 -0.0238819,-0.0533346 -0.0533346,-0.0533346 -0.0294528,0 -0.0533346,0.0238819 -0.0533346,0.0533346 0,0.158992 0.0415512,0.308976 0.114346,0.439646 0.0754331,0.135394 0.184386,0.249756 0.315366,0.331614z"/>
  <path class="fil2" d="M3.82952 1.0847c0,-0.0482795 -0.0391417,-0.0874173 -0.0874173,-0.0874173l-0.0874173 0.0874173 -0.482709 0.0186575c0,-0.0482756 -0.0391417,-0.0874173 -0.0874173,-0.0874173 -0.0482756,0 -0.0874173,0.0391417 -0.0874173,0.0874173 0,0.000366142 0.00272835,0.101689 0.00487402,0.179681 0.00127559,0.0463504 0.00329134,0.0850433 0.00637795,0.0945433 0.045563,0.136732 0.735783,0.133177 0.803862,0.0249331 0.010126,-0.0165866 0.0141732,-0.0629921 0.0150236,-0.117315 0.00148031,-0.0939567 0.00224016,-0.198134 0.00224016,-0.2005z"/>
  <path class="fil3" d="M3.41333 0.957323c0.098626,0 0.189409,0.00701181 0.256461,0.0183465 0.0969646,0.0163858 0.156949,0.0456024 0.156949,0.0837559 0,0.0887283 -0.293949,0.102098 -0.413409,0.102098 -0.119461,0 -0.413409,-0.0133701 -0.413409,-0.102098 0,-0.0381496 0.0599803,-0.0673661 0.156949,-0.0837559 0.0670512,-0.0113346 0.157835,-0.0183465 0.256461,-0.0183465z"/>
  <path class="fil4" d="M2.16819 2.8728c0.332043,0.0997047 0.767874,0.160189 1.24515,0.160189 0.47726,0 0.913087,-0.0604803 1.24513,-0.160185 -0.00431496,-0.0206142 -0.0147598,-0.0401614 -0.031252,-0.0556929l-0.458421 -0.431472 0 -0.00132283c-0.199362,0.061937 -0.464472,0.0997008 -0.755453,0.0997008 -0.290984,0 -0.556094,-0.0377638 -0.755461,-0.0997008l0 0.00132283 -0.452854 0.426583c-0.0184646,0.0151378 -0.0317598,0.0363465 -0.0368307,0.0605787z"/>
  <rect class="fil5" width="6.82666" height="6.82666"/>
 </g>
</svg>
