<?xml version="1.0" encoding="UTF-8"?>
<!DOCTYPE svg PUBLIC "-//W3C//DTD SVG 1.1//EN" "http://www.w3.org/Graphics/SVG/1.1/DTD/svg11.dtd">
<!-- Creator: CorelDRAW -->
<svg xmlns="http://www.w3.org/2000/svg" xml:space="preserve" width="6.82666in" height="6.82666in" style="shape-rendering:geometricPrecision; text-rendering:geometricPrecision; image-rendering:optimizeQuality; fill-rule:evenodd; clip-rule:evenodd"
viewBox="0 0 6.82666 6.82666"
 xmlns:xlink="http://www.w3.org/1999/xlink">
 <defs>
  <style type="text/css">
   <![CDATA[
    .fil2 {fill:none}
    .fil1 {fill:#575758}
    .fil0 {fill:dimgray;fill-rule:nonzero}
   ]]>
  </style>
 </defs>
 <g id="Layer_x0020_1">
  <metadata id="CorelCorpID_0Corel-Layer"/>
  <path class="fil0" d="M5.31661 2.0417l-1.07469 -1.04335 -0.0175787 0.0176614 1.04302 1.07479 -0.0565748 0.0565748 -1.07477 -1.043 -0.0174961 0.0175157 1.04302 1.07469 -0.0573622 0.0574252 -1.07483 -1.04304 -0.0175787 0.0175157 1.04317 1.07481 -0.0565748 0.0565787 -1.07475 -1.04317 -0.0175787 0.0176575 1.04309 1.07461 -0.0566417 0.0567638 -1.07477 -1.04321 -0.0174961 0.0176614 1.04323 1.0746 -0.0567205 0.0567441 -1.07489 -1.04304 -0.0174331 0.0175157 1.04302 1.07469 -0.0564331 0.0566378 -1.07739 -1.04067 -0.0175787 0.0174921 1.04331 1.07479 -0.0567835 0.0567244 -1.07463 -1.04313 -0.0175591 0.0174724 1.043 1.07481 -0.0564961 0.0565591 -1.07489 -1.04306 -0.0175157 0.0175354 1.04317 1.07477 -0.0567835 0.0567008 -1.07463 -1.04323 -0.0174921 0.0175354 1.04308 1.07479 -0.0566378 0.0566181 -1.07477 -1.04309 -0.0175787 0.0174764 1.04323 1.07479 -0.0599843 0.0599843 -1.07489 -1.04306 -0.0173701 0.0173307 1.04302 1.07489 -0.0567205 0.0566811 -1.07469 -1.04304 -0.0173504 0.0173898 1.04302 1.07479 -0.0567244 0.0566811 -1.07469 -1.04319 -0.0176417 0.0174961 1.04315 1.07487 -0.0566378 0.0566378 -1.07481 -1.04304 -0.0173701 0.0173898 1.04302 1.07469 -0.0616378 0.0616575 -1.09055 -1.02716 -0.0349291 0.0349094 1.02728 1.09059 -0.0367874 0.036685 -1.09055 -1.02732 -0.0350118 0.0350512 1.02728 1.09066 -0.0366417 0.0365394 -1.09049 -1.02726 -0.0350118 0.0349685 1.02722 1.09059 -0.0367244 0.0367638 -1.09047 -1.02744 -0.0350945 0.0350945 1.0273 1.09065 -0.0367283 0.0365394 -1.09049 -1.02722 -0.0349921 0.0349724 1.02722 1.09059 -0.0367244 0.0367283 -1.09055 -1.02728 -0.0349488 0.0349724 1.02716 1.09059 -0.0365827 0.036685 -1.0907 -1.02726 -0.0349488 0.0349291 1.02745 1.09067 -0.0367283 0.0366457 -1.09055 -1.02732 -0.0350748 0.0349685 1.02735 1.09059 -0.0366457 0.0366417 -1.09076 -1.02722 -0.0349488 0.0349724 1.02722 1.09067 -0.0365787 0.0365433 -1.09055 -1.02722 -0.0350748 0.0350315 1.02737 1.09059 -0.0367283 0.036626 -1.09055 -1.0273 -0.0350118 0.0350118 1.02067 1.09728 -0.0366457 0.0366457 -1.09078 -1.02732 -0.0349291 0.0350512 1.02736 1.09061 -0.0366654 0.036622 -1.09055 -1.0273 -0.0351575 0.0350551 1.02736 1.09059 -0.0624843 0.0624449 -1.05475 -1.05472c-0.0234055,0.0431102 -0.0341457,0.102457 -0.0217717,0.148272 0.263362,0.728122 0.706638,1.17138 1.4347,1.43461 0.0591969,0.0159685 0.140748,-0.00584252 0.180819,-0.0458346 1.14135,-1.14141 2.28207,-2.28203 3.42337,-3.42347 0.0400512,-0.0399921 0.0625433,-0.122264 0.045752,-0.180701 -0.263075,-0.728181 -0.70635,-1.17135 -1.43462,-1.43459 -0.045752,-0.0125197 -0.104106,-0.00262598 -0.148083,0.021563l1.05476 1.05474 -0.0942126 0.0942913z"/>
  <path class="fil1" d="M2.46965 5.90988c1.14135,-1.14141 2.28207,-2.28202 3.42337,-3.42347 0.00705118,-0.00704331 0.0135591,-0.0153937 0.0194055,-0.0246969 -0.559343,0.258386 -1.63194,1.17519 -2.53289,2.18044 -0.475547,0.530602 -0.817228,0.98985 -0.990866,1.31104 0.0319291,-0.0085748 0.0613976,-0.0237717 0.0809724,-0.0433071z"/>
  <rect class="fil2" width="6.82666" height="6.82666"/>
 </g>
</svg>
