<?xml version="1.0" encoding="UTF-8"?>
<!DOCTYPE svg PUBLIC "-//W3C//DTD SVG 1.1//EN" "http://www.w3.org/Graphics/SVG/1.1/DTD/svg11.dtd">
<!-- Creator: CorelDRAW -->
<svg xmlns="http://www.w3.org/2000/svg" xml:space="preserve" width="6.82666in" height="6.82666in" style="shape-rendering:geometricPrecision; text-rendering:geometricPrecision; image-rendering:optimizeQuality; fill-rule:evenodd; clip-rule:evenodd"
viewBox="0 0 6.82666 6.82666"
 xmlns:xlink="http://www.w3.org/1999/xlink">
 <defs>
  <style type="text/css">
   <![CDATA[
    .fil5 {fill:none}
    .fil0 {fill:#2F2F2F;fill-rule:nonzero}
    .fil1 {fill:#444444;fill-rule:nonzero}
    .fil2 {fill:#ABABAB;fill-rule:nonzero}
    .fil3 {fill:#BCBCBC;fill-rule:nonzero}
    .fil4 {fill:gainsboro;fill-rule:nonzero}
   ]]>
  </style>
 </defs>
 <g id="Layer_x0020_1">
  <metadata id="CorelCorpID_0Corel-Layer"/>
  <path class="fil0" d="M3.08194 1.22621c0,-0.0577047 -0.0467835,-0.104492 -0.104492,-0.104492 -0.0577047,0 -0.0937598,0.0478622 -0.0937598,0.105567 0.00697244,0.0364134 0.00357087,0.0728228 0,0.10924 0,0.0577087 0.0360551,0.103417 0.0937598,0.103417 0.0577087,0 0.104492,-0.0467835 0.104492,-0.104492l0 -0.10924z"/>
  <path class="fil1" d="M3.12326 0.985406l0.580142 0c0.0577087,0 0.104492,0.0467874 0.104492,0.104496l0 0.613878c0,0.0577047 -0.0467835,0.104492 -0.104492,0.104492l-0.580142 0c-0.0577047,0 -0.104492,-0.0467874 -0.104492,-0.104492l0 -0.613878c0,-0.0577087 0.0467874,-0.104496 0.104492,-0.104496z"/>
  <path class="fil2" d="M2.86084 1.59929l1.10498 0c0.0577087,0 0.104492,0.0467835 0.104492,0.104492l0 0.562012c-0.201531,-0.102295 -0.425846,-0.157122 -0.65698,-0.157122 -0.231134,0 -0.455449,0.0548307 -0.65698,0.157126l0 -0.562016c0,-0.0577087 0.0467835,-0.104492 0.104492,-0.104492z"/>
  <path class="fil3" d="M3.41333 2.08108l3.93701e-006 0c0.372583,0 0.711224,0.152346 0.956661,0.397787 0.245441,0.245441 0.397787,0.584083 0.397787,0.956665l0 2.4333c0,0.0577087 -0.0467835,0.104492 -0.104492,0.104492l-2.49992 0c-0.0577087,0 -0.104492,-0.0467835 -0.104492,-0.104492l0 -2.4333c0,-0.372583 0.152346,-0.711224 0.397787,-0.956665 0.245441,-0.245441 0.584083,-0.397787 0.956661,-0.397787z"/>
  <path class="fil4" d="M3.41333 2.46687l3.93701e-006 0c0.298724,0 0.570236,0.12215 0.76702,0.318933 0.196787,0.196787 0.318933,0.468299 0.318933,0.767024 0,2.30463 -0.0342638,2.95131 -0.0342638,0.159063 0,-0.308693 -0.118291,-0.589268 -0.30887,-0.792622 -0.190575,-0.203346 -0.453516,-0.329575 -0.742819,-0.329575l-3.93701e-006 0c-0.289299,0 -0.55224,0.126228 -0.742815,0.329575 -0.190583,0.203354 -0.308874,0.483929 -0.308874,0.792622 0,2.79224 -0.0342638,2.14557 -0.0342638,-0.159063 0,-0.298724 0.122146,-0.570236 0.318933,-0.767024 0.196787,-0.196783 0.468299,-0.318933 0.76702,-0.318933z"/>
  <rect class="fil5" width="6.82666" height="6.82666"/>
 </g>
</svg>
