<?xml version="1.0" encoding="UTF-8"?>
<!DOCTYPE svg PUBLIC "-//W3C//DTD SVG 1.1//EN" "http://www.w3.org/Graphics/SVG/1.1/DTD/svg11.dtd">
<!-- Creator: CorelDRAW -->
<svg xmlns="http://www.w3.org/2000/svg" xml:space="preserve" width="6.82666in" height="6.82666in" style="shape-rendering:geometricPrecision; text-rendering:geometricPrecision; image-rendering:optimizeQuality; fill-rule:evenodd; clip-rule:evenodd"
viewBox="0 0 6.82666 6.82666"
 xmlns:xlink="http://www.w3.org/1999/xlink">
 <defs>
  <style type="text/css">
   <![CDATA[
    .fil8 {fill:none}
    .fil2 {fill:#B6B6B6}
    .fil3 {fill:#C2C2C2}
    .fil5 {fill:#525252;fill-rule:nonzero}
    .fil7 {fill:#5F5F5F;fill-rule:nonzero}
    .fil4 {fill:#BEBEBE;fill-rule:nonzero}
    .fil0 {fill:#C9C9C9;fill-rule:nonzero}
    .fil6 {fill:gainsboro;fill-rule:nonzero}
    .fil1 {fill:#DEDEDE;fill-rule:nonzero}
   ]]>
  </style>
 </defs>
 <g id="Layer_x0020_1">
  <metadata id="CorelCorpID_0Corel-Layer"/>
  <g id="_342991272">
   <path id="_342992160" class="fil0" d="M4.81026 2.8588c0.173815,0.0483937 0.326327,0.144902 0.440358,0.277433 0.113402,0.131803 0.198445,0.298012 0.208272,0.488988 0.00304331,0.0591969 0.00661024,0.113791 0.00248031,0.173165 -0.0144055,0.207126 -0.091878,0.379606 -0.220602,0.504287 -0.123854,0.119965 -0.293476,0.194386 -0.498256,0.21148 -0.224917,0.0187677 -1.46976,0.0380787 -1.63193,-0.00532283 -0.635252,-0.127984 -0.892972,-0.915862 -0.520453,-1.42485 0.0959488,-0.131098 0.226421,-0.235311 0.377992,-0.299252 -0.124602,-0.303854 0.0904291,-0.468335 0.329866,-0.604346 -0.0794252,-0.153689 0.00475197,-0.276811 0.145445,-0.38937 0.0629213,-0.0503386 0.136043,-0.0968701 0.209157,-0.143398 0.0703346,-0.0447559 0.140665,-0.0895157 0.196681,-0.134327 0.0975787,-0.078063 0.153323,-0.160583 0.0760354,-0.25722 -0.00424803,0.00339764 -0.0393622,-0.0614409 0.0110512,-0.101768 0.0133937,-0.0107165 0.0294213,-0.0159094 0.0453346,-0.0159016 0,-0.00270472 0.0635551,0.00629528 0.0690591,0.00744882 0.175102,0.0367323 0.335969,0.212028 0.451378,0.421744 0.111839,0.203217 0.183713,0.442465 0.183713,0.615709 0,0.0189803 -0.000877953,0.0374449 -0.00267717,0.0552913 0.0084252,0.0066811 0.0165433,0.013378 0.0243504,0.0201024 0.193933,0.166913 0.239268,0.380657 0.102748,0.600102z"/>
   <path id="_342992040" class="fil1" d="M3.35963 4.16478c0.0400787,0 0.0725709,-0.0324882 0.0725709,-0.0725669 0,-0.0400787 -0.0324921,-0.0725709 -0.0725709,-0.0725709 -0.117374,0 -0.223638,-0.0475748 -0.300543,-0.12448 -0.0769094,-0.0769094 -0.124484,-0.183173 -0.124484,-0.300547 0,-0.0594213 0.0122244,-0.117181 0.0352087,-0.169913 0.0230945,-0.0529764 0.0570669,-0.101307 0.100437,-0.14161 0.0292756,-0.0272362 0.0309252,-0.0730551 0.00368504,-0.102327 -0.0272362,-0.0292756 -0.0730551,-0.0309291 -0.102331,-0.00368504 -0.0579488,0.0538425 -0.103425,0.11863 -0.134453,0.189795 -0.031122,0.0714173 -0.047685,0.14885 -0.047685,0.22774 0,0.157429 0.0638268,0.29998 0.167008,0.403161 0.103177,0.103181 0.245724,0.167004 0.403157,0.167004z"/>
   <path id="_342992592" class="fil2" d="M3.29676 2.18108c0.370283,-0.148535 1.16804,-0.108472 1.38681,0.0532165 0.00151969,-0.0165079 0.00226378,-0.0335354 0.00226378,-0.0509961 0,-0.173244 -0.071874,-0.412492 -0.183713,-0.615709 -0.115409,-0.209717 -0.276276,-0.385012 -0.451378,-0.421744 -0.00550394,-0.00115354 -0.0690591,-0.0101535 -0.0690591,-0.00744882 -0.0159134,-7.87402e-006 -0.0319409,0.00518504 -0.0453346,0.0159016 -0.0504134,0.0403268 -0.0152992,0.105165 -0.0110512,0.101768 0.0772874,0.0966378 0.0215433,0.179157 -0.0760354,0.25722 -0.0560157,0.044811 -0.126346,0.0895709 -0.196681,0.134327 -0.0731142,0.0465276 -0.146236,0.0930591 -0.209157,0.143398 -0.140693,0.112559 -0.22487,0.235681 -0.145445,0.38937 -0.000405512,0.000232283 -0.000814961,0.000464567 -0.00122441,0.00069685z"/>
   <path id="_342991392" class="fil3" d="M3.31238 2.70746c0.235067,0 0.448831,0.0911969 0.60785,0.240134 0.14685,-0.107051 0.327732,-0.17022 0.52337,-0.17022 0.131209,0 0.255783,0.0284134 0.367902,0.0794213 0.134996,-0.21874 0.0893543,-0.431693 -0.103992,-0.598098 -0.00780709,-0.00672441 -0.0159252,-0.0134213 -0.0243504,-0.0201024 0.000141732,-0.00142913 0.000279528,-0.00285827 0.000413386,-0.00429528 -0.218776,-0.161689 -1.01653,-0.201752 -1.38681,-0.0532165 -0.237102,0.134827 -0.449724,0.297776 -0.331461,0.59665 0.106642,-0.0452441 0.223941,-0.0702717 0.347083,-0.0702717z"/>
   <g>
    <g>
     <polygon id="_342991200" class="fil4" points="3.33801,1.79457 3.33789,1.79459 3.338,1.79472 3.33811,1.79469 "/>
     <path id="_342991608" class="fil4" d="M5.73455 3.86879c-0.18237,0.0112638 -0.423122,0.146295 -0.674083,0.287043 -0.139346,0.0781457 -0.281665,0.157972 -0.425228,0.22298 -0.524378,0.237264 -1.32206,0.0534331 -1.3337,0.050752l0.0248976 -0.108768 -0.0250984 0.108969 -0.000433071 -0.000106299 0 7.87402e-006c-0.0602283,-0.0140472 -0.0976575,-0.0742677 -0.0836102,-0.1345 0.00907087,-0.0389055 0.0374173,-0.0682913 0.0725827,-0.0804409 0.0787205,-0.0340039 0.246283,-0.0805315 0.401921,-0.123736 0.128594,-0.0356969 0.248528,-0.069 0.286937,-0.0859213l-5.90551e-005 -0.000133858c0.00252756,-0.00111417 0.00507087,-0.00212598 0.00762598,-0.00303937 0.175685,-0.0789055 0.272055,-0.187004 0.310433,-0.286969 0.015815,-0.0411969 0.0212677,-0.0801378 0.0180354,-0.11365 -0.0025315,-0.0262835 -0.0104803,-0.047748 -0.0227087,-0.0619843 -0.00914961,-0.0106417 -0.0226693,-0.016878 -0.0395551,-0.0166024 -0.172008,0.00286614 -0.308642,0.0286969 -0.506122,0.0660276 -0.158957,0.0300512 -0.356189,0.0673386 -0.644114,0.106579 -0.198106,0.0269409 -0.407496,0.0392244 -0.606756,0.0509016 -0.294276,0.017248 -0.565543,0.0331496 -0.718917,0.0917205 -0.297823,0.113776 -0.770976,0.807335 -0.923264,1.03989l0.837122 0.810957c0.181551,-0.166791 0.632354,-0.554496 0.900217,-0.554496 0.560571,0 0.671819,-0.00628346 1.04707,-0.0274606 0.0728465,-0.00411417 0.156177,-0.00882283 0.270976,-0.0150118 0.128287,-0.00687008 0.20522,-0.0128425 0.266606,-0.0230039 0.0576535,-0.00953937 0.10524,-0.0239252 0.175854,-0.0478386l0.0358661 0.105862 -0.0359173 -0.106067c0.00276378,-0.000937008 0.00554331,-0.00175591 0.00832283,-0.0024685 0.30178,-0.103059 0.613878,-0.272358 0.884224,-0.446264 0.414858,-0.266858 0.720878,-0.518803 0.72748,-0.554933 0.00194094,-0.010626 0.00253937,-0.0207008 0.00195276,-0.0302047 -0.00162598,-0.0263898 -0.0161457,-0.0482008 -0.0374921,-0.065189 -0.0299724,-0.0238661 -0.0715787,-0.0396654 -0.115382,-0.0476772 -0.028626,-0.00524016 -0.0579803,-0.00693307 -0.085685,-0.00522441z"/>
    </g>
    <path id="_342991896" class="fil5" d="M4.31332 3.65233c0.00255906,-0.0180157 0.00298425,-0.0351457 0.00144882,-0.0510551 -0.0025315,-0.0262835 -0.0104803,-0.047748 -0.0227087,-0.0619843 -0.00914961,-0.0106417 -0.0226693,-0.016878 -0.0395551,-0.0166024 -0.152685,0.00254331 -0.277508,0.023185 -0.441748,0.0538976 0.00269291,0.0928189 0.128354,0.160417 0.283024,0.151457 0.0885669,-0.00512992 0.16763,-0.0342638 0.219539,-0.0757126z"/>
    <path id="_342991320" class="fil6" d="M4.31413 3.64609c0.00182677,-0.0157362 0.00199606,-0.030752 0.000641732,-0.044811 -0.0025315,-0.0262835 -0.0104803,-0.047748 -0.0227087,-0.0619843 -0.00914961,-0.0106417 -0.0226693,-0.016878 -0.0395551,-0.0166024 -0.150803,0.00251181 -0.274421,0.0226772 -0.435685,0.0527677 0.000614173,0.0917677 0.124075,0.158925 0.276299,0.150106 0.0903661,-0.00523622 0.170594,-0.0360669 0.221008,-0.0794764z"/>
   </g>
  </g>
  <path class="fil7" d="M5.67397 4.27412c0.180161,-0.134827 0.293205,-0.235232 0.297189,-0.257035 0.00194094,-0.010626 0.00253937,-0.0207008 0.00195276,-0.0302047 -0.00162598,-0.0263898 -0.0161457,-0.0482008 -0.0374921,-0.065189 -0.008,-0.00637008 -0.0168307,-0.0121693 -0.026311,-0.0173937 -0.0506693,0.0101102 -0.107504,0.0385669 -0.158787,0.0831142 -0.103705,0.0900709 -0.145449,0.211823 -0.0932323,0.271945 0.0049252,0.00566929 0.0105157,0.0105827 0.0166811,0.0147638z"/>
  <path class="fil6" d="M5.69056 4.26165c0.170488,-0.128528 0.276736,-0.223445 0.280598,-0.244571 0.00194094,-0.010626 0.00253937,-0.0207008 0.00195276,-0.0302047 -0.00162598,-0.0263898 -0.0161457,-0.0482008 -0.0374921,-0.065189 -0.00231102,-0.00183858 -0.00468898,-0.00362992 -0.00713386,-0.00537402 -0.0525197,0.00285039 -0.11635,0.0305945 -0.172827,0.0796535 -0.0949646,0.0824803 -0.133189,0.193972 -0.085374,0.249028 0.00580709,0.00668504 0.012626,0.0122244 0.0202756,0.0166575z"/>
  <rect class="fil8" width="6.82666" height="6.82666"/>
 </g>
</svg>
