<?xml version="1.0" encoding="UTF-8"?>
<!DOCTYPE svg PUBLIC "-//W3C//DTD SVG 1.1//EN" "http://www.w3.org/Graphics/SVG/1.1/DTD/svg11.dtd">
<!-- Creator: CorelDRAW -->
<svg xmlns="http://www.w3.org/2000/svg" xml:space="preserve" width="6.82666in" height="6.82666in" style="shape-rendering:geometricPrecision; text-rendering:geometricPrecision; image-rendering:optimizeQuality; fill-rule:evenodd; clip-rule:evenodd"
viewBox="0 0 6.82666 6.82666"
 xmlns:xlink="http://www.w3.org/1999/xlink">
 <defs>
  <style type="text/css">
   <![CDATA[
    .fil6 {fill:none}
    .fil4 {fill:#555555;fill-rule:nonzero}
    .fil5 {fill:#8D8E8E;fill-rule:nonzero}
    .fil3 {fill:#919191;fill-rule:nonzero}
    .fil2 {fill:#9B9B9C;fill-rule:nonzero}
    .fil1 {fill:#AFAFAF;fill-rule:nonzero}
    .fil0 {fill:#CDCDCD;fill-rule:nonzero}
   ]]>
  </style>
 </defs>
 <g id="Layer_x0020_1">
  <metadata id="CorelCorpID_0Corel-Layer"/>
  <g id="_342993216">
   <g>
    <path id="_342993960" class="fil0" d="M4.31769 1.07893c0.058874,-0.0186535 0.0914803,-0.0815118 0.0728268,-0.140386 -0.0186535,-0.058874 -0.0815118,-0.0914803 -0.140386,-0.0728268l-0.81524 0.260618 0.0337756 0.106606 -0.0341969 -0.106972c-0.0483937,0.0154685 -0.0790039,0.060685 -0.0781102,0.109008l0 0.301402c0,0.0620236 0.0502835,0.112307 0.112307,0.112307 0.0620276,0 0.112311,-0.0502835 0.112311,-0.112307l0 -0.221933 0.736713 -0.235516z"/>
    <path id="_342994056" class="fil1" d="M3.74943 2.68106l-0.561535 0c-0.0620236,0 -0.112311,-0.0502835 -0.112311,-0.112307l0 -0.750756c0,-0.108213 0.0441929,-0.206508 0.115378,-0.277701 0.071189,-0.071185 0.169488,-0.115374 0.277697,-0.115374l3.93701e-006 0c0.108213,0 0.206508,0.044189 0.277697,0.115374 0.071185,0.0711929 0.115378,0.169488 0.115378,0.277701l0 0.750756c0,0.0620236 -0.0502835,0.112307 -0.112307,0.112307z"/>
    <path id="_342993384" class="fil2" d="M2.90231 2.45644l1.13465 0c0.0475787,0 0.088248,0.0295984 0.104614,0.071378l0.417736 0.878945 0.000224409 -0.000106299c0.00766142,0.0161181 0.0111378,0.0331496 0.010878,0.0498622l0 2.19551c0,0.0865157 -0.0331575,0.165673 -0.0865472,0.223484 -0.0557362,0.0603504 -0.133165,0.0978268 -0.218787,0.0978268l-1.59283 0c-0.0856339,0 -0.163059,-0.0374685 -0.218795,-0.0978189 -0.0533898,-0.057811 -0.0865394,-0.136965 -0.0865394,-0.223492l0 -2.18133c0,-0.0205748 0.00553937,-0.0398543 0.0151969,-0.0564331l0.41689 -0.892846 -0.000397638 -0.000185039c0.0193465,-0.041437 0.0607598,-0.0655157 0.103713,-0.0647953z"/>
    <path id="_342993240" class="fil3" d="M2.90231 2.45644l1.13465 0c0.0475787,0 0.088248,0.0295984 0.104614,0.071378l0.417736 0.878945 0.000224409 -0.000106299c0.00637008,0.0134094 0.00985039,0.0274488 0.010689,0.0414134l-2.20103 0c0.00247638,-0.0120866 0.0068937,-0.0234685 0.0129134,-0.0338031l0.41689 -0.892846 -0.000397638 -0.000185039c0.0193465,-0.041437 0.0607598,-0.0655157 0.103713,-0.0647953z"/>
    <path id="_342993024" class="fil4" d="M2.96328 4.00796c-0.0310118,0 -0.0561535,0.0251457 -0.0561535,0.0561535 0,0.0310118 0.0251417,0.0561535 0.0561535,0.0561535l1.01076 0c0.0310079,0 0.0561535,-0.0251417 0.0561535,-0.0561535 0,-0.0310079 -0.0251457,-0.0561535 -0.0561535,-0.0561535l-1.01076 0z"/>
    <path id="_342993000" class="fil4" d="M2.96328 4.79412c-0.0310118,0 -0.0561535,0.0251417 -0.0561535,0.0561535 0,0.0310079 0.0251417,0.0561535 0.0561535,0.0561535l1.01076 0c0.0310079,0 0.0561535,-0.0251457 0.0561535,-0.0561535 0,-0.0310118 -0.0251457,-0.0561535 -0.0561535,-0.0561535l-1.01076 0z"/>
   </g>
   <path id="_342992928" class="fil5" d="M4.56427 5.71594c-0.0119016,0.0612205 -0.0405,0.116358 -0.0804055,0.159571 -0.0557362,0.0603504 -0.133165,0.0978268 -0.218787,0.0978268l-1.59283 0c-0.0856339,0 -0.163059,-0.0374685 -0.218795,-0.0978189 -0.0399094,-0.0432126 -0.0685039,-0.0983504 -0.0804016,-0.159579l2.19122 0z"/>
  </g>
  <rect class="fil6" width="6.82666" height="6.82666"/>
 </g>
</svg>
