<?xml version="1.0" encoding="UTF-8"?>
<!DOCTYPE svg PUBLIC "-//W3C//DTD SVG 1.1//EN" "http://www.w3.org/Graphics/SVG/1.1/DTD/svg11.dtd">
<!-- Creator: CorelDRAW -->
<svg xmlns="http://www.w3.org/2000/svg" xml:space="preserve" width="6.82666in" height="6.82666in" style="shape-rendering:geometricPrecision; text-rendering:geometricPrecision; image-rendering:optimizeQuality; fill-rule:evenodd; clip-rule:evenodd"
viewBox="0 0 6.82666 6.82666"
 xmlns:xlink="http://www.w3.org/1999/xlink">
 <defs>
  <style type="text/css">
   <![CDATA[
    .fil1 {fill:none}
    .fil0 {fill:#272727;fill-rule:nonzero}
   ]]>
  </style>
 </defs>
 <g id="Layer_x0020_1">
  <metadata id="CorelCorpID_0Corel-Layer"/>
  <path class="fil0" d="M3.03116 1.77944c-0.0336929,0.156894 -0.137815,0.292673 -0.254583,0.444898 -0.167295,0.218098 -0.445764,0.671543 -0.414614,0.958165 -0.0702717,-0.00578346 -0.150287,-0.137882 -0.209429,-0.212894 -0.0136102,0.0502913 -0.0130039,0.143091 0.0100315,0.293327 0.0153465,0.100094 0.0425354,0.181949 0.0808268,0.232642 0.0231969,0.0307165 0.050815,0.0471142 0.0820315,0.0433346l-3.93701e-006 -4.33071e-005c0.0525118,-0.00659055 0.100429,0.0306378 0.107016,0.0831496 0.00103543,0.00821654 0.000996063,0.0163268 -1.1811e-005,0.0241772 -0.00998031,0.180591 -0.0307087,0.414067 -0.202307,0.464142 -0.0894409,0.0261063 -0.172614,0.000724409 -0.247008,-0.0656575 -0.0597126,-0.0532717 -0.113331,-0.135008 -0.158681,-0.237528 -0.239886,-0.542276 -0.211976,-1.35807 0.00715354,-1.90813 0.151571,-0.380472 0.43587,-0.75889 0.887705,-0.74326 0.0781693,0.00270079 0.160138,0.0174016 0.245846,0.0457047 0.201161,-0.204307 0.411976,-0.309354 0.621,-0.339142 0.427142,-0.060878 0.835579,0.197496 1.08798,0.524961 0.409102,0.53078 0.52898,1.34938 0.490024,2.11883 -0.023748,0.469098 -0.245193,1.82751 -0.75435,2.06989 0.0205039,-0.129315 0.0418071,-0.231398 -0.0255236,-0.278976 -0.102335,0.203728 -0.588209,0.643583 -0.765213,0.685177 0.131465,-0.217398 0.315882,-0.736134 0.405579,-1.00865 -0.0635827,0.0624173 -0.375516,0.221642 -0.258819,0.0952756 0.150437,-0.182756 0.256827,-0.703701 0.291941,-1.13953 0.0285512,-0.354295 0.00693701,-0.742402 -0.0826299,-1.09185 -0.0877717,-0.342461 -0.240437,-0.647268 -0.474602,-0.843488 -0.129354,-0.108402 -0.28478,-0.183992 -0.469358,-0.214535z"/>
  <rect class="fil1" width="6.82666" height="6.82666"/>
 </g>
</svg>
