<?xml version="1.0" encoding="UTF-8"?>
<!DOCTYPE svg PUBLIC "-//W3C//DTD SVG 1.1//EN" "http://www.w3.org/Graphics/SVG/1.1/DTD/svg11.dtd">
<!-- Creator: CorelDRAW -->
<svg xmlns="http://www.w3.org/2000/svg" xml:space="preserve" width="6.82666in" height="6.82666in" style="shape-rendering:geometricPrecision; text-rendering:geometricPrecision; image-rendering:optimizeQuality; fill-rule:evenodd; clip-rule:evenodd"
viewBox="0 0 6.82666 6.82666"
 xmlns:xlink="http://www.w3.org/1999/xlink">
 <defs>
  <style type="text/css">
   <![CDATA[
    .fil10 {fill:none}
    .fil8 {fill:#2F2F2F}
    .fil2 {fill:#767676}
    .fil3 {fill:#9F9F9F}
    .fil9 {fill:#A1A1A1}
    .fil1 {fill:#212121;fill-rule:nonzero}
    .fil5 {fill:#444444;fill-rule:nonzero}
    .fil6 {fill:#4C4C4C;fill-rule:nonzero}
    .fil4 {fill:#565656;fill-rule:nonzero}
    .fil7 {fill:#5F5F5F;fill-rule:nonzero}
    .fil0 {fill:#B1B1B1;fill-rule:nonzero}
   ]]>
  </style>
 </defs>
 <g id="Layer_x0020_1">
  <metadata id="CorelCorpID_0Corel-Layer"/>
  <path class="fil0" d="M2.45993 1.20515c0.0173622,0.103382 -0.00773622,0.204366 -0.0629134,0.284591 -0.0562441,0.0817638 -0.143846,0.142134 -0.249673,0.161677 -0.105531,0.0194921 -0.208969,-0.00563386 -0.290799,-0.0619488 -0.0818701,-0.0563504 -0.142319,-0.144055 -0.161827,-0.249685 -0.0194921,-0.105539 0.00569685,-0.208866 0.0620906,-0.290764 0.056248,-0.0816732 0.143626,-0.141902 0.248724,-0.161543l-1.9685e-005 -8.66142e-005 7.87402e-006 -3.93701e-006 -2.3622e-005 -0.000129921 0.000771654 -0.000141732 -3.93701e-006 -3.93701e-006 0.000503937 -8.66142e-005 0.00117323 -0.000200787 0.000440945 -7.08661e-005 0.00158661 -0.000232283 0.000141732 -1.9685e-005c0.00088189,-0.00011811 0.00175984,-0.000220472 0.00264173,-0.000307087 0.103547,-0.0174134 0.20439,0.0076378 0.284476,0.0627559 0.0815276,0.0561102 0.141673,0.143461 0.161413,0.248949l9.05512e-005 -1.5748e-005 0 7.87402e-006 0.000133858 -2.75591e-005 0.000133858 0.000751969 7.87402e-006 0 8.26772e-005 0.000492126 0.000192913 0.0011063 9.44882e-005 0.000598425c0.000224409,0.00144882 0.000413386,0.00289764 0.000551181,0.00433858z"/>
  <path class="fil0" d="M4.21581 2.28317c0,0.106012 -0.0431457,0.202134 -0.112913,0.271878 -0.0695984,0.0695748 -0.16565,0.112587 -0.271665,0.112587 -0.106209,0 -0.202311,-0.0430079 -0.271862,-0.112567 -0.0695591,-0.0695669 -0.112555,-0.165685 -0.112555,-0.271898 0,-0.106012 0.0430039,-0.202063 0.112571,-0.271665 0.0697283,-0.0697638 0.165839,-0.112909 0.271846,-0.112909 0.106213,0 0.202362,0.0430394 0.271949,0.112626 0.0695945,0.0695945 0.11263,0.16574 0.11263,0.271949z"/>
  <path class="fil1" d="M3.53948 2.5336c-0.0577717,-0.0672677 -0.0926654,-0.154748 -0.0926654,-0.250425 0,-0.106016 0.0430039,-0.202067 0.112571,-0.271669 0.0697323,-0.0697638 0.165843,-0.112909 0.271846,-0.112909 0.106213,0 0.202358,0.0430354 0.271949,0.112626 0.0296969,0.0296929 0.0545551,0.0642283 0.0732953,0.102311 -0.0555118,0.0570748 -0.133122,0.0925472 -0.219035,0.0925472 -0.0254055,0 -0.0500827,-0.00312205 -0.0736811,-0.00896457 0.0012126,0.0110433 0.00185039,0.0222598 0.00185039,0.033626 0,0.168744 -0.136799,0.305543 -0.305543,0.305543 -0.0137638,0 -0.0273071,-0.000925197 -0.0405866,-0.00268504z"/>
  <path class="fil1" d="M1.77127 1.48833c-0.0577717,-0.0672638 -0.0926693,-0.154744 -0.0926693,-0.250425 0,-0.106012 0.0430079,-0.202063 0.112571,-0.271665 0.0697323,-0.0697638 0.165843,-0.112909 0.27185,-0.112909 0.106209,0 0.202358,0.0430354 0.271949,0.112626 0.0296969,0.0296929 0.0545512,0.0642283 0.0732953,0.102307 -0.0555157,0.0570787 -0.133126,0.0925512 -0.219035,0.0925512 -0.0254094,0 -0.0500827,-0.00312205 -0.0736811,-0.00896457 0.0012126,0.0110433 0.00185039,0.0222598 0.00185039,0.033626 0,0.168744 -0.136799,0.305543 -0.305547,0.305543 -0.0137598,0 -0.0273071,-0.000925197 -0.0405827,-0.00268898z"/>
  <path class="fil2" d="M5.01283 3.81187c-0.0821693,-0.00264567 -0.520913,-0.0508976 -0.603713,-0.0509173 -0.052874,-0.316846 -0.146555,-0.616732 -0.2125,-0.928114 -0.00537402,-0.0253937 -0.0414134,-0.0713898 -0.0600315,-0.0896063 -0.0956575,-0.0788031 -0.231256,-0.112213 -0.349768,-0.0692795 -0.0887953,0.0321732 -0.162567,0.0986575 -0.211669,0.178496 -0.00763386,0.0124173 -0.0142323,0.0254213 -0.0197953,0.0388898 -0.0783189,0.189547 0.142146,1.3146 0.338161,1.31472 0.91461,0.000562992 1.09244,-0.0534921 1.44472,0.968862 0.0353583,0.186472 0.436764,0.206976 0.370382,-0.0890827 -0.0620984,-0.276894 -0.24172,-0.865024 -0.262626,-0.942244 -0.0455433,-0.168248 -0.256244,-0.31878 -0.433161,-0.331724z"/>
  <path class="fil3" d="M1.26981 5.49703c0.00100787,0.117087 0.0610472,0.182528 0.136689,0.209531 0.0926575,0.0330827 0.20874,0.00850394 0.268437,-0.049437 0.0326102,-0.0355039 0.0563937,-0.0813622 0.0682126,-0.132102 0.00916929,-0.0393819 0.0142283,-0.0846417 0.0187126,-0.125217 0.00746063,-0.0674921 0.0129213,-0.135551 0.0177913,-0.203421 0.0184685,-0.25711 0.00372835,-0.675047 0.0109094,-0.858583l-0.0805394 -0.592063 0.399232 0.407567 0.101791 1.0955c0.0592559,0.161909 0.123925,0.31552 0.307228,0.277535 0.197957,-0.0410315 0.213063,-0.216579 0.160154,-0.410614l-0.153882 -1.232c-0.0490354,-0.179823 -0.483831,-0.64574 -0.600465,-0.747193 -0.0035,-0.223059 0.0205709,-0.419933 0.0404685,-0.641024 0.18861,0.338252 1.06236,0.25813 1.26047,-0.139142 0.0117244,-0.0473858 0.0177362,-0.0649213 0.00374016,-0.113024 -0.00512205,-0.0164606 -0.0113976,-0.0324331 -0.0189528,-0.0475866 -0.0281614,-0.0565079 -0.0690157,-0.0937677 -0.122476,-0.110118 -0.00752756,-0.00230709 -0.015189,-0.00388583 -0.0229055,-0.00482677 -0.176709,-0.029626 -0.293075,0.134697 -0.513138,0.151087 -0.401157,0.0298937 -0.296307,-0.177673 -0.416378,-0.375205 -0.0260315,-0.073937 -0.0672087,-0.138409 -0.119827,-0.189205 -0.1565,-0.151067 -0.399681,-0.155799 -0.526638,0.0376181 -0.0674016,0.102677 -0.117303,0.250862 -0.155091,0.35478 -0.0640197,0.176059 -0.130807,0.355398 -0.173504,0.540965 -0.0691063,0.300335 -0.0591811,0.580496 -0.00872835,0.886787 0.0196417,0.119228 0.0462638,0.229902 0.077126,0.345634 0.0837205,0.313937 0.0878504,0.658075 0.0758504,0.982177 -0.00842913,0.227457 -0.0264331,0.45415 -0.0342874,0.681575z"/>
  <path class="fil4" d="M4.09807 4.91701l0.162307 0c0.0358543,0 0.0649252,0.0323031 0.0649252,0.0721457l0 0.637555c0.0966181,0.0140472 0.194906,0.0413228 0.279925,0.0737126 0.119169,0.0453976 0.216724,0.104134 0.254193,0.154673l0.000185039 -0.000173228c0.0227874,0.0307598 0.0188268,0.0762283 -0.00885433,0.101551 -0.0136614,0.0125 -0.0305472,0.017752 -0.0468858,0.0161732l-1.25519 0.000401575 0 0.000279528c-0.0358543,1.1811e-005 -0.0649291,-0.0322756 -0.0649409,-0.0721181 -3.93701e-006,-0.0200079 0.00732283,-0.0381142 0.0191575,-0.051185 0.043252,-0.0541102 0.13037,-0.100945 0.226898,-0.137772 0.103559,-0.0395079 0.221752,-0.0697087 0.30335,-0.0841457l0 -0.638953c0,-0.0398425 0.0290709,-0.0721457 0.0649252,-0.0721457z"/>
  <path class="fil5" d="M3.97716 4.95411l0.404177 0c0.0193622,0 0.035063,0.0145866 0.035063,0.0325827l0 0.130327c0,0.0179961 -0.0157008,0.0325827 -0.035063,0.0325827l-0.404177 0c-0.0193661,0 -0.0350669,-0.0145866 -0.0350669,-0.0325827l0 -0.130327c0,-0.0179961 0.0157008,-0.0325827 0.0350669,-0.0325827z"/>
  <path class="fil6" d="M3.76343 4.62843l0.831622 0c0.0398465,0 0.0721457,0.0323031 0.0721457,0.0721457l0 0.288575c0,0.0398465 -0.0322992,0.0721457 -0.0721457,0.0721457l-0.831622 0c-0.0398465,0 -0.0721457,-0.0322992 -0.0721457,-0.0721457l0 -0.288575c0,-0.0398425 0.0322992,-0.0721457 0.0721457,-0.0721457z"/>
  <path class="fil0" d="M3.00863 2.53627l0.198524 0c0.0724606,0 0.142087,0.0291654 0.196189,0.076126 0.0539094,0.0467953 0.0929488,0.111937 0.10437,0.184 0.00274803,0.30313 0.0442874,0.59172 0.136531,0.861295 0.00240945,0.0152205 0.00357874,0.0292047 0.00357874,0.0419331 0,0.0599252 -0.0209252,0.114382 -0.0568858,0.156614 -0.0359094,0.0421772 -0.086311,0.0713031 -0.145335,0.0806575 -0.014378,0.00227559 -0.0282087,0.00346457 -0.0413307,0.00346457l-0.19926 0c-0.0382205,0 -0.0695,-0.0297283 -0.0719803,-0.0673228l-0.196134 -1.25351 -0.000279528 4.33071e-005c-0.00615748,-0.0393661 0.0207638,-0.0762756 0.060126,-0.0824291 0.00399606,-0.000625984 0.0079685,-0.000905512 0.0118858,-0.000870079z"/>
  <path class="fil7" d="M4.98791 4.72434c-0.0124528,-0.0376654 -0.0530787,-0.0581024 -0.0907441,-0.0456535 -0.0376654,0.0124528 -0.0581063,0.0530827 -0.0456535,0.090748l0.288571 0.86572 -0.000240157 0.000267717c0.0102441,0.0307402 0.0391811,0.0499882 0.0699606,0.0493307l0.359201 0c0.0398425,0 0.0721457,-0.0322992 0.0721457,-0.0721457 0,-0.0398425 -0.0323031,-0.0721417 -0.0721457,-0.0721417l-0.309055 0 -0.272039 -0.816126z"/>
  <path class="fil5" d="M2.98063 3.23975c-0.0392205,0.00684646 -0.0654606,0.0441969 -0.0586142,0.0834173 0.00684646,0.0392205 0.0441969,0.0654606 0.0834173,0.0586181l0.0837953 -0.0117835c0.0392205,-0.00684252 0.0654646,-0.0441969 0.0586181,-0.0834134 -0.00684646,-0.0392205 -0.0441969,-0.0654646 -0.0834173,-0.0586181l-0.0837992 0.0117795z"/>
  <path class="fil0" d="M5.17001 4.61882c-0.000527559,-0.00919685 -0.00115354,-0.0182362 -0.00188583,-0.0271181 -0.00909843,-0.11072 -0.0341102,-0.196634 -0.0820079,-0.260878 -0.168839,-0.226488 -1.41876,-0.131508 -1.77819,-0.131508l-0.00038189 -0.00266142 -8.66142e-005 0.00069685 0.0634724 0.434252 1.79908 -0.0127835z"/>
  <path class="fil7" d="M3.0792 2.59828c-0.00560236,-0.039378 -0.0420669,-0.0667598 -0.0814409,-0.0611575 -0.039374,0.0056063 -0.0667598,0.0420709 -0.0611575,0.0814449l0.298886 2.09216 -0.000122047 5.90551e-005c0.00514961,0.0360472 0.036126,0.0620433 0.0715354,0.0619409l0.0697441 0 1.6238 0 0.099626 0c0.0398425,0 0.0721417,-0.0323031 0.0721417,-0.0721457 0,-0.028563 -0.000704724,-0.0557992 -0.00219685,-0.0817598l-1.79908 0.0127835 -0.0634724 -0.434252 8.66142e-005 -0.00069685 -0.0329331 -0.230512 -0.195409 -1.36787z"/>
  <path class="fil7" d="M3.18263 3.53254c-0.0398425,0 -0.0721457,0.0323031 -0.0721457,0.0721457 0,0.0398425 0.0323031,0.0721457 0.0721457,0.0721457l1.21382 0c0.0365866,0 0.0699055,0.0150236 0.0941024,0.0392205 0.0242008,0.0242047 0.0392283,0.0575236 0.0392283,0.0941102l0 0.869673c0,0.0398425 0.0322992,0.0721457 0.0721457,0.0721457 0.0398425,0 0.0721417,-0.0323031 0.0721417,-0.0721457l0 -0.869673c0,-0.0764094 -0.0312126,-0.145835 -0.0815,-0.196126 -0.0502835,-0.0502795 -0.119705,-0.0814961 -0.196118,-0.0814961l-1.21382 0z"/>
  <path class="fil8" d="M2.9323 3.21034l0.0427795 -0.00607087 0.0313386 0.220823 -0.0427756 0.00607087c-0.0235236,0.00333858 -0.0455,-0.0131772 -0.0488386,-0.0367008l-0.0192008 -0.135287c-0.00333858,-0.0235236 0.0131732,-0.0454961 0.0366969,-0.0488346z"/>
  <rect class="fil9" x="5.27888" y="5.52828" width="0.381804" height="0.0573408"/>
  <rect class="fil10" width="6.82666" height="6.82666"/>
 </g>
</svg>
