<?xml version="1.0" encoding="UTF-8"?>
<!DOCTYPE svg PUBLIC "-//W3C//DTD SVG 1.1//EN" "http://www.w3.org/Graphics/SVG/1.1/DTD/svg11.dtd">
<!-- Creator: CorelDRAW -->
<svg xmlns="http://www.w3.org/2000/svg" xml:space="preserve" width="6.82666in" height="6.82666in" style="shape-rendering:geometricPrecision; text-rendering:geometricPrecision; image-rendering:optimizeQuality; fill-rule:evenodd; clip-rule:evenodd"
viewBox="0 0 6.82666 6.82666"
 xmlns:xlink="http://www.w3.org/1999/xlink">
 <defs>
  <style type="text/css">
   <![CDATA[
    .fil3 {fill:none}
    .fil2 {fill:#BEBEBE}
    .fil0 {fill:#202020;fill-rule:nonzero}
    .fil1 {fill:#3C3C3C;fill-rule:nonzero}
   ]]>
  </style>
 </defs>
 <g id="Layer_x0020_1">
  <metadata id="CorelCorpID_0Corel-Layer"/>
  <path class="fil0" d="M2.08431 1.63536c-0.000362205,-7.48031e-005 -0.000590551,-0.000125984 -1.1811e-005,1.1811e-005l-0.00290157 0.0119961 4.33071e-005 -0.000145669 0.00287008 -0.0118622z"/>
  <polygon class="fil0" points="2.08144,1.64722 2.0814,1.64737 2.0593,1.73871 "/>
  <path class="fil1" d="M4.90543 3.83078c0,0 0.525913,-0.847594 0.250512,-1.36548 0.0862441,-0.010248 0.184358,0.109508 0.184358,0.109508 0,0 -0.110878,-0.433709 -0.244161,-0.509555 0.0278976,-0.0793189 0.372547,0.129886 0.372547,0.129886 0,0 -0.226902,-0.443098 -0.554126,-0.549079 -0.115417,-0.0242717 -0.369606,-0.402921 -0.607516,-0.449937 -0.237831,-0.0470039 -0.356067,-0.228909 -0.842697,-0.23235 -0.486618,-0.00344094 -0.709976,0.0201929 -0.982157,0.201043 -0.272165,0.180937 -0.476228,0.406744 -0.597157,0.571453 -0.120874,0.164591 -0.263764,0.473567 -0.263764,0.473567 0,0 0.195906,-0.157858 0.223035,-0.097122 -0.087248,0.0951378 -0.200524,0.225055 -0.238874,0.505366 -0.0382756,0.28022 -0.0860748,0.820094 -0.0860748,0.820094 0,0 0.133197,-0.266535 0.250697,-0.250118 -0.128941,0.269374 -0.0774528,0.7005 -0.0774528,0.7005 0,0 0.0829882,-0.0979488 0.146752,-0.0741535 -0.00307087,0.254602 0.292772,0.602661 0.372898,0.814453 0.0802008,0.211787 0.0366378,0.574134 0.0366378,0.574134 0,0 0.252075,-0.548559 0.0602559,-1.0357 0.0470157,0.0676811 0.146378,0.139374 0.194402,0.122134 -0.156535,-0.512756 0.0591614,-0.520094 0.110398,-1.22265 0.0230039,0.0762913 0.140917,0.184705 0.140917,0.184705 0,0 -0.117315,-0.285193 -0.0102165,-0.373382 0.104366,0.239949 0.28426,0.309846 0.28426,0.309846 0,0 -0.183575,-0.411496 -0.0320669,-0.516091 0.222591,0.0979803 0.167618,0.458949 0.167618,0.458949 0,0 0.419067,-0.0748071 0.461606,-0.514193 0.158827,0.236205 0.0269882,0.635024 0.0269882,0.635024 0,0 0.366642,-0.25913 0.431102,-0.699386 0.170614,0.185913 -0.114874,0.877587 -0.114874,0.877587 0,0 0.490276,-0.284453 0.56722,-0.933382 0.103594,0.0744252 0.0389488,0.477945 0.0389488,0.477945 0,0 0.180657,-0.106961 0.15139,-0.303409 0.112213,0.0985433 0.0641339,0.421256 0.0641339,0.421256 0,0 0.15672,-0.0799606 0.149815,-0.347244 0.169685,0.145626 -0.0353543,1.08578 -0.0353543,1.08578z"/>
  <path class="fil2" d="M3.57006 5.33919c0.351445,0 0.67076,-0.22415 0.908961,-0.560508 0.174543,-0.276921 0.34187,-0.627575 0.435992,-0.994028 0.0384803,-0.190709 0.172807,-0.913469 0.0257756,-1.03966 0.00690157,0.267283 -0.149819,0.347248 -0.149819,0.347248 0,0 0.0480827,-0.322713 -0.0641339,-0.42126 0.0292677,0.196457 -0.15139,0.303413 -0.15139,0.303413 0,0 0.0646457,-0.40352 -0.0389488,-0.477945 -0.0769409,0.648925 -0.567217,0.933386 -0.567217,0.933386 0,0 0.285488,-0.691677 0.114866,-0.877591 -0.0644567,0.440256 -0.431098,0.699386 -0.431098,0.699386 0,0 0.131839,-0.398819 -0.0269843,-0.635024 -0.0425433,0.439386 -0.461606,0.514193 -0.461606,0.514193 0,0 0.0549685,-0.360969 -0.167622,-0.458949 -0.151512,0.104591 0.0320669,0.516091 0.0320669,0.516091 0,0 -0.179898,-0.0698976 -0.28426,-0.309846 -0.107098,0.088189 0.0102126,0.373382 0.0102126,0.373382 0,0 -0.117909,-0.108413 -0.140913,-0.184705 -0.0512362,0.702555 -0.266933,0.70989 -0.110398,1.22265 -0.0480276,0.0172362 -0.147386,-0.0544488 -0.194398,-0.122134 0.0299213,0.0759882 0.0490394,0.153472 0.06,0.230134 0.0699803,0.181134 0.161043,0.341091 0.26965,0.47561 0.237988,0.294776 0.561709,0.466154 0.931264,0.466154z"/>
  <rect class="fil3" width="6.82666" height="6.82666"/>
 </g>
</svg>
